<svg xmlns="http://www.w3.org/2000/svg" viewBox="0 0 283.46 283.46" id="shoping-cart">
  <circle cx="234.95" cy="241.31" r="15.79" fill="#fff" stroke="#ff75d7" stroke-linecap="round" stroke-linejoin="round" stroke-width="7"></circle>
  <circle cx="234.99" cy="241.22" r="4.78" fill="#ff75d7"></circle>
  <circle cx="135.64" cy="252.99" r="15.79" fill="#fff" stroke="#ff75d7" stroke-linecap="round" stroke-linejoin="round" stroke-width="7"></circle>
  <circle cx="135.69" cy="252.8" r="5.56" fill="#ff75d7"></circle>
  <rect width="72.06" height="96.53" x="133.08" y="16.73" fill="#ffc47a" rx="10.38" ry="10.38" transform="rotate(-3.89 169.075 64.998)"></rect>
  <path fill="#fcbc77" d="M197.97,111.02l-11.5,.78-2.15-31.62c-1.88-27.64-25.81-48.52-53.45-46.64h0s-.29-4.28-.29-4.28c-.39-5.73,3.94-10.67,9.66-11.07l51.18-3.48c5.72-.39,10.67,3.94,11.06,9.66l5.14,75.6c.39,5.72-3.93,10.67-9.65,11.06Z"></path>
  <rect width="33.03" height="86.93" x="82.33" y="38.18" fill="#ffc47a" rx="16.52" ry="16.52" transform="rotate(-18.85 98.86 81.655)"></rect>
  <path fill="#fcbc77" d="M120.51,117.79c-.06-1.53-.34-3.05-.87-4.57l-17.42-51.01c-2.95-8.63-12.33-13.24-20.96-10.29-3.12,1.07-5.72,2.97-7.62,5.38-.01-.26-.02-.51-.02-.77,0-6.87,4.32-13.28,11.18-15.62,8.63-2.95,18.02,1.66,20.96,10.29l17.42,51.01c1.88,5.51,.68,11.33-2.68,15.58Z"></path>
  <rect width="33.03" height="86.93" x="198.01" y="26.26" fill="#b3fabe" rx="16.52" ry="16.52" transform="rotate(18.6 214.55 69.738)"></rect>
  <path fill="#acefb4" d="M238.78,49.85l-17.2,51.08c-1.9,5.66-6.58,9.61-12.02,10.85,2.95-1.95,5.3-4.87,6.51-8.49l17.19-51.08c2.92-8.64-1.73-18.02-10.38-20.92-1.75-.59-3.53-.87-5.28-.87-1.24,0-2.47,.14-3.65,.42,2.69-1.79,5.86-2.78,9.15-2.78,1.75,0,3.53,.28,5.28,.87,8.64,2.91,13.29,12.28,10.39,20.92Z"></path>
  <rect width="58.19" height="58.19" x="108.88" y="44.68" fill="#ff72d2" rx="12.12" ry="12.12" transform="rotate(9.67 137.991 73.817)"></rect>
  <path fill="#f967d0" d="M169.51,61.93l-5.71,33.47c-.72,4.17-3.49,7.48-7.1,9.06h0c4.5-26.39-13.25-51.44-39.64-55.93l-3.37-.57c2.5-4.16,7.37-6.57,12.44-5.72l33.46,5.71c6.6,1.13,11.04,7.39,9.92,13.98Z"></path>
  <path fill="none" stroke="#9592ff" stroke-linecap="round" stroke-miterlimit="10" stroke-width="7" d="M111.28,202.42h-11.71c-9.14,0-16.54,7.41-16.54,16.54h0c0,9.19,7.5,16.63,16.69,16.54l165.78-17.65"></path>
  <path fill="none" stroke="#ff75d7" stroke-linecap="round" stroke-miterlimit="10" stroke-width="7" d="M17.96,51.56h18.84c11.14,0,20.66,8.04,22.52,19.02l24.35,141.55"></path>
  <path fill="#9592ff" d="M58.16,86H234.09c16.86,0,30.53,13.67,30.53,30.53v67.67c0,9.73-7.34,17.89-17.02,18.92l-157.67,16.72c-5.31,.56-10.13-3.11-11-8.37l-20.77-125.47Z"></path>
  <path fill="#8b88ea" d="M264.62,116.53v67.67c0,8.28-5.32,15.44-12.88,18.01v-64.87c0-16.87-13.67-30.54-30.53-30.54H61.6l-3.44-20.8H234.09c16.87,0,30.53,13.66,30.53,30.53Z" opacity=".59"></path>
</svg>
