<svg xmlns="http://www.w3.org/2000/svg" viewBox="0 0 1024 1024" id="job"><path d="M953.9 825.4v-347c-4.7 4.6-9.8 9-15 13-4.8 3.7-9.8 7.1-15 10.3-17.1 10.4-36.1 17.5-56 20.6-26.8 4.1-54.5 2.5-81.6 2.5H594.7c-.7 0-1.4 0-2.1-.1v12.4c0 1.5.1 2.9 0 4.4-.4 8.1-6.4 14.1-14.5 14.5-14.3.7-28.8 0-43.2 0h-69.8c-6.1 0-12.2.1-18.3 0-9.1-.2-15.4-6.3-15.5-15.5-.1-5.2-.1-10.5-.1-15.7-.6.1-1.3.1-1.9.1H428c-27.2.4-54.5 0-81.7 0H224.8c-30 0-60.7 1.9-89.7-7.4-12.1-3.9-23.9-9.2-35-15.7-5.2-3.1-10.2-6.4-15-10-5.3-4-10.3-8.3-15-12.9v378.2c0 2.8-.1 5.6.1 8.4 2 26.4 23.5 46.8 50 47.2 6.5.1 12.9 0 19.4 0h763c29.2-.1 51.2-23.1 51.3-52v-35.3zm-.2-501.7v-34.4c-1.9-26.2-23.3-46.8-49.9-47.2H684.1v-74.7c0-15.2-4.3-29.6-15.3-40.6-10.3-10.4-24.2-15.2-38.7-15.3H399.4c-2.5 0-5-.1-7.4 0-28.7.6-51.3 23.3-52 52-.6 26.1-.3 52.4-.1 78.6H121.7c-13.4 0-25.9 4.6-35.8 13.8-9.6 9-14.7 21.3-15.5 34.2v69.4c0 3 0 5.9.2 8.9.1 2.1.3 4.1.5 6.2 0 .3.1.6.1.9.5 2.9.9 5.8 1.5 8.6 1.5 7 3.7 13.9 6.2 20.6 0 .1 0 .1.1.2 0 .1 0 .1.1.2.1.2.1.3.2.5.6 1.4 1.3 2.8 2 4.2 1.3 2.6 2.6 5.1 4 7.6.2.4.4.8.7 1.1 1.9 3.2 3.9 6.4 6.1 9.4.9 1.3 1.9 2.4 2.7 3.7l-.3-.6c.2.3.3.5.5.7 1.7 2.1 3.5 4.2 5.4 6.2 2.9 3.1 6 6.1 9.2 9 1.3 1.2 2.6 2.3 4 3.4.2.2.5.4.8.6 1.7 1.1 2.4 1.5 2.5 1.6-.1 0-.6-.4-1.3-.8 2.1 1.4 4.1 3 6.2 4.4 5.6 3.6 11.4 6.8 17.4 9.6 5.8 1.8 2.7 1.1.8.4.2.1.3.1.5.2 1.7.6 3.3 1.3 5 1.8 3.2 1.1 6.4 2.1 9.6 3 3.5.9 7 1.7 10.6 2.4l3.6.6c.7.1 1.4.1 2 .2 8.9.8 17.9.6 26.8.6h231.5c.7 0 1.4 0 2.1.1v-24.1c0-7-1-14.5 4.7-19.7 4.9-4.5 11.3-3.8 17.4-3.8h124.7c7.8.4 13.3 5.8 14.3 13.3.1.4.1.8.1 1.2v33.2c.7-.1 1.4-.1 2.1-.1h1.3c26.5-.5 53 0 79.4 0h164.8c4.3 0 8.5-.2 12.8-.6.8-.1 1.7-.2 2.5-.3 1-.2 2.1-.3 3.1-.5 3.5-.7 7.1-1.4 10.6-2.4 3.5-.9 6.9-2 10.3-3.2 1.6-.6 3.1-1.2 4.7-1.8 6.2-2.9 12.1-6 17.8-9.7 1.9-1.2 3.7-2.4 5.5-3.7.5-.4 2.1-1.6 2.8-2.1l.1-.1c.1-.1.3-.2.3-.3 1.4-1.1 2.7-2.3 4-3.4 3.2-2.8 6.2-5.8 9.2-9 1.9-2 3.7-4 5.4-6.2.1-.2.3-.3.4-.5.8-1.3 1.9-2.6 2.8-3.8 1.9-2.7 3.7-5.5 5.3-8.3.3-.6.7-1.2 1-1.7 1.5-2.7 3-5.4 4.3-8.2.6-1.3 1.3-2.7 1.9-4 2.5-6.6 4.7-13.3 6.2-20.3.5-2.2.9-4.5 1.3-6.7v-.5c0-.1 0-.2.1-.3.1-1 .3-2.3.4-3.1.2-1.8.3-3.7.4-5.5l.3-8.7v-19.8c-.2-5.9-.3-11.2-.3-16.6zM634.4 163.9c0 .1 0 .2.1.2v.1c.1.5.2.8 0 .3-.1.1-.3-.1-.4-.3.5 26 .3 52 .1 78H389.9v-77.9c-.3.4-.5.5-.6.4-.2.3-.2-.3-.1-1-.5.6-.8.7 0-.2 0-.4.1-.7.2-1.1h-.1.1c.1-.2.1-.5.2-.7-.7 0-.5-.2.1-.3.1-.5.3-.7.3-.1.2 0 .4-.1.7-.1v-.2.1c.4-.1.7-.1 1.1-.2.4-.4.6-.5.7-.6l-.6.6c.8-.1 1.4-.1 1.1.1.1.1 0 .3-.4.6h230.5c3 0 5.9-.1 8.9 0-.2-.1-.3-.1-.4-.2-.7-.4-.5-.5 0-.6-.3-.2-.2-.2.1 0h.4c-.4-.3-.6-.5-.7-.6 0 0 .3.2.8.6.4 0 .8.1 1.2.1.2 0 .3.1.5.1 0-.2 0-.3.1-.3 0 0 .1.1.1.3.9.2 1.3.4 0 .5v.5c.3.1.5.2.6.2-.1 0-.4 0-.6-.1v.1c.1.1.3.2.5.4-.1 0-.2-.1-.4-.2 0 .2.1.3.1.5.3.4.7.8 1 1-.3-.2-.6-.5-.9-.7v.7z" fill="#595bd4" class="color000000 svgShape"></path></svg>