<svg xmlns="http://www.w3.org/2000/svg" viewBox="0 0 30 30" id="Marketplace"><path d="M26.996 12.978A4.957 4.957 0 0124 14a4.957 4.957 0 01-3-1.019c-1.725 1.311-4.275 1.311-6 0-1.725 1.311-4.275 1.311-6 0A4.957 4.957 0 016 14a4.957 4.957 0 01-2.996-1.022c0 .008-.004.014-.004.022v13c0 1.654 1.346 3 3 3h5V18a1 1 0 011-1h6a1 1 0 011 1v11h5c1.654 0 3-1.346 3-3V13c0-.008-.004-.014-.004-.022zM6 12c.864 0 1.662-.369 2.247-1.038.38-.434 1.126-.434 1.506 0 1.17 1.338 3.324 1.338 4.494 0 .38-.434 1.126-.434 1.506 0 1.17 1.338 3.324 1.338 4.494 0 .38-.434 1.126-.434 1.506 0A2.955 2.955 0 0024 12c1.654 0 3-1.346 3-3H3c0 1.654 1.346 3 3 3zM8 1H4a1 1 0 00-.949.684L1.279 7H8V1zM10 1h4v6h-4zM22 7h6.721l-1.772-5.316A1 1 0 0026 1h-4v6zM16 1h4v6h-4z" fill="#595bd4" class="color000000 svgShape"></path></svg>