<svg xmlns="http://www.w3.org/2000/svg" fill="none" viewBox="0 0 24 24" id="marketplace"><path fill="#ea4335" d="M4 8.75C3.58579 8.75 3.25 9.08579 3.25 9.5V20.5C3.25 20.9142 3.58579 21.25 4 21.25H20C20.4142 21.25 20.75 20.9142 20.75 20.5V9.5C20.75 9.08579 20.4142 8.75 20 8.75H4Z" class="color4dc4ff svgShape"></path><path fill="#fbbc05" d="M4.5 2.75C4.16879 2.75 3.8768 2.96725 3.78163 3.28449L2.28163 8.28449C2.26066 8.3544 2.25 8.42701 2.25 8.5C2.25 10.5711 3.92893 12.25 6 12.25C7.2267 12.25 8.31583 11.661 9 10.7504C9.68417 11.661 10.7733 12.25 12 12.25C13.2267 12.25 14.3158 11.661 15 10.7504C15.6842 11.661 16.7733 12.25 18 12.25C20.0711 12.25 21.75 10.5711 21.75 8.5C21.75 8.42701 21.7393 8.3544 21.7184 8.28449L20.2184 3.28449C20.1232 2.96725 19.8312 2.75 19.5 2.75H4.5Z" class="color5e94ff svgShape"></path><path fill="#34a853" fill-rule="evenodd" d="M12 8.75V21.25H4C3.58579 21.25 3.25 20.9142 3.25 20.5V9.5C3.25 9.08579 3.58579 8.75 4 8.75H12Z" clip-rule="evenodd" class="color45b0e5 svgShape"></path><path fill="#4285f4" fill-rule="evenodd" d="M12 2.75V12.25C10.7733 12.25 9.68417 11.661 9 10.7504C8.31583 11.661 7.2267 12.25 6 12.25C3.92893 12.25 2.25 10.5711 2.25 8.5C2.25 8.42701 2.26066 8.3544 2.28163 8.28449L3.78163 3.28449C3.8768 2.96725 4.16879 2.75 4.5 2.75H12Z" clip-rule="evenodd" class="color5485e5 svgShape"></path></svg>