<svg xmlns="http://www.w3.org/2000/svg" viewBox="0 0 96 96" id="Marketing"><path fill="#595bd4" d="M24 56V24h-8a8 8 0 0 0-8 8v16a8 8 0 0 0 8 8zm-8 4a11.716 11.716 0 0 1-1.18-.12l3.2 22.403A2 2 0 0 0 20 84h6a2 2 0 0 0 1.98-2.283L24.878 60zm62.001-30a2.003 2.003 0 0 0 .893-.21l8-4a2 2 0 0 0-1.79-3.579l-8 4A2 2 0 0 0 78.002 30zM78 42h8a2 2 0 0 0 0-4h-8a2 2 0 0 0 0 4zm8.895 12.211-8-4a2 2 0 1 0-1.79 3.578l8 4a2 2 0 1 0 1.79-3.578zM66.943 12.237a1.998 1.998 0 0 0-2.053.1A65 65 0 0 1 28 23.94v32.145c12.542.433 26.796 4.85 36.89 11.58A2 2 0 0 0 68 66V14a2 2 0 0 0-1.057-1.763z" class="color646464 svgShape"></path></svg>