<svg xmlns="http://www.w3.org/2000/svg" width="6723.689" height="5000" enable-background="new 0 0 6723.689 5000" viewBox="0 0 6723.689 5000" id="female-interviewer-hiring-employee"><g><g><path fill="#d2c9c3" d="M469.712,4680.859h5784.268c46.213,0,83.677-37.238,83.677-83.174l0,0
			c0-45.935-37.464-83.172-83.677-83.172H469.712c-46.215,0-83.679,37.237-83.679,83.172l0,0
			C386.033,4643.621,423.497,4680.859,469.712,4680.859z"></path></g><g><g><g><g><g><path fill="#594b59" d="M4688.158,3790.5h106.518c8.403,0,15.216-6.813,15.216-15.216l0,0
							c0-8.405-6.813-15.218-15.216-15.218h-106.518c-8.404,0-15.217,6.813-15.217,15.218l0,0
							C4672.941,3783.688,4679.754,3790.5,4688.158,3790.5z"></path></g><g><rect width="201.418" height="22.539" x="4553.239" y="3718.582" fill="#594b59" transform="scale(-1) rotate(27.447 15274.368 -19058.25)"></rect></g><g><circle cx="4532.158" cy="4466.089" r="81.883" fill="#594b59"></circle></g><g><g><circle cx="5075.113" cy="4466.089" r="81.883" fill="#594b59"></circle></g><g><circle cx="3989.203" cy="4466.089" r="81.882" fill="#594b59"></circle></g></g><g><path fill="#594b59" d="M4321.339,3617.331h421.64c67.605,0,122.41-54.806,122.41-122.411l0,0h-666.46l0,0
							C4198.929,3562.525,4253.733,3617.331,4321.339,3617.331z"></path></g><g><rect width="197.819" height="60.945" x="4433.249" y="3617.331" fill="#594b59"></rect></g><g><rect width="82.31" height="220.437" x="4491.263" y="3678.276" fill="#7d6579"></rect></g><g><rect width="170.09" height="464.738" x="4447.113" y="3898.713" fill="#594b59"></rect></g><g><path fill="#7d6579" d="M3837.301,4447.156h1389.714l0,0c0-69.533-56.366-125.897-125.897-125.897H3963.199
							C3893.667,4321.259,3837.301,4377.623,3837.301,4447.156L3837.301,4447.156z"></path></g></g><g><g><path fill="#c1947c" d="M5080.205,3505.708c135.51,0,239.582-211.879,226.291-455.058
							c-19.74-361.169,5.219-816.135,82.203-1159.142c29.998-133.656-24.293-279.579-104.254-279.579l-935.566,41.477
							c-35.428,1.571-66.003,28.152-75.774,66.003c-117.815,456.418-81.433,1142.091-74.395,1786.299H5080.205L5080.205,3505.708z"></path></g><g><path fill="#d8bc93" d="M5294.239,1611.93L5294.239,1611.93c-94.228,350.536-125.606,877.305-125.606,1363.356
							c0,255.147-12.122,254.26-129.332,254.26h-324.584c-40.269,0-70.73,63.013-70.73,139.272l0,0
							c0,76.262,30.462,136.89,70.73,136.89h477.863l0,0l0,0c80.807,0,142.643-136.993,129.582-288.011
							c-36.688-424.252-17.856-939.565,67.393-1339.371C5416.733,1750.868,5366.822,1611.93,5294.239,1611.93z"></path></g><g><path fill="#c1947c" d="M3664.576,3225.09h979.41v280.618h-979.41c-67.74,0-69.967-64.137-69.967-141.158l0,0
							C3594.609,3287.528,3596.836,3225.09,3664.576,3225.09z"></path></g></g></g><g><path fill="#d35757" d="M4952.103,1010.833c-53.786,165.697-13.558,231.658,85.198,359.751
					c46.328,60.091,7.865,147.266-67.838,152.386c-137.18,9.278-314.003,36.027-443.478,20.321
					c-56.295-6.829-95.21-59.261-85.69-115.164c28.256-165.917,35.078-331.225,36.326-496.373L4952.103,1010.833z"></path></g><g><g><path fill="#eae4df" d="M4084.773,2202.93l-108.257-86.433l358.206-436.792
						c120.471-139.02,195.317-134.387,279.998-85.768l40.249,199.77l-451.739,398.248
						C4180.902,2217.815,4111.474,2224.248,4084.773,2202.93z"></path></g><g><path fill="#eae4df" d="M3740.545,1889.702l31.369-123.044l357.674,250.649l-0.641,199.521
						C3954.321,2206.363,3874.851,2058.067,3740.545,1889.702z"></path></g><g><g><path fill="#fff" d="M4857.536,1453.584l122.367,76.338c60.301,20.383,120.867,57.758,165.239,89.049
							c40.77,28.748,55.108,82.47,34.451,127.877l-196.478,431.92c-23.234,116.62-3.931,309.174-3.931,309.174l-523.992,69.204
							l23.67-230.655c-0.941-62.921-26.356-122.999-70.853-167.495l-57.999-58.001c-40.447-40.447-55.283-99.904-38.581-154.613
							l147.686-366.734C4490.338,1501.734,4857.536,1453.584,4857.536,1453.584z"></path></g><g><path fill="#eae4df" d="M4469.833,2414.49l322.69-120.624l7.475-118.094
							c10.928-172.644,125.268-321.496,289.258-376.564l69.023-5.502c-96.354,278.228-199.887,351.734-179.096,694.237
							l33.754,118.654l-557.744-49.451L4469.833,2414.49z"></path></g></g><g><g><path fill="#d2c9c3" d="M4591.313,1469.313c107.191-39.096,221.133-41.751,301.607-27.631l8.477,74.123
							l-153.272,45.344l-103.071,86.355l-40.574-87.244L4591.313,1469.313z"></path></g><g><g><path fill="#ffcbae" d="M4506.801,1025.391l383.407-34.016l-65.968,277.178
								c-9.174,66.628,19.063,154.006,62.566,205.298l-49.303,89.435l-64.403-23.062l-128.048,107.281l-32.563-72.522
								C4635.229,1447.078,4566.231,1241.885,4506.801,1025.391z"></path></g><g><path fill="#ffac92" d="M4746.087,1387.797c57.892-50.073,50.393-103.752,50.393-103.752l37.271-405.693
								l-229.271,522.324c2.364,13.863,5.031,28.338,7.605,48.915C4612.084,1449.59,4685.134,1440.518,4746.087,1387.797z"></path></g><g><path fill="#ffcbae" d="M4559.565,789.384c-89.686-1.405-144.512,120.542-118.449,221.45
								c4.22,16.342,1.112,16.428,5.829,40.987c0.42,2.189,0.9,4.638,1.426,7.282c7.314,36.767,7.426,74.512,2.059,111.612
								c-0.576,3.979-1.085,8.374-1.502,13.223c-2.43,28.26,27.53,121.841,48.955,184.307c11.431,33.328,47.29,51.48,80.869,40.812
								c69.282-22.012,176.556-60.454,198.926-93.622c33.616-49.842,44.164-89.612,51.293-153.724l53.315-134.688
								c12.13-96.142-52.574-232.5-149.469-234.02L4559.565,789.384z"></path></g><g><path fill="#d35757" d="M4435.457,981.601c48.632-190.407,222.509-135.303,222.509-135.303
								s137.645,112.391,123.001,166.276c-11.629,43.033-41.859,59.826-3.837,85.165c38.024,25.337,27.651-24.103,54.02-2.807
								c26.366,21.295,32.442,95.998,32.442,95.998c172.475-224.116,89.46-436.321-66.652-446.498
								C4529.051,726.968,4378.125,843.858,4435.457,981.601z"></path></g><g><path fill="#d35757" d="M4817.83,1143.932c-40.701-54.508-172.479-66.485-159.864-297.634l140.697,17.426
								C4867.611,955.881,4869.15,1044.052,4817.83,1143.932z"></path></g><g><path fill="#b54343" d="M4657.966,846.297l-86.16-55.104l-170.069,27.552c-14.163,129.643,3.824,150.8,39.38,192.088
								C4440.992,901.014,4539.687,812.979,4657.966,846.297z"></path></g><g><path fill="#d35757" d="M4657.966,846.297c-266.17-255.219-358.629,93.631-216.85,164.536
								C4376.671,868.716,4435.962,751.555,4657.966,846.297z"></path></g><g><g><path fill="#ffac92" d="M4826.709,1256.921c-10.623-6.48-15.93-16.977-14.612-30.825l20.804,6.072L4826.709,1256.921
									z"></path></g><g><g><path fill="#b54343" d="M4856.449,1067.551l-25.088,171.083c-5.504,19.765-8.962,32.14-8.82,52.832
										c39.811-24.813,71.617-90.838,77.49-137.754C4905.877,1107.012,4893.226,1066.618,4856.449,1067.551z"></path></g><g><path fill="#ffcbae" d="M4889.406,1100.875c0.086,0.321,0.168,0.645,0.251,0.968
										c5.295,20.972,1.755,43.905-6.968,62.303c-6.163,13-12.536,21.804-19.098,26.783c-5.91,4.48-10.695,11.182-13.002,19.871
										c-7.229,27.245-24.72,36.413-36.287,21.725l-0.137-0.356c-9.146-23.931-20.589-51.208-16.297-77.279
										c3.861-23.451,8.309-42.501,13.319-57.315C4825.05,1056.606,4878.049,1057.954,4889.406,1100.875z"></path></g><g><path fill="#ffac92" d="M4833.42,1204.97c-1.275,0.032-2.517-0.941-3.114-2.619l-0.715-1.992
										c-2.894-8.033-6.858-19.023-4.373-27.128c0.745-2.446,2.44-5.708,6.266-7.37c3.17-1.38,5.72-1.791,7.763-2.124
										c4.021-0.652,4.54-0.738,5.854-7.224c0.782-3.861-2.649-7.677-6.478-11.223c-1.107-1.021-1.855-1.713-2.403-2.538
										c0.164,0.303-0.068,0.14-0.346-0.046c-2.338-1.571-7.826-5.257-9.371-13.819c-1.531-8.487,1.194-18.868,8.326-31.731
										c5.331-9.64,11.538-14.514,18.693-14.252c14.702,0.375,26.863,22.761,27.377,23.714c1.092,2.045,0.781,4.878-0.698,6.343
										c-1.463,1.443-3.557,1.002-4.663-1.046c-0.104-0.198-10.699-19.642-22.044-19.909c-5.14-0.242-9.267,3.391-13.326,10.715
										c-7.193,12.981-7.882,20.285-7.191,24.127c0.728,4.026,3.246,6.017,5.764,7.708c0.987,0.665,1.77,1.187,2.393,2.152
										c0.147,0.153,0.607,0.561,1.169,1.08c3.701,3.427,11.402,10.551,9.232,21.278c-2.32,11.439-5.854,12.81-11.401,13.711
										c-1.854,0.299-3.962,0.642-6.54,1.762c-1.558,0.678-2.016,1.647-2.221,2.314c-1.315,4.309,2.13,13.875,4.197,19.588
										l0.735,2.049c0.808,2.276,0.12,4.984-1.538,6.049C4834.336,1204.821,4833.876,1204.958,4833.42,1204.97z"></path></g></g></g><g><g><path fill="#ffac92" d="M4571.792,1235.821l-27.001-23.973c-8.357-8.563-13.245-17.93-7.078-27.636l1.793-2.823
									c16.257-25.586,15.73-65.973,18.532-96.156c0,0-10.631-16.264-22.434-20.909c-6.551-2.578-35.263,80.707-35.263,80.707
									c26.282,0,42.535-0.2,21.762,27.364l-2.267,3.007c-7.904,10.488-18.641,36.646,5.392,44.067L4571.792,1235.821z"></path></g><g><g><g><path fill="#ffac92" d="M4704.89,1092.869c0,0-35.588,49.655-78.265,49.655c-30.438,0-30.869-83.7-30.869-102.873
											s85.272-10.521,85.272-10.521L4704.89,1092.869z"></path></g><g><ellipse cx="4634.898" cy="1119.276" fill="#5d2a21" rx="22.716" ry="25.283" transform="rotate(175.07 4634.898 1119.22)"></ellipse></g><g><path fill="#5d2a21" d="M4692.735,1105.191c-0.378,5.241-14.462-2.212-22.396-5.089
											c-16.904-5.026-19.946-5.064-30.432-5.47c-27.339-0.152-31.113,8.352-35.89,4.18c-5.528-4.825,19.046-18.048,56.39-15.365
											C4681.974,1084.998,4693.064,1100.592,4692.735,1105.191z"></path></g><g><path fill="#5d2a21" d="M4675.168,1087.114c17.973,5.792,27.749,6.155,38.055-6.341
											c-2.502,21.776-13.266,27.995-23.881,26.175L4675.168,1087.114z"></path></g></g><g><g><path fill="#ffac92" d="M4450.829,1029.129c-11.881,7.302,18.53,115.902,49.513,115.902
											c22.097,0,57.696-40.625,57.696-59.798c0-44.789-54.936-56.104-70.856-56.104
											C4471.262,1029.129,4464.354,1020.817,4450.829,1029.129z"></path></g><g><path fill="#5d2a21" d="M4520.909,1119.382c-0.828,13.915-9.856,24.235-20.166,23.049
											c-10.307-1.186-17.993-13.429-17.165-27.343c0.827-13.916,9.855-24.234,20.162-23.049
											C4514.05,1093.225,4521.736,1105.466,4520.909,1119.382z"></path></g><g><path fill="#5d2a21" d="M4465.703,1103.127c0.273,5.241,10.498-2.212,16.258-5.089
											c12.271-5.026,14.48-5.064,22.093-5.47c19.847-0.152,22.587,8.352,26.055,4.181c4.013-4.826-13.827-18.048-40.937-15.365
											C4473.515,1082.934,4465.463,1098.528,4465.703,1103.127z"></path></g><g><path fill="#5d2a21" d="M4478.456,1085.05c-13.048,5.793-20.146,6.156-27.627-6.34
											c1.817,21.777,9.631,27.996,17.337,26.175L4478.456,1085.05z"></path></g></g><g><g><path fill="#d06a5a" d="M4551.768,1298.146l-22.912,16.286c-2.67,1.898-2.999,5.739-0.689,8.063l0,0
											c12.642,12.721,31.09,18.242,48.467,13.807c46.192-11.792,71.065-48.76,73.384-70.148
											C4629.84,1269.467,4590.682,1315.866,4551.768,1298.146z"></path></g><g><path fill="#fff" d="M4537.765,1276.398l12.84,36.521c50.845,4.746,72.438-18.063,95.258-45.502
											L4537.765,1276.398z"></path></g><g><path fill="#d06a5a" d="M4650.017,1266.153c0,0-102.683,32.746-138.656,9.635
											c-1.449-0.931,0.986-2.171,3.927-1.782c17.121,2.267,9.337-12.865,20.613-12.969c8.367-0.077,8.526,10.193,16.895,9.825
											c8.365-0.366,6.696-11.164,15.062-11.77c17.102-1.242,26.355,15.269,78.108,5.215
											C4648.857,1263.746,4650.017,1266.153,4650.017,1266.153z"></path></g></g><g><path fill="#5d2a21" d="M4604.784,1039.651c31.258-10.214,64.729-11.172,99.751-5.637
										c7.65,1.21,15.688-4.52,16.068-11.389l0.076-1.368c0.238-4.362-2.791-8.009-7.545-9.022
										c-44.885-9.563-78.131-9.945-115.861,8.662c-2.901,1.431-5.23,3.777-6.461,6.386l-0.127,0.269
										C4586.751,1035.87,4594.994,1042.853,4604.784,1039.651z"></path></g><g><path fill="#5d2a21" d="M4527.981,1043.002c-25.152-7.781-52.81-6.422-82.224,1.347
										c-6.426,1.698-12.668-3.316-12.484-9.96l0.037-1.323c0.118-4.22,2.893-7.968,6.904-9.277
										c37.877-12.356,65.445-15,95.351,0.489c2.299,1.191,4.058,3.31,4.889,5.76l0.085,0.252
										C4543.195,1038.099,4535.859,1045.442,4527.981,1043.002z"></path></g></g></g></g><g><polygon fill="#eae4df" points="4538.273 1625.317 4604.479 1529.922 4646.451 1632.591 4757.373 1534.905 4837.504 1661.973 4757.373 1581.841 4645.053 1661.973 4596.273 1581.841"></polygon></g><g><path fill="#fff" d="M4757.373,1534.905c81.924-30.392,115.809-51.316,135.545-93.223l65.475,59.898
							l-120.889,160.393L4757.373,1534.905z"></path></g><g><polygon fill="#fff" points="4604.479 1529.922 4591.313 1469.313 4524.4 1524.436 4538.273 1625.317"></polygon></g></g><g><g><path fill="#fff" d="M5015.896,2459.518l-177.791-64.004l69.495-570.816l280.4-106.854l-120.808,678.783
							C5058.28,2429.351,5047.616,2471.517,5015.896,2459.518z"></path></g><g><path fill="#fff" d="M4614.893,2518.942l-83.109-99.058l392.723-89.377l114.273,127.131
							C5011.601,2477.47,4781.961,2498.372,4614.893,2518.942z"></path></g><g><path fill="#ffcbae" d="M4531.783,2419.885l-90.682,15.141l-143.67-29.083c-32.277-5.215-66.584,4.432-88.508,24.886
							l-105.93,98.821c64.35,2.103,167.557-6.469,218.896-19.964c81.141,10.103,121.34,49.517,163.846,22.181l129.158-12.924
							L4531.783,2419.885z"></path></g></g><g><g><g><path fill="#ffac92" d="M3839.008,4084.251l185.922,395.246c17.719,31.996,83.327,37.893,84.557,1.462
								l-12.938-273.895c1.631-48.369,11.543-126.313-36.865-133.953l-75.614-22.841l-15.611-114.398L3839.008,4084.251z"></path></g><g><path fill="#ffac92" d="M4984.152,2935.929c-6.966-187.093-87.004-236.561-203.032-377.109l-259.337,18.795
								c0,0-10.951,97.467-5.389,161.431L3442.918,2909.24c-38.864,8.826-61.114,47.458-71.833,92.427
								c-14.674,61.567-4.63,126.401,23.41,183.306l449.333,911.935l124.63-161.035l-72.687-293.183
								c-16.751-137.449-155.911-448.283-155.911-448.283s556.783,11.528,786.047-7.25
								C4755.17,3168.376,4980.242,3136.791,4984.152,2935.929z"></path></g><g><path fill="#8e2525" d="M4128.291,4151.322l81.111-11.841l6.611-23.695l-139.55-48.298l0.006,0.006
								c-7.591-3.543-15.775-6.111-24.43-7.477l-71.232-11.242c117.294,60.994,123.163,349.412,36.005,414.748l36.082,146.595
								c0,0,116.113-1.417,120.818-140.896l4.752-55.551c6.598-77.102-9.647-154.516-46.745-222.709
								C4118.231,4166.166,4112.448,4155.25,4128.291,4151.322z"></path></g></g><g><path fill="#ffcbae" d="M4085.771,4108.777l223.54,380.393c20.751,30.534,86.625,30.113,84.3-6.729l-39.55-274.845
							c-3.088-48.918-0.815-128.453-49.737-131.457l-77.485-15.689l-26.678-113.806L4085.771,4108.777z"></path></g><g><path fill="#ffcbae" d="M5113.691,2840.103c-25.155-187.925-94.758-178.484-223.935-308.911
							c-128.077,74.685-263.692,77.048-434.562,25.955c0,0,7.844,81.456,19.609,145.395l-897.699,260.186
							c-37.822,12.666-56.206,53.771-62.494,100.14c-8.609,63.486,7.705,127.869,41.151,182.511l536.036,875.689l108.361-174.423
							l-100.898-288.491c-30.058-136.935-198.839-436.771-198.839-436.771s569.479,42.088,795.836,0.914
							C4922.615,3181.123,5129.361,3042.962,5113.691,2840.103z"></path></g><g><path fill="#aa3535" d="M4380.225,4148.322l79.575-19.805l4.273-24.528l-143.598-35.147l0.006,0.006
							c-7.899-2.836-16.296-4.631-25.043-5.166l-71.991-4.422c122.682,50.105,156.613,340.275,76.228,414.596l50.19,144.275
							c0,0,115.43-12.695,106.527-153.754l-0.681-56.459c-0.942-78.361-24.65-154.824-68.215-219.967
							C4371.657,4164.262,4364.837,4153.818,4380.225,4148.322z"></path></g><g><path fill="#403851" d="M5113.691,2840.103c-25.155-187.925-76.367-150.701-134.508-352.159
							c-161.988,75.894-328.01,91.127-523.988,69.203c0,0-14.098,104.172-74.182,164.257c0,0-919.566,179.529-931.95,186.863
							c0,0,347.259,20.156,451.359,313.114c0,0,542.497,49.428,768.853,8.254
							C4895.632,3188.463,5130.838,3111.789,5113.691,2840.103z"></path></g></g></g></g><g><g><path fill="#d2c9c3" d="M3068.724,1956.688h860.278c24.057,0,45.426,13.928,53.096,34.603l211.637,516.253
					c3.687,9.938-4.467,20.224-16.027,20.224h-860.279c-24.056,0-45.425-13.927-53.095-34.603l-234.929-494.888
					C3020.317,1973.101,3028.507,1956.688,3068.724,1956.688z"></path></g><g><path fill="#d2c9c3" d="M4653.033,2515.311c-0.273-0.648-0.703-1.184-1.073-1.783c-2.331-4.236-6.246-7.317-13.306-7.317
					H3314.512c-8.555,0-15.491,6.322-15.491,14.122v0.161c0,2.704,1.056,5.086,2.501,7.233l-2.501,0.039
					c-8.607,0-15.582,6.359-15.582,14.203s6.974,14.203,15.582,14.203h1339.543c8.606,0,15.581-6.359,15.581-14.203
					C4654.146,2537.037,4656.603,2524.184,4653.033,2515.311z"></path></g><g><path fill="#d2c9c3" d="M4039.248,2527.767h-48.225h-707.584c-24.054,0-45.426-12.794-53.096-31.789l-193.257-478.671
					L4039.248,2527.767z"></path></g><g><path fill="#fff" d="M3029.404,1998.276c-3.687-9.131,4.464-18.58,16.027-18.58h860.278
					c24.055,0,45.426,12.796,53.094,31.789l200.942,497.701c3.687,9.131-4.467,18.58-16.027,18.58h-104.471l-1002.161-510.46
					L3029.404,1998.276z"></path></g><g><path fill="#d2c9c3" d="M3471.059,2285.312c10.611,34.91,49.259,56.874,86.322,49.054
					c37.063-7.817,58.507-42.458,47.895-77.367c-10.611-34.91-49.258-56.874-86.321-49.056
					C3481.891,2215.762,3460.447,2250.402,3471.059,2285.312z"></path></g></g></g><g><g><g><polygon fill="#da8b85" points="5521.033 2885.449 5694.939 4597.691 5736.389 4597.691 5627.602 2829.887"></polygon></g><g><polygon fill="#a75b5a" points="5617.813 2670.833 5499.236 2670.833 5521.033 2885.449 5627.602 2829.887"></polygon></g><g><polygon fill="#a75b5a" points="4906.971 2670.833 4872.969 3223.345 4974.822 3170.238 5025.545 2670.833"></polygon></g><g><polygon fill="#da8b85" points="4788.395 4597.691 4829.842 4597.691 4974.822 3170.238 4872.969 3223.345"></polygon></g></g><g><g><polygon fill="#da8b85" points="1898.862 2885.449 2072.771 4554.916 2114.218 4554.916 2005.431 2829.887"></polygon></g><g><polygon fill="#a75b5a" points="1995.642 2670.833 1877.068 2670.833 1898.862 2885.449 2005.431 2829.887"></polygon></g><g><polygon fill="#a75b5a" points="1284.799 2670.833 1250.798 3223.345 1352.651 3170.238 1403.375 2670.833"></polygon></g><g><polygon fill="#da8b85" points="1166.224 4543.32 1207.672 4543.32 1352.651 3170.238 1250.798 3223.345"></polygon></g></g><g><rect width="5101.441" height="64.69" x="844.641" y="2544.971" fill="#a75b5a"></rect></g><g><rect width="1327.686" height="64.689" x="4616.484" y="2544.97" fill="#da8b85"></rect></g><g><rect width="4337.454" height="78.964" x="1284.097" y="2609.661" fill="#a75b5a"></rect></g></g><g><polygon fill="#d2c9c3" points="2079.413 4572.51 2160.302 4572.51 2038.968 3322.939 1870.448 3322.939"></polygon><g><g><g><g><path fill="#ffd6bb" d="M2423.81,945.667l-12.079,31.077c-7.666,19.722-9.798,41.164-6.167,62.009l7.542,43.299
							c3.6,20.668,3.328,41.825-0.799,62.394c-34.666,44.875-38.304,133.604-50.079,167.24
							c-29.379,57.48-83.109,29.916-146.949,39.484c-4.056,0.608-8.074,1.071-12.022,1.362
							c-147.793,10.893-229.555,23.894-240.503-124.65l-65.544-448.827l418.343-102.511l98.541,160.829
							C2434.065,869.972,2437.661,910.032,2423.81,945.667z"></path></g><g><path fill="#ffd6bb" d="M2148.257,1519.889l103.741-89.623l26.615-332.863l-320.691,97.392l-51.854,228.983
							C1916.823,1491.884,2081.29,1536.298,2148.257,1519.889z"></path></g><g><path fill="#ffcbae" d="M2148.257,1519.889l103.74-89.623c-117.759-26.116-173.083-98.449-188.698-200.175
							l-105.378-35.296l-51.854,228.983C1916.823,1491.884,2081.29,1536.298,2148.257,1519.889z"></path></g><g><path fill="#fff" d="M1807.975,1406.406l78.242-91.974c163.8-3.291,267.328,17.904,399.65,70.875l39.659,131.25
							L1807.975,1406.406z"></path></g><g><path fill="#5e3f32" d="M2011.049,944.49c-55.535-6.391-110.459-17.317-164.769-32.782
							c-2.835-85.502,27.209-173.149,86.135-234.34c-24.451-11.449-33.06-25.179-33.06-42.745
							c26.928,14.808,36.408,12.466,44.347,10.355c-11.198-16.074-13.466-24.592-1.895-64.12
							c7.957,22.089,20.102,40.009,68.729,40.357c9.352-4.358,18.973-8.349,29.059-11.64c38.929-9.427,76.588-6.55,113.557,1.593
							C1988.943,673.047,1985.287,803.724,2011.049,944.49z"></path></g><g><path fill="#5e3f32" d="M2011.049,944.49c17.686,96.644,49.235,198.041,52.227,285.201
							c-54.152-6.14-112.433-22.606-126.727-64.153l-55.158-119.691c-22.231-40.897-33.554-87.2-35.111-134.138
							C1900.59,927.173,1955.514,938.1,2011.049,944.49z"></path></g><g><path fill="#6d4b3c" d="M2392.637,924.072c-9.168,40.691-7.458,98.151-20.036,133.298
							c-7.458,20.843-36.979,20.586-44.172-0.349l-1.725-5.019c-27.159-7.572-26.468-38.459-36.152-11.977l-51.909,141.95
							c-11.208,30.654-40.743,50.721-73.371,49.853c0,0-49.021,3.872-101.995-2.137c-2.992-87.16-34.541-188.558-52.227-285.201
							C2135.398,958.798,2262.731,950.966,2392.637,924.072z"></path></g><g><path fill="#6d4b3c" d="M2011.049,944.49c-25.762-140.767-22.106-271.443,142.103-333.321
							c33.447,7.366,170.388,37.794,211.562-23.293c19.824,24.924-3.138,58.655-24.324,69.564
							c43.173,0.17,68.22-14.094,91.735-56.814c13.685,13.684,13.73,71.472-34.498,95.851c34.498,1.93,71.481-2.271,98.237-48.291
							c15.507,28.358-0.274,103.049-68.939,137.668c5.2,52.7-11.943,60.939-31.926,128.287c-0.92,3.105-1.607,6.574-2.363,9.932
							C2262.731,950.966,2135.398,958.798,2011.049,944.49z"></path></g><g><path fill="#ffcbae" d="M2322.271,978.682c-41.628,52.86-38.411,116.692-21.859,178.848
							c7.367,27.666,51.354,19.225,43.914-8.716c-13.557-50.91-19.561-101.094,14.841-144.779
							C2377.036,981.343,2340.015,956.149,2322.271,978.682L2322.271,978.682z"></path></g></g><g><path fill="#594b59" d="M2378.011,1528.688l11.38-15.428c-13.242-29.042-46.158-65.325-126.344-93.632
						c-116.951-41.149-219.383-70.216-419.864-61.277c-74.806,11.524-112.188,29.067-145.754,63.12
						C1792.063,1370.747,2180.201,1457.391,2378.011,1528.688z"></path></g><g><path fill="#e5dad3" d="M2047.758,4358.242c47.741-64.742,75.434-222.442,62.739-364.115l201.649,66.666
						l-44.389,232.707c41.427,69.902,3.608,134.051,68.804,180.195l23.211,58.596h-115.066
						C2165.982,4458.97,1990.794,4472.283,2047.758,4358.242z"></path></g><g><path fill="#443744" d="M1623.977,2684.941l-9.94,242.41c0,221.066,202.186,291.77,399.698,271.972
						c51.398-5.152,93.934,41.152,93.385,92.808c-1.242,117.32-2.196,317.013,3.802,429.961l-56.898,472.635l361.496,25.162
						l137.264-1072.084c19.335-118.369-73.244-243.054-192.818-298.086l-206.4-120.66l198.384-14.406
						c0,0-110.273-159.743-98.535-275.08L1623.977,2684.941z"></path></g><g><g><path fill="#594b59" d="M2067.064,4319.895c-41.513,74.729-48.743,122.771-44.609,208.789
							c42.791,69.008,310.098,19.658,530.435,19.658c-9.249-101.564-27.241-130.856-137.127-120.85
							c-81.705,7.439-76.651-124.73-148.006-133.992C2319.156,4407.463,2051.708,4417.854,2067.064,4319.895z"></path></g><g><path fill="#443744" d="M2586.87,4572.12l-98.541,11.296l-465.873-12.98v-41.752l363.133,3.607
							c0,0,161.118,6.447,184.884-22.082L2586.87,4572.12z"></path></g></g><g><path fill="#e5dad3" d="M2508.805,4302.762l46.541-55.961l52.5-186.008l192.647,34.143l-72.918,207.826
						c67.438,70.477,36.648,116.537,141.93,163.563l52.079,69.774l-157.782-3.477
						C2636.438,4458.229,2451.912,4449.89,2508.805,4302.762z"></path></g><g><path fill="#594b59" d="M2384.312,2713.032l646.588,102.537c135.852,31.804,175.431,197.347,137.938,331.739
						l-268.811,1072.58l-338.621-61.524l68.564-437.802c12.08-185.761,55.001-368.216,127.001-539.883l-10.752,26.381
						c-279.844,71.061-1094.503-59.256-646.332-507.43L2384.312,2713.032z"></path></g><g><g><path fill="#594b59" d="M2508.805,4302.762c-35.837,39.903-64.82,123.645-64.82,223.084
							c356.51,0,477.048,75.02,713.021,0c0-101.178-7.253-35.747-145.536-35.747c-131.98,0-216.015-122.929-283.896-187.337
							C2616.474,4391.934,2519.094,4404.846,2508.805,4302.762z"></path></g><g><path fill="#443744" d="M2469.91,4583.314c347.692,1.338,493.246,28.98,662.731,3.896
							c13.934-2.062,24.363-13.85,24.363-27.935v-33.432c-183.923,44.066-435.764,0-713.021,0v31.439
							C2443.982,4571.608,2455.584,4583.26,2469.91,4583.314z"></path></g></g><g><path fill="#725a72" d="M2482.572,2732.943c-49.52-293.371-44.277-397.102,26.263-818.372
						c0,0-56.28-253.257-25.101-336.33c-167.93-140.435-443.135-201.934-626.384-189.65
						c-289.601,14.172-362.048,193-362.048,356.709c0,127.44,81.747,989.717,118.734,1182.051
						C1910.412,3056.226,2205.002,2930.692,2482.572,2732.943z"></path></g><g><path fill="#594b59" d="M2337.318,2089.006l137.545,40.09c-20.693,114.163-9.697,382.649-10.176,501.881
						C2389.332,2485.935,2332.378,2288.346,2337.318,2089.006z"></path></g></g><g><g><path fill="#ffcbae" d="M3655.356,1809.54l85.188,59.724l31.369-123.044l-59.612-51.099
						c0,0-86.909-95.178-103.245-107.635l-63.725,49.6L3655.356,1809.54z"></path></g><g><path fill="#ffd6bb" d="M3353.094,1654.011c54.546-54.26,54.546-79.984,136.14-103.167
						c41.335-13.015,59.407,6.724,60.702,29.176l13.758,57.065c23.293,93.008,95.45,62.783,117.121,150.507
						c8.464,30.688-3.884,47.717-28.856,62.057l-88.264,35.03c-50.071,28.752-81.034-25.395-136.771-40.469l-90.609-24.507
						l-178.714,32.042l47.691-148.928L3353.094,1654.011z"></path></g><g><path fill="#ffcbae" d="M3612.352,1613.092l-3.295-25.607c-24.6-6.654-31.855-13.922-73.691,12.754l-80.877,34.97
						c-10.177,10.936,11.72,38.726,107.54-5.031l50.323,6.387V1613.092z"></path></g><g><path fill="#ffcbae" d="M3334.216,1818.36l61.263-39.243c38.852-13.761,154.556,48.426,149.854,67.821l-39.707,41.154
						C3445.992,1890.968,3366.153,1874.409,3334.216,1818.36z"></path></g></g><g><g><path fill="#fff" d="M3076.373,1748.474l195.327-94.463c58.253,42.291,46.942,159.007,22.173,208.936l-191.104,79.01
						L3076.373,1748.474z"></path></g><g><path fill="#725a72" d="M3205.292,1674.914l-394.123,147.225l-327.435-243.897l-206.248,530.212l456.255,59.821
						c48.133,6.311,97.031-2.69,139.761-25.727l327.46-176.534C3298.771,1909.462,3251.3,1695.285,3205.292,1674.914z"></path></g></g></g><polygon fill="#e5dad3" points="2834.383 4596.952 2915.272 4596.952 2793.938 3322.939 2625.418 3322.939"></polygon><polygon fill="#d2c9c3" points="980.661 4572.51 899.771 4572.51 1364.887 3322.939 1533.407 3322.939"></polygon><polygon fill="#e5dad3" points="1735.631 4596.952 1654.742 4596.952 2119.857 3322.939 2288.377 3322.939"></polygon><path fill="#d2c9c3" d="M2798.348,3383.607h-1433.46c-26.06,0-47.186-21.126-47.186-47.186l0,0
			c0-26.061,21.125-47.186,47.186-47.186h1433.46c26.06,0,47.186,21.125,47.186,47.186l0,0
			C2845.533,3362.481,2824.408,3383.607,2798.348,3383.607z"></path><g><path fill="#c1947c" d="M2056.246,3333.879L1951.289,2062.11c-4.905-59.446-54.583-105.193-114.231-105.193h-699.39
				c-67.021,0-119.744,57.253-114.232,124.049l115.156,1147.72c4.906,59.445,54.583,105.193,114.232,105.193h793.836H2056.246z"></path></g><g><path fill="#d8bc93" d="M2929.156,3097.213h-946.661c-65.353,0-118.333,54.48-118.333,121.688l0,0
				c0,67.207,52.98,121.688,118.333,121.688h946.661c65.354,0,118.333-54.48,118.333-121.688l0,0
				C3047.489,3151.693,2994.51,3097.213,2929.156,3097.213z"></path></g><g><path fill="#d8bc93" d="M1991.311,3340.589L1991.311,3340.589c79.612,0,141.853-68.683,134.039-147.911l-108.771-1102.714
				c-6.799-68.93-63.923-133.046-133.191-133.046l0,0c-79.612,0-142.7,80.262-134.884,159.491l108.77,1102.713
				C1864.073,3288.052,1922.046,3340.589,1991.311,3340.589z"></path></g></g></g></svg>