<svg xmlns="http://www.w3.org/2000/svg" data-name="Layer 1" viewBox="0 0 1500 1200" id="software-engineer"><g data-name="mat 1"><path fill="#a7cce6" d="M1298.72 891.1c0 66.39-69.11 126.12-179.24 167.56-19.36 7.3-40 14-61.74 20.1a973 973 0 0 1-107.21 23.36q-27.28 4.44-55.91 7.67a1297.6 1297.6 0 0 1-144.62 8q-10.37 0-20.65-.16h-2.52q-17.49-.29-34.71-1c-70.38-3-136.78-11.59-196.67-24.58q-17.44-3.76-34.13-8c-44.85-11.49-85.39-25.56-120.4-41.72a441.81 441.81 0 0 1-51.8-28c-55.57-35.44-87.83-77.69-87.83-123 0-60.79 57.93-116 152.23-156.69 17.84-7.69 37-14.88 57.3-21.49 38.37-12.47 80.87-22.88 126.52-30.81q31.57-5.49 65.06-9.36a1293.53 1293.53 0 0 1 147.6-8.53q21.25 0 42.15.66c3.56.12 7.1.24 10.65.38q19.17.75 38 2c6.15.42 12.29.89 18.38 1.4a1153.63 1153.63 0 0 1 129.21 17.95q31.08 6.21 59.87 13.93a735.64 735.64 0 0 1 88 29.27 517.12 517.12 0 0 1 48.75 22.8c71.28 38.3 113.71 86.23 113.71 138.26Z" opacity=".6"></path><path fill="#fff" d="M602.39 672.75c-7.14 94.53-23.3 262.68-51.2 327.47-15 34.93-35.77 66.26-55.74 91.7q-17.44-3.76-34.13-8c25.41-67.28 58.07-158.74 58.07-184.39 0-28.35 10.89-144.8 18-217.38q31.52-5.53 65-9.4ZM859.13 668.94c-13.39 36.83-83.59 229.4-100.52 264.76-10.55 22-21.67 110.57-29.39 183.88h-2.39q-17.51-.3-34.72-1.1c-5.3-32.14-8.61-68.72-6.44-105.61 4.64-79 71.61-257.4 106.48-345.72 3.56.12 7.1.24 10.65.38q19.17.75 38 2c6.1.47 12.2.9 18.33 1.41ZM1184.93 752.89c-24.51 48.17-53.21 116.89-53.21 174.58 0 41.37-5.37 88.38-12.24 131.19l-61.74 20.1c8.45-83.7 25.31-230.75 42.17-260.41 9.73-17.14 23.45-52.46 36.27-88.26a517.12 517.12 0 0 1 48.75 22.8ZM1048.21 700.82c-23.93 40.91-75.54 138.09-75.54 215.46 0 60.09-11.32 132.14-22.14 185.84l-55.91 7.67c5.54-60 25.89-266.84 46.24-302.64 12.67-22.29 32.07-75.38 47.48-120.26q31.08 6.21 59.87 13.93ZM410.81 712.92c-13.5 74.47-43.67 207-50.48 228.54-4.07 12.91-12.33 58.93-19.42 100.7a441.81 441.81 0 0 1-51.8-28 154.89 154.89 0 0 1 7.6-30.72c17.78-50 44.39-184 56.8-249 17.84-7.72 37-14.91 57.3-21.52Z"></path></g><g data-name="man 1"><path fill="#fcbe7a" d="m984.11 538.17-51.63 12.91v-77.44s88.91-25.81 103.25-25.81 12.91 38.72 13.63 52.34-65.25 38-65.25 38Z"></path><path fill="#f9cea0" d="M935.56 483.36s88.91-25.81 103.25-25.81c3.52 0 6.09 2.34 8 6.07-1.79-8.94-5-15.79-11.06-15.79-14.34 0-103.25 25.81-103.25 25.81v77.44l3.08-.77Z" opacity=".32"></path><g data-name="man 2"><path fill="#ced0dd" d="M918.44 990.82c-.19 2.83-.37 5.66-.56 8.48a10.43 10.43 0 0 1-10.22 9.76l-97.28 1.19H810a10.43 10.43 0 0 1-10.14-10.4v-.31a10.44 10.44 0 0 1 9.4-10.1l97.74-9.67a10.44 10.44 0 0 1 11.44 11.05Z"></path><path fill="#a4aaba" d="m915.47 1009.78-9.6.12-97.28 1.19h-.43a10.42 10.42 0 0 1-10.13-10.4l113.75-8.54 2.7 12.92Z"></path><path fill="#8c8da1" d="M829.12 1009.88a20.49 20.49 0 1 1-19.93-21 20.5 20.5 0 0 1 19.93 21Z"></path><path fill="#a4aaba" d="M915.8 830.81h26.57v157.86H915.8z" transform="rotate(1.56 931.097 911.883)"></path><path fill="#ced0dd" d="M840.67 905.68h157.86v7.59H840.67z" transform="rotate(-88.44 919.538 909.482)"></path><path fill="#cb784e" d="M1137.28 554.71q-40.1 130.29-80.17 260.55-2.7 8.76-5.39 17.53a15.18 15.18 0 0 1-13.51 10.68l-170.27 11.36a15.19 15.19 0 0 1-15.8-11.74l-31.52-136.6a15.18 15.18 0 0 1 14.79-18.59h125.74a15.15 15.15 0 0 0 13.11-7.53 12.55 12.55 0 0 0 .86-1.72q37.83-89.19 75.67-178.38l7.5-17.68a15.18 15.18 0 0 1 25.71-3.69l23.8 29.1 26.72 32.65a15.23 15.23 0 0 1 2.76 14.06Z"></path><path fill="#bf6c47" d="M1137.28 554.71q-40.1 130.29-80.17 260.55c-12 .29-20.82.29-20.82.29s-39.76-23.86-47.72-63.62c-3.81-19.09-9.47-47.34-14.31-71.56a12.55 12.55 0 0 0 .86-1.72q37.83-89.19 75.67-178.38l57 7.71 26.72 32.65a15.23 15.23 0 0 1 2.77 14.08Z"></path><g opacity=".38"><path fill="#e89179" d="M1134.52 540.63 1084 478.9a15 15 0 0 0-10.3-5.5l10.29 32 31.81 39.77q-43.74 131.21-87.47 262.43l-182.91 7.95q3.36 13.77 6.71 27.54a15.19 15.19 0 0 0 15.8 11.74l170.27-11.36a15.16 15.16 0 0 0 13.5-10.68q42.78-139 85.57-278.08a15.23 15.23 0 0 0-2.75-14.08Z"></path></g><path fill="#ced0dd" d="M1057.8 1006.58c-.16 5.78-5.29 10.29-11.39 10.12h-.45l-103.48-6.7a10.78 10.78 0 0 1-10.33-10.32c0-2.84-.07-5.67-.11-8.51a10.09 10.09 0 0 1 3.63-7.8 11.51 11.51 0 0 1 9.17-2.58L1048.37 996a10.79 10.79 0 0 1 9.35 9.11 9.31 9.31 0 0 1 .08 1.47Z"></path><path fill="#a4aaba" d="M1055.6 999.9a10.43 10.43 0 0 1-8.14 3.57h-.42L950 997a10.45 10.45 0 0 1-9.57-9 10.45 10.45 0 0 0-.55 3.43l.09 8.52a10.41 10.41 0 0 0 9.67 10.29l97.08 6.5h.42a10.43 10.43 0 0 0 10.7-10.14 10.62 10.62 0 0 0-.07-1.5 10.3 10.3 0 0 0-2.17-5.2Z"></path><circle cx="1041.98" cy="1015.72" r="20.49" fill="#8c8da1" transform="rotate(-43.44 1041.866 1015.675)"></circle><path fill="#ced0dd" d="M911.59 983.44 907.17 995a11.14 11.14 0 0 0 .9 9.78l30 49.3a11.15 11.15 0 0 0 19.94-1.83 11.11 11.11 0 0 0 .29-7.09l-16.74-57.48a11.14 11.14 0 0 0-6.73-7.29L926 977a11.14 11.14 0 0 0-14.41 6.44Z"></path><circle cx="949.52" cy="1067.79" r="20.49" fill="#8c8da1" transform="rotate(-4.8 949.993 1068.285)"></circle><path fill="#a4aaba" d="M960.87 1072.41a13.66 13.66 0 1 1-7.9-17.64 13.67 13.67 0 0 1 7.9 17.64Z"></path><path fill="#fea793" d="M677.65 1083.12c-2.62 5.81-11.3 8.87-45.24 10.51-49.71 2.4-55.1-3-56.62-6.27-2-4.36-.1-9.12 0-9.38 4.13-10 20.33-6.12 36.4-18.79a38.56 38.56 0 0 0 9.1-9.4c.5-.75 1-1.52 1.38-2.3 11.66-21.07-1.93-48 7.72-54 1.36-.85 4-1.8 9.09 0l35.39 6.25a49.48 49.48 0 0 0-8.08 12.53c-1.18 2.64-9.45 22-.43 39.5.43.83.86 1.59 1.3 2.32 3.87 6.31 8.3 9.58 10 18.61.78 4.15 1.34 7.35-.01 10.42Z"></path><path fill="#4c5fb8" d="M677.65 1083.12c-2.62 5.82-11.3 8.87-45.25 10.51-49.69 2.39-55.09-3-56.61-6.27-2-4.36-.1-9.12 0-9.38 3.49-8.43 15.61-7 29-14 1.1-.56 2.19-1.19 3.3-1.88h.07c1.34-.86 2.7-1.81 4.05-2.87.89-.7 2-1.53 3.11-2.56.7-.62 1.43-1.31 2.17-2.07a32.51 32.51 0 0 0 3.82-4.77c.5-.76 1-1.53 1.38-2.3 5.12-1 9.81-.53 9.81 4.23v10.47l35.19-8.16c3.86 6.32 8.28 9.59 10 18.62.76 4.16 1.31 7.36-.04 10.43Z"></path><path fill="#445699" d="M677.65 1075.17c-2.62 5.81-11.3 8.87-45.24 10.51-49.71 2.39-55.1-3-56.62-6.27-.1-.22-.18-.44-.26-.66a12.52 12.52 0 0 0 .26 8.61c1.52 3.31 6.91 8.67 56.62 6.27 33.94-1.64 42.62-4.7 45.24-10.51 1.19-2.65.92-5.39.31-8.79a7.13 7.13 0 0 1-.31.84Z"></path><path fill="#fea793" d="M709.63 1129.07c-2.63 5.81-11.31 8.87-45.25 10.51-49.7 2.39-55.1-3-56.61-6.27-2-4.36-.1-9.13 0-9.38 4.12-10 20.32-6.12 36.4-18.8a38.11 38.11 0 0 0 9.09-9.39 25 25 0 0 0 1.38-2.3c11.66-21.08-1.93-48 7.72-54 1.37-.85 4-1.81 9.1 0l35.38 6.25a49.57 49.57 0 0 0-8.08 12.53c-1.18 2.64-9.45 22-.43 39.5.43.82.87 1.59 1.31 2.31 3.86 6.32 8.29 9.59 10 18.62.78 4.15 1.36 7.35-.01 10.42Z"></path><path fill="#f4dcc1" d="M969.77 693.05s12.9 37.28-25.81 51.62-142 12.91-142 12.91S723.12 911 724.55 925.36s-38.72 129.06-38.72 129.06a104.91 104.91 0 0 1-47.16-.3 103.69 103.69 0 0 1-30.28-12.61c32.36-99.06 54.48-174 67.68-233 5.29-23.63 14.94-70.65 54-99 2.56-1.85 7.45-5.23 33.2-16.47l142-51.63 51.62 51.63Z"></path><path fill="#f8e4cb" d="M1004.48 744a58.88 58.88 0 0 1-10.79 22.2 55.66 55.66 0 0 1-22.49 17.21c-47 18.74-94.32 16.11-149.63 32.16-10.66 3.09-19.07 6.14-23.86 8A1352.39 1352.39 0 0 1 758 974.6c-14.08 43.2-29.38 82.76-44.87 118.54a121.09 121.09 0 0 1-77.44-12.91c26.17-97.81 49.88-179.81 68.43-242.71 5.11-17.32 13.76-45.6 36.94-73.63 9.82-11.87 23.92-25.73 66.06-51.37A832 832 0 0 1 917 656.5c44 3 78.87 25.23 87.48 55.67 1.88 6.65 3.57 17.46 0 31.83Z"></path><circle cx="808.42" cy="1007.28" r="12.22" fill="#a4aaba" transform="rotate(-19.04 808.453 1007.33)"></circle><path fill="#e0cbb8" d="M958 775.44c-63.78 16.65-95 16.3-149.63 32.16a318.51 318.51 0 0 0-23.86 7.95 1354.57 1354.57 0 0 1-39.76 151.1 1352.75 1352.75 0 0 1-44.88 118.54 120.86 120.86 0 0 1-63.55-6.52l-.63 1.56a121.09 121.09 0 0 0 77.44 12.91c15.49-35.78 30.79-75.34 44.87-118.54a1352.39 1352.39 0 0 0 39.76-151.1c4.79-1.81 13.2-4.86 23.86-8 55.31-16 102.62-13.42 149.63-32.16a57.09 57.09 0 0 0 27-23.85c-11.37 7.9-25.72 12.14-40.25 15.95Z"></path><path fill="#a4aaba" d="m1083.32 476.46-7.37-3.42 14.16-40.35 7.37 3.42-14.16 40.35zM1100.02 508.58l-7.35-3.47 15.99-45.01 7.35 3.47-15.99 45.01z"></path><path fill="#cb784e" d="m1153.8 433.13-8 41.12c-2.21 11.44-13.81 15.72-21.37 9.27a14.85 14.85 0 0 1-2.6-2.88L1082 423.33a17.57 17.57 0 0 1-1-17.85l10.6-20.48c4.34-8.31 14.16-10.14 20.57-3.82l37.19 36.61a15.47 15.47 0 0 1 2.93 4.05 17.64 17.64 0 0 1 1.51 11.29Z"></path><circle cx="1041.98" cy="1015.72" r="13.66" fill="#a4aaba" transform="rotate(-74.68 1041.924 1015.71)"></circle><path fill="#f9eee4" d="M690.43 1093.88a121.62 121.62 0 0 1-42.79-13.65c26.17-97.81 49.88-179.81 68.43-242.71 5.11-17.32 13.76-45.6 36.94-73.63 9.82-11.87 23.92-25.73 66.06-51.37a830 830 0 0 1 107.57-55c-3.16-.43-6.37-.78-9.64-1a832 832 0 0 0-109.93 56C764.93 738.16 750.83 752 741 763.89c-23.18 28-31.83 56.31-36.94 73.63-18.55 62.9-42.26 144.9-68.43 242.71a121.62 121.62 0 0 0 42.79 13.65 119.65 119.65 0 0 0 20.74.75c-2.8-.14-5.72-.37-8.73-.75Z"></path><path fill="#fdc680" d="M1115.81 545.17c-.89 6.74-2.44 11.15-24.12 47.71-14 23.58-25.47 42.2-35.71 59-16 26.12-28.91 47.66-43.55 76.24-3.5 6.83-6.26 12.43-7.95 15.91-40.78-16.85-102.66-48.69-103.35-89.03-.13-7.53 1.88-15.83 5.46-25 9.93-25.52 31.92-58 53.73-100.75a236.43 236.43 0 0 1 32.85-47.71c17.88-20.29 27.82-28.74 41.05-31.81a56.35 56.35 0 0 1 24.64 0c35.07 8.27 62.2 55.82 56.95 95.44Z"></path><path fill="#fea793" d="M1076.05 465.64c-.19.65-3.87 12.64-15.9 15.91a23.07 23.07 0 0 1-23.86-8v-31.77l31.81-15.9Z"></path><path fill="#fcbe7a" d="M1056 651.83c-16 26.12-28.91 47.66-43.55 76.24-3.5 6.83-6.26 12.43-7.95 15.91-40.8-16.8-102.68-48.64-103.37-88.98-.13-7.53 1.88-15.83 5.46-25 5.8 8.06 17.5 18.1 50.17 34.44 44.47 22.24 81.15 1.75 99.24-12.61Z" opacity=".81"></path><path fill="#ed8470" d="M1068.1 433.83c-3 6.26-10.12 18.49-23.86 23.86a43.54 43.54 0 0 1-8 2.23v-15.48Z"></path><path fill="#fea793" d="M1084 410c-6.94 30.24-44.14 49.93-63.62 39.77-14.52-7.58-15.49-31.06-16-43.68-.82-19.25 3.95-52.86 24-59.7 6.5-2.23 12.39-.87 15.9 0 22.3 5.44 46.53 33.94 39.72 63.61Z"></path><path fill="#8f5643" d="M1052.19 378.16c6.53 7.29 7.88 22.92 8 23.86a51.88 51.88 0 0 1 0 8 11 11 0 0 0 7.95 0c4.66-2.1 4.72-7.47 8-8 3-.45 7.4 3.6 8 8 .93 7.39-9.49 13.27-8 15.91.54.92 2.48 1.36 8 0 15.32-15.67 21.26-30.46 23.86-39.76 1.33-4.76 5.6-20.05 0-23.86-2.38-1.62-4.79 1.3-7.95 0-5.84-2.41-2.57-13.71-8-23.86-4.76-9-15.07-14.76-23.85-15.9-12.53-1.64-14.09 7.78-31.81 7.95-9.57.09-14.45-2.37-23.86 0a42.7 42.7 0 0 0-15.9 7.95c-1.76 1.53-8.83 8-8 15.91 1 8.83 11.22 13.68 15.91 15.9 22.29 10.55 38.03-2.84 47.65 7.9Z"></path><g opacity=".61"><path fill="#fff" d="M1035.71 567.38A148.2 148.2 0 0 0 977.4 514l2.36-4.55a155.28 155.28 0 0 1 45.46 35.33 152.13 152.13 0 0 1 14.83 19.9Z"></path></g><g opacity=".61"><path fill="#fff" d="M1029.12 593.7a171.69 171.69 0 0 0-64.2-60.7l2.45-4.5a177 177 0 0 1 66.11 62.5Z"></path></g><g opacity=".61"><path fill="#fff" d="M1036.22 582a219.14 219.14 0 0 0-65.13-58.75l2.61-4.4a224.21 224.21 0 0 1 66.64 60.15Z"></path></g><path fill="#363544" d="M1035.31 400.48a3.17 3.17 0 1 0 3.51-2.78 3.17 3.17 0 0 0-3.51 2.78ZM1011.86 397.8a3.17 3.17 0 1 0 3.51-2.79 3.15 3.15 0 0 0-3.51 2.79Z"></path><path fill="#8f5643" d="M1046.77 397.26a2.36 2.36 0 0 1-1.77-.26c-2.64-1.52-10.55-6.17-10-6.85a5.42 5.42 0 0 0 .7-1.23 2.36 2.36 0 0 1 2.67-1.34 10.52 10.52 0 0 0 1 .17 12.85 12.85 0 0 1 3.88 1.06 2.28 2.28 0 0 1 .53.34l1.7 1.45a21.07 21.07 0 0 1 2.52 2.92 2.37 2.37 0 0 1-1.3 3.72ZM1009.14 388.66a2.4 2.4 0 0 0 1.55.91c3 .45 12.1 1.73 12.07.82a5 5 0 0 1 .24-1.39 2.38 2.38 0 0 0-1.28-2.71c-.28-.14-.58-.31-.92-.52a13.29 13.29 0 0 0-3.69-1.58 2.25 2.25 0 0 0-.63-.06l-2.23.08a20.8 20.8 0 0 0-3.78.72 2.38 2.38 0 0 0-1.31 3.73Z"></path><path fill="#ed8470" d="M1023.53 420.52a16.71 16.71 0 0 0 2 .11v-1.39c-3 0-5.11-.68-5.6-1.83a2.5 2.5 0 0 1 .11-1.78c1.79-5 6.2-14.54 6.7-15.62l-1.26-.58c-.82 1.76-5 10.8-6.74 15.73a3.85 3.85 0 0 0-.09 2.79c.74 1.7 2.92 2.35 4.88 2.57ZM1024.83 434.73c3.71.42 7.65-1.43 11.71-5.52l-1.61-1.6c-3.74 3.77-7.22 5.37-10.33 4.79-4.77-.9-7.31-6.61-7.33-6.67l-2.08.9c.12.29 3.06 6.88 9 8ZM1075.8 419.83c.46-.51 4.42-5 2.87-7.88-1-1.82-3.78-2.34-8.53-1.59l.23 1.52c5.22-.83 6.6.15 7 .8.78 1.44-1.22 4.52-2.66 6.12Z"></path><g opacity=".38"><path fill="#e89179" d="m1153.8 433.13-8 41.12c-2.21 11.44-13.81 15.72-21.37 9.27 2.27-13.2 10-52 23.14-59.56a22.12 22.12 0 0 1 4.67-2.08 17.64 17.64 0 0 1 1.56 11.25Z"></path></g><g opacity=".31"><rect width="23.92" height="11.33" x="997.67" y="391.95" fill="#badde8" rx=".84" transform="rotate(8.22 1010.237 397.912)"></rect></g><g opacity=".31"><rect width="23.92" height="11.33" x="1030.69" y="396.72" fill="#badde8" rx=".84" transform="rotate(8.1 1065.264 411.695)"></rect></g><path fill="#505477" d="m1056.25 403.8-.44-3.05 32.55-4.71h.07a3.17 3.17 0 0 1 2.5 1.19c1.28 1.51 1.47 4.1.59 7.91l-3-.69c.9-3.9.24-5.13 0-5.31Z"></path><g opacity=".22"><path fill="#ea9986" d="M1090.93 397.22a3.17 3.17 0 0 0-2.5-1.19h-.07l-32.55 4.71.19 1.32 30.65-4.44h.07a3.17 3.17 0 0 1 2.5 1.19c1 1.24 1.36 3.22 1 6l1.35.31c.83-3.8.64-6.39-.64-7.9Z"></path></g><path fill="#505477" d="M1017 406.32a7.07 7.07 0 0 1-.91-.06l-15.76-2.26a6.28 6.28 0 0 1-5.3-7.09l.48-3.33a6.26 6.26 0 0 1 7.1-5.3l15.78 2.28a6.26 6.26 0 0 1 5.3 7.09l-.48 3.33a6.23 6.23 0 0 1-2.45 4.12 6.17 6.17 0 0 1-3.76 1.22Zm-15.33-15.46a3.57 3.57 0 0 0-3.55 3.08l-.48 3.33a3.61 3.61 0 0 0 3 4.08l15.79 2.28a3.61 3.61 0 0 0 4.08-3.05l.48-3.33a3.6 3.6 0 0 0-3-4.08l-15.78-2.28a4.71 4.71 0 0 0-.51-.03ZM1050.67 411.19a5.46 5.46 0 0 1-.9-.07l-15.77-2.28a6.26 6.26 0 0 1-5.3-7.09l.48-3.32a6.27 6.27 0 0 1 7.09-5.3l15.79 2.28a6.26 6.26 0 0 1 5.3 7.09l-.48 3.32a6.27 6.27 0 0 1-6.21 5.37Zm-15.31-15.47a3.61 3.61 0 0 0-3.57 3.09l-.48 3.32a3.6 3.6 0 0 0 3 4.08l15.79 2.28a3.6 3.6 0 0 0 4.08-3.05l.48-3.32a3.55 3.55 0 0 0-.68-2.67 3.61 3.61 0 0 0-2.37-1.41l-15.79-2.28a2.92 2.92 0 0 0-.46-.04Z"></path><path fill="#505477" d="M1028.78 402.92c-2.29-2.94-5.71-1-6.09-.8l-1.6-2.63c2.1-1.28 6.91-2.59 10.12 1.54Z"></path><g opacity=".39"><path fill="#f0fcfc" d="m1009.6 402.07-2.88-.42-1.63-9.78 2.72.39 1.79 9.81z"></path></g><g opacity=".39"><path fill="#f0fcfc" d="m1043.7 406.99-3.07-.44-1.82-9.8 2.9.42 1.99 9.82z"></path></g><g opacity=".39"><path fill="#f0fcfc" d="m1049.39 407.82-4.19-.61-1.76-9.79 3.96.57 1.99 9.83z"></path></g><g opacity=".39"><path fill="#f0fcfc" d="m1015.49 402.92-3.96-.58-1.58-9.77 3.74.55 1.8 9.8z"></path></g><path fill="#4c5fb8" d="M709.63 1129.07c-3.4 7.57-26.13 9.67-45.25 10.51 0 0-55.84 2.47-57.52-5.93a19.61 19.61 0 0 1 .89-9.69c3.24-7.83 13.9-7.14 26.12-12.61q2-.9 4.09-2a47.27 47.27 0 0 0 6.18-4.14c.44-.35.94-.73 1.47-1.16.75-.61 1.57-1.3 2.43-2.11a33.76 33.76 0 0 0 5.19-6.12 25.13 25.13 0 0 0 1.38-2.31c5.13-1 9.82-.53 9.82 4.24v10.47l35.18-8.16c3.86 6.32 8.29 9.59 10 18.62.8 4.12 1.39 7.32.02 10.39Z"></path><path fill="#445699" d="M664.29 1102h.17v-4.24a5.7 5.7 0 0 0-.17-1.37ZM710.06 1121a9.42 9.42 0 0 1-.6 1.89c-3.4 7.57-26.13 9.67-45.24 10.51 0 0-54.25 2.4-57.42-5.57a16.85 16.85 0 0 0 .06 5.83c1.69 8.4 57.52 5.93 57.52 5.93 19.12-.85 41.84-2.94 45.25-10.51 1.1-2.47.94-5.02.43-8.08Z"></path><path fill="#bfb8b8" d="M655.9 1109.79h-2.65c0-3.34-3.87-5-7.61-5.82.75-.61 1.57-1.3 2.43-2.11 4.03 1.21 7.83 3.53 7.83 7.93ZM638 1109.27c4.7 1 10 3.3 10 8.47h-2.65c0-4.52-7.1-6-11.4-6.42ZM624.09 1062.07h-2.65c0-2.89-2.91-4.52-6.14-5.44.7-.62 1.43-1.31 2.17-2.07 3.53 1.29 6.62 3.56 6.62 7.51ZM608.14 1062.06c4.09 1.19 8 3.5 8 8h-2.65c0-3.67-4.65-5.3-8.71-6Z"></path><path fill="#f9ba75" d="M1100.39 586.2c-7.79 10.3-17.87 15.6-30.6 22.3a163.72 163.72 0 0 1-47.14 16.07l-8.27-12.8q6 10 12.1 20a142 142 0 0 0 42.73-15.55c11.54-6.48 20.67-11.61 27.73-21.57a56.65 56.65 0 0 0 7.18-14.13 55.14 55.14 0 0 1-3.73 5.68Z"></path></g></g><g data-name="table 1"><path fill="#f9cb98" d="M809.46 1182.35H486.83l-52.66-302.79 14.13-2.46 50.59 290.91h296.87l12.59-277.1 14.33.65-13.22 290.79zM877.25 697.75H564.17l-51.1-297.64 13.71-2.41 49.1 285.95h288.07l12.22-272.38 13.9.64-12.82 285.84z"></path><path fill="#9293a7" d="m416.23 886.64 437.15.48 40.38-524.86-347.76.68Z"></path><path fill="#3c3b49" d="M736.2 506.82c5.74-.37 19.07-1.23 21.59-8.51 1.09-3.16-.18-6.57-1.63-9.13a53.87 53.87 0 0 0-20.85-13.71c-1.11-.38-2.26-.72-3.44-1-8.16-2-17.81-1.56-28 4.68-1.67 1-11.2 6.69-10.53 13.13.98 9.77 24.87 15.72 42.86 14.54Z"></path><g opacity=".35"><path fill="#c1c3d1" d="M693.32 492.27c-.25-2.42.93-4.73 2.6-6.72 4.38 8.28 25.7 13.12 42.12 12.07 4.78-.31 14.84-1 19.51-5.39a9.25 9.25 0 0 1 .24 6.08c-2.52 7.28-15.85 8.14-21.59 8.51-17.99 1.18-41.87-4.77-42.88-14.55Z"></path></g><path fill="#acaeb7" d="M703.17 479.56q2.87-.46 5.76-.71a74 74 0 0 1 15.39.35l1.25.16-.17 1.18-.08.48h-.39c-.71-.1-1.43-.19-2.15-.27a72.19 72.19 0 0 0-13.71-.17 70.86 70.86 0 0 0-9.28 1.37Z"></path><path fill="#acaeb7" d="m714.26 493.32 1.5.76c8.94-17.85 18.5-18.58 19.55-18.61-1.11-.38-2.26-.72-3.44-1-4.09 1.4-11.03 5.72-17.61 18.85Z"></path><path fill="#f8e4cb" d="M641.82 278.44h335.27L990.5 201l-358-.44q4.65 38.94 9.32 77.88Z"></path><path fill="#3c3b49" d="m670.48 693.61 83.27-1.26 12.91-154.87h-77.44l-18.74 156.13Z"></path><path fill="#4d4d59" d="m678.43 679.56 68.85-1 10.67-128h-64q-7.77 64.44-15.52 129Z"></path><path fill="#3c3b49" d="M678.43 644.13H750v4.42h-71.57z"></path><path fill="#3c3b49" d="M662.08 611.88H806.1v4.42H662.08z" transform="rotate(-83.65 734.147 614.086)"></path><path fill="#3c3b49" d="M634.22 615.85h136.12v4.42H634.22z" transform="rotate(-83.28 702.329 618.06)"></path><path fill="#3c3b49" d="M646.42 611.82H790.4v4.54H646.42z" transform="rotate(-83.84 718.371 614.092)"></path><path fill="#3c3b49" d="M686.38 564.16h71.57v4.42h-71.57zM686.38 580.51h71.57v4.42h-71.57zM686.38 596.42h71.57v4.42h-71.57zM678.43 660.03H750v4.42h-71.57zM686.38 612.7h71.57v3.65h-71.57zM678.43 628.11h79.52v4.66h-79.52zM584.01 486.55l38.72 38.71-12.9 51.63-64.53 12.91v-64.54l38.71-38.71z"></path><path fill="#3c3b49" d="M622.73 434.92q-51.62 142-103.25 283.94-25.8-109.71-51.62-219.41Q526.66 358.21 585.45 217q18.65 108.94 37.28 217.92Z"></path><path fill="#888a99" d="M416 885.59h437.38v25.81H416z"></path><rect width="87.48" height="39.76" x="662.52" y="775.79" fill="#3c3b49" rx="8.52" transform="rotate(-4.23 705.852 795.18)"></rect><path fill="#fff" d="m614.81 438.41-92.67 254.82Q499 594.79 475.81 496.32l105.54-253.54 33.46 195.63Z"></path><path fill="#eacdad" d="M641.32 272.13h334v15.9h-334z"></path><path fill="#fea793" d="M885.3 182.68q-3.06 10.83-6.11 21.69l-1.35 4.81-2.33 8.27L874 223q-.83 3-1.66 5.91l-.94 3.34a28.38 28.38 0 0 1-27.46 20.44h-52.6A28.38 28.38 0 0 1 763.8 232c-.91-3.37-1.81-6.75-2.73-10.12l-1.4-5.19q-4.6-17.13-9.23-34.26c0-.16-.1-.36-.17-.61a17.4 17.4 0 0 1-.68-4.21c-.3-9.16 6.92-16.21 8.7-17.94 8.5-8.28 19.13-8.23 22.2-8.09h66.61a50.07 50.07 0 0 1 25.9 8.09c3.68 2.44 9.82 6.49 12.28 12.38a13.34 13.34 0 0 1 1 4.2 16.43 16.43 0 0 1-.98 6.43Z"></path><g opacity=".36"><path fill="#f9dbd9" d="M885.3 182.68q-3.06 10.83-6.11 21.69l-1.35 4.81c-12 .87-38.12-.07-58-21.17-10.77-11.45-15.58-24.45-17.79-32.43 8.6 6.25 27.39 18 53.37 19.46a96.3 96.3 0 0 0 29.83-3 13.34 13.34 0 0 1 1 4.2 16.43 16.43 0 0 1-.95 6.44Z"></path></g><g opacity=".7"><path fill="#ff9b8a" d="m872.29 228.91-.94 3.34a28.38 28.38 0 0 1-27.46 20.44h-52.55A28.38 28.38 0 0 1 763.8 232c-.91-3.37-1.81-6.75-2.73-10.12l-1.4-5.19q-4.6-17.13-9.23-34.26c0-.16-.1-.36-.17-.61 9.86 11.22 28.18 27.47 58.21 38.77 26.37 9.88 48.64 10.22 63.81 8.32Z"></path></g><path fill="#997444" d="M886.31 176.21c-.42 6.68-25.7 19.44-68.81 19.84-40.3.36-67-10.34-67.91-18.48a29.52 29.52 0 0 1 .75-9 28.2 28.2 0 0 1 .94-2.93 32 32 0 0 1 2.62-5.17c6.07-9.39 40.76-12.95 40.76-12.95a226.42 226.42 0 0 1 22.84-1.35 210.07 210.07 0 0 1 22.83 1.35c4.45.48 36.56 4.17 42.39 14.28a30.25 30.25 0 0 1 2.79 6.89 29.32 29.32 0 0 1 .8 7.52Z"></path><path fill="#8e693d" d="M873.38 171.88c-.35 5.4-20.84 15.76-55.81 16.07-32.67.3-54.31-8.38-55.06-15a24 24 0 0 1 .61-7.33 23 23 0 0 1 .76-2.37 26 26 0 0 1 2.13-4.19c4.92-7.62 33-10.51 33-10.51a182.88 182.88 0 0 1 18.51-1.09 172.57 172.57 0 0 1 18.52 1.09c3.61.4 29.64 3.39 34.37 11.58a24.86 24.86 0 0 1 2.27 5.59 24.22 24.22 0 0 1 .7 6.16Z"></path><path fill="#3f8984" d="M869.3 98.49c-12.12 2.64-30.58 5.3-41.88 6.81-6 .8-9.92 1.28-9.92 1.28l11.1-32.37s1 .33 2.72.79c6.65 1.81 23.18 5.67 23.18-.79 0-7.94-3.56-39.25 10.28-32.78.26.12.54.26.82.41 4 2.18 7.44 7 10 13 6.91 16.16 7.21 40.69-6.3 43.65Z"></path><g opacity=".73"><path fill="#2f6b64" d="M861.9 62.52c-2.35 11-1.08 13.24-3.7 16.18s-6.72 3.35-14.8 4a85.63 85.63 0 0 1-14.8 0l2.72-7.7c6.65 1.81 23.18 5.67 23.18-.79 0-7.94-3.56-39.25 10.28-32.78a20.17 20.17 0 0 1 .82 4.9c.2 4.86-1.52 5.9-3.7 16.19Z"></path></g><path fill="#61aa9f" d="M869.3 98.49c-12.12 2.64-30.58 5.3-41.88 6.81.31-3.21 1.69-7.81 4.88-14.46a46.22 46.22 0 0 1 18.5-4c8.22 0 10.66 2.31 14.8 0 7.71-4.31 11.64-19.64 7.4-24.28-2.35-2.57-.22-5.14 2.59-7.71 6.92 16.15 7.22 40.68-6.29 43.64Z"></path><path fill="#3f8984" d="M769.27 130.86c12.11 2.64 30.58 5.3 41.88 6.81 6 .8 9.92 1.28 9.92 1.28L810 106.58s-1.05.33-2.73.79c-6.64 1.81-23.17 5.67-23.17-.79 0-7.94 3.56-39.25-10.28-32.78-.27.12-.54.26-.82.41-4 2.18-7.44 7-10 13-6.94 16.15-7.25 40.69 6.27 43.65Z"></path><g opacity=".73"><path fill="#2f6b64" d="M776.67 94.89c2.34 11 1.08 13.24 3.7 16.18s6.72 3.35 14.8 4.05a85.64 85.64 0 0 0 14.8 0l-2.73-7.75c-6.64 1.81-23.17 5.67-23.17-.79 0-7.94 3.56-39.25-10.28-32.78a20.17 20.17 0 0 0-.82 4.9c-.2 4.86 1.52 5.9 3.7 16.19Z"></path></g><path fill="#61aa9f" d="M769.27 130.86c12.11 2.64 30.58 5.3 41.88 6.81-.31-3.21-1.69-7.81-4.88-14.46a46.3 46.3 0 0 0-18.5-4c-8.22 0-10.67 2.31-14.8 0-7.71-4.31-11.64-19.65-7.4-24.28 2.35-2.57.22-5.14-2.59-7.71-6.92 16.14-7.23 40.68 6.29 43.64Z"></path><path fill="#3f8984" d="M836 37.79c0 28.33-7.4 141.62-7.4 141.62a24 24 0 0 1-3.72 2.53c-2.34 1.28-5.5 2.48-8.57 1.94-4.27-.74-8.37-4.82-9.91-16.61-.92-8-9.88-87.34-7.4-121.38.31-4.28 1.2-13.47 7.4-20.24a25.78 25.78 0 0 1 12.6-7.49 16.2 16.2 0 0 1 7.21-.18 10.55 10.55 0 0 1 3.79 1.69c5.63 4.07 6 13.57 6 18.12Z"></path><g opacity=".73"><path fill="#2f6b64" d="M817.5 66.57c-3.7 4 0 16.18 0 24.27s-7.4 32.37-7.4 40.47-3.7 8.09 0 24.27c2.41 10.56 4.82 21.12 6.21 28.3-4.27-.74-8.37-4.82-9.91-16.61-.92-8-9.88-87.34-7.4-121.38.31-4.28 1.2-13.47 7.4-20.24a25.78 25.78 0 0 1 12.6-7.49 85.69 85.69 0 0 1 2.17 16c.03 12.17.03 28.36-3.67 32.41Z"></path></g><path fill="#61aa9f" d="M836 37.79c0 28.33-7.4 141.62-7.4 141.62a24 24 0 0 1-3.72 2.53c-.08-3.49-.58-7.43-3.68-14.22-3.7-8.09 0-20.23 0-28.32V107c0-4 3.7-32.37 7.4-44.51 2.66-8.73-.42-32.09-2.36-44.54a10.55 10.55 0 0 1 3.76 1.72c5.63 4.07 6 13.57 6 18.12Z" opacity=".62"></path><path fill="#3f8984" d="M802.7 46.33c-3.71 12.14 3.7 28.33 3.7 20.24s7.4-24.28 7.4-24.28v-4c3.7-12.19-7.4-4.09-11.1 8.04Z"></path><path fill="#f4d4d0" d="M875.51 217.45 874 223l-8-7-18.42 24.17-26.37-20.61-22.32 16.27-22.5-20.5-15.26 6.52-1.4-5.19 17.58-7.51 21.91 20L821.25 213l25.42 19.86 18.58-24.39Z"></path><path fill="#4b4a56" d="m744.27 811-17 1.26-9.27.69-8.81.65-16.83 1.24-15.41 1.14a6.08 6.08 0 0 1-6.52-5.61l-1.77-24a6.06 6.06 0 0 1 5.61-6.51l2.62-.2 16.82-1.24 8.81-.65 9.27-.69 29.86-2.21a6.09 6.09 0 0 1 6.51 5.62l1.78 24a6.09 6.09 0 0 1-5.67 6.51Z"></path><g opacity=".69"><path fill="#fafaff" d="m709.14 813.56-16.83 1.24-15.47-35.19 16.82-1.24 15.48 35.19z"></path></g><g opacity=".69"><path fill="#fafaff" d="m727.22 812.22-9.27.69-15.48-35.19 9.27-.69 15.48 35.19z"></path></g><path fill="#a7cce6" d="m495.52 493.35 80.19-186.76 7.29 35.92-80.19 186.75-7.29-35.91zM543.24 466.41l51.02-120.05 4.64 23.08-51.02 120.06-4.64-23.09zM514.92 604.99l61.34-155.16 6.78 29.33-61.34 155.16-6.78-29.33zM583 433.83l8 39.76q7.95-23.85 15.91-47.71l-8-31.81ZM511.43 529.26l6.36 31.81 12.72-38.17-6.36-25.45ZM495.14 535.06a105.78 105.78 0 0 0 4.07 11.74 41.77 41.77 0 0 0 5.65 9.75 33.43 33.43 0 0 0 8.29 7.32 89.93 89.93 0 0 0 11 5.54 24.28 24.28 0 0 1-13.34-.48 24.58 24.58 0 0 1-6.29-3.11 16 16 0 0 1-1.42-1.07 16.64 16.64 0 0 1-1.35-1.17 29.91 29.91 0 0 1-2.43-2.61 27.09 27.09 0 0 1-5.48-12.69 25.35 25.35 0 0 1 1.3-13.22ZM521 488.45a25.35 25.35 0 0 1 12.83 3.43 27.15 27.15 0 0 1 10 9.55 28.94 28.94 0 0 1 1.6 3.2 12.4 12.4 0 0 1 .62 1.67 12.9 12.9 0 0 1 .51 1.71 24.32 24.32 0 0 1-3.47 19.64 92.45 92.45 0 0 0-1.35-12.27 33.44 33.44 0 0 0-4-10.31 41.63 41.63 0 0 0-7.17-8.7 107.4 107.4 0 0 0-9.57-7.92Z"></path><path fill="#eacdad" d="M632.48 200.56v31.81l8.84 55.67v-15.91q-4.42-35.77-8.84-71.57Z"></path></g><g data-name="hand 1"><path fill="#fea793" d="m1049.54 552.23 36.21 43.59a354.86 354.86 0 0 1-91.88 43.89c-33.8 10.53-60.25 19.63-95.42 15.91-23.09-2.44-44.92-9.7-63.62-15.91a452.46 452.46 0 0 1-45.92-18.08 25.86 25.86 0 0 1 6.15-13.73c5.23-5.72 12.12-7.21 15.91-7.95 35.14-6.83 85.89-3.6 96.9-1.41.72.14 3.89.75 8.22 1.16 1.62.15 3.46.24 6.21.25 26.58.1 34.66-13.43 79.53-31.81a379.16 379.16 0 0 1 47.71-15.91Z"></path><path fill="#fdc680" d="m992 574.81 34.47 57a142 142 0 0 0 42.73-15.55c11.54-6.48 20.67-11.6 27.73-21.57 15.42-21.75 14.36-57.21-2.23-67.72-4.23-2.68-15.94-7.86-29.66-6.62l-.67.06c-10.07 1-17.54 4.83-37.9 19.66-10 7.27-23 17.05-37.91 29.11.18.3.37.6.54.9Z"></path><g opacity=".34"><path fill="#f9d1cd" d="M992.18 579.43c-38 16.67-46.7 28.57-71.64 28.47-2.75 0-4.59-.1-6.22-.25a80.86 80.86 0 0 1-8.21-1.16c-56.92-11.38-84.54-5.66-84.54-5.66-11.14 2.31-21.25 6.34-28.27 15a35.44 35.44 0 0 0-3.93 6l-.46-.22a25.78 25.78 0 0 1 6.15-13.73c5.23-5.72 12.12-7.22 15.91-7.95 35.14-6.83 85.88-3.6 96.9-1.41.72.14 3.89.75 8.22 1.16 1.63.15 3.46.24 6.21.25 23.86.1 32.81-10.8 66.84-26.32Z"></path></g><path fill="#fea793" d="M775.1 590.59h.13a45 45 0 0 0 14.65 1.61 46.78 46.78 0 0 0-7.39-9c-8.47-8.07-12.38-5.72-23.15-12.87-1-.7-3.52-2.42-5.07-1.53-1.19.68-1.46 2.59-1.31 3.83.55 4.48 7.23 4.78 9.85 9.85.94 1.82 1.65 4.84 0 9.84Z"></path><path fill="#fea793" d="M804.67 621.8h-44.35a28.21 28.21 0 0 1-7.39 0c-8.18-1.11-15.28-5.89-14.79-7.4.31-.94 3.48-.16 14.79 0 3.08.05 5.64 0 7.39 0-10.83-7.57-17.77-8.27-22.18-7.39a13.74 13.74 0 0 1-7.39 0c-4.7-1.48-8.18-6-7.39-7.39.44-.79 2.07-.41 7.39 0h22.18l-14.79-7.39a63.7 63.7 0 0 0-7.39 0c-4.3.24-5.5.74-7.39 0-3.73-1.46-5.85-6.06-5-7.18.68-.85 3.35.06 6.11-.17l1.42-.1c.52 0 1.12-.06 1.85-.07a29.44 29.44 0 0 1 3 .13c2.61.22 6.61 0 7.39 0 2.57-.05 6.93 1.28 14.79 7.39-5.52-3.77-14.73-7.36-14.74-7.36s-3.9-.12-7.39 0c-5.58.19-6.36.89-7.39 0-1.83-1.58-1.91-6 0-7.39a.92.92 0 0 1 .19-.13c.47-.24 1.52-.3 7.2.13 1.12.08 2.08.11 2.91.12 2.15 0 3.78-.08 4.32-.11h.16c10.94-.7 29.57 7.39 29.57 7.39.7.3 10.32 2.66 29.57 7.39 11.63 2.86 21.56 5.21 29.15 7Z"></path><path fill="#f9cea0" d="m999.75 582.23-2.9-4.78c-.17-.3-.36-.6-.54-.9 6.92-6.27 17.51-15.62 31-26.45 23.78-19.15 38.61-28.54 37.77-29.8s-20.27 8-38.57 19.72a279.58 279.58 0 0 0-37.91 29.11c.18.3.37.6.54.9l2.9 4.78 34.47 57 3-.41Z"></path></g><g data-name="hand 2"><path fill="#fea793" d="M932.49 488.45v56.21a148.52 148.52 0 0 1-35.84.5c-23.08-2.44-44.91-9.69-63.62-15.9A447.806 447.806 0 0 1 791.24 513c-1.44-.64-2.82-1.26-4.12-1.86 0-.26.08-.53.13-.82s.1-.58.17-.89.07-.36.11-.54c.11-.49.24-1 .39-1.55.09-.31.18-.62.28-.93s.2-.64.32-1a20.3 20.3 0 0 1 .81-2c.1-.23.21-.45.32-.68.22-.45.46-.91.72-1.36a22.35 22.35 0 0 1 2.9-4c5.22-5.73 12.12-7.22 15.91-8 1.47-.29 3-.55 4.49-.8l2.82-.44a198.087 198.087 0 0 1 5.78-.78c1.13-.14 2.27-.27 3.41-.39 1.72-.18 3.46-.35 5.21-.5q2.29-.19 4.62-.36l2.59-.17 3-.17 2.29-.11 2.46-.11 2.53-.09 3.11-.08 3.19-.07c23.52-.37 44.75 1.34 51.42 2.66.72.14 3.89.75 8.22 1.16 1.62.16 3.46.24 6.21.25a61.52 61.52 0 0 0 11.96-.92Z"></path><path fill="#fea793" d="M789.76 513.36H758c-1.77-.05-4.55-.09-8 0-11.13.27-15.19 1.52-15.9 0-.83-1.76 3.32-6.13 7.95-8a16.52 16.52 0 0 1 11.46 0c-11.65-8.15-19.12-8.89-23.86-7.95a14.88 14.88 0 0 1-7.95 0c-5.06-1.59-8.8-6.45-8-7.95.48-.85 2.23-.45 8 0h23.85l-15.9-7.95a68.82 68.82 0 0 0-7.95 0c-4.63.26-5.93.79-8 0-4-1.57-6.29-6.52-5.34-7.72.73-.93 3.61.06 6.57-.19l1.53-.11c.56 0 1.2-.06 2-.07a30.83 30.83 0 0 1 3.21.13 75.39 75.39 0 0 0 7.95 0c2.76 0 7.45 1.39 15.91 8-5.94-4.05-15.85-7.91-15.85-7.92s-4.2-.13-7.95 0c-6 .22-6.85 1-8 0-2-1.7-2-6.47 0-7.95a1.35 1.35 0 0 1 .21-.13c.5-.26 1.63-.32 7.75.13 1.2.09 2.23.13 3.13.13 2.31 0 4.07-.08 4.65-.12h.17c11.76-.75 31.81 7.95 31.81 7.95.75.33 11.1 2.87 31.81 8 12.52 3.07 23.2 5.6 31.37 7.51Z"></path><g opacity=".34"><path fill="#f9d1cd" d="M932.49 488.45v7.07a61.52 61.52 0 0 1-12 1c-2.75 0-4.59-.09-6.21-.25-4.27-.4-7.41-1-8.22-1.16-43.5-8.65-77.62-7.59-92.41-6.46l2.82-.44a198.087 198.087 0 0 1 5.78-.78c1.13-.14 2.27-.27 3.41-.39 1.72-.18 3.46-.35 5.21-.5q2.29-.19 4.62-.36l2.59-.17 3-.17 2.29-.11 2.46-.11 2.53-.09 3.11-.08 3.19-.07c23.52-.37 44.75 1.34 51.42 2.66.72.14 3.89.75 8.22 1.16 1.62.16 3.46.24 6.21.25a61.52 61.52 0 0 0 11.98-1ZM793.27 504.52a6.39 6.39 0 0 0-2.9-3.07 27.7 27.7 0 0 0-3.26 9.73l4.12 1.87c1.97-3.05 3.03-6.05 2.04-8.53Z"></path></g></g></svg>