<svg id="SvgjsSvg1062" width="288" height="288" xmlns="http://www.w3.org/2000/svg" version="1.1" xmlns:xlink="http://www.w3.org/1999/xlink" xmlns:svgjs="http://svgjs.com/svgjs"><defs id="SvgjsDefs1063"></defs><g id="SvgjsG1064"><svg xmlns="http://www.w3.org/2000/svg" enable-background="new 0 0 64 64" viewBox="0 0 64 64" width="288" height="288"><path fill="#0069ff" d="M51.33,49.238c-0.576-4.418-4.695-8.037-9.152-8.037h-0.307l-4.242,7.349L32,58.301l-5.629-9.751
			l-4.242-7.349h-0.307c-4.457,0-8.576,3.619-9.152,8.037L11.705,63.5h6.064H32h14.23h6.064L51.33,49.238z" class="color303838 svgShape"></path><path fill="#e0d623" d="M34.98 41.625H29.02c-.398 0-.723.322-.723.723v3.249c0 .399.324.723.723.723h.943l-1.305 3.868L32 55.971l3.338-5.783-1.301-3.868h.943c.4 0 .723-.323.723-.723v-3.249C35.703 41.947 35.381 41.625 34.98 41.625zM46.047 5.33c-1.051-.375-2.207.173-2.58 1.223C43.26 7.137 43.359 7.74 43.65 8.24l-1.402 2.861c-.711-.185-1.508-.375-2.365-.554l.33-4.188c.531-.294.947-.788 1.07-1.431.223-1.151-.531-2.269-1.686-2.49-1.148-.225-2.264.529-2.486 1.681-.127.645.076 1.256.457 1.729l-1.293 4.118c-.723-.081-1.453-.141-2.191-.169l-.576-5.101c.527-.437.869-1.087.869-1.821C34.377 1.565 33.311.5 32 .5s-2.377 1.065-2.377 2.376c0 .734.344 1.385.865 1.819l-.576 5.103c-.734.026-1.465.088-2.188.169l-1.293-4.118c.381-.473.582-1.084.459-1.729-.225-1.151-1.34-1.905-2.492-1.681-1.15.222-1.904 1.339-1.682 2.49.123.643.535 1.137 1.07 1.431l.33 4.188c-.861.177-1.656.367-2.365.554L20.35 8.24c.291-.5.393-1.104.184-1.688-.373-1.05-1.529-1.598-2.58-1.223-1.049.374-1.6 1.53-1.223 2.58.215.6.693 1.007 1.254 1.199l3.037 11.612H32h11.002l3.014-11.612c.559-.192 1.039-.6 1.254-1.199C47.643 6.86 47.096 5.704 46.047 5.33z" class="color1C75BC svgShape"></path><path fill="#0069ff" d="M42.578,23.783c0.174-0.793,0.277-1.508,0.35-2.185H32H21.092c0.068,0.69,0.168,1.407,0.33,2.185
		c-0.949,0.715-1.461,1.93-1.207,3.168l0.377,1.817c0.207,1.001,0.873,1.782,1.727,2.197c1.775,5.933,5.875,9.236,9.682,9.236
		s7.906-3.304,9.682-9.236c0.854-0.415,1.52-1.196,1.727-2.197l0.373-1.817C44.039,25.713,43.527,24.498,42.578,23.783z" class="color303838 svgShape"></path></svg></g></svg>