<svg xmlns="http://www.w3.org/2000/svg" xmlns:xlink="http://www.w3.org/1999/xlink" viewBox="0 0 1080 1080" width="1080" height="1080" preserveAspectRatio="xMidYMid meet" style="width: 100%; height: 100%; transform: translate3d(0px, 0px, 0px); content-visibility: visible;"><defs><clipPath id="__lottie_element_20486"><rect width="1080" height="1080" x="0" y="0"/></clipPath></defs><g clip-path="url(#__lottie_element_20486)"><g transform="matrix(1,0,0,1,540,540)" opacity="1" style="display: block;"><g opacity="1" transform="matrix(1,0,0,1,0,0)"><path fill="rgb(65,133,244)" fill-opacity="1" d=" M212.4770050048828,111.83599853515625 C212.4770050048828,111.83599853515625 -212.4770050048828,111.83599853515625 -212.4770050048828,111.83599853515625 C-274.24200439453125,111.83599853515625 -324.31201171875,61.76499938964844 -324.31201171875,0 C-324.31201171875,0 -324.31201171875,0 -324.31201171875,0 C-324.31201171875,-61.76499938964844 -274.24200439453125,-111.83599853515625 -212.4770050048828,-111.83599853515625 C-212.4770050048828,-111.83599853515625 212.4770050048828,-111.83599853515625 212.4770050048828,-111.83599853515625 C274.24200439453125,-111.83599853515625 324.31201171875,-61.76499938964844 324.31201171875,0 C324.31201171875,0 324.31201171875,0 324.31201171875,0 C324.31201171875,61.76499938964844 274.24200439453125,111.83599853515625 212.4770050048828,111.83599853515625z"/></g></g><g transform="matrix(0.8500000238418579,0,0,0.8500000238418579,430.0704345703125,567.3818969726562)" opacity="1" style="display: block;"><g opacity="1" transform="matrix(1,0,0,1,0,0)"><path fill="rgb(255,255,255)" fill-opacity="1" d=" M400.18798828125,-52.1870002746582 C400.18798828125,-52.1870002746582 413.8110046386719,-52.1870002746582 413.8110046386719,-52.1870002746582 C418.1050109863281,-52.1870002746582 421.8330078125,-51.37300109863281 424.9939880371094,-49.74800109863281 C428.15399169921875,-48.12099838256836 430.6080017089844,-45.82099914550781 432.35699462890625,-42.845001220703125 C434.1059875488281,-39.86800003051758 434.9800109863281,-36.32400131225586 434.9800109863281,-32.2140007019043 C434.9800109863281,-28.163999557495117 434.1059875488281,-24.63599967956543 432.35699462890625,-21.6299991607666 C430.6080017089844,-18.62299919128418 428.15399169921875,-16.305999755859375 424.9939880371094,-14.680999755859375 C421.8330078125,-13.053999900817871 418.1050109863281,-12.241999626159668 413.8110046386719,-12.241999626159668 C413.8110046386719,-12.241999626159668 400.18798828125,-12.241999626159668 400.18798828125,-12.241999626159668 C400.18798828125,-12.241999626159668 400.18798828125,-52.1870002746582 400.18798828125,-52.1870002746582z M414.5469970703125,0 C421.5419921875,0 427.7090148925781,-1.3350000381469727 433.0469970703125,-4.004000186920166 C438.385009765625,-6.672999858856201 442.5580139160156,-10.414999961853027 445.56500244140625,-15.232999801635742 C448.5710144042969,-20.048999786376953 450.07501220703125,-25.708999633789062 450.07501220703125,-32.2140007019043 C450.07501220703125,-38.77899932861328 448.5710144042969,-44.45600128173828 445.56500244140625,-49.242000579833984 C442.5580139160156,-54.02799987792969 438.385009765625,-57.75600051879883 433.0469970703125,-60.42499923706055 C427.7090148925781,-63.09400177001953 421.5419921875,-64.42900085449219 414.5469970703125,-64.42900085449219 C414.5469970703125,-64.42900085449219 385.27801513671875,-64.42900085449219 385.27801513671875,-64.42900085449219 C385.27801513671875,-64.42900085449219 385.27801513671875,0 385.27801513671875,0 C385.27801513671875,0 414.5469970703125,0 414.5469970703125,0z"/></g><g opacity="1" transform="matrix(1,0,0,1,0,0)"><path fill="rgb(255,255,255)" fill-opacity="1" d=" M338.3380126953125,-52.4640007019043 C338.3380126953125,-52.4640007019043 372.2090148925781,-52.4640007019043 372.2090148925781,-52.4640007019043 C372.2090148925781,-52.4640007019043 372.2090148925781,-64.42900085449219 372.2090148925781,-64.42900085449219 C372.2090148925781,-64.42900085449219 323.5190124511719,-64.42900085449219 323.5190124511719,-64.42900085449219 C323.5190124511719,-64.42900085449219 323.5190124511719,0 323.5190124511719,0 C323.5190124511719,0 373.4049987792969,0 373.4049987792969,0 C373.4049987792969,0 373.4049987792969,-11.96500015258789 373.4049987792969,-11.96500015258789 C373.4049987792969,-11.96500015258789 338.3380126953125,-11.96500015258789 338.3380126953125,-11.96500015258789 C338.3380126953125,-11.96500015258789 338.3380126953125,-52.4640007019043 338.3380126953125,-52.4640007019043z M337.2330017089844,-26.875999450683594 C337.2330017089844,-26.875999450683594 368.2510070800781,-26.875999450683594 368.2510070800781,-26.875999450683594 C368.2510070800781,-26.875999450683594 368.2510070800781,-38.472999572753906 368.2510070800781,-38.472999572753906 C368.2510070800781,-38.472999572753906 337.2330017089844,-38.472999572753906 337.2330017089844,-38.472999572753906 C337.2330017089844,-38.472999572753906 337.2330017089844,-26.875999450683594 337.2330017089844,-26.875999450683594z"/></g><g opacity="1" transform="matrix(1,0,0,1,0,0)"><path fill="rgb(255,255,255)" fill-opacity="1" d=" M308.2409973144531,0 C308.2409973144531,0 308.2409973144531,-64.42900085449219 308.2409973144531,-64.42900085449219 C308.2409973144531,-64.42900085449219 293.33099365234375,-64.42900085449219 293.33099365234375,-64.42900085449219 C293.33099365234375,-64.42900085449219 293.33099365234375,0 293.33099365234375,0 C293.33099365234375,0 308.2409973144531,0 308.2409973144531,0z"/></g><g opacity="1" transform="matrix(1,0,0,1,0,0)"><path fill="rgb(255,255,255)" fill-opacity="1" d=" M249.427001953125,-52.4640007019043 C249.427001953125,-52.4640007019043 283.2070007324219,-52.4640007019043 283.2070007324219,-52.4640007019043 C283.2070007324219,-52.4640007019043 283.2070007324219,-64.42900085449219 283.2070007324219,-64.42900085449219 C283.2070007324219,-64.42900085449219 234.51699829101562,-64.42900085449219 234.51699829101562,-64.42900085449219 C234.51699829101562,-64.42900085449219 234.51699829101562,0 234.51699829101562,0 C234.51699829101562,0 249.427001953125,0 249.427001953125,0 C249.427001953125,0 249.427001953125,-52.4640007019043 249.427001953125,-52.4640007019043z M248.322998046875,-23.47100067138672 C248.322998046875,-23.47100067138672 279.2489929199219,-23.47100067138672 279.2489929199219,-23.47100067138672 C279.2489929199219,-23.47100067138672 279.2489929199219,-35.43600082397461 279.2489929199219,-35.43600082397461 C279.2489929199219,-35.43600082397461 248.322998046875,-35.43600082397461 248.322998046875,-35.43600082397461 C248.322998046875,-35.43600082397461 248.322998046875,-23.47100067138672 248.322998046875,-23.47100067138672z"/></g><g opacity="1" transform="matrix(1,0,0,1,0,0)"><path fill="rgb(255,255,255)" fill-opacity="1" d=" M219.23899841308594,0 C219.23899841308594,0 219.23899841308594,-64.42900085449219 219.23899841308594,-64.42900085449219 C219.23899841308594,-64.42900085449219 204.3280029296875,-64.42900085449219 204.3280029296875,-64.42900085449219 C204.3280029296875,-64.42900085449219 204.3280029296875,0 204.3280029296875,0 C204.3280029296875,0 219.23899841308594,0 219.23899841308594,0z"/></g><g opacity="1" transform="matrix(1,0,0,1,0,0)"><path fill="rgb(255,255,255)" fill-opacity="1" d=" M151.58999633789062,-59.367000579833984 C151.58999633789062,-59.367000579833984 144.96299743652344,-52.27899932861328 144.96299743652344,-52.27899932861328 C144.96299743652344,-52.27899932861328 163.73899841308594,-52.27899932861328 163.73899841308594,-52.27899932861328 C168.34100341796875,-52.27899932861328 171.77699279785156,-51.297000885009766 174.04800415039062,-49.33399963378906 C176.31700134277344,-47.36899948120117 177.45399475097656,-44.608001708984375 177.45399475097656,-41.04999923706055 C177.45399475097656,-37.551998138427734 176.31700134277344,-34.805999755859375 174.04800415039062,-32.8129997253418 C171.77699279785156,-30.81800079345703 168.34100341796875,-29.820999145507812 163.73899841308594,-29.820999145507812 C163.73899841308594,-29.820999145507812 144.96299743652344,-29.820999145507812 144.96299743652344,-29.820999145507812 C144.96299743652344,-29.820999145507812 151.58999633789062,-22.826000213623047 151.58999633789062,-22.826000213623047 C151.58999633789062,-22.826000213623047 151.58999633789062,-59.367000579833984 151.58999633789062,-59.367000579833984z M193.7449951171875,0 C193.7449951171875,0 177.45399475097656,-23.378999710083008 177.45399475097656,-23.378999710083008 C177.45399475097656,-23.378999710083008 161.531005859375,-23.378999710083008 161.531005859375,-23.378999710083008 C161.531005859375,-23.378999710083008 177.63800048828125,0 177.63800048828125,0 C177.63800048828125,0 193.7449951171875,0 193.7449951171875,0z M151.58999633789062,0 C151.58999633789062,0 151.58999633789062,-24.482999801635742 151.58999633789062,-24.482999801635742 C151.58999633789062,-24.482999801635742 144.96299743652344,-17.947999954223633 144.96299743652344,-17.947999954223633 C144.96299743652344,-17.947999954223633 164.5679931640625,-17.947999954223633 164.5679931640625,-17.947999954223633 C170.3350067138672,-17.947999954223633 175.30499267578125,-18.868000030517578 179.47900390625,-20.708999633789062 C183.6510009765625,-22.549999237060547 186.8719940185547,-25.20400047302246 189.14300537109375,-28.67099952697754 C191.41200256347656,-32.137001037597656 192.54800415039062,-36.263999938964844 192.54800415039062,-41.04999923706055 C192.54800415039062,-45.89699935913086 191.41200256347656,-50.06999969482422 189.14300537109375,-53.56800079345703 C186.8719940185547,-57.066001892089844 183.6510009765625,-59.75 179.47900390625,-61.62200164794922 C175.30499267578125,-63.49300003051758 170.3350067138672,-64.42900085449219 164.5679931640625,-64.42900085449219 C164.5679931640625,-64.42900085449219 136.6790008544922,-64.42900085449219 136.6790008544922,-64.42900085449219 C136.6790008544922,-64.42900085449219 136.6790008544922,0 136.6790008544922,0 C136.6790008544922,0 151.58999633789062,0 151.58999633789062,0z"/></g><g opacity="1" transform="matrix(1,0,0,1,0,0)"><path fill="rgb(255,255,255)" fill-opacity="1" d=" M89.73899841308594,-52.4640007019043 C89.73899841308594,-52.4640007019043 123.61000061035156,-52.4640007019043 123.61000061035156,-52.4640007019043 C123.61000061035156,-52.4640007019043 123.61000061035156,-64.42900085449219 123.61000061035156,-64.42900085449219 C123.61000061035156,-64.42900085449219 74.9209976196289,-64.42900085449219 74.9209976196289,-64.42900085449219 C74.9209976196289,-64.42900085449219 74.9209976196289,0 74.9209976196289,0 C74.9209976196289,0 124.80699920654297,0 124.80699920654297,0 C124.80699920654297,0 124.80699920654297,-11.96500015258789 124.80699920654297,-11.96500015258789 C124.80699920654297,-11.96500015258789 89.73899841308594,-11.96500015258789 89.73899841308594,-11.96500015258789 C89.73899841308594,-11.96500015258789 89.73899841308594,-52.4640007019043 89.73899841308594,-52.4640007019043z M88.63500213623047,-26.875999450683594 C88.63500213623047,-26.875999450683594 119.65299987792969,-26.875999450683594 119.65299987792969,-26.875999450683594 C119.65299987792969,-26.875999450683594 119.65299987792969,-38.472999572753906 119.65299987792969,-38.472999572753906 C119.65299987792969,-38.472999572753906 88.63500213623047,-38.472999572753906 88.63500213623047,-38.472999572753906 C88.63500213623047,-38.472999572753906 88.63500213623047,-26.875999450683594 88.63500213623047,-26.875999450683594z"/></g><g opacity="1" transform="matrix(1,0,0,1,0,0)"><path fill="rgb(255,255,255)" fill-opacity="1" d=" M41.69499969482422,0 C41.69499969482422,0 69.58300018310547,-64.42900085449219 69.58300018310547,-64.42900085449219 C69.58300018310547,-64.42900085449219 54.76499938964844,-64.42900085449219 54.76499938964844,-64.42900085449219 C54.76499938964844,-64.42900085449219 30.097999572753906,-7.36299991607666 30.097999572753906,-7.36299991607666 C30.097999572753906,-7.36299991607666 39.577999114990234,-7.36299991607666 39.577999114990234,-7.36299991607666 C39.577999114990234,-7.36299991607666 15.279000282287598,-64.42900085449219 15.279000282287598,-64.42900085449219 C15.279000282287598,-64.42900085449219 -0.828000009059906,-64.42900085449219 -0.828000009059906,-64.42900085449219 C-0.828000009059906,-64.42900085449219 26.968000411987305,0 26.968000411987305,0 C26.968000411987305,0 41.69499969482422,0 41.69499969482422,0z"/></g></g><g transform="matrix(0.5770602226257324,-0.5770602226257324,0.5770602226257324,0.5770602226257324,552.5140380859375,773.13232421875)" opacity="1" style="display: block;"><g opacity="1" transform="matrix(0.5,0,0,0.5,0,0)"><path stroke-linecap="butt" stroke-linejoin="miter" fill-opacity="0" stroke-miterlimit="10" stroke="rgb(255,255,255)" stroke-opacity="1" stroke-width="14" d=" M90.59300231933594,-692.2429809570312 C90.59300231933594,-692.2429809570312 64.25,-652.9249877929688 64.25,-652.9249877929688 C64.25,-652.9249877929688 21,-670.6179809570312 21,-670.6179809570312 C21,-670.6179809570312 -21.06999969482422,-652.9249877929688 -21.06999969482422,-652.9249877929688 C-21.06999969482422,-652.9249877929688 -48.59299850463867,-692.2429809570312 -48.59299850463867,-692.2429809570312 C-48.59299850463867,-692.2429809570312 -94.59500122070312,-703.2520141601562 -94.59500122070312,-703.2520141601562 C-94.59500122070312,-703.2520141601562 -89.87699890136719,-750.8270263671875 -89.87699890136719,-750.8270263671875 C-89.87699890136719,-750.8270263671875 -121.7249984741211,-787 -121.7249984741211,-787 C-121.7249984741211,-787 -89.87699890136719,-823.958984375 -89.87699890136719,-823.958984375 C-89.87699890136719,-823.958984375 -94.59500122070312,-870.7479858398438 -94.59500122070312,-870.7479858398438 C-94.59500122070312,-870.7479858398438 -48.59299850463867,-881.7570190429688 -48.59299850463867,-881.7570190429688 C-48.59299850463867,-881.7570190429688 -22.25,-921.0750122070312 -22.25,-921.0750122070312 C-22.25,-921.0750122070312 21,-903.3820190429688 21,-903.3820190429688 C21,-903.3820190429688 63.4640007019043,-921.0750122070312 63.4640007019043,-921.0750122070312 C63.4640007019043,-921.0750122070312 90.59300231933594,-881.7570190429688 90.59300231933594,-881.7570190429688 C90.59300231933594,-881.7570190429688 136.59500122070312,-870.7479858398438 136.59500122070312,-870.7479858398438 C136.59500122070312,-870.7479858398438 131.8769989013672,-823.958984375 131.8769989013672,-823.958984375 C131.8769989013672,-823.958984375 163.72500610351562,-787 163.72500610351562,-787 C163.72500610351562,-787 131.8769989013672,-750.8270263671875 131.8769989013672,-750.8270263671875 C131.8769989013672,-750.8270263671875 136.59500122070312,-704.0390014648438 136.59500122070312,-704.0390014648438 C136.59500122070312,-704.0390014648438 90.59300231933594,-692.2429809570312 90.59300231933594,-692.2429809570312z"/></g><g opacity="1" transform="matrix(1,0,0,1,5,-2)"><path stroke-linecap="round" stroke-linejoin="round" fill-opacity="0" stroke="rgb(255,255,255)" stroke-opacity="1" stroke-width="12" d=" M-18.75,-406.25 C-18.75,-406.25 -18.75,-381 -18.75,-381 C-18.75,-381 33.5,-381 33.5,-381"/></g></g></g></svg>