<svg xmlns="http://www.w3.org/2000/svg" width="64" height="64" fill="none" viewBox="0 0 64 64" id="verified"><path fill="url(#paint0_linear_1798_3157)" fill-rule="evenodd" d="M26.1806 4.2985C29.455 1.23383 34.545 1.23383 37.8194 4.2985L40.6548 6.95227C41.454 7.70023 42.4976 8.13251 43.5916 8.1687L47.473 8.29712C51.9554 8.44543 55.5546 12.0446 55.7029 16.527L55.8313 20.4085C55.8675 21.5024 56.2998 22.546 57.0477 23.3452L59.7015 26.1806C62.7662 29.455 62.7662 34.545 59.7015 37.8194L57.0477 40.6548C56.2998 41.454 55.8675 42.4976 55.8313 43.5916L55.7029 47.473C55.5546 51.9554 51.9554 55.5546 47.473 55.7029L43.5915 55.8313C42.4976 55.8675 41.454 56.2998 40.6548 57.0477L37.8194 59.7015C34.545 62.7662 29.455 62.7662 26.1806 59.7015L23.3452 57.0477C22.546 56.2998 21.5024 55.8675 20.4085 55.8313L16.527 55.7029C12.0446 55.5546 8.44543 51.9554 8.29712 47.473L8.1687 43.5916C8.13251 42.4976 7.70023 41.454 6.95227 40.6548L4.2985 37.8194C1.23383 34.545 1.23383 29.455 4.2985 26.1806L6.95227 23.3452C7.70023 22.546 8.13251 21.5024 8.1687 20.4085L8.29712 16.527C8.44543 12.0446 12.0446 8.44543 16.527 8.29712L20.4085 8.1687C21.5024 8.13251 22.546 7.70023 23.3452 6.95227L26.1806 4.2985ZM44.46 25.3668C45.2149 24.5605 45.1732 23.2948 44.3668 22.54C43.5605 21.7851 42.2948 21.8268 41.54 22.6332L28.0213 37.0736L22.46 31.1332C21.7052 30.3268 20.4395 30.2851 19.6332 31.04C18.8268 31.7948 18.7851 33.0605 19.54 33.8668L26.5612 41.3668C26.9394 41.7708 27.468 42 28.0213 42C28.5746 42 29.1032 41.7708 29.4813 41.3668L44.46 25.3668Z" clip-rule="evenodd"></path><defs><linearGradient id="paint0_linear_1798_3157" x1="78.644" x2="25.425" y1="74.123" y2="11.863" gradientUnits="userSpaceOnUse"><stop offset=".003" stop-color="#FF37DF"></stop><stop offset="1" stop-color="#6E00FF"></stop></linearGradient></defs></svg>