<svg xmlns="http://www.w3.org/2000/svg" viewBox="0 0 32 32" id="Verified"><path d="M29.14,16l2.649-3.4a1,1,0,0,0-.413-1.541l-4-1.625.588-4.272a1,1,0,0,0-1.127-1.127l-4.273.588L20.944.624A1,1,0,0,0,19.4.211L16,2.86,12.6.211a1,1,0,0,0-1.541.413L9.43,4.619,5.158,4.031A1,1,0,0,0,4.031,5.158l.588,4.273L.624,11.056A1,1,0,0,0,.211,12.6L2.86,16,.211,19.4a1,1,0,0,0,.413,1.541L4.619,22.57l-.588,4.272a1,1,0,0,0,1.127,1.127l4.273-.588,1.625,4a1,1,0,0,0,1.54.413L16,29.14l3.4,2.649a1,1,0,0,0,.615.211.989.989,0,0,0,.258-.034,1,1,0,0,0,.668-.59l1.625-4,4.272.588a1,1,0,0,0,1.127-1.127l-.588-4.273,4-1.625a1,1,0,0,0,.413-1.54Zm-3.232,5.009a1,1,0,0,0-.614,1.063l.514,3.736-3.736-.514a1,1,0,0,0-1.062.614L19.59,29.4l-2.976-2.316a1,1,0,0,0-1.228,0L12.411,29.4l-1.42-3.491a1,1,0,0,0-1.063-.614l-3.736.514.514-3.736a1,1,0,0,0-.614-1.062L2.6,19.59l2.316-2.976a1,1,0,0,0,0-1.228L2.6,12.411l3.491-1.42a1,1,0,0,0,.614-1.063L6.192,6.192l3.736.514a.994.994,0,0,0,1.062-.614L12.41,2.6l2.976,2.316a1,1,0,0,0,1.228,0L19.589,2.6l1.42,3.491a1,1,0,0,0,1.063.614l3.736-.514-.514,3.736a1,1,0,0,0,.614,1.062L29.4,12.41l-2.316,2.976a1,1,0,0,0,0,1.228L29.4,19.589Z" fill="#ffffff" class="color000000 svgShape"></path><path d="M21.293,11.293,14,18.586l-3.293-3.293a1,1,0,0,0-1.414,1.414l4,4a1,1,0,0,0,1.414,0l8-8a1,1,0,0,0-1.414-1.414Z" fill="#ffffff" class="color000000 svgShape"></path></svg>