<svg xmlns="http://www.w3.org/2000/svg" enable-background="new 0 0 512 512" viewBox="0 0 512 512" id="AppDownload"><path fill="#0069ff" d="M386,86.13V86V66.33C386,44.06,367.939,26,345.67,26H166c-22.27,0-40.33,18.06-40.33,40.33V86v340
			v19.67c0,22.271,18.06,40.33,40.33,40.33h179.67c22.27,0,40.33-18.06,40.33-40.33l0.029-19.67l0.301-168.7L386,86.13z" class="color168879 svgShape"></path><polygon fill="#0069ff" points="386 86.13 386 86 125.67 86 125.67 426 386 426 386.029 426 386.33 257.3" class="color168879 svgShape"></polygon><path fill="#464648" d="M386.029 426L386 445.67c0 22.271-18.061 40.33-40.33 40.33H166c-22.27 0-40.33-18.06-40.33-40.33V426H386 386.029zM345.67 26H166c-22.27 0-40.33 18.06-40.33 40.33V86H386V66.33C386 44.06 367.939 26 345.67 26z" class="color484648 svgShape"></path><path fill="#323233" d="M296 46c-2.76 0-5.26 1.12-7.07 2.93S286 53.24 286 56s1.119 5.26 2.93 7.07S293.24 66 296 66s5.26-1.12 7.07-2.93c1.81-1.81 2.93-4.31 2.93-7.07C306 50.48 301.52 46 296 46zM266 66c5.523 0 10-4.477 10-10s-4.477-10-10-10h-40c-5.523 0-10 4.477-10 10s4.477 10 10 10H266zM276 446h-40c-5.523 0-10 4.478-10 10s4.477 10 10 10h40c5.523 0 10-4.478 10-10S281.523 446 276 446z" class="color323233 svgShape"></path><path fill="#22409b" d="M286 126c-2.76 0-5.26 1.12-7.07 2.93S276 133.24 276 136s1.119 5.26 2.93 7.07S283.24 146 286 146s5.26-1.12 7.07-2.93c1.81-1.81 2.93-4.31 2.93-7.07C296 130.48 291.52 126 286 126zM186 136c2.76 0 5.26-1.12 7.07-2.93S196 128.76 196 126c0-5.52-4.48-10-10-10-2.76 0-5.26 1.12-7.07 2.93S176 123.24 176 126s1.12 5.26 2.93 7.07S183.24 136 186 136zM346 106c-5.523 0-10 4.477-10 10v20c0 5.523 4.477 10 10 10s10-4.477 10-10v-20C356 110.477 351.523 106 346 106zM316 116c-5.523 0-10 4.477-10 10v10c0 5.523 4.477 10 10 10s10-4.477 10-10v-10C326 120.477 321.523 116 316 116zM206 146h-80c-.111 0-.22.013-.33.017v19.967c.11.003.219.017.33.017h80c5.523 0 10-4.477 10-10S211.523 146 206 146zM156 136c5.523 0 10-4.477 10-10s-4.477-10-10-10h-30c-.111 0-.22.013-.33.017v19.967c.11.003.219.017.33.017H156z" class="color116c5d svgShape"></path><path fill="#556bad" d="M476,171c0,13.81-11.19,25-25,25c-13.811,0-25-11.19-25-25s11.189-25,25-25
			C464.81,146,476,157.19,476,171z M56,326c-11.04,0-20,8.95-20,20s8.96,20,20,20c11.05,0,20-8.95,20-20S67.05,326,56,326z" class="colorad555d svgShape"></path><path fill="#6e82bf" d="M456,56c0,2.76-1.12,5.26-2.93,7.07C451.26,64.88,448.76,66,446,66s-5.26-1.12-7.07-2.93
			S436,58.76,436,56s1.119-5.26,2.93-7.07S443.24,46,446,46C451.52,46,456,50.48,456,56z M436,256c-2.76,0-5.26,1.12-7.07,2.93
			c-1.811,1.811-2.93,4.311-2.93,7.07s1.119,5.26,2.93,7.07c1.811,1.81,4.311,2.93,7.07,2.93s5.26-1.12,7.07-2.93
			c1.81-1.811,2.93-4.311,2.93-7.07C446,260.48,441.52,256,436,256z M426,426c-2.76,0-5.26,1.12-7.07,2.93
			c-1.811,1.811-2.93,4.311-2.93,7.07s1.119,5.26,2.93,7.07c1.811,1.81,4.311,2.93,7.07,2.93s5.26-1.12,7.07-2.93
			c1.81-1.811,2.93-4.311,2.93-7.07C436,430.48,431.52,426,426,426z M76,246c-2.76,0-5.26,1.12-7.07,2.93S66,253.24,66,256
			s1.12,5.26,2.93,7.07c1.81,1.81,4.31,2.93,7.07,2.93c2.76,0,5.26-1.12,7.07-2.93C84.88,261.26,86,258.76,86,256
			C86,250.48,81.52,246,76,246z M76,416c-2.76,0-5.26,1.12-7.07,2.93C67.12,420.74,66,423.24,66,426s1.12,5.26,2.93,7.07
			c1.81,1.81,4.31,2.93,7.07,2.93c2.76,0,5.26-1.12,7.07-2.93C84.88,431.26,86,428.76,86,426C86,420.48,81.52,416,76,416z M46,96
			c-2.76,0-5.26,1.12-7.07,2.93S36,103.24,36,106s1.12,5.26,2.93,7.07S43.24,116,46,116c2.76,0,5.26-1.12,7.07-2.93
			S56,108.76,56,106C56,100.48,51.52,96,46,96z" class="colorbfb96e svgShape"></path><path fill="#788abf" d="M256,316h-70c-16.57,0-30-13.43-30-30s13.43-30,30-30c0.34,0,0.67,0.01,1.01,0.03
			c-0.66-3.24-1.01-6.6-1.01-10.03c0-27.61,22.39-50,50-50c24.88,0,45.5,18.17,49.35,41.95c3.311-1.25,6.9-1.95,10.65-1.95
			c13.08,0,24.199,8.37,28.3,20.05c0.569-0.03,1.13-0.05,1.7-0.05c16.57,0,30,13.43,30,30s-13.43,30-30,30H256z" class="color7898bf svgShape"></path><path fill="#323233" d="M293.071,348.929c-3.905-3.904-10.237-3.904-14.143,0L266,361.857V286c0-5.522-4.477-10-10-10
			c-5.523,0-10,4.478-10,10v75.857l-12.929-12.929c-3.905-3.904-10.237-3.904-14.143,0c-3.905,3.905-3.905,10.237,0,14.143l30,30
			c0.033,0.032,0.068,0.06,0.102,0.092c0.203,0.197,0.411,0.389,0.629,0.568c0.123,0.102,0.252,0.189,0.379,0.284
			c0.135,0.101,0.267,0.205,0.407,0.299c0.145,0.098,0.296,0.182,0.445,0.271c0.131,0.078,0.259,0.161,0.395,0.233
			c0.149,0.08,0.303,0.147,0.455,0.219c0.144,0.068,0.285,0.141,0.433,0.201c0.146,0.061,0.296,0.109,0.445,0.163
			c0.159,0.058,0.316,0.118,0.479,0.167c0.148,0.045,0.3,0.078,0.45,0.116c0.166,0.042,0.33,0.088,0.5,0.122
			c0.173,0.034,0.349,0.055,0.523,0.08c0.148,0.021,0.293,0.049,0.443,0.063c0.328,0.032,0.657,0.05,0.986,0.05
			s0.658-0.018,0.986-0.05c0.15-0.015,0.295-0.043,0.443-0.063c0.175-0.025,0.35-0.046,0.523-0.08c0.17-0.034,0.334-0.08,0.5-0.122
			c0.149-0.038,0.301-0.071,0.449-0.116c0.162-0.049,0.32-0.109,0.479-0.167c0.149-0.054,0.299-0.103,0.445-0.163
			c0.147-0.061,0.289-0.133,0.433-0.201c0.152-0.071,0.306-0.139,0.455-0.219c0.136-0.072,0.264-0.155,0.396-0.233
			c0.148-0.089,0.3-0.173,0.445-0.271c0.14-0.094,0.271-0.198,0.406-0.299c0.127-0.095,0.256-0.183,0.379-0.284
			c0.219-0.18,0.428-0.371,0.63-0.568c0.033-0.032,0.069-0.06,0.102-0.092l30-30C296.977,359.166,296.977,352.834,293.071,348.929z" class="color323233 svgShape"></path></svg>