<svg xmlns="http://www.w3.org/2000/svg" xmlns:xlink="http://www.w3.org/1999/xlink" width="1080" zoomAndPan="magnify" viewBox="0 0 810 809.999993" height="1080" preserveAspectRatio="xMidYMid meet" version="1.0"><defs><clipPath id="8f17bda821"><path d="M 282 329 L 529 329 L 529 552.53125 L 282 552.53125 Z M 282 329 " clip-rule="nonzero"/></clipPath></defs><rect x="-81" width="972" fill="#ffffff" y="-80.999999" height="971.999992" fill-opacity="1"/><rect x="-81" width="972" fill="#ffffff" y="-80.999999" height="971.999992" fill-opacity="1"/><path fill="#004aad" d="M 553.402344 361.195312 L 503.53125 324.511719 L 503.53125 280.753906 C 503.53125 273.894531 497.964844 268.34375 491.113281 268.34375 L 470.933594 268.34375 C 464.070312 268.34375 458.511719 273.902344 458.511719 280.753906 L 458.511719 291.386719 L 420.488281 263.417969 C 412.238281 257.335938 398.730469 257.335938 390.480469 263.417969 L 257.570312 361.195312 C 249.320312 367.265625 247.542969 378.996094 253.613281 387.253906 L 257.289062 392.242188 C 263.351562 400.5 275.078125 402.289062 283.320312 396.214844 L 390.480469 317.347656 C 398.730469 311.277344 412.238281 311.277344 420.488281 317.347656 L 527.640625 396.214844 C 535.890625 402.289062 547.609375 400.492188 553.675781 392.242188 L 557.355469 387.253906 C 563.421875 378.996094 561.640625 367.265625 553.402344 361.195312 Z M 553.402344 361.195312 " fill-opacity="1" fill-rule="nonzero"/><g clip-path="url(#8f17bda821)"><path fill="#004aad" d="M 513.640625 403.074219 L 420.460938 334.207031 C 412.21875 328.117188 398.75 328.117188 390.511719 334.207031 L 297.332031 403.074219 C 289.09375 409.167969 282.347656 418.078125 282.347656 422.910156 L 282.347656 522.753906 C 282.347656 538.960938 296.246094 552.109375 313.394531 552.109375 L 370.300781 552.109375 L 370.300781 463.789062 C 370.300781 456.96875 375.886719 451.390625 382.707031 451.390625 L 428.242188 451.390625 C 435.066406 451.390625 440.652344 456.96875 440.652344 463.789062 L 440.652344 552.109375 L 497.566406 552.109375 C 514.707031 552.109375 528.59375 538.960938 528.59375 522.753906 L 528.59375 422.910156 C 528.605469 418.078125 521.878906 409.167969 513.640625 403.074219 Z M 513.640625 403.074219 " fill-opacity="1" fill-rule="nonzero"/></g></svg>