<svg xmlns="http://www.w3.org/2000/svg" xmlns:xlink="http://www.w3.org/1999/xlink" width="1080" zoomAndPan="magnify" viewBox="0 0 810 809.999993" height="1080" preserveAspectRatio="xMidYMid meet" version="1.0"><defs><clipPath id="1e75ad564d"><path d="M 248 289.371094 L 561 289.371094 L 561 416 L 248 416 Z M 248 289.371094 " clip-rule="nonzero"/></clipPath><clipPath id="64e63be5b1"><path d="M 243 328 L 567 328 L 567 520.371094 L 243 520.371094 Z M 243 328 " clip-rule="nonzero"/></clipPath></defs><rect x="-81" width="972" fill="#ffffff" y="-80.999999" height="971.999992" fill-opacity="1"/><rect x="-81" width="972" fill="#ffffff" y="-80.999999" height="971.999992" fill-opacity="1"/><g clip-path="url(#1e75ad564d)"><path fill="#004aad" d="M 383.804688 408.789062 C 385.3125 409.945312 386.90625 410.972656 388.582031 411.867188 C 390.257812 412.765625 391.996094 413.519531 393.796875 414.128906 C 395.597656 414.742188 397.4375 415.203125 399.3125 415.511719 C 401.1875 415.820312 403.074219 415.976562 404.976562 415.976562 C 406.878906 415.976562 408.765625 415.820312 410.640625 415.511719 C 412.519531 415.203125 414.355469 414.742188 416.15625 414.128906 C 417.957031 413.519531 419.695312 412.765625 421.371094 411.867188 C 423.046875 410.972656 424.640625 409.945312 426.148438 408.789062 L 560.5 304.101562 C 559.707031 302.96875 558.847656 301.886719 557.921875 300.859375 C 557 299.828125 556.015625 298.855469 554.976562 297.945312 C 553.933594 297.03125 552.84375 296.1875 551.699219 295.40625 C 550.558594 294.625 549.371094 293.914062 548.144531 293.277344 C 546.917969 292.636719 545.65625 292.074219 544.359375 291.585938 C 543.0625 291.097656 541.746094 290.691406 540.398438 290.363281 C 539.054688 290.035156 537.695312 289.785156 536.324219 289.621094 C 534.949219 289.457031 533.570312 289.371094 532.183594 289.371094 L 277.816406 289.371094 C 276.347656 289.375 274.890625 289.472656 273.4375 289.660156 C 271.984375 289.847656 270.546875 290.128906 269.128906 290.5 C 267.710938 290.871094 266.324219 291.332031 264.964844 291.878906 C 263.605469 292.425781 262.285156 293.058594 261.007812 293.773438 C 259.726562 294.488281 258.5 295.28125 257.320312 296.152344 C 256.140625 297.027344 255.023438 297.96875 253.964844 298.980469 C 252.90625 299.996094 251.917969 301.070312 250.996094 302.210938 C 250.074219 303.351562 249.226562 304.542969 248.457031 305.789062 Z M 383.804688 408.789062 " fill-opacity="1" fill-rule="nonzero"/></g><g clip-path="url(#64e63be5b1)"><path fill="#004aad" d="M 440.3125 427.113281 C 439.058594 428.078125 437.765625 428.988281 436.4375 429.84375 C 435.109375 430.699219 433.75 431.503906 432.355469 432.246094 C 430.960938 432.992188 429.539062 433.679688 428.089844 434.308594 C 426.636719 434.9375 425.164062 435.507812 423.667969 436.015625 C 422.171875 436.523438 420.65625 436.96875 419.121094 437.355469 C 417.589844 437.738281 416.042969 438.058594 414.484375 438.316406 C 412.921875 438.574219 411.355469 438.769531 409.78125 438.898438 C 408.207031 439.027344 406.628906 439.089844 405.046875 439.089844 C 403.464844 439.089844 401.886719 439.027344 400.3125 438.898438 C 398.738281 438.769531 397.167969 438.574219 395.609375 438.316406 C 394.050781 438.058594 392.503906 437.738281 390.96875 437.355469 C 389.4375 436.96875 387.921875 436.523438 386.425781 436.015625 C 384.925781 435.507812 383.453125 434.9375 382.003906 434.308594 C 380.554688 433.679688 379.132812 432.992188 377.738281 432.246094 C 376.34375 431.503906 374.984375 430.699219 373.65625 429.84375 C 372.324219 428.988281 371.035156 428.078125 369.78125 427.113281 L 243.128906 330.800781 L 243.128906 485.933594 C 243.128906 487.066406 243.183594 488.199219 243.292969 489.332031 C 243.40625 490.460938 243.574219 491.585938 243.792969 492.699219 C 244.015625 493.8125 244.292969 494.914062 244.621094 496 C 244.949219 497.085938 245.332031 498.15625 245.769531 499.207031 C 246.203125 500.253906 246.6875 501.28125 247.222656 502.28125 C 247.757812 503.285156 248.34375 504.257812 248.972656 505.203125 C 249.605469 506.148438 250.28125 507.058594 251 507.9375 C 251.722656 508.816406 252.484375 509.65625 253.289062 510.460938 C 254.089844 511.261719 254.929688 512.023438 255.808594 512.746094 C 256.6875 513.464844 257.597656 514.140625 258.542969 514.773438 C 259.488281 515.402344 260.460938 515.988281 261.464844 516.523438 C 262.464844 517.058594 263.492188 517.542969 264.539062 517.976562 C 265.589844 518.414062 266.660156 518.796875 267.746094 519.125 C 268.832031 519.453125 269.933594 519.730469 271.046875 519.953125 C 272.160156 520.171875 273.285156 520.339844 274.414062 520.453125 C 275.546875 520.5625 276.679688 520.617188 277.816406 520.617188 L 532.183594 520.617188 C 533.320312 520.617188 534.453125 520.5625 535.585938 520.453125 C 536.714844 520.339844 537.839844 520.171875 538.953125 519.953125 C 540.066406 519.730469 541.167969 519.453125 542.253906 519.125 C 543.339844 518.796875 544.410156 518.414062 545.460938 517.976562 C 546.507812 517.542969 547.535156 517.058594 548.535156 516.523438 C 549.539062 515.988281 550.511719 515.402344 551.457031 514.773438 C 552.402344 514.140625 553.3125 513.464844 554.191406 512.746094 C 555.070312 512.023438 555.910156 511.261719 556.710938 510.460938 C 557.515625 509.65625 558.277344 508.816406 559 507.9375 C 559.71875 507.058594 560.394531 506.148438 561.027344 505.203125 C 561.65625 504.257812 562.242188 503.285156 562.777344 502.28125 C 563.3125 501.28125 563.796875 500.253906 564.230469 499.207031 C 564.667969 498.15625 565.050781 497.085938 565.378906 496 C 565.707031 494.914062 565.984375 493.8125 566.207031 492.699219 C 566.425781 491.585938 566.59375 490.460938 566.707031 489.332031 C 566.816406 488.199219 566.871094 487.066406 566.871094 485.933594 L 566.871094 328.511719 Z M 440.3125 427.113281 " fill-opacity="1" fill-rule="nonzero"/></g></svg>