<svg xmlns="http://www.w3.org/2000/svg" xmlns:xlink="http://www.w3.org/1999/xlink" width="1080" zoomAndPan="magnify" viewBox="0 0 810 809.999993" height="1080" preserveAspectRatio="xMidYMid meet" version="1.0"><rect x="-81" width="972" fill="#ffffff" y="-80.999999" height="971.999992" fill-opacity="1"/><rect x="-81" width="972" fill="#ffffff" y="-80.999999" height="971.999992" fill-opacity="1"/><path fill="#004aad" d="M 405 243 C 315.671875 243 243 315.671875 243 405 C 243 494.328125 315.671875 567 405 567 C 494.328125 567 567 494.328125 567 405 C 567 315.671875 494.328125 243 405 243 Z M 499.351562 378.59375 L 484.675781 464.089844 C 483.839844 468.949219 479.628906 472.5 474.699219 472.5 L 335.300781 472.5 C 330.371094 472.5 326.160156 468.949219 325.324219 464.089844 L 310.648438 378.59375 C 310 374.855469 311.511719 371.0625 314.550781 368.78125 C 317.601562 366.484375 321.636719 366.121094 325.066406 367.78125 L 364.136719 386.800781 L 396.15625 329.199219 C 399.722656 322.757812 410.292969 322.757812 413.855469 329.199219 L 445.878906 386.800781 L 484.945312 367.78125 C 488.363281 366.121094 492.414062 366.484375 495.464844 368.78125 C 498.488281 371.0625 500 374.855469 499.351562 378.59375 Z M 499.351562 378.59375 " fill-opacity="1" fill-rule="nonzero"/></svg>