<svg xmlns="http://www.w3.org/2000/svg" xmlns:xlink="http://www.w3.org/1999/xlink" width="1080" zoomAndPan="magnify" viewBox="0 0 810 809.999993" height="1080" preserveAspectRatio="xMidYMid meet" version="1.0"><rect x="-81" width="972" fill="" y="-80.999999" height="971.999992" fill-opacity="1"/><rect x="-81" width="972" fill="#ffffff" y="-80.999999" height="971.999992" fill-opacity="1"/><path fill="#004aad" d="M 405 411.0625 C 448.371094 411.0625 483.652344 365.027344 483.652344 321.660156 C 483.652344 278.289062 448.371094 243 405 243 C 361.625 243 326.34375 278.289062 326.34375 321.660156 C 326.347656 365.027344 361.628906 411.0625 405 411.0625 Z M 405 411.0625 " fill-opacity="1" fill-rule="nonzero"/><path fill="#004aad" d="M 464.046875 411.867188 C 448.789062 423.492188 429.753906 430.410156 409.136719 430.410156 L 400.859375 430.410156 C 380.238281 430.410156 361.199219 423.488281 345.949219 411.867188 C 296.132812 419.921875 258.089844 463.101562 258.089844 515.183594 C 258.089844 543.796875 323.863281 567 405 567 C 486.132812 567 551.90625 543.796875 551.90625 515.183594 C 551.90625 463.101562 513.863281 419.921875 464.046875 411.867188 Z M 464.046875 411.867188 " fill-opacity="1" fill-rule="nonzero"/></svg>