<svg xmlns="http://www.w3.org/2000/svg" width="500" height="500" enable-background="new 0 0 500 500" viewBox="0 0 500 500" id="award"><polygon fill="#B23B11" points="472.021 399.208 409.538 404.097 404.699 466.584 244.578 306.595 311.9 239.218"></polygon><polygon fill="#FED555" points="408.002 423.944 409.538 404.097 430.856 402.428 289.725 261.412 267.547 283.605"></polygon><path d="M311.9,239.218l-67.322,67.377l81.505,81.438c2.864-2.886,4.802-6.649,5.413-10.806l35.298,23.852
		c13.425,9.71,20.374,10.995,30.085-2.43l29.617-44.932L311.9,239.218z" opacity=".2"></path><path fill="#C9472D" d="M396.955,375.621c-9.123,13.831-20.934,13.195-31.448,6.26l-48.788-34.316
		c-10.515-6.935-5.368-17.496,3.756-31.326l31.384-47.581c9.124-13.831,25.042-19.421,35.556-12.487l42.515,28.044
		c10.513,6.936,15.632,17.718,6.509,31.548L396.955,375.621z"></path><path fill="#FED555" d="M406.086,361.777l21.338-32.348c-2.645-1.922-5.428-3.854-8.33-5.769l-89.102-58.771
		c-2.904-1.915-5.775-3.714-8.584-5.388l-21.337,32.348c2.646,1.923,5.429,3.854,8.333,5.77l89.1,58.771
		C400.408,358.305,403.278,360.103,406.086,361.777z"></path><path d="M401.639,318.046c6.785-9.335,7.661-21.587,2.41-31.734c6.36-0.967,12.119-3.898,16.573-8.236
		l-33.208-21.905c-10.514-6.934-26.432-1.344-35.556,12.487l-31.384,47.581c-9.124,13.83-14.271,24.392-3.756,31.326l25.312,17.805
		c0.082,0,0.162,0.007,0.244,0.007c6.446,0,12.609-2.001,17.823-5.788c9.342-6.786,13.959-18.169,12.099-29.44
		c1.62,0.267,3.267,0.401,4.912,0.401C386.783,330.549,395.953,325.875,401.639,318.046z" opacity=".2"></path><polygon fill="#B23B11" points="26.578 399.208 89.062 404.097 93.9 466.584 254.021 306.595 186.699 239.218"></polygon><polygon fill="#FED555" points="90.598 423.944 89.062 404.097 67.743 402.428 208.875 261.412 231.053 283.605"></polygon><path d="M186.699,239.218l67.322,67.377l-81.505,81.438c-2.864-2.886-4.802-6.649-5.413-10.806l-35.298,23.852
		c-13.425,9.71-20.374,10.995-30.085-2.43l-29.617-44.932L186.699,239.218z" opacity=".2"></path><path fill="#C9472D" d="M101.645,375.621c9.123,13.831,20.934,13.195,31.448,6.26l48.788-34.316
		c10.515-6.935,5.368-17.496-3.756-31.326l-31.384-47.581c-9.124-13.831-25.042-19.421-35.556-12.487l-42.515,28.044
		c-10.513,6.936-15.632,17.718-6.509,31.548L101.645,375.621z"></path><path fill="#FED555" d="M92.514,361.777L71.176,329.43c2.645-1.922,5.428-3.854,8.33-5.769l89.102-58.771
		c2.904-1.915,5.775-3.714,8.584-5.388l21.337,32.348c-2.646,1.923-5.429,3.854-8.333,5.77l-89.1,58.771
		C98.191,358.305,95.321,360.103,92.514,361.777z"></path><path d="M96.961,318.046c-6.785-9.335-7.661-21.587-2.41-31.734c-6.36-0.967-12.119-3.898-16.573-8.236
		l33.208-21.905c10.514-6.934,26.432-1.344,35.556,12.487l31.384,47.581c9.124,13.83,14.271,24.392,3.756,31.326l-25.312,17.805
		c-0.082,0-0.162,0.007-0.244,0.007c-6.446,0-12.609-2.001-17.823-5.788c-9.342-6.786-13.959-18.169-12.099-29.44
		c-1.62,0.267-3.267,0.401-4.912,0.401C111.816,330.549,102.646,325.875,96.961,318.046z" opacity=".2"></path><path fill="#F9B428" d="M426.495,207.686c0-7.765-4.651-14.775-11.805-17.796l-14.341-6.059l11.77-10.19
			c5.869-5.085,8.125-13.189,5.727-20.575c-2.4-7.386-8.99-12.619-16.729-13.28l-15.512-1.328l7.757-12.85
			c1.946-3.016,3.075-6.607,3.075-10.461c0-10.445-8.275-18.952-18.635-19.31c-0.23-0.008-0.463-0.011-0.693-0.012
			c-0.438,0-0.877,0.015-1.318,0.044c-1.189,0.082-2.352,0.271-3.474,0.555l-14.753,3.436l3.365-14.462
			c0.441-1.618,0.678-3.321,0.678-5.079c0-10.662-8.625-19.318-19.283-19.318c-0.016,0-0.031,0-0.049,0c-0.112,0-0.223,0-0.336,0
			c-0.004,0-0.009,0-0.009,0c-0.009,0-0.015,0-0.023,0c-3.626,0-7.006,1.135-9.88,2.938l-13.061,7.881l-1.328-15.512
			c-0.662-7.736-5.895-14.328-13.279-16.727c-1.962-0.64-3.975-0.945-5.971-0.945c-5.508,0-10.871,2.357-14.604,6.67l-10.192,11.772
			l-6.057-14.345c-3.021-7.153-10.032-11.805-17.797-11.805c-7.766,0-14.777,4.652-17.797,11.805l-6.057,14.342l-10.193-11.77
			c-3.734-4.312-9.098-6.671-14.605-6.671c-1.996,0-4.007,0.308-5.969,0.945c-7.387,2.4-12.617,8.99-13.281,16.728l-1.325,15.511
			l-13.33-8.044c-3.081-1.857-6.538-2.778-9.981-2.778c-3.998,0-7.984,1.237-11.357,3.69c-6.282,4.564-9.223,12.447-7.461,20.011
			l3.531,15.163l-15.166-3.528c-1.454-0.341-2.924-0.505-4.379-0.506c-6.098,0-11.945,2.894-15.631,7.964
			c-4.565,6.283-4.923,14.688-0.91,21.338l8.043,13.33l-15.51,1.328c-7.737,0.661-14.328,5.895-16.728,13.28
			c-2.401,7.386-0.146,15.49,5.724,20.575l11.77,10.19l-14.34,6.059c-7.154,3.021-11.806,10.031-11.806,17.796
			c0,7.767,4.651,14.778,11.806,17.799l14.34,6.056l-11.77,10.193c-5.869,5.084-8.125,13.188-5.724,20.573
			c2.399,7.386,8.99,12.619,16.728,13.281l15.51,1.326l-8.043,13.33c-4.013,6.65-3.655,15.056,0.91,21.338
			c3.686,5.072,9.533,7.967,15.631,7.967c1.455,0,2.923-0.165,4.379-0.506l15.166-3.531l-3.531,15.165
			c-1.762,7.562,1.179,15.446,7.461,20.011c3.373,2.451,7.359,3.688,11.357,3.688c3.446,0,6.9-0.919,9.981-2.778l13.33-8.043
			l1.325,15.511c0.664,7.737,5.895,14.328,13.281,16.729c1.96,0.638,3.973,0.944,5.969,0.944c5.508,0,10.871-2.36,14.605-6.672
			l10.193-11.769l6.057,14.341c3.02,7.153,10.031,11.806,17.797,11.806c7.765,0,14.776-4.652,17.797-11.806l6.057-14.341
			l10.192,11.769c3.733,4.312,9.097,6.672,14.604,6.672c1.996,0,4.007-0.307,5.971-0.944c7.385-2.4,12.617-8.991,13.279-16.729
			l1.328-15.511l13.328,8.043c3.08,1.859,6.537,2.778,9.98,2.778c3.998,0,7.984-1.237,11.359-3.688
			c6.283-4.564,9.222-12.448,7.459-20.011l-3.529-15.165l15.164,3.531c1.456,0.341,2.928,0.506,4.381,0.506
			c6.098,0,11.945-2.895,15.629-7.967c4.566-6.282,4.926-14.688,0.912-21.338l-8.045-13.33l15.512-1.326
			c7.738-0.662,14.328-5.896,16.729-13.281c2.398-7.385,0.143-15.489-5.727-20.573l-11.77-10.193l14.341-6.056
			C421.844,222.464,426.495,215.452,426.495,207.686z"></path><polygon fill="#FFF9A9" points="226.648 360.104 229.127 365.974 407.954 187.044 402.088 184.566" opacity=".2"></polygon><path fill="#FFF9A9" d="M193.064 374.98l223.932-224.049c-1.497-3.237-3.832-5.956-6.714-7.904L185.123 368.302C187.082 371.175 189.818 373.497 193.064 374.98zM304.53 39.6L81.69 262.468c2.177 6.508 7.618 11.308 14.215 12.739L317.267 53.813C315.848 47.209 311.045 41.784 304.53 39.6z" opacity=".2"></path><polygon fill="#FFF9A9" points="269.051 46.318 88.387 227.004 97.381 230.803 272.848 55.312" opacity=".2"></polygon><path fill="#F9B428" d="M249.738,84.007c-67.865,0-122.877,55.013-122.877,122.878s55.012,122.878,122.877,122.878
			c67.864,0,122.877-55.013,122.877-122.878S317.603,84.007,249.738,84.007z"></path><path fill="#FED555" d="M249.738,74.942c-72.872,0-131.941,59.071-131.941,131.942s59.069,131.942,131.941,131.942
			c72.87,0,131.941-59.071,131.941-131.942S322.608,74.942,249.738,74.942z M249.738,317.819
			c-61.268,0-110.935-49.666-110.935-110.935c0-61.268,49.667-110.936,110.935-110.936s110.934,49.668,110.934,110.936
			C360.672,268.153,311.006,317.819,249.738,317.819z"></path><polygon fill="#FFF" fill-rule="evenodd" points="126.879 216.761 131.09 203.942 143.91 199.729 131.09 195.514 126.879 182.696 122.664 195.514 109.845 199.729 122.664 203.942" clip-rule="evenodd"></polygon><polygon fill="#FFF" fill-rule="evenodd" points="359.277 290.772 363.489 277.956 376.309 273.742 363.489 269.526 359.277 256.708 355.062 269.526 342.245 273.742 355.062 277.956" clip-rule="evenodd"></polygon><polygon fill="#FFF" fill-rule="evenodd" points="157.957 123.854 151.271 103.516 144.586 123.854 124.24 130.543 144.586 137.229 151.271 157.567 157.957 137.229 178.296 130.543" clip-rule="evenodd"></polygon><g><path fill="#E2901A" d="M321.478,159.34l-4.426-4.421c-2.745-2.745-6.396-4.257-10.279-4.257c-3.859,0-7.492,1.495-10.232,4.212
				l-63.67,61.93l-16.239-17.397l-0.115-0.124l-0.12-0.119c-2.82-2.784-7.383-3.775-10.714-3.775c-3.962,0-7.367,1.314-9.849,3.802
				l-4.408,4.404c-5.88,5.875-4.172,16.173-0.145,20.425l30.837,32.913l0.091,0.099l0.096,0.095
				c2.667,2.669,6.413,4.199,10.277,4.199c3.891,0,7.525-1.486,10.239-4.184l78.596-77.186l0.026-0.026l0.026-0.026
				C327.132,174.239,327.136,165.015,321.478,159.34z"></path><path fill="#FED555" d="M315.541,157.061l-4.426-4.421c-2.745-2.745-6.396-4.257-10.279-4.257c-3.859,0-7.492,1.495-10.232,4.212
				l-63.67,61.93l-16.239-17.397l-0.115-0.124l-0.12-0.119c-2.82-2.784-7.383-3.775-10.714-3.775c-3.962,0-7.367,1.314-9.849,3.802
				l-4.408,4.404c-5.88,5.875-4.172,16.173-0.145,20.425l30.837,32.913l0.091,0.099l0.096,0.095
				c2.667,2.669,6.413,4.199,10.277,4.199c3.891,0,7.525-1.486,10.239-4.184l78.596-77.186l0.026-0.026l0.026-0.026
				C321.195,171.96,321.199,162.735,315.541,157.061z"></path></g></svg>