<svg xmlns="http://www.w3.org/2000/svg" enable-background="new 0 0 64 64" viewBox="0 0 64 64" id="business-award"><rect width="5.69" height="12.53" x="6" y="42.34" fill="#35a6e0"></rect><rect width="5.69" height="18.22" x="14.02" y="36.66" fill="#35a6e0"></rect><rect width="5.69" height="24.66" x="22.04" y="30.21" fill="#35a6e0"></rect><rect width="5.69" height="30.57" x="30.05" y="24.31" fill="#35a6e0"></rect><rect width="5.69" height="37.06" x="38.07" y="17.81" fill="#35a6e0"></rect><path fill="#f90000" d="M40.55,4.96l-4.8,2.75l1.66,0.98c-2.76,4.19-6.42,8.85-12.52,13.34c-5.23,3.85-11.35,6.04-19.44,6.03
	c1.16,1.23,1.93,4.17,1.4,5.98c1.91-0.4,10.8-2.58,19.99-10.11c4.13-3.38,7.92-8.43,11.85-14.21l1.46,1.16L40.55,4.96z"></path><g><rect width="2.89" height="14.31" x="43.03" y="39.87" fill="#feb500"></rect><path fill="#fc0" d="M47.42 47.02c0 1.63-1.32 2.95-2.95 2.95-1.63 0-2.95-1.32-2.95-2.95s1.32-2.95 2.95-2.95C46.1 44.07 47.42 45.39 47.42 47.02zM45.96 52.04c-.41.21-.9.34-1.48.34-.58 0-1.07-.13-1.49-.34-1.09.53-2.37 1.24-2.37 1.62v.02c0 .66.53 1.19 1.19 1.19h5.31c.66 0 1.19-.53 1.19-1.19v-.02C48.32 53.28 47.05 52.57 45.96 52.04z"></path><path fill="#feb500" d="M53.12 30.09c0 0 2.98-3.7 6.58-.99 3.61 2.71.92 8.26-3.67 8.82-2.15.26-2.33 1.31-1.7 2.24 0 0 1.59.74 1.83-.72 0 0 .78 2.37-2.22 2.13-3.15-.25-2.43-4.6.27-5.47 2.92-.94 3.5-2.45 2.41-3.62-.44-.47-1.49-.33-2.02-.09-.62.28-2.21 1.67-2.21 1.67L53.12 30.09zM35.78 30.09c0 0-2.98-3.7-6.58-.99-3.61 2.71-.92 8.26 3.67 8.82 2.15.26 2.33 1.31 1.7 2.24 0 0-1.59.74-1.83-.72 0 0-.78 2.37 2.22 2.13 3.15-.25 2.43-4.6-.27-5.47-2.92-.94-3.5-2.45-2.41-3.62.44-.47 1.49-.33 2.02-.09.62.28 2.21 1.67 2.21 1.67L35.78 30.09z"></path><path fill="#feb500" d="M44.47,27.7h-9.74c0,0,0.18,15.17,9.74,15.17c9.56,0,9.74-15.17,9.74-15.17H44.47z"></path><path fill="#fc0" d="M53.98,30.54c0.22-1.67,0.24-2.83,0.24-2.83H34.73c0,0,0.01,1.16,0.24,2.83H53.98z"></path></g></svg>