<svg xmlns="http://www.w3.org/2000/svg" viewBox="0 0 100 100" id="crown"><circle cx="50" cy="50" r="48" fill="#daac01"></circle><path fill="#fff" d="M35.455 67.55v5.46c0 .55.45 1 1 1h27.09c.55 0 1-.45 1-1v-5.46h-29.09zM70.005 33.99c-1.65 0-3 1.35-3 3 0 .623.19 1.201.515 1.68L56.295 49l-4.983-15.25a3.987 3.987 0 0 0 2.683-3.76c0-2.2-1.79-4-4-4-2.2 0-4 1.8-4 4 0 1.758 1.147 3.234 2.72 3.771l-4.98 15.269-11.254-10.358a3.002 3.002 0 0 0-2.486-4.682c-1.65 0-3 1.35-3 3 0 1.66 1.35 3 3 3 .08 0 .155-.017.234-.023l4.896 25.573h29.75l4.896-25.574c.079.007.154.024.234.024 1.66 0 3-1.34 3-3 0-1.65-1.34-3-3-3z"></path></svg>