<svg xmlns="http://www.w3.org/2000/svg" viewBox="0 0 64 64" id="magnet"><path fill="#50d9d7" d="M52 28v16a19.94 19.94 0 0 1-5.86 14.14C33.65 70.63 12 61.87 12 44V28h10v16a10 10 0 0 0 20 0V28Z"></path><circle cx="17" cy="13" r="9" fill="#ffac00"></circle><path fill="#fdfdfd" d="M17 12a1 1 0 0 1 0-2h2a1 1 0 0 0 0-2h-1V7a1 1 0 0 0-2 0v1.17A3 3 0 0 0 17 14a1 1 0 0 1 0 2h-2a1 1 0 0 0 0 2h1v1a1 1 0 0 0 2 0v-1.17A3 3 0 0 0 17 12Z"></path><circle cx="46" cy="9" r="9" fill="#ffac00"></circle><path fill="#ffac00" d="M52 28v16a20 20 0 0 1-20 20V54a10 10 0 0 0 10-10V28Z"></path><path fill="#00bebd" d="M12 28h10v6H12z"></path><path fill="#ea9807" d="M42 28h10v6H42z"></path><path fill="none" stroke="#fdfdfd" stroke-linecap="round" stroke-linejoin="round" stroke-width="2" d="M49 14h-6V7a3 3 0 0 1 6 0M41 10h6"></path><path fill="#d9d9d9" d="M10 7V2a1 1 0 0 1 2 0v5a1 1 0 0 1-2 0zm6-4V1a1 1 0 0 1 2 0v2a1 1 0 0 1-2 0zm22 1V1a1 1 0 0 1 2 0v3a1 1 0 0 1-2 0zm15 5V2a1 1 0 0 1 2 0v7a1 1 0 0 1-2 0zM11 26c-.82 0-.94-.64-1.89-2.55a1 1 0 0 1 1.78-.9l1 2A1 1 0 0 1 11 26zm12 0a1 1 0 0 1-.89-1.45l1-2a1 1 0 0 1 1.78.9C23.9 25.43 23.79 26 23 26zm18 0c-.82 0-.94-.65-1.89-2.55a1 1 0 0 1 1.78-.9l1 2A1 1 0 0 1 41 26zm12 0a1 1 0 0 1-.89-1.45l1-2a1 1 0 0 1 1.78.9C53.9 25.43 53.79 26 53 26z"></path></svg>