<svg xmlns="http://www.w3.org/2000/svg" width="655.359" height="655.359" fill-rule="evenodd" clip-rule="evenodd" image-rendering="optimizeQuality" shape-rendering="geometricPrecision" text-rendering="geometricPrecision" viewBox="0 0 6.827 6.827" id="rocket"><g><circle cx="3.413" cy="3.413" r="3.413" fill="#fcdd5e"></circle><path fill="#d1b851" d="M6.76528 2.76694c0.0401299,0.209327 0.0613898,0.425358 0.0613898,0.646386 0,0.994976 -0.425839,1.8904 -1.10507,2.5143l-1.91202 -1.91202 0.0950157 -0.0636772 0.0924882 -0.0630118 0.0899331 -0.0625236 0.0873307 -0.0622165 0.0846929 -0.0620906 0.0820197 -0.0621457 0.079311 -0.0623819 0.076563 -0.0627953 0.0737756 -0.0633937 0.0709488 -0.0641654 0.0680906 -0.065122 0.0651929 -0.0662598 0.0622598 -0.0675787 0.0592835 -0.0690748 0.0562717 -0.070752 0.0532244 -0.0726102 0.0501417 -0.0746457 0.0470157 -0.0768701 0.0438583 -0.0792638 0.0406575 -0.0818465 0.0374213 -0.0846063 0.0341535 -0.0875472 0.0308386 -0.0906693 0.0274921 -0.0939646 0.0241102 -0.0974528 0.020685 -0.10111 0.0172244 -0.104953 0.0137283 -0.108976 0.0101929 -0.113181 0.00662205 -0.117563 0.00300787 -0.122126 -0.000633858 -0.12687 1.35278 1.35278z"></path><path fill="#d1b851" d="M5.7216 5.92763c-.119283.109567-.246398.210709-.380378.302594l-1.62909-1.62909.00724803-.020063.00691339-.02.00658268-.0199409.00626378-.0198701.00594488-.0197953.00563386-.0197165.00533071-.0196299.00503543-.0195394.00474409-.0194409.00446063-.0193346.00418504-.0192323.00391339-.0191142.00364567-.019.00338976-.0188701.0031378-.0187402.00288976-.0186063.00265354-.0184646.00242126-.018315.00219291-.0181654.00197244-.0180039.00175984-.0178425.00155512-.0176693.00135433-.0175.00115748-.017315.000972441-.0171299.000791339-.016937.00061811-.0167402.000444882-.0165394.000287402-.0163307.000129921-.0161142-.000019685-.0158976-.000161417-.0156693 1.91202 1.91202zM5.34122 6.23023c-.30611.209882-.648102.371181-1.01496.472772l-2.91293-2.91293.0229803-.0345197.023252-.0335157.0235118-.0325276.0237638-.0315472.024-.0305866.0242244-.0296378.0244409-.0287047.0246417-.0277835.0248307-.026874.0250118-.0259843.0251772-.0251024.0253346-.0242402.0254724-.0233858.0256063-.0225512.0257283-.0217244.0258346-.0209173.0259291-.020122.0260157-.0193386.0260866-.0185709.0261457-.0178189.0261969-.0170787.0262323-.0163543.0262598-.0156378.0262717-.0149409.0262717-.0142598.0262638-.0135866.0262441-.0129291.0262047-.0122913.0261654-.0116575.0261024-.0110433.0260354-.0104449.0259567-.00985827 3.11569 3.1157z"></path><path fill="#d1b851" d="M4.80115 6.53253c-0.152709,0.0680472 -0.311346,0.125154 -0.474894,0.170472l-2.91293 -2.91293 0.837831 0.192469 2.54999 2.54999z"></path><path fill="#d1b851" d="M4.66227 6.59091c-0.228724,0.0899685 -0.469535,0.155882 -0.719283,0.194795l-2.25268 -2.25269 0.00643307 -0.0090315 0.0066378 -0.00901575 0.00683858 -0.00898819 0.00702756 -0.00896457 0.00722047 -0.00893307 0.00740157 -0.0088937 0.00757874 -0.00885827 0.00775197 -0.00881102 0.00791732 -0.00876378 0.00807874 -0.00870866 0.00823622 -0.00865354 0.00838583 -0.00859055 0.00852756 -0.00852362 0.00867323 -0.00845276 0.00880315 -0.00838189 0.00893701 -0.00830315 0.00905512 -0.00821654 0.00917717 -0.00813386 0.0092874 -0.00803937 0.00939764 -0.00794488 0.0095 -0.00784252 0.00959449 -0.00774016 0.00968898 -0.00763386 0.00977165 -0.00751575 0.00985433 -0.00740157 0.0099252 -0.00728346 0.01 -0.00715354 0.010063 -0.00702362 0.010122 -0.00688976 0.0101732 -0.00675197 0.0102244 -0.00661024 0.0102677 -0.00646063 0.00805512 -0.00494882 0.00809055 -0.00486614 0.00812598 -0.00477953 0.00816535 -0.00469685 0.00819291 -0.0046063 0.00822835 -0.00451969 0.00825591 -0.0044252 0.00827953 -0.00433071 0.00831102 -0.00423622 0.00833071 -0.0041378 0.00835433 -0.00403543 0.00837008 -0.00393701 0.00838976 -0.00382677 0.00840945 -0.00372441 0.00841732 -0.00361417 0.00843307 -0.00350394 0.00844488 -0.0033937 0.00845276 -0.00327559 0.00845669 -0.00316142 0.00846457 -0.00303937 0.00846457 -0.00292126 0.0084685 -0.00279528 0.00846457 -0.00267323 0.00846457 -0.00254331 0.00845669 -0.00241732 0.00845276 -0.00228346 0.00844488 -0.00215354 0.00843307 -0.00201575 0.0084252 -0.00187795 0.00840551 -0.00174016 0.0083937 -0.00159843 0.00837402 -0.00145276 2.42394 2.42394z"></path><path fill="#d1b851" d="M4.14058 6.74875c-.0652087.0141535-.131067.0265591-.197594.0369528l-2.25268-2.25269.0063622-.0038937.00641732-.00375984.0064685-.00361811.00651575-.00347244.00655512-.0033189.00658268-.00316535.0066063-.00300394.00662598-.00283858.00663386-.00266142.00664173-.00248819.0066378-.00230709.00662598-.00211811.00661024-.0019252.00658661-.00172835.00655906-.00152362.00651969-.0013189.00647638-.00110236.0064252-.000885827.00637008-.000665354.00630315-.000433071.00623622-.000200787.00615354.0000393701.00607087.000283465.00598031.000535433.00588189.000787402.00577953.00104331.00566535.00131496.00554724.00157874.00542126.00185827.00529134.0021378.00515354.00242126.00500394.0027126.00523228.00326772.00492913.00355512.00461417.00383465 2.23679 2.23679zM3.7828 6.8067c-.121386.0130669-.244614.0199646-.369469.0199646-.110803 0-.220315-.00547244-.328413-.0157953l-1.49352-1.49352.00246457-.00525984.00232283-.00531102.00219291-.0053622.00205512-.00540157.0019252-.00545276.00179921-.00549213.00167323-.00553543.00154331-.00557874.0014252-.00561811.00130315-.00565354.00118898-.00569291.00107087-.00572835.000952756-.00575984.000846457-.00579528.00073622-.00582677.000625984-.00585433.000523622-.00588583.000417323-.00590945.000318898-.00594094.000216535-.00596063.000122047-.00598819.0000275591-.00600787-.0000629921-.00602756-.00015748-.00604724-.000244094-.00606299-.000326772-.00608268-.000417323-.00609843-.000496063-.00611024-.000574803-.00612205-.000653543-.00613386-.000728346-.00614173-.00080315-.00615354-.00185827-.0175157-.000791339-.0170984.000224409-.0166732.00116929-.0162402.00206299-.0158031.00288583-.0153622.00365354-.0149134.00435827-.0144606.00500394-.0140039.00558661-.0135433.00611024-.0130709.00657087-.0125984.0069685-.0121181.00731102-.0116339.00759055-.0111417.00780315-.0106496.00796457-.0101457.00805906-.00964173.00809055-.00912992.00806693-.00861024.00797638-.00809055.00783071-.00756299.00762205-.00702756.00734646-.00649213.00701969-.00594488.00662598-.00539764.00616929-.00484252.00565748-.00428346.00508268-.00372047.00444488-.00314567.00374803-.00257087.00298819-.00199213 2.00077 2.00077z"></path><path fill="#d1b851" d="M3.80506 6.80416c-.00742126.000846457-.0148228.00174409-.0222598.00254331l-2.00077-2.00077.00117717-.000685039.00188976-.00116535.00233465-.00148819.00251575-.00165748.00243701-.0016811.00208268-.00155118.0014685-.00125984.000586614-.000826772 2.00854 2.00854zM4.1025 6.75704c-.0976654.0200197-.196925.035626-.297437.0471142l-2.00854-2.00854.00861024-.00772047.00829134-.00766142.00798425-.00760236.00766929-.00754331.00736614-.00748031.00706299-.00741339.00675984-.00735039.0064685-.00727953.00617323-.00720866.00588189-.0071378.00559843-.00706299.00531496-.00698425.00503543-.00690945.00475984-.00682677.00448819-.00674803.00421654-.00666535.00395276-.0065748.00368898-.00649213.00342913-.00640157.00316929-.00631102.00292126-.00621654.00266929-.00612205.0024252-.00602756.0021811-.00592913.00194488-.00582677.00170472-.00572441.00147244-.00561811.00124409-.00551575.00101969-.00540551.000795276-.00529921.000574803-.00518504.000358268-.00507087 2.17074 2.17074z"></path><path fill="#d1b851" d="M3.89292 6.79296c-.0285906.00401969-.0572953.00766929-.0861063.0109921l-1.83903-1.83903.0137205-.00197638.0132835-.001.0128346-.0000511811.0123661.000870079.0118819.00175591.011378.00261417.0108583.00344094.0103189.00424016.00976772.00500787.00919291.00574803.00860236.00645669 1.80093 1.80093zM3.80681 6.80396c-.129134.0148268-.260378.0227087-.393484.0227087-.0353661 0-.0705591-.000716535-.105669-.00178346l-1.62254-1.62254.0091811-.0141575.00920472-.0136654.00922047-.013185.00923622-.0127047.00924409-.0122283.00925197-.0117638.00925197-.0113031.00924803-.0108425.00923622-.0103976.00922441-.00994488.00920866-.00950787.0091811-.0090748.00915748-.00864567.00912598-.00822047.00909055-.00779921.00905118-.00738976.00900394-.00698425.00895276-.00657874.00890157-.00618504.00883858-.00579528.00877953-.00540945.00870866-.00502756.0086378-.00465354.00856299-.0042874.00847638-.00392126.0083937-.00356299.00830315-.0032126.00820866-.00286614.0081063-.00252362.00800394-.00218898.0078937-.00185827.00777953-.0015315 1.83903 1.83903z"></path><path fill="#d1b851" d="M3.30766 6.82488c-0.0110276,-0.000334646 -0.0220197,-0.000814961 -0.0330236,-0.00125197l-1.60031 -1.60032 0.0107992 -0.0209685 1.62254 1.62254z"></path><path fill="#d1b851" d="M3.27464 6.82363c-.0637008-.00254724-.126961-.00676772-.18972-.0127598l-1.49352-1.49352.00640551-.00289764.00633465-.00322441.00624409-.00356693.00613386-.0039252.006-.00429528.00585433-.0046811.0056811-.00508661.00549213-.0055.0052874-.00593701.00505512-.00638189.00480709-.00684646.00453937-.00732283.00425197-.00781496.00394882-.00832677.00361811-.00884646.00327165-.00938583 1.60031 1.60032zM4.14058 6.74875c-.0127008.00275591-.0253346.00567717-.0380866.00829134l-2.17074-2.17074.000161417-.00725984-.000251969-.00701575-.00065748-.00676378-.00105906-.00651181-.00144488-.00625591-.00183071-.00599606-.00220472-.00573622-.00257087-.00547638-.00293307-.00520866-.00328346-.00493701-.00362598-.00466929-.00396457-.00438976-.00429528-.00411811 2.23679 2.23679zM3.89292 6.79296c-.0691654.00972835-.138937.0175591-.209366.0230748l-1.57774-1.57774.00777559-.0144252.00682283-.0143425.00588976-.0142323.0049685-.0140945.00406693-.0139252.00318504-.0137244.00231496-.0134921.0014685-.0132362.000637795-.0129449-.000181102-.012626-.000972441-.0122756-.00175591-.0118937-.00251969-.0114882-.00326378-.0110472-.00399213-.0105787-.00470472-.0100787-.0053937-.00955118-.0060748-.00899213-.00672835-.00840157-.00737402-.00778346-.00799606-.00713386 1.80093 1.80093z"></path><path fill="#d1b851" d="M4.66177 6.5911c-.306858.120654-.635433.198083-.978217.224941l-1.57774-1.57774.00970079-.00451181.00985433-.00468898.00999606-.00487008.0101339-.00505906.0102677-.00524409.0103858-.00543701.0105039-.00562992.0106063-.00582283.0107126-.00602362.0108031-.00622835.0108858-.00642913.0109685-.0066378.0110354-.00684646.0111024-.00705906.0111575-.00727165.0112047-.00749213.011248-.00771654.0112795-.00793701.0113071-.00816142.0113228-.0083937.0113386-.00862205.0113425-.00885827.0113386-.00909449.0113268-.00933465.011311-.00957874.0112835-.00982677.0112559-.0100709.0112126-.0103228.0111614-.0105748.0111102-.0108346.0110512-.0110906.0109764-.0113543.00057874-.000606299.00156299-.00164567.00247638-.00266929.00333858-.00365354.00413386-.00462205.00487008-.00555512.00554331-.0064685.00616142-.00735039.00671654-.00820472.00720866-.00903543.00764173-.00983465.00801181-.0106142.00832677-.0113583.0085748-.0120827.00876378-.0127795.0088937-.0134409.00896063-.0140866.00897244-.0147008.00891339-.0152874.00880315-.0158465.00862598-.016378.00838976-.0168858.00809449-.0173661.00773622-.0178189.0073189-.0182441.00684252-.0186417.00629921-.0190157.00570079-.0193583.00503937-.0196772.00431496-.0199685.00353543-.0202323.00269291-.0204724 2.00372 2.00372zM4.70368 6.57407c-.0137913.0056378-.0275236.0113819-.0414055.0168425l-2.42394-2.42394-.0058937-.0105945-.00495669-.00966535-.00410236-.00877559-.00332283-.00790945-.00261811-.00708661-.00198819-.00629528-.00143701-.00553543-.000964567-.00481102-.000559055-.00411811-.000240157-.00346457.00000787402-.00284252.000181102-.00224803.000275591-.00169685.000291339-.00117323.000232283-.000688976.000102362-.000232283.00169685-.00440945 2.48864 2.48864z"></path><path fill="#d1b851" d="M4.69934 6.57584c-.0125197.00509843-.0249803.0103071-.0375709.0152598l-2.00372-2.00372.0108268.00608661.00988189.00512992.00896063.00424409.00808661.00343701.00723622.0027126.00642913.00206693.00564961.00149606.00491339.00100394.00420472.000594488.0035315.000255906.00289764.00000393701.00229528-.000177165.00173228-.000271654.00119685-.000299213.000700787-.00023622.00023622-.000102362 1.96252 1.96252zM4.80115 6.53253c-.0322205.0143583-.0647402.0281614-.0974764.0415394l-2.48864-2.48864.00199213-.00633465.0020315-.00635039.00206693-.00636614.00210236-.00637795.00214173-.0063937.00217323-.00640551.0022126-.00641732.00224409-.00642913.00227953-.00644094.00231496-.00645276.00234646-.00646457.00238189-.00647244.00240945-.00648425.00244488-.00649213.00247638-.0065.00250394-.00650787 2.54999 2.54999z"></path><path fill="#d1b851" d="M4.80115 6.53253c-0.0322205,0.0143583 -0.0647362,0.0281575 -0.0974724,0.0415354l-1.96244 -1.96244 0.00633465 -0.00199213 0.00635039 -0.0020315 0.00636614 -0.00206693 0.00637795 -0.00210236 0.0063937 -0.00214173 0.00640551 -0.00217323 0.00641732 -0.0022126 0.00642913 -0.00224409 0.00644094 -0.00227953 0.00645276 -0.00231496 0.00646063 -0.00234646 0.00647244 -0.00238189 0.00648425 -0.00240945 0.00649213 -0.00244488 0.0065 -0.00247638 0.00650787 -0.00250394 1.95703 1.95703z"></path><polygon fill="#d1b851" points="4.704 6.574 4.699 6.576 2.737 4.613 2.741 4.612"></polygon><path fill="#d1b851" d="M4.80115 6.53253c-0.152709,0.0680433 -0.311331,0.125177 -0.47489,0.170469l-1.28967 -1.28967 -0.192472 -0.837831 1.95703 1.95703z"></path><path fill="#d1b851" d="M5.34122 6.23023c-.306102.209902-.648138.371138-1.01496.472772l-1.28967-1.28967.0345197-.0229803.0335157-.023252.0325276-.0235118.0315472-.0237638.0305866-.024.0296378-.0242244.0287047-.0244409.0277835-.0246417.026874-.0248307.0259843-.0250118.0251024-.0251772.0242402-.0253346.0233858-.0254724.0225512-.0256063.0217244-.0257283.0209173-.0258346.020122-.0259291.0193386-.0260157.0185709-.0260866.0178189-.0261457.0170787-.0261969.0163543-.0262323.0156378-.0262598.0149409-.0262717.0142598-.0262717.0135866-.0262638.0129291-.0262441.0122913-.0262047.0116575-.0261654.0110433-.0261024.0104449-.0260354.00985827-.0259567 1.62909 1.62909zM5.7216 5.92763c-.119287.109563-.246394.210717-.380382.302594l-3.11569-3.1157.020063-.00724803.02-.00691339.0199409-.00658268.0198701-.00626378.0197953-.00594488.0197165-.00563386.0196299-.00533071.0195394-.00503543.0194409-.00474409.0193346-.00446063.0192323-.00418504.0191142-.00391339.019-.00364567.0188701-.00338976.0187402-.0031378.0186063-.00288976.0184646-.00265354.018315-.00242126.0181654-.00219291.0180039-.00197244.0178425-.00175984.0176693-.00155512.0175-.00135433.017315-.00115748.0171299-.000972441.016937-.000791339.0167402-.00061811.0165394-.000444882.0163307-.000287402.0161142-.000129921.0158976.000019685.0156693.000161417 2.91055 2.91055z"></path><path fill="#d1b851" d="M6.76528 2.76694c0.0401299,0.209327 0.0613898,0.425358 0.0613898,0.646386 0,0.994976 -0.425839,1.8904 -1.10507,2.5143l-2.91055 -2.91055 0.0636772 -0.0950157 0.0630118 -0.0924882 0.0625236 -0.0899331 0.0622165 -0.0873307 0.0620906 -0.0846929 0.0621457 -0.0820197 0.0623819 -0.079311 0.0627953 -0.076563 0.0633937 -0.0737756 0.0641654 -0.0709488 0.065122 -0.0680906 0.0662598 -0.0651929 0.0675787 -0.0622598 0.0690748 -0.0592835 0.070752 -0.0562717 0.0726102 -0.0532244 0.0746457 -0.0501417 0.0768701 -0.0470157 0.0792638 -0.0438583 0.0818465 -0.0406575 0.0846063 -0.0374213 0.0875472 -0.0341535 0.0906693 -0.0308386 0.0939646 -0.0274921 0.0974528 -0.0241102 0.10111 -0.020685 0.104953 -0.0172244 0.108976 -0.0137283 0.113181 -0.0101929 0.117563 -0.00662205 0.122126 -0.00300787 0.12687 0.000633858 1.35278 1.35278z"></path><path fill="#0a93e2" d="M3.76304 4.00249c-.114862.0759606-.263957.171055-.431823.26961-.0697756.0410236-.142811.0826181-.217976.123693-.00360236.0019685-.0072126.00393307-.0108268.00590551-.0868701.0473071-.176331.0937638-.266606.137614l.200783.874016c.373622-.243618.573476-.535811.675535-.812197.0861575-.233319.103146-.456016.0962677-.628815-.0144449.00966535-.0295748.0197362-.0453543.0301732zM2.82417 3.06362c-.0759606.114862-.171055.263957-.26961.431823-.0410236.0697756-.0826181.142811-.123693.217976-.0019685.00360236-.00393307.0072126-.00590551.0108268-.0473071.0868701-.0937638.176331-.137614.266606l-.874016-.200783c.243618-.373622.535811-.573476.812197-.675535.233319-.0861575.456016-.103146.628815-.0962677-.00966535.0144449-.0197362.0295748-.0301732.0453543z"></path><path fill="#fbfbfb" d="M2.455 4.99128c0.00110236,-0.00115354 0.388874,-0.400425 0.0967913,-0.725776 -0.0746929,-0.0833307 -0.171409,-0.111661 -0.273752,-0.103433 -0.101146,0.00812992 -0.208705,0.0512874 -0.307185,0.112437 -0.109724,0.068126 -0.213039,0.162083 -0.280555,0.258516 0.0675157,-0.042248 0.146118,-0.0622244 0.198713,-0.0317126 0.0287165,0.0166614 0.0447126,0.0456142 0.0427362,0.0849921 -0.00269291,0.0534843 -0.0416969,0.126669 -0.135232,0.209311 -0.00015748,0.00148425 -0.0125394,0.00926378 -0.0144921,0.0103189 -0.027622,0.0181102 -0.19511,0.136346 -0.169343,0.325425 0.00894488,0.0656575 0.00572047,0.130138 -0.0212874,0.185996 0.0343189,-0.0146102 0.0664291,-0.0425236 0.0829252,-0.0940394l0.0107992 -0.0209646c0.0977835,-0.153634 0.200291,-0.22278 0.282665,-0.237421 0.148591,-0.0264055 0.22613,0.119197 0.138031,0.273378 0.102642,-0.0471654 0.232484,-0.124516 0.349185,-0.247028z"></path><path fill="#f44336" d="M2.67991 3.21255c-0.0421378,0.060874 -0.121185,0.178516 -0.204453,0.320283 -0.0539173,0.0917913 -0.109846,0.194161 -0.159028,0.298516l-0.00975984 0.0207087c-7.87402e-006,1.1811e-005 -1.1811e-005,2.3622e-005 -1.5748e-005,3.54331e-005 -0.036189,0.078563 -0.0680079,0.15761 -0.0916181,0.233331l-0.00170079 0.00440945c-7.08661e-005,0.000173228 -0.0291496,0.0582047 0.215059,0.308429 0.250228,0.244209 0.308252,0.21513 0.308425,0.215055l0.00440945 -0.00169685c0.0757362,-0.0236142 0.154795,-0.0554409 0.23337,-0.0916339l3.93701e-005 -1.9685e-005 0.0206693 -0.00974016c0.104354,-0.0491811 0.20672,-0.10511 0.298516,-0.159028 0.141768,-0.0832677 0.259409,-0.162315 0.320283,-0.204457l0.0145748 -0.0100866c0.0191417,-0.0133858 0.0296969,-0.0210472 0.0299094,-0.0211969l0.00152362 -0.00118898c1.11751,-0.732713 1.78,-1.25524 1.75237,-2.70011 -1.44486,-0.027622 -1.96739,0.634862 -2.70011,1.75237l-0.00118504 0.00152756c-0.000149606,0.000212598 -0.00781102,0.0107677 -0.0211969,0.0299055l-0.0100906 0.0145787z"></path><path fill="#fff" d="M4.08487 2.74179c0.130992,0.130988 0.34335,0.130988 0.474339,0 0.130984,-0.130984 0.130992,-0.34335 3.93701e-006,-0.474343 -0.130992,-0.130988 -0.343358,-0.130984 -0.474343,0 -0.130988,0.130992 -0.130988,0.34335 0,0.474343z"></path><path fill="#f44336" d="M4.15434 2.67232c0.092626,0.092622 0.242787,0.092622 0.335409,0 0.092622,-0.092622 0.092626,-0.242787 0,-0.335409 -0.092622,-0.092626 -0.242787,-0.092622 -0.335409,0 -0.092622,0.092622 -0.092622,0.242783 0,0.335409z"></path></g></svg>