<svg xmlns="http://www.w3.org/2000/svg" fill-rule="evenodd" stroke-linejoin="round" stroke-miterlimit="2" clip-rule="evenodd" viewBox="0 0 64 64" id="silver-medal"><g transform="translate(-114 -499)"><path fill="#73c2ba" d="M29.216,561.19L25.571,562L27,552L37,552L38.429,562L34.784,561.19L33.429,553.6L30.571,553.6L29.216,561.19Z" transform="matrix(1.4 0 0 2.5 101.2 -847)"></path><path fill="#99d6d1" d="M263.898,558.686L260,557.704L256.102,558.686L258,546.632L262,546.632L263.898,558.686Z" transform="matrix(1 0 0 1.57407 -114 -323.439)"></path><path fill="#fac440" d="M372.041,335.959C372.041,334.326 373.367,333 375,333C376.633,333 377.959,334.326 377.959,335.959C378.775,334.544 380.586,334.059 382,334.876C383.414,335.692 383.899,337.503 383.083,338.917C384.497,338.101 386.308,338.586 387.124,340C387.941,341.414 387.456,343.225 386.041,344.041C387.674,344.041 389,345.367 389,347C389,348.633 387.674,349.959 386.041,349.959C387.456,350.775 387.941,352.586 387.124,354C386.308,355.414 384.497,355.899 383.083,355.083C383.899,356.497 383.414,358.308 382,359.124C380.586,359.941 378.775,359.456 377.959,358.041C377.959,359.674 376.633,361 375,361C373.367,361 372.041,359.674 372.041,358.041C371.225,359.456 369.414,359.941 368,359.124C366.586,358.308 366.101,356.497 366.917,355.083C365.503,355.899 363.692,355.414 362.876,354C362.059,352.586 362.544,350.775 363.959,349.959C362.326,349.959 361,348.633 361,347C361,345.367 362.326,344.041 363.959,344.041C362.544,343.225 362.059,341.414 362.876,340C363.692,338.586 365.503,338.101 366.917,338.917C366.101,337.503 366.586,335.692 368,334.876C369.414,334.059 371.225,334.544 372.041,335.959Z" transform="translate(-309.36 99.643) scale(1.21429)"></path><circle cx="36" cy="515" r="4" fill="#ffdb7a" transform="matrix(2.5 0 0 2.5 56 -766.5)"></circle><path fill="#f6f7f6" d="M31,517L31,520C31,520.276 31.448,520.5 32,520.5C32.552,520.5 33,520.276 33,520L33,517C33,516.724 32.552,516.5 32,516.5C31.448,516.5 31,516.724 31,517Z" transform="matrix(1 0 0 2 112 -516)"></path><path fill="#f6f7f6" d="M31,517L31,520C31,520.276 31.448,520.5 32,520.5C32.552,520.5 33,520.276 33,520L33,517C33,516.724 32.552,516.5 32,516.5C31.448,516.5 31,516.724 31,517Z" transform="matrix(1 0 0 2 116 -516)"></path></g></svg>