<svg xmlns="http://www.w3.org/2000/svg" width="128" height="128" id="trial"><path fill="#3FBBC4" d="M121.393 0H7.607C5.091 0 0 3.356 0 10.003a2 2 0 0 0 4 0c0-3.016 1.046-4.57 3.393-5.039 2.17-.433 3.808-.138 5.002.906 2.477 2.167 2.724 7.232 2.61 8.998L15 96.68c0 2.365 1.544 5.047 3.591 6.234l41.692 24.191c1.029.598 2.323.896 3.615.896 1.28 0 2.56-.293 3.583-.88l41.797-24.012c2.057-1.18 3.697-3.739 3.701-6.107V14.351s.133-7.06 2.621-9.245c1.193-1.049 2.832-1.345 5.008-.912 2.346.47 3.392 2.024 3.392 5.039a2 2 0 0 0 4 0c0-6.647-4.141-8.739-6.607-9.233zM81.148 38.589c.002-.401.104-.69.313-.866.207-.176.46-.263.762-.261l8.832.067c.082 0 .155.023.219.069a.534.534 0 0 1 .162.241c.043.114.078.259.102.438.021.178.027.404.025.677a5.28 5.28 0 0 1-.039.649 1.65 1.65 0 0 1-.104.43.607.607 0 0 1-.166.237.348.348 0 0 1-.22.074l-6.316-.048-.03 4.32 5.346.04a.386.386 0 0 1 .227.077c.067.05.124.129.172.233.045.106.076.248.1.425.021.177.031.394.029.649a6.1 6.1 0 0 1-.039.656 1.678 1.678 0 0 1-.105.416.491.491 0 0 1-.174.225.396.396 0 0 1-.227.066l-5.348-.04-.038 4.99 6.369.048a.384.384 0 0 1 .227.077.574.574 0 0 1 .17.24c.043.111.078.254.101.432.021.178.028.398.026.663s-.017.485-.039.663a1.67 1.67 0 0 1-.104.43.555.555 0 0 1-.173.238.377.377 0 0 1-.229.073l-8.888-.067a1.13 1.13 0 0 1-.758-.269c-.203-.18-.304-.469-.302-.87l.117-15.422zm-44.369-.34c.002-.401.107-.689.313-.865.207-.177.46-.264.761-.261l8.326.063c.082 0 .155.026.219.076a.642.642 0 0 1 .169.248c.048.114.084.267.105.458.021.192.031.425.029.698-.003.273-.016.503-.04.689s-.061.335-.112.444a.743.743 0 0 1-.173.244.33.33 0 0 1-.22.081l-5.783-.045-.036 4.758 5.428.042a.36.36 0 0 1 .219.07.569.569 0 0 1 .169.233c.048.109.084.255.105.438s.031.41.029.684a5.931 5.931 0 0 1-.039.684 1.712 1.712 0 0 1-.113.45.64.64 0 0 1-.173.252.352.352 0 0 1-.219.073l-5.428-.042-.051 6.59a.413.413 0 0 1-.084.26c-.055.073-.153.134-.295.183a2.686 2.686 0 0 1-.555.111 18.8 18.8 0 0 1-1.33.034 7.758 7.758 0 0 1-.868-.047 2.515 2.515 0 0 1-.553-.121.65.65 0 0 1-.291-.184.401.401 0 0 1-.087-.261l.578-16.037zm6.202 26.265a1.78 1.78 0 0 1-.105.45.612.612 0 0 1-.173.252.345.345 0 0 1-.227.08l-4.43-.032-.108 14.26a.373.373 0 0 1-.091.244.624.624 0 0 1-.295.176c-.138.048-.323.08-.555.105s-.522.036-.868.034a7.743 7.743 0 0 1-.868-.048c-.233-.029-.416-.066-.553-.113s-.234-.107-.293-.181a.382.382 0 0 1-.087-.246l.108-14.261-4.429-.033a.343.343 0 0 1-.232-.084.655.655 0 0 1-.162-.254 1.829 1.829 0 0 1-.098-.452 5.779 5.779 0 0 1-.029-.677c.002-.273.016-.506.04-.697a1.79 1.79 0 0 1 .105-.457.587.587 0 0 1 .166-.245.364.364 0 0 1 .233-.073l12.468.095a.383.383 0 0 1 .226.077.56.56 0 0 1 .169.247c.044.115.078.268.099.459s.031.425.029.698a5.717 5.717 0 0 1-.04.676zM58.762 79.96c-.037.067-.124.124-.261.169a2.598 2.598 0 0 1-.603.092c-.265.021-.625.023-1.08.021-.383-.006-.689-.016-.916-.034s-.407-.058-.539-.104a.6.6 0 0 1-.279-.191 1.078 1.078 0 0 1-.134-.281l-1.557-3.964a16.327 16.327 0 0 0-.551-1.192 3.75 3.75 0 0 0-.602-.873 2.236 2.236 0 0 0-.769-.531 2.711 2.711 0 0 0-1.011-.188l-1.121-.009-.051 6.74a.38.38 0 0 1-.091.245.652.652 0 0 1-.296.175c-.137.045-.319.08-.548.104-.228.023-.52.035-.875.032a8.27 8.27 0 0 1-.868-.047 2.644 2.644 0 0 1-.553-.114c-.136-.047-.231-.104-.285-.18a.393.393 0 0 1-.08-.247l.122-16.064c.003-.402.108-.69.316-.865a1.11 1.11 0 0 1 .761-.261l4.58.034c.464.004.847.015 1.147.036.3.021.574.046.82.075.71.105 1.349.283 1.917.534.567.25 1.048.576 1.441.975s.693.872.898 1.415c.206.544.306 1.167.305 1.867a5.474 5.474 0 0 1-.238 1.616 4.186 4.186 0 0 1-.673 1.303 4.28 4.28 0 0 1-1.088.986c-.431.279-.92.506-1.468.676a3.9 3.9 0 0 1 1.392 1.139c.203.264.394.561.574.895.179.337.354.714.524 1.134l1.464 3.498c.134.348.223.602.268.761.044.16.066.286.065.377a.52.52 0 0 1-.057.246zm1.654-24.92a2.043 2.043 0 0 1-.539-.106.588.588 0 0 1-.279-.194 1.033 1.033 0 0 1-.134-.281l-1.557-3.963a16.563 16.563 0 0 0-.551-1.193 3.765 3.765 0 0 0-.603-.873 2.222 2.222 0 0 0-.768-.532 2.653 2.653 0 0 0-1.011-.186l-1.121-.009-.052 6.74c0 .091-.03.173-.09.245a.628.628 0 0 1-.296.176c-.137.044-.319.08-.548.104-.228.025-.52.037-.875.034a7.728 7.728 0 0 1-.868-.048 2.863 2.863 0 0 1-.553-.113c-.135-.047-.231-.107-.279-.182a.395.395 0 0 1-.08-.247l.122-16.064c.002-.401.107-.689.314-.866a1.12 1.12 0 0 1 .761-.261l4.58.035c.464.004.847.015 1.147.036.3.02.574.046.82.074.71.106 1.349.284 1.917.534.567.251 1.048.577 1.441.976s.693.871.898 1.415c.205.543.306 1.166.301 1.868a5.5 5.5 0 0 1-.238 1.619c-.154.486-.379.92-.673 1.3a4.35 4.35 0 0 1-1.088.99c-.431.279-.92.504-1.468.673.262.13.51.286.741.47.231.185.448.407.651.668.203.262.395.56.574.894.179.334.354.712.524 1.132L63 53.404c.134.348.223.602.268.761.044.159.066.285.065.376-.001.101-.02.185-.057.253s-.124.124-.261.169a2.608 2.608 0 0 1-.603.091c-.265.017-.625.023-1.08.02a12.103 12.103 0 0 1-.916-.034zm5.35 24.694a.38.38 0 0 1-.092.246.663.663 0 0 1-.295.176c-.138.044-.32.078-.548.104a7.712 7.712 0 0 1-.876.034 8.248 8.248 0 0 1-.867-.048 2.69 2.69 0 0 1-.553-.113.607.607 0 0 1-.293-.181.374.374 0 0 1-.087-.246L62.282 63a.384.384 0 0 1 .091-.246c.06-.072.16-.13.303-.175.141-.045.326-.08.554-.105s.515-.037.862-.034c.355.003.646.019.874.048.228.028.41.066.548.113a.633.633 0 0 1 .291.18.385.385 0 0 1 .088.247l-.127 16.706zm1.207-24.962c-.203-.18-.304-.469-.301-.87l.117-15.422c.002-.401.107-.69.314-.866a1.11 1.11 0 0 1 .76-.261l8.832.067c.082 0 .156.023.219.069a.534.534 0 0 1 .162.241c.045.114.078.259.1.438.021.178.031.404.029.677a5.485 5.485 0 0 1-.039.649 1.687 1.687 0 0 1-.105.43.597.597 0 0 1-.166.237.346.346 0 0 1-.22.074l-6.315-.049-.03 4.32 5.346.041a.392.392 0 0 1 .229.077.592.592 0 0 1 .168.233c.045.106.078.248.1.425.021.177.031.394.029.649-.002.264-.016.483-.039.656s-.059.312-.105.416a.51.51 0 0 1-.173.225.396.396 0 0 1-.226.066l-5.346-.041-.039 4.99 6.371.049a.378.378 0 0 1 .225.077c.068.05.125.131.17.24.045.111.078.254.1.432.022.178.031.398.029.663a5.592 5.592 0 0 1-.039.663 1.665 1.665 0 0 1-.105.43.549.549 0 0 1-.174.238.37.37 0 0 1-.226.073l-8.888-.067a1.153 1.153 0 0 1-.764-.269zm17.931 25.47c-.1.096-.278.152-.533.174-.256.02-.607.029-1.053.025a22.45 22.45 0 0 1-1.088-.028 2.78 2.78 0 0 1-.594-.086.528.528 0 0 1-.285-.173.84.84 0 0 1-.139-.288l-1.158-3.564-6.646-.051-1.146 3.451a1.11 1.11 0 0 1-.146.319.617.617 0 0 1-.289.203 2.14 2.14 0 0 1-.563.099c-.244.017-.561.024-.951.021a9.294 9.294 0 0 1-.982-.049c-.234-.029-.398-.097-.49-.202-.091-.104-.119-.254-.093-.444.028-.189.101-.443.211-.765l5.575-15.654c.055-.154.119-.279.193-.374.071-.096.188-.168.351-.216.159-.049.382-.079.664-.091.28-.012.655-.016 1.12-.013.539.004.968.013 1.285.03.316.016.565.05.744.101.178.052.307.128.381.229.078.101.144.238.193.412l5.352 15.724c.104.327.175.589.199.78.028.192-.009.334-.112.43zm12.77-.588a2.05 2.05 0 0 1-.105.465.584.584 0 0 1-.174.266.348.348 0 0 1-.235.08l-8.107-.063a1.118 1.118 0 0 1-.757-.271c-.204-.179-.307-.47-.301-.871l.119-16.064c0-.091.031-.172.094-.245a.627.627 0 0 1 .295-.176c.141-.044.32-.079.559-.104.229-.026.521-.037.865-.035.354.003.646.021.874.048.229.029.41.066.546.114a.617.617 0 0 1 .293.18c.061.073.09.156.09.247l-.109 14.232 5.564.042a.37.37 0 0 1 .235.077c.065.05.124.133.169.247s.079.266.104.452c.021.186.027.416.024.688a6.744 6.744 0 0 1-.043.691z"></path><path fill="#3FBBC4" d="M52.595 65.332a4.961 4.961 0 0 0-.621-.114 9.03 9.03 0 0 0-.964-.048l-1.613-.013-.038 5.017 1.832.016c.511.004.958-.056 1.342-.176.383-.119.703-.289.961-.512.256-.223.45-.488.58-.796a2.7 2.7 0 0 0 .199-1.037c.004-.583-.124-1.076-.386-1.479-.261-.404-.691-.689-1.292-.858zM76.782 65.995l-2.559 7.501 5.017.038-2.444-7.539zM57.109 40.166a4.927 4.927 0 0 0-.621-.114 8.772 8.772 0 0 0-.964-.048l-1.613-.013-.038 5.017 1.832.014c.511.004.957-.054 1.341-.174s.704-.291.961-.513a2.14 2.14 0 0 0 .581-.795c.13-.309.196-.655.199-1.038.004-.583-.124-1.076-.386-1.479-.261-.403-.691-.688-1.292-.857z"></path></svg>