<svg xmlns="http://www.w3.org/2000/svg" enable-background="new 0 0 2000 2000" viewBox="0 0 2000 2000" id="privacy-policy"><path fill="#e9eff8" fill-rule="evenodd" d="M966.71,446.06c185.39,0,263.5,142.24,397.34,252.82c177.15,146.35,354.28,51.08,382.63,545.56
		c25.25,440.09-289.75,47.64-733.89,205.29s-896.48,221.13-762.26-288.93C384.78,650.73,535.94,446.06,966.71,446.06z" clip-rule="evenodd"></path><path fill="#bcc9e7" fill-rule="evenodd" d="M212.36,502.22c130.3,132.44,200.31,294.56,210.04,486.38c4.68,1.11,8.63,0.72,11.86-1.19
		c-2.39-24.37-5.34-49.23-8.85-74.59c18.4-19.18,27.92-45.46,24.12-75.46c-0.72-5.64-2.63-11.66-5.23-18.11l-22.43,18.64l19.28-26
		c-10.85-24.14-28.16-53.97-29.3-91.78c-0.22-7.18-1.2-14.11-2.82-20.79l-33.07,26.12l30.76-34.24
		c-7.58-23.15-22.66-43.33-39.74-61.45l-16.52,27.7l11.75-32.66c-1.01-1.03-2.02-2.05-3.03-3.07
		c-17.69-17.65-25.48-33.46-34.83-49.95l-14.93,8.34l11.44-14.36c-5.1-8.61-10.99-17.48-19.25-26.95
		c-26-29.85-84.85-60.72-131.29-68.19c14.39,12.46,20.06,25.33,22.14,38.72l23.32,20.38l-22.58-13.99
		c1.44,18.12-2.1,37.17,1.6,57.37l49.5,21.96l-46.71-10.85c0.65,2,1.39,4.01,2.23,6.03c14.31,34.43,52.35,67.84,74.24,102.63
		l46.67,8.8l-42.53-1.84c0.97,1.73,1.89,3.46,2.76,5.2c10.39,20.73,8.8,39.89,6.4,57.99l73.69,36.42l-75.13-25.66
		c-1.09,8.53-1.85,16.84-1.01,24.99c5.3,51.71,93.35,77.24,114.44,99.26C379.77,744.63,317.45,612.7,212.36,502.22z" clip-rule="evenodd"></path><path fill="#d0d9ee" fill-rule="evenodd" d="M381.3 381.77c94.37 158.65 123.54 331.66 87.49 519.06 4.25 2.18 8.16 2.74 11.73 1.66 3.46-24.08 6.5-48.77 9.11-74.07 22.31-14.15 37.71-37.25 41.14-67.1.65-5.61.23-11.88-.75-18.72l-26.06 12.68 24.76-20.52c-4.76-25.86-14.39-58.74-6.54-95.5 1.5-6.98 2.19-13.9 2.21-20.73l-38.09 17.38 37.79-25.76c-1.83-24.14-11.6-47.18-23.8-68.71l-22.5 22.82 19.07-28.73c-.73-1.23-1.46-2.46-2.2-3.68-12.89-21.22-16.66-38.32-21.79-56.44l-16.38 4.51 14.44-11.15c-2.89-9.51-6.47-19.46-12.19-30.56-18.01-34.96-67.5-78.69-110.54-96.89 10.93 15.43 13.35 29.19 12.19 42.6l17.68 25.19-18.48-18.84c-2.9 17.82-10.82 35.37-12.04 55.74l42.56 32.92-42.49-21.53c.15 2.08.39 4.2.72 6.35 5.65 36.62 34.45 77.86 47.33 116.62l42.95 19.54-40.59-11.85c.52 1.9 1 3.79 1.43 5.67 5.11 22.47-.96 40.57-7.56 57.47l62.48 52.59-66.42-42.55c-3.08 7.98-5.77 15.81-6.9 23.88-7.13 51.15 71.79 96.63 86.92 122.87C485.44 655.32 456.54 513.26 381.3 381.77zM1649.29 524.85H619.57c-49.83 0-92.08 42.24-90.58 93.69l18.8 641.7c1.5 51.44 40.83 93.69 90.58 93.69h52.36 341.34 202.53 223.18 172.69c49.49 0 89.08-42.17 90.58-93.69l18.8-641.7C1741.37 567.02 1699.11 524.85 1649.29 524.85L1649.29 524.85zM1649.28 576.02c22.61 0 41.78 19.13 41.11 42.51l-18.8 641.69c-.68 23.39-18.9 42.52-41.11 42.52H638.36c-22.21 0-40.44-19.54-41.11-42.52l-18.8-641.69c-.67-23.32 18.5-42.51 41.11-42.51H1649.28z" clip-rule="evenodd"></path><path fill="#e9eff8" fill-rule="evenodd" d="M578.45,618.53L578.45,618.53c0-20.46,14.17-37.66,32.85-41.64l0.98-0.19l0.02,0l1-0.17l0.02,0l1.01-0.15h0.01
		l1.02-0.12l0.01,0l1.03-0.09l0,0l1.04-0.07h0l1.05-0.04l1.05-0.01h1029.73l1.06,0.01l1.05,0.04h0l1.04,0.07h0l1.03,0.09h0.01
		l1.02,0.12h0.02l1.01,0.15h0.02c19.67,3.14,34.85,20.83,34.85,42.01v0l-18.8,641.69c-0.67,23.39-18.89,42.52-41.11,42.52H638.36
		c-22.21,0-40.44-19.54-41.11-42.52L578.45,618.53z" clip-rule="evenodd"></path><path fill="#fff" fill-rule="evenodd" d="M1576.07 617.42h-216.93c-5.78 0-10.52 4.89-10.52 10.88v215.45c0 5.98 4.74 10.88 10.52 10.88h216.93c5.79 0 10.52-4.89 10.52-10.88V628.3C1586.59 622.32 1581.86 617.42 1576.07 617.42zM1568.24 877.26h-201.26c-4.73 0-8.58 3.28-8.58 7.29l0 0c0 4.01 3.86 7.29 8.58 7.29h201.26c4.72 0 8.59-3.28 8.59-7.29l0 0C1576.83 880.54 1572.96 877.26 1568.24 877.26L1568.24 877.26zM1568.24 903.7h-92.04c-4.73 0-8.58 3.28-8.58 7.29v0c0 4.01 3.86 7.29 8.58 7.29h92.04c4.72 0 8.59-3.28 8.59-7.29v0C1576.83 906.98 1572.96 903.7 1568.24 903.7zM1242.88 617.42h-216.93c-5.78 0-10.52 4.89-10.52 10.88v215.45c0 5.98 4.73 10.88 10.52 10.88h216.93c5.79 0 10.52-4.89 10.52-10.88V628.3C1253.4 622.32 1248.67 617.42 1242.88 617.42zM1235.05 877.26h-201.27c-4.72 0-8.58 3.28-8.58 7.29l0 0c0 4.01 3.87 7.29 8.58 7.29h201.27c4.72 0 8.58-3.28 8.58-7.29l0 0C1243.63 880.54 1239.77 877.26 1235.05 877.26L1235.05 877.26zM1235.05 903.7H1143c-4.72 0-8.58 3.28-8.58 7.29v0c0 4.01 3.86 7.29 8.58 7.29h92.05c4.72 0 8.58-3.28 8.58-7.29v0C1243.63 906.98 1239.77 903.7 1235.05 903.7zM901.86 877.26H700.59c-4.72 0-8.58 3.28-8.58 7.29l0 0c0 4.01 3.87 7.29 8.58 7.29h201.27c4.72 0 8.58-3.28 8.58-7.29l0 0C910.45 880.54 906.58 877.26 901.86 877.26L901.86 877.26zM901.86 903.7h-92.05c-4.72 0-8.58 3.28-8.58 7.29v0c0 4.01 3.86 7.29 8.58 7.29h92.05c4.72 0 8.58-3.28 8.58-7.29v0C910.45 906.98 906.58 903.7 901.86 903.7zM909.7 617.42H692.77c-5.79 0-10.52 4.89-10.52 10.88v215.45c0 5.98 4.73 10.88 10.52 10.88H909.7c5.79 0 10.52-4.89 10.52-10.88V628.3C920.22 622.32 915.48 617.42 909.7 617.42zM1576.07 960.49h-216.93c-5.78 0-10.52 4.89-10.52 10.87v215.46c0 5.98 4.74 10.88 10.52 10.88h216.93c5.79 0 10.52-4.89 10.52-10.88V971.36C1586.59 965.38 1581.86 960.49 1576.07 960.49z" clip-rule="evenodd"></path><path fill="#deebf8" fill-rule="evenodd" d="M1568.24,1220.32h-201.26c-4.73,0-8.58,3.27-8.58,7.29v0c0,4.01,3.86,7.29,8.58,7.29h201.26
		c4.72,0,8.59-3.28,8.59-7.29v0C1576.83,1223.6,1572.96,1220.32,1568.24,1220.32L1568.24,1220.32z M1568.24,1246.76h-92.04
		c-4.73,0-8.58,3.28-8.58,7.29l0,0c0,4.01,3.86,7.29,8.58,7.29h92.04c4.72,0,8.59-3.28,8.59-7.29l0,0
		C1576.83,1250.04,1572.96,1246.76,1568.24,1246.76z" clip-rule="evenodd"></path><path fill="#fff" fill-rule="evenodd" d="M1242.88 960.49h-216.93c-5.78 0-10.52 4.89-10.52 10.87v215.46c0 5.98 4.73 10.88 10.52 10.88h216.93c5.79 0 10.52-4.89 10.52-10.88V971.36C1253.4 965.38 1248.67 960.49 1242.88 960.49zM1235.05 1220.32h-201.27c-4.72 0-8.58 3.27-8.58 7.29v0c0 4.01 3.87 7.29 8.58 7.29h201.27c4.72 0 8.58-3.28 8.58-7.29v0C1243.63 1223.6 1239.77 1220.32 1235.05 1220.32L1235.05 1220.32zM1235.05 1246.76H1143c-4.72 0-8.58 3.28-8.58 7.29l0 0c0 4.01 3.86 7.29 8.58 7.29h92.05c4.72 0 8.58-3.28 8.58-7.29l0 0C1243.63 1250.04 1239.77 1246.76 1235.05 1246.76zM909.7 960.49H692.77c-5.79 0-10.52 4.89-10.52 10.87v215.46c0 5.98 4.73 10.88 10.52 10.88H909.7c5.79 0 10.52-4.89 10.52-10.88V971.36C920.22 965.38 915.48 960.49 909.7 960.49zM901.86 1220.32H700.59c-4.72 0-8.58 3.27-8.58 7.29v0c0 4.01 3.87 7.29 8.58 7.29h201.27c4.72 0 8.58-3.28 8.58-7.29v0C910.45 1223.6 906.58 1220.32 901.86 1220.32L901.86 1220.32zM901.86 1246.76h-92.05c-4.72 0-8.58 3.28-8.58 7.29l0 0c0 4.01 3.86 7.29 8.58 7.29h92.05c4.72 0 8.58-3.28 8.58-7.29l0 0C910.45 1250.04 906.58 1246.76 901.86 1246.76z" clip-rule="evenodd"></path><path fill="#bcc9e7" fill-rule="evenodd" d="M1050.25 1135.07h19.95v4.54h-19.95V1135.07L1050.25 1135.07zM1050.25 1126.58h19.95v4.53h-19.95V1126.58L1050.25 1126.58zM1050.25 1118.09h19.95v4.54h-19.95V1118.09L1050.25 1118.09zM1077.24 1009.74h-34.02v138.69h34.02V1009.74L1077.24 1009.74zM1070.2 1076.15h-19.95v-58.55h19.95V1076.15L1070.2 1076.15zM1060.22 1088.25c5.61 0 10.15 4.54 10.15 10.14 0 5.6-4.54 10.15-10.15 10.15-5.59 0-10.13-4.54-10.13-10.15C1050.09 1092.79 1054.63 1088.25 1060.22 1088.25L1060.22 1088.25zM1090.15 1135.07h19.96v4.54h-19.96V1135.07L1090.15 1135.07zM1090.15 1126.58h19.96v4.53h-19.96V1126.58L1090.15 1126.58zM1090.15 1118.09h19.96v4.54h-19.96V1118.09L1090.15 1118.09zM1117.14 1009.74h-34.01v138.69h34.01V1009.74L1117.14 1009.74zM1110.11 1076.15h-19.96v-58.55h19.96V1076.15L1110.11 1076.15zM1100.14 1088.25c5.6 0 10.13 4.54 10.13 10.14 0 5.6-4.54 10.15-10.13 10.15-5.6 0-10.14-4.54-10.14-10.15C1089.99 1092.79 1094.53 1088.25 1100.14 1088.25L1100.14 1088.25zM1130.07 1135.07h19.94v4.54h-19.94V1135.07L1130.07 1135.07zM1130.07 1126.58h19.94v4.53h-19.94V1126.58L1130.07 1126.58zM1130.07 1118.09h19.94v4.54h-19.94V1118.09L1130.07 1118.09zM1157.05 1009.74h-34.02v138.69h34.02V1009.74L1157.05 1009.74zM1150.01 1076.15h-19.94v-58.55h19.94V1076.15L1150.01 1076.15zM1140.03 1088.25c5.6 0 10.14 4.54 10.14 10.14 0 5.6-4.54 10.15-10.14 10.15-5.6 0-10.14-4.54-10.14-10.15C1129.9 1092.79 1134.44 1088.25 1140.03 1088.25L1140.03 1088.25zM1196.28 1135.86l19.41-4.58 1.04 4.41-19.41 4.59L1196.28 1135.86 1196.28 1135.86zM1194.33 1127.6L1194.33 1127.6l1.04 4.41 19.42-4.58-1.04-4.41L1194.33 1127.6 1194.33 1127.6zM1192.39 1119.35l19.41-4.59 1.05 4.41-19.42 4.59L1192.39 1119.35 1192.39 1119.35 1192.39 1119.35zM1193.75 1007.69l-33.11 7.82 31.86 134.98 33.11-7.82L1193.75 1007.69 1193.75 1007.69 1193.75 1007.69zM1202.17 1073.94l-19.42 4.58-13.45-56.99 19.41-4.58L1202.17 1073.94 1202.17 1073.94 1202.17 1073.94zM1195.24 1088c5.45-1.29 10.91 2.09 12.19 7.53 1.29 5.46-2.08 10.91-7.53 12.2-5.45 1.29-10.92-2.09-12.21-7.54C1186.4 1094.75 1189.78 1089.29 1195.24 1088L1195.24 1088zM1543.07 1097.19l5.04-13.02-.03-12.11h-30.85l-20.11 16.57c-.87.71-1.91 1.06-2.95 1.06v.01h-80l-2.89 7.49H1543.07L1543.07 1097.19zM1389.26 1154.03h131.82l18.39-47.51h-131.81L1389.26 1154.03 1389.26 1154.03 1389.26 1154.03zM1491.21 1146.45L1491.21 1146.45c-2.58 0-4.66-2.09-4.66-4.67 0-2.57 2.08-4.67 4.66-4.67h22.16c2.58 0 4.66 2.1 4.66 4.67 0 2.58-2.08 4.67-4.66 4.67H1491.21L1491.21 1146.45zM1513.67 1063.15c.59-.26 1.24-.41 1.91-.41h4.01v-3.59c0-3.51-1.38-6.7-3.63-9.05-.08-.06-.15-.13-.22-.2-.64-.62-1.32-1.2-2.07-1.68V1063.15L1513.67 1063.15zM1405.12 1087.3v-82.68h98.76v66.39l-11.36 9.36h-81.53c-2.12 0-3.92 1.42-4.48 3.36L1405.12 1087.3 1405.12 1087.3zM1395.32 1047.02v65.61l-8.19 21.13v-74.61c0-3.6 1.48-6.88 3.85-9.25C1392.21 1048.67 1393.69 1047.68 1395.32 1047.02L1395.32 1047.02zM1417.01 1039.74h75.6c2.7 0 4.9-2.2 4.9-4.91 0-2.7-2.2-4.89-4.9-4.89h-75.6c-2.71 0-4.9 2.2-4.9 4.89C1412.11 1037.54 1414.31 1039.74 1417.01 1039.74L1417.01 1039.74 1417.01 1039.74zM1428.59 1022.06h52.44c2.71 0 4.9-2.2 4.9-4.9s-2.19-4.9-4.9-4.9h-52.44c-2.71 0-4.91 2.19-4.91 4.9S1425.88 1022.06 1428.59 1022.06L1428.59 1022.06 1428.59 1022.06zM1417.01 1057.34h75.6c2.7 0 4.9-2.19 4.9-4.9 0-2.7-2.2-4.89-4.9-4.89h-75.6c-2.71 0-4.9 2.2-4.9 4.89C1412.11 1055.15 1414.31 1057.34 1417.01 1057.34L1417.01 1057.34 1417.01 1057.34zM1513.67 1037.91c3.3 1.11 6.25 2.98 8.67 5.39.1.1.18.2.26.29 3.9 4.04 6.31 9.53 6.31 15.56v3.59h23.8v.02c2.56 0 4.64 2.08 4.64 4.65l.05 17.44c.03.63-.07 1.26-.31 1.88l-28.37 73.28c-.39 1.34-1.37 2.43-2.63 2.97-.42.22-.96.35-1.64.38h-.1l-.1.01h-141.79c-2.57 0-4.66-2.09-4.66-4.67v-99.54c0-6.18 2.51-11.78 6.58-15.85 2.95-2.95 6.72-5.09 10.94-6.03v-34.48c0-2.17.89-4.16 2.34-5.6l.01-.01.01-.01c1.45-1.45 3.43-2.34 5.61-2.34h102.43c2.17 0 4.16.89 5.61 2.34l.01.01.01.01c1.45 1.44 2.34 3.43 2.34 5.6V1037.91zM804.2 641.24c-1.34-.14-2.31-1.34-2.16-2.68.14-1.34 1.34-2.31 2.67-2.16 22.38 2.43 42.27 13.16 56.51 29.06 14.1 15.73 22.67 36.51 22.67 59.28 0 24.54-9.95 46.76-26.03 62.84-14.99 14.99-35.31 24.65-57.88 25.89v12.32h17.01c2.72 0 4.95 2.23 4.95 4.95l0 0c0 2.73-2.23 4.96-4.95 4.96h-43.93c-2.73 0-4.96-2.23-4.96-4.96l0 0c0-2.72 2.23-4.95 4.96-4.95h17.01v-12.32c-11.9-.65-23.2-3.66-33.42-8.56-12.07-5.79-22.63-14.22-30.92-24.54-.84-1.05-.68-2.58.37-3.43 1.05-.84 2.58-.67 3.43.37 6.3 7.84 13.97 14.52 22.66 19.68l5.11-9.22 4.26 2.36-5.11 9.22c.76.39 1.54.78 2.32 1.15 10.96 5.26 23.26 8.21 36.27 8.21 23.19 0 44.18-9.4 59.38-24.6 15.2-15.2 24.6-36.19 24.6-59.38 0-21.54-8.1-41.18-21.42-56.04-5.7-6.35-12.34-11.83-19.72-16.22l-4.81 8.67-4.26-2.37 4.81-8.67C824.63 645.46 814.7 642.38 804.2 641.24z" clip-rule="evenodd"></path><path fill="#bcc9e7" fill-rule="evenodd" d="M829.69 684.92c4.22.49 4.97-.1 6.16-1.75l-2.65-2.55c-1.09-1.64-.76-2.56-1.52-4.03-3.27.18-4.12 2.05-1.45 3.55 2.91 1.63.78 1.98.78 1.98-.95.7-.55-.43-1.15.96C829.7 683.45 829.7 684.44 829.69 684.92L829.69 684.92zM824.76 684L824.76 684c.04-2.75 1.76-5.2 4.65-3.79.55 1.92.06 1.76-1.36 2.78C826.62 684.03 826.87 684.05 824.76 684L824.76 684zM786.79 689.73c.7 3.34 2.99-.06 3-.07 1.04-.97.37.63 1.05-.97-.05-.03-.07-.43-.97-.34-1.04.1-.47.61-1.76 1.02C787.19 689.69 787.84 689.12 786.79 689.73L786.79 689.73 786.79 689.73zM784.35 689.74c-.52-.03-.38-.13-.26.41l-.21 1.03 1.43-.32L784.35 689.74 784.35 689.74 784.35 689.74zM784.09 690.15L784.09 690.15l.26-.41.42 0 .63.28-.1.85c-.5.61.4.69-1.61.55C783.65 690.02 783.45 690.88 784.09 690.15L784.09 690.15zM728.33 699.03L728.33 699.03c-.01.4-.04.82-.04 1.23 6.43 2.48.71 3.34 3.94 8.76 1.48 2.47 1.1 3.43 4.43 3.59.19-2.55-.44-2.77-1.69-4.6-.82-1.2-1.76-4.1-1.07-5.47 2.74.02.92 2.94 2.61 5.31.68.94 3.13 4.13 3.06 4.98-.16 1.91-1.69 1.31 1.4 5.07 1.13 1.37 4.29 1.44 6.09 2.1 1.79-.54-.7-1.09 2.72-.62l.3 1.12c.47 1.17 1.75 1.13 3.07 1.46 3.48.87 3.94 4.21 6.43 5.36.91.42 4.17.47 5.34.49l.5 4.78c-1.21.54-2.8 1.74-3.84 2.44-.05 2.03-.07 3.35-.43 5.17-.67 3.43 4.82 5.14 5.58 10.63 3.15.76 4.82 2.11 6.66 3.85l-.03 11.75c.53 1.39.37.12 1.49 1.36-1.05 3.78-1.48 4.94.62 7.48 2.13 2.57-.69 5.17 1.07 8.28 2.28 4.03 5.69 9.92 11.36 8.23.56-2.07-1.68-2.6-2.72-3.93l.94-4.5c-2.61-.15-2.21.33-3.2-1.37.82-1.5 1.35-.78 1.8-2.77-.68-.77-1.31-.53-1.81-1.38.63-1.55.39-.03 5.78-2.51 2.34-1.07 2.26-2.6 3.81-4.48 7.33-8.9.21-4.98 3.97-11.57 3.15-.01 3.36.85 5.64-.94 3.3-2.58.64-7.86 3.32-11.2 1.7-2.13 1.86-1.73 2.63-4.88-1.03-.95-1.95-.55-2.91-1.5-1.05-1.04-.74-2.05-2.19-2.77-2-.01-4.47.27-6.24-.22-1.57-.44-3.15-1.29-4.76-1.77-.22-3.21-.19-4.57-2.13-6.66l-4.58-.1c-.47-1.05-1.03-1.99-1.76-3.1-1.12-1.71-1.14-1.05-2.69-2.1l-.76 1.29-4.03.04c-1.98-2.64-3.01-2.73-6.38-2.97-.57 1.08-2.59 3.47-3.58 4.15l-5.5-.98-.41-6.49-4.11-.75c.82-2.18 2.1-2.73.99-4.85-4.63 1.92-2.95 3.9-8.8 3.04-1.09-1.69-1.6-2.82-.7-5.18 2.67-7 8.02-6.14 15.02-6.07l.05 2.72 3.02 1.28-.23-4.3c2.12-1.99 2.82-2.56 5.54-4.41 2.76-1.87-.71-.69 4.21-5.82 2.02-2.12 4.69-2.81 5.94-4.06l.83-1.22c.04-.06.11-.14.15-.19 1.44-1.69 2.26-2.66 4.3-1.27l.96-1.31c-.76-.42-1.68-.48-2.34-1.05v-1.12c2.2-1.05 2.51-.51 3.82 1.06 2.86-.14 2.21-.31 3.23-.87 1.14-.62-.96-.48 1.28-.41.22 3.28-1.07.22-.88 3.07.85.85 3.74 1.57 4.9 1.59.74-3.59-1.53-1.28-1.93-3.39-.45-2.44 1.67.34 1.49-4.08l-1.92-1.33c-1.24-.99-.85-3.13-.92-4.67-2.05.64-2.92 1.76-5.19 1.79l.3-3.34c-7.73-1.49-3.45-1.46-7.27.26l-.08 5.05c-1.49.57-3.46.74-4.15 1.8-1.04 1.58-.28 2.72-2.91 2.82 0-6.41-.27-2.82-4.15-4.88-1.47-.78-1.69-1.75-1.82-3.65 3.68-1.7 4.94-3.19 9.33-4.44l.54 1.97c3.49.11-.05-.93 3.78-1.31l-.77-1.29c-.39-1.01.15 1.35-.17-.65 4.32-.06 2.04-1.75 5.28-2.24 3.65-.55 3.53-.75 5.41 1.33l-5.07 2.85c1.58 1.04 4.79 1.45 6.99 1.78.7-2.64 1.49-2.26 3.9-2.31l.94-1.94-2.03-.84-.09-2.58c-6.31-1.9-6.57-4.87-14.1-.99l.15 3.37c-1.23-.1-1.88-.2-2.82-.73l-.33-1.83c.89-.51 1.77-1.18 2.29-2.11-1.44-.24-6.17-1.11-6.3 1.18-.05.92 1.78.31 1.18 2.59l-3.01.22c-.76 1.64-1.18 1.6-4.98 1.25l-.15-2.4c3.07-.06 4.3-.08 5.9-2.76-3.26-1.71-.06 1.42-6.54 1.06-.54-1.01-1.15-1.73-1.76-2.67-3.3-.04-4.16-.09-6.57 1.66l-1.58 1.52 3.52.01c.46 1.4.07 1.26-.59 2.3 3.36-.39 4.24-.54 4.84 1.41l-4.46-.09c-1.22-1.79.52-.75-1.32-1.43-.5-.18-1.5-.27-2.2-.54-1.6-.62-2.26-.76-3.45-.84 11.5-7.91 25.43-12.55 40.45-12.55 18.32 0 35.04 6.9 47.68 18.24-.52.94-1.23.62-2.92 1.46-1.47.73-2.16 1.56-1.85 3.29 2.06 1.55 1.54-.37 2.73 3.12l3.13-1.08.36 3.41c-2.93-.04-5.25-1.23-6.88 1.19-1.94 2.9-1.14 2.67-5.52 3.13l-.54 3.01 1.48 1.04-.45 1.58c-2.53-.48-4.54-1.06-7.05.15-.23.22-2.77 6.59 3.04 6.79 1.59.05 2.99-.17 4.5-.22.72-2.23 3.64-5.9 3.93-6.09 1.54-.44 1.76.31 2.8-.04.5-.16 1.42-1.3 1.93-1.73 2.06 2.76.05 1.12 4.65 4.2.77.52 1.18.63 1.41 1.46-1.12.86-1.17.39-2.88.57 1.07 2.05 1.88 1.83 4.27.83.06-2.23-.05-1.33.58-3.16-3.9-1.95-4.31-1.76-5.1-5.03 2.29 0 2.5-.37 3.87.77 6.19 5.21-.14 3.24 5.52 8.16 1.85-2-.47-3.34 3.23-4.79.41 4.08.52 2.75 2.01 5.19l2.68.04c.78 1.99 1.46 4.03 2.06 6.1-2 .17-4.68.1-5.94-.76-2.52-1.72-2.18-2.18-6.26-1.48l-.1 2.19c-.07 0-8.49-2.59-8.59-2.64l-.15-4c-5.03-.07-6.65.29-10.22 1.62-3.75 1.4-4.62-1.53-9.23 2.38-.07 5.2.39 3.56-3.87 6.65-1.28.92-2.94 2.33-4.2 2.97.41 3.21 1.11 2.29 2.1 3.17-.54 3.48-1.11 1.12-1.44 2.76-.01 6.28-1 4.61 2.34 8.37 2.43 2.74 3.53 5.14 5.93 5.14.96 0 1.62-.24 2.18-.33.94-.15 1.73-.12 2.69-.1 4.14.07 2.17-.66 4.21-1.3 4.32-1.35.67 1.66 8.96 2.02-.42 6.68-1.24 5 1.77 10.3 3.35 5.91 3.17 3.96.73 8.5-2.34 4.36 1.26 4.23 1.58 6.78.11.9-.04 2.51-.02 3.49.03 2.57 1.01 2.69 2.13 4.44 1.24 1.93.28 3.38.8 5.74l.57.04c-13.11 15.53-32.71 25.39-54.62 25.39-39.47 0-71.47-32-71.47-71.46C723.56 715.67 725.26 707 728.33 699.03L728.33 699.03zM795.03 648.27c42.23 0 76.45 34.24 76.45 76.46s-34.23 76.46-76.45 76.46c-42.23 0-76.46-34.24-76.46-76.46S752.8 648.27 795.03 648.27L795.03 648.27zM1098.23 665.09c-12.15 0-22.04 9.89-22.04 22.04 0 12.15 9.89 22.04 22.04 22.04s22.04-9.89 22.04-22.04C1120.27 674.98 1110.38 665.09 1098.23 665.09L1098.23 665.09zM1098.23 716.44c-16.16 0-29.3-13.15-29.3-29.3 0-16.16 13.15-29.3 29.3-29.3 16.16 0 29.3 13.14 29.3 29.3C1127.54 703.29 1114.39 716.44 1098.23 716.44z" clip-rule="evenodd"></path><path fill="#bcc9e7" fill-rule="evenodd" d="M1092.75 693.11c.35.86.82 1.55 1.41 2.05.96.83 2.26 1.24 3.89 1.24 1.72 0 3.03-.37 3.91-1.1.87-.74 1.31-1.59 1.31-2.57 0-.63-.19-1.16-.55-1.61-.37-.44-1.01-.83-1.93-1.15-.63-.22-2.05-.61-4.29-1.16-2.87-.72-4.89-1.6-6.05-2.65-1.63-1.47-2.45-3.26-2.45-5.38 0-1.36.38-2.64 1.15-3.82.77-1.19 1.87-2.09 3.32-2.71 1.05-.45 2.25-.73 3.6-.85v-2.98h4.56v3.13c1.92.32 3.45.98 4.61 1.99.94.84 1.64 1.83 2.08 2.97l-5.09 2.07c-.27-.83-.67-1.46-1.21-1.9-.75-.6-1.88-.9-3.38-.9-1.55 0-2.77.32-3.64.97-.56.41-.85.97-.85 1.66 0 .63.27 1.18.8 1.62.67.58 2.32 1.17 4.93 1.79 2.61.61 4.54 1.26 5.78 1.92 1.25.66 2.24 1.56 2.95 2.71.7 1.15 1.06 2.56 1.06 4.25 0 1.53-.42 2.96-1.27 4.29-.85 1.33-2.05 2.33-3.6 2.97-.92.39-1.98.66-3.17.81v3.07h-4.56v-3c-2.44-.25-4.39-1-5.83-2.25-1.06-.91-1.87-2.07-2.42-3.47L1092.75 693.11zM1176.66 684.2c-21.15 42.66-69.35 68.67-122.95 72.68 63.94-20.7 84.76-50.66 99.72-79.61l-9.14-3.04 35.52-38.49 5.86 51.15L1176.66 684.2z" clip-rule="evenodd"></path><path fill="#bcc9e7" fill-rule="evenodd" d="M1103.28 802.22h27.23v-62.97c-8.61 4.99-17.77 9.17-27.23 12.54V802.22L1103.28 802.22zM1138.32 802.22h27.23v-91.81c-7.89 9.26-17.11 17.24-27.23 23.98V802.22L1138.32 802.22zM1173.37 802.22h27.23V666.39h-12l3.19 27.78-12.48-3.73c-1.83 3.36-3.82 6.6-5.94 9.72V802.22L1173.37 802.22zM1068.24 802.22h27.23v-47.85c-8.93 2.73-18.06 4.77-27.23 6.14V802.22zM1051.18 821.05h166.48c.96 0 1.74.78 1.74 1.73v11.8c0 .96-.78 1.74-1.74 1.74h-166.48c-.96 0-1.74-.79-1.74-1.74v-11.8C1049.44 821.83 1050.22 821.05 1051.18 821.05L1051.18 821.05zM1062.01 809.67h144.81c.43 0 .77.35.77.78v5.28c0 .43-.34.78-.77.78h-144.81c-.43 0-.78-.35-.78-.78v-5.28C1061.24 810.02 1061.59 809.67 1062.01 809.67L1062.01 809.67zM743.77 981.97c-5.34 0-9.68 4.34-9.68 9.67v146.09c2.97-2.97 7.07-4.82 11.6-4.82H868.3V991.64c0-5.33-4.35-9.67-9.68-9.67H743.77L743.77 981.97zM731.68 1151.74c-1.33 0-2.4-1.08-2.4-2.4V991.64c0-7.99 6.5-14.48 14.48-14.48h114.85c7.99 0 14.49 6.5 14.49 14.48v143.68c0 1.33-1.08 2.4-2.4 2.4H745.69c-6.4 0-11.6 5.2-11.6 11.6C734.09 1150.66 733.02 1151.74 731.68 1151.74z" clip-rule="evenodd"></path><path fill="#519aab" fill-rule="evenodd" d="M784.76,1160.94h81.21c-4.93-7.86-4.98-15.75-0.15-23.21H745.69c-6.4,0-11.6,5.2-11.6,11.6
		c0,6.4,5.2,11.6,11.6,11.6h17.65v-7.31c0-1.33,1.07-2.4,2.4-2.4h16.62c1.33,0,2.4,1.07,2.4,2.4V1160.94L784.76,1160.94z
		 M870.77,1165.74c-0.02,0-0.04,0-0.07,0h-88.34c-1.33,0-2.4-1.07-2.4-2.4v-7.31h-11.81v7.31c0,1.33-1.07,2.4-2.4,2.4h-20.05
		c-9.04,0-16.41-7.36-16.41-16.4c0-9.05,7.36-16.41,16.41-16.41H870.7c0.95,0,1.81,0.56,2.19,1.43c0.39,0.87,0.23,1.88-0.41,2.59
		c-7.26,8.03-7.34,15.83-0.22,24.51c0.55,0.44,0.91,1.12,0.91,1.88C873.17,1164.67,872.1,1165.74,870.77,1165.74z" clip-rule="evenodd"></path><path fill="#519aab" fill-rule="evenodd" d="M865.24 1156.03h-82.88c-1.33 0-2.4-1.08-2.4-2.4 0-1.33 1.08-2.4 2.4-2.4h82.88c1.33 0 2.4 1.07 2.4 2.4C867.64 1154.95 866.57 1156.03 865.24 1156.03zM865.14 1147.3H753.55c-1.33 0-2.4-1.07-2.4-2.4 0-1.33 1.07-2.4 2.4-2.4h111.59c1.33 0 2.41 1.07 2.41 2.4C867.55 1146.23 866.48 1147.3 865.14 1147.3z" clip-rule="evenodd"></path><path fill="#bcc9e7" fill-rule="evenodd" d="M773.93 1169.68c.52 0 1.03.16 1.47.51l4.55 3.53v-17.68h-11.81v17.59l4.28-3.42C772.86 1169.85 773.4 1169.68 773.93 1169.68L773.93 1169.68zM765.74 1181.01c-.35 0-.71-.08-1.04-.24-.83-.4-1.36-1.24-1.36-2.17v-24.99c0-1.33 1.07-2.4 2.4-2.4h16.62c1.33 0 2.4 1.07 2.4 2.4v24.99c0 .92-.52 1.76-1.34 2.16-.82.41-1.81.3-2.53-.26l-6.94-5.38-6.7 5.36C766.81 1180.84 766.28 1181.01 765.74 1181.01zM761.54 1029.59h90.34v-23.21h-90.34V1029.59L761.54 1029.59zM854.28 1034.39h-95.15c-1.33 0-2.4-1.07-2.4-2.4v-28.01c0-1.33 1.07-2.41 2.4-2.41h95.15c1.33 0 2.4 1.08 2.4 2.41v28.01C856.69 1033.32 855.61 1034.39 854.28 1034.39zM743.77 1018.65c-1.33 0-2.4-1.08-2.4-2.4v-15.69c0-1.33 1.07-2.4 2.4-2.4 1.33 0 2.4 1.07 2.4 2.4v15.69C746.17 1017.58 745.09 1018.65 743.77 1018.65L743.77 1018.65zM743.77 1137.73c-1.33 0-2.4-1.08-2.4-2.4v-105.46c0-1.32 1.07-2.4 2.4-2.4 1.33 0 2.4 1.08 2.4 2.4v105.46C746.17 1136.65 745.09 1137.73 743.77 1137.73zM831.09 1054.46h-48.76c-1.33 0-2.4-1.07-2.4-2.4 0-1.33 1.07-2.4 2.4-2.4h48.76c1.33 0 2.4 1.08 2.4 2.4C833.49 1053.39 832.42 1054.46 831.09 1054.46zM848.15 1064.07h-82.87c-1.33 0-2.4-1.07-2.4-2.4 0-1.33 1.08-2.4 2.4-2.4h82.87c1.33 0 2.4 1.08 2.4 2.4C850.55 1063 849.47 1064.07 848.15 1064.07zM1554.9 735.4c.35 48.21-38.45 87.58-86.67 87.93-48.21.35-87.58-38.46-87.92-86.68-.35-48.21 38.45-87.58 86.67-87.92C1515.19 648.39 1554.56 687.19 1554.9 735.4z" clip-rule="evenodd"></path><path fill="#fff" fill-rule="evenodd" d="M1492.17 694.71c.1 13.73-10.95 24.94-24.69 25.04-13.73.1-24.95-10.95-25.05-24.69-.1-13.73 10.96-24.95 24.69-25.04C1480.87 669.92 1492.08 680.98 1492.17 694.71zM1467.54 728.26L1467.54 728.26c-25.48.18-45.98 20.98-45.79 46.46l0 0c.05 6.69 5.5 12.07 12.19 12.02l68.06-.49c6.69-.05 12.07-5.5 12.02-12.19l0 0C1513.83 748.59 1493.03 728.08 1467.54 728.26z" clip-rule="evenodd"></path><rect width="196.89" height="78.63" x="1035.98" y="1353.92" fill="#aab9de" fill-rule="evenodd" clip-rule="evenodd"></rect><path fill="#bcc9e7" fill-rule="evenodd" d="M941.07,1432.55h386.72c12.3,0,22.38,10.07,22.38,22.37v0c0,12.31-10.07,22.37-22.38,22.37H941.07
		c-12.3,0-22.37-10.07-22.37-22.37v0C918.7,1442.61,928.76,1432.55,941.07,1432.55z" clip-rule="evenodd"></path><path fill="#e9eff8" fill-rule="evenodd" d="M1835.04,1182.11c-11.7,172.3-53.17,363.24-243.04,412.65l-4.72,1.22l-4.71-1.22
		c-189.87-49.41-231.35-240.35-243.04-412.65l-1.13-16.6l16.35-3.06c79.19-14.85,151.79-44.52,224.72-78l7.81-3.59l7.81,3.59
		c72.93,33.48,145.54,63.15,224.72,78l16.35,3.06L1835.04,1182.11z" clip-rule="evenodd"></path><path fill="#aab9de" fill-rule="evenodd" d="M1816.37,1180.21c-78.25-14.67-148.04-42.18-229.08-79.38c-81.03,37.2-150.83,64.72-229.08,79.38
		c15.97,235.34,85.76,358.52,229.08,395.81C1730.6,1538.73,1800.39,1415.55,1816.37,1180.21z" clip-rule="evenodd"></path><path fill="#e9eff8" fill-rule="evenodd" d="M1779.98,1207.43c-67.01-15.69-129.77-40.66-192.69-69.07c-62.92,28.42-125.69,53.38-192.69,69.07
		c9.42,104.67,34.93,234.09,120.93,298.1c21.72,16.18,45.96,27.45,71.76,35.05c25.8-7.6,50.04-18.87,71.76-35.05
		C1745.05,1441.52,1770.56,1312.1,1779.98,1207.43z" clip-rule="evenodd"></path><path fill="#d0d9ee" fill-rule="evenodd" d="M1779.98,1207.43c-67-15.69-129.77-40.66-192.69-69.07v402.23c25.8-7.6,50.04-18.88,71.76-35.05
		C1745.05,1441.52,1770.56,1312.1,1779.98,1207.43z" clip-rule="evenodd"></path><path fill="#aab9de" fill-rule="evenodd" d="M1543.16,1296.31h88.25c0-11.55,0-23.11,0-34.66c0-12.12-4.96-23.15-12.97-31.16c-8-8-19.03-12.97-31.15-12.97
		c-12.13,0-23.15,4.97-31.16,12.97c-8,8-12.97,19.04-12.97,31.16V1296.31L1543.16,1296.31z M1652.3,1296.31v0.31
		c10.41,1.79,18.39,10.91,18.39,21.8v102.36c0,12.16-9.95,22.12-22.11,22.12H1526c-12.16,0-22.12-9.96-22.12-22.12v-102.36
		c0-10.89,7.98-20.01,18.39-21.8v-34.98c0-17.89,7.31-34.15,19.09-45.92c11.77-11.78,28.03-19.09,45.92-19.09
		c17.89,0,34.15,7.31,45.92,19.09c11.78,11.78,19.09,28.04,19.09,45.92C1652.3,1273.2,1652.3,1284.75,1652.3,1296.31z" clip-rule="evenodd"></path><path fill="#e9eff8" fill-rule="evenodd" d="M1587.29,1327.8c13.01,0,23.57,10.55,23.57,23.57c0,10.58-6.97,19.53-16.57,22.52v28.48
		c0,3.85-3.15,7.01-7,7.01l0,0c-3.85,0-7.01-3.15-7.01-7.01v-28.48c-9.6-2.99-16.57-11.94-16.57-22.52
		C1563.71,1338.35,1574.27,1327.8,1587.29,1327.8z" clip-rule="evenodd"></path><ellipse cx="636.97" cy="1602.61" fill="#d0d9ee" fill-rule="evenodd" clip-rule="evenodd" rx="421.55" ry="52.55"></ellipse><path fill="#d1a383" fill-rule="evenodd" d="M397.87,1201.7c-2.39-58.57-7.52-109.52-13.66-145.05c-9.8-56.62-18.61-89.21-18.72-89.55
		c-1.29-4.98-19.94-25.13-61.36-24.51c-41.44,0.62-37.52,27.05-37.52,27.05l0,0c0,0.88,0.13,1.72,0.31,2.34
		c0.39,1.37,38.44,139.3,36.78,317.37c-0.02,2.49-0.3,6.81-0.13,9.7c0,0.01,96.03,2.47,96.06,0
		C402.99,1283.48,401.34,1240.35,397.87,1201.7z" clip-rule="evenodd"></path><path fill="#e3bb9b" fill-rule="evenodd" d="M409.93,1288.46c-0.03,2.48-1.33,4.48-2.92,4.48h-0.05c-1.59-0.05-2.86-2.03-2.88-4.48h-82.3
		c-0.03,2.48-1.35,4.48-2.94,4.48h-0.03c-1.63-0.05-2.93-2.09-2.91-4.6c0.48-50.98-2.42-98.58-6.81-140.59
		c-10.95-104.76-31.17-174.79-31.45-175.74c-0.19-0.63-0.3-1.46-0.3-2.36c0,0-3.92-26.43,37.5-27.05
		c41.45-0.62,60.09,19.53,61.37,24.51c0.08,0.26,5.08,18.71,11.71,51.88c2.2,11,4.57,23.58,7.01,37.67
		c6.13,35.53,11.27,86.48,13.66,145.05C412.06,1240.35,413.28,1272.91,409.93,1288.46z" clip-rule="evenodd"></path><path fill="#deb393" fill-rule="evenodd" d="M409.93,1288.46c-0.03,2.48-1.33,4.48-2.92,4.48h-0.05c-1.59-0.05-2.86-2.03-2.88-4.48h-82.3
		c-0.03,2.48-1.35,4.48-2.94,4.48h-0.03c-1.63-0.05-2.93-2.09-2.91-4.6c0.48-50.98-2.42-98.58-6.81-140.59
		c13.6-66.48,66.19-117.34,78.82-128.76c2.2,11,4.57,23.58,7.01,37.67c6.13,35.53,11.27,86.48,13.66,145.05
		C412.06,1240.35,413.28,1272.91,409.93,1288.46z" clip-rule="evenodd"></path><path fill="#d1a383" fill-rule="evenodd" d="M345.38,1281.87c-9.19,0-15.67,0.43-17.97,2.77c0,0-0.02,0-0.02,0.02c-0.03-2.35-0.15-6.74-0.38-15
		c-0.28-9.72-0.75-24.93-1.42-42.08c-1.19-29.99-3.23-71.26-6.3-97.49c-3.56-30.49-24.82-154.42-24.93-154.81
		c-0.14-0.45-0.2-1.02-0.2-1.62c-0.02-0.12-0.84-6.18,3.67-11.46c4.46-5.25,12.45-8.01,23.74-8.18c0.47,0,0.95,0,1.39,0
		c29.31,0,42.77,14.02,43.76,17.87c0.24,0.88,23.82,96.62,27.91,150.81l0.48-0.03l-0.48,0.03c0.39,5.05,1.22,13.6,2.29,24.42
		c4.17,42.4,12.9,130.66,4.17,132.17c-17,2.99-34.1,2.79-47.83,2.63C350.47,1281.9,347.83,1281.87,345.38,1281.87L345.38,1281.87z
		 M327,1287.61l0.24-0.15c0.07-0.05,0.12-0.09,0.15-0.42h0.05c-0.02-0.71,0.2-1.27,0.67-1.75c2.62-2.66,12.55-2.55,25.16-2.41
		c13.78,0.15,30.93,0.35,48.02-2.64c8.83-1.56,2.87-69.58-3.41-133.21c-1.07-10.83-1.9-19.37-2.29-24.39
		c-4.08-53.86-27.72-150.24-27.93-151.01c-1.06-4.06-15.26-19.06-46.09-18.56c-11.59,0.17-19.81,3.03-24.47,8.52
		c-4.77,5.62-3.91,11.88-3.87,12.14c-0.02,0.61,0.07,1.27,0.23,1.81c0.13,0.51,21.44,124.8,24.9,154.64
		c5.74,49.12,8.04,150.97,8.13,156.62c0,0.08,0,0.15,0,0.22l0.02,0.28L327,1287.61z" clip-rule="evenodd"></path><path fill="#e3bb9b" fill-rule="evenodd" d="M309.84,1292.94h322.63c0,0-7.51-30.42-194.36-25.88C305.87,1270.27,309.84,1292.94,309.84,1292.94z" clip-rule="evenodd"></path><path fill="#d1a383" fill-rule="evenodd" d="M283.57 1610.52c37.41-189.37 27.78-305.58 27.74-307.05-.1-2.91 5.28-5.56 8.17-5.65 2.93-.06 15.85-.87 17.33 1.63 1.97 3.27 9.5 146.44-46.25 311.08H283.57zM584.82 1610.52c-37.41-189.37-27.79-305.58-27.75-307.05.09-2.91-5.28-5.56-8.16-5.65-2.92-.06-15.84-.87-17.33 1.63-1.97 3.27-9.5 146.44 46.26 311.08H584.82z" clip-rule="evenodd"></path><path fill="#9d7558" fill-rule="evenodd" d="M644.52 1610.52c-37.41-189.37-27.79-305.58-27.74-307.05.1-2.91-5.28-5.56-8.18-5.65-2.93-.06-15.84-.87-17.32 1.63-1.97 3.27-9.5 146.44 46.25 311.08H644.52zM343.67 1610.52c37.41-189.37 27.79-305.58 27.73-307.05-.09-2.91 5.28-5.56 8.18-5.65 2.93-.06 15.84-.87 17.33 1.63 1.96 3.27 9.49 146.44-46.26 311.08H343.67z" clip-rule="evenodd"></path><path fill="#d1a383" fill-rule="evenodd" d="M632.67,1302.63H310.02c-3.64,0-6.61-2.97-6.61-6.59v-4.35c0-3.65,2.98-6.62,6.61-6.62h322.65
		c3.62,0,6.6,2.97,6.6,6.62v4.35C639.27,1299.66,636.29,1302.63,632.67,1302.63z" clip-rule="evenodd"></path><path fill="#f4ae7c" fill-rule="evenodd" d="M523.82,1495.68c-2.68,3.08-3.02,6.52-1.68,10.19c0,0.02,0,0.03,0.02,0.04c2.46,6.8,10.59,14.39,20.02,21.96
		c1.2,0.98,2.27,1.86,3.2,2.68c0.25,0.22,0.5,0.44,0.73,0.65c0.19,0.17,0.37,0.35,0.56,0.5c8.8,8.11,5.48,9.97,21.29,26.42
		c18.01,18.75,30.43,19.09,33.96,17.39c2.97-1.46-3.08-11.39-9.81-22.58c-0.33-0.54-0.63-1.08-0.98-1.62
		c-0.9-1.49-1.78-3.01-2.66-4.49c-7.89-13.46-5.87-19.78-4-39.78c1.52-16.27,25.32-90.9,25.32-90.9l-34.55-5.95
		c0,0-10.39,59.42-21.85,68.57c-6.13,4.88-12.99,4.94-18.88,8.56c-0.42,0.25-0.83,0.5-1.22,0.77
		C529.92,1490.31,526.51,1492.6,523.82,1495.68z" clip-rule="evenodd"></path><path fill="#142d4d" fill-rule="evenodd" d="M523.82,1495.68c-2.68,3.08-3.02,6.52-1.68,10.19c0,0.02,0,0.03,0.02,0.04c3.02,6.8,10.93,14.34,20.05,21.9
		c1.19,0.99,2.25,1.89,3.17,2.74c0.25,0.22,0.5,0.44,0.73,0.65c0.19,0.17,0.37,0.35,0.56,0.5c8.8,8.11,5.48,9.97,21.29,26.42
		c18.01,18.75,30.43,19.09,33.96,17.39c2.97-1.46-3.08-11.39-9.81-22.58c-3.5-1.29-19.8-7.91-32.12-23.68
		c-10.85-13.84-18.09-31.64-25.47-41.94c-0.42,0.25-0.83,0.5-1.22,0.77C529.92,1490.31,526.51,1492.6,523.82,1495.68z" clip-rule="evenodd"></path><path fill="#f4ae7c" fill-rule="evenodd" d="M802.32,1474.11c2.12,10.65,17.33,8.89,34.3,4.74c16.97-4.15,12.95,0.78,37.1-1.9
		c24.16-2.67,31.48-11.68,32.22-15.27c0.65-3.19-11.29-4.31-24.09-5.79c-1.61-0.17-3.22-0.37-4.85-0.58
		c-14.45-1.81-25.04-11.15-38.17-18.81c-12.43-7.25-31-36.82-31-36.82l-33.14,2.63c0,0,17.39,26.4,24.11,37.9
		c3.97,6.75,3.75,15.69,3.26,22.58C801.8,1466.52,801.55,1470.35,802.32,1474.11z" clip-rule="evenodd"></path><path fill="#142d4d" fill-rule="evenodd" d="M836.62,1478.85c16.97-4.15,12.95,0.78,37.1-1.9c24.16-2.67,31.48-11.68,32.22-15.27
		c0.65-3.19-11.29-4.31-24.09-5.79l-0.11,0.25c0,0-14.5,10.28-34.61,10.76c-16.4,0.39-33.76-4.3-45.08-4.12
		c-0.25,3.75-0.5,7.58,0.26,11.34C804.44,1484.77,819.64,1483,836.62,1478.85z" clip-rule="evenodd"></path><path fill="#f4ae7c" fill-rule="evenodd" d="M728.57,987.41c0,0,7.9-19.35,16.59-20.13c8.69-0.79,36.31-5.14,38.3-1.19c1.97,3.95,0,18.17-5.94,23.3
		c-5.91,5.13-42.63,13.42-42.63,13.42L728.57,987.41z" clip-rule="evenodd"></path><path fill="#142d4d" fill-rule="evenodd" d="M675.31,1262.21l-71.42,192.2c0,0-10.97,1.07-21.48-1.97c-9.68-2.79-20.78-10.11-20.78-10.11
		s17.71-184.54,50.2-222.92C644.31,1181.03,675.31,1262.21,675.31,1262.21z" clip-rule="evenodd"></path><path fill="#0f3970" fill-rule="evenodd" d="M392.86 1184.47c0 0 205.2-69.39 250.96-54.63C689.59 1144.6 827 1418 827 1418s-3.1 4.12-11.56 7.29c-7.87 2.95-26.94 2.77-26.94 2.77s-124.01-106.31-138.76-137.31c-14.78-31-20.67-60.52-35.43-57.58-14.78 2.96-190.45 72.35-230.32 31-39.87-41.33-29.43-95.03-29.43-95.03L392.86 1184.47zM518.26 861.67c3.27-6.77 6.94-18.79 8.74-40.2-.28 2.12-3.98 29.15-14.37 44.45-42.68 28.01-124.48 121.58-122.85 139.31 0 0-28.82-48.87-29.32-49.17 0 0-53.14-67.58 9.85-106.29 32.01-19.68 31.84-44.94 30.5-66.87-1.34-21.94 8.74-116.38 72.86-91.66 0 0 10.3-4.58 14.92-3.89 0 0-3.77.72-5.69 2.69 7.44-.44 18.07.11 26.93 5.16C533.36 708.54 554.39 828.4 518.26 861.67z" clip-rule="evenodd"></path><path fill="#f4ae7c" fill-rule="evenodd" d="M510.1,867.3c0.22,0.09-20.59,10.9-36.27,6.61c-14.73-4.01-24.35-23.1-24.14-23.15
		c6.24-1.24,8.04-9.82,7.89-46.64l2.82,0.54l47.41,9.4c0,0-1.07,14.91-1.1,28.97C506.67,854.85,507.4,866.03,510.1,867.3z" clip-rule="evenodd"></path><path fill="#ed9357" fill-rule="evenodd" d="M507.82,814.06c0,0-1.07,14.91-1.1,28.97c-26.54-0.74-40.57-24.95-46.31-38.37L507.82,814.06z" clip-rule="evenodd"></path><path fill="#0f3970" fill-rule="evenodd" d="M455.51,799.5c0,0-13.91-21.97-17.25-40.76c-2.37-13.41,4.46-63.13,54.42-55.97c0,0,14.51,1.43,28.15,10.64
		c10.84,7.33,26.5,23.14,9,66.53l-4.56,14.66L455.51,799.5z" clip-rule="evenodd"></path><path fill="#f4ae7c" fill-rule="evenodd" d="M516.69,827.36c0,0-62.79,1.04-62.82-38.07c-0.05-39.11-8.18-65.31,31.9-67.62
		c40.08-2.31,47.88,12.6,51.07,25.65C540.03,760.37,533.01,826.09,516.69,827.36z" clip-rule="evenodd"></path><path fill="#0f3970" fill-rule="evenodd" d="M514.36,720.72c0,0-17.19,45.88-43.56,52.66c-26.38,6.78-37.81-0.28-37.81-0.28s20.22-16.07,24.43-44.13
		C457.4,728.96,501.4,698.88,514.36,720.72z" clip-rule="evenodd"></path><path fill="#6998d0" fill-rule="evenodd" d="M344.71,1185.55c3.39,9.4,13.77,11.81,27.69,10.19c26.54-3.1,65.96-20.92,94.35-33.23
		c43.31-18.78,62.99-1.15,76.78-13.09c13.78-11.95-15.74-38.51,9.85-161.87c8.67-41.83-46.32-131.53-46.32-131.53
		s-4.76,25.97-57.37-5.26c-1.86-1.1-22.58,29.56-42.53,67.38c-21.99,41.7-43.05,92.09-36.85,118.06
		C382.11,1085.7,334.87,1158.24,344.71,1185.55z" clip-rule="evenodd"></path><path fill="#6998d0" fill-rule="evenodd" d="M507.06,856.03l32.42,133.07c0,0,4.04,7.18,10.38,17.42c14.85,24.02,42.34,64.81,59.95,68.96
		c8.67,2.04,27.14-5.19,47.57-15.5c38.64-19.53,84.32-50.11,84.32-50.11c2.95-17.72-12.47-32.16-12.47-32.16
		s-92.53,34.78-101.71,35.43c-20.04,1.44-40.42-95.24-59.14-127.46C554.85,862.38,507.06,856.03,507.06,856.03z" clip-rule="evenodd"></path><path fill="#406fb5" fill-rule="evenodd" d="M344.71 1185.55c3.39 9.4 13.77 11.81 27.69 10.19 18.36-8 97.71-38.74 96.82-59.57-1.32-30.83-15.26-31.82-5.41-69.87 7.9-30.57-65.41-87.39-77.1-99.75-21.99 41.72-22.59 43.69-16.4 69.66C382.11 1085.7 334.87 1158.24 344.71 1185.55zM549.87 1006.52c14.85 24.02 42.34 64.81 59.95 68.96 8.67 2.04 27.14-5.19 47.57-15.5-14.91 3.84-29.39 3.73-43.47 2.37-15.26-1.47-19.7-20.18-43.81-48.23C554.47 995.93 550.63 1000.51 549.87 1006.52z" clip-rule="evenodd"></path><path fill="#f4ae7c" fill-rule="evenodd" d="M476.35,1065.55c0,0,13.29-10.33,25.84-7.88c12.55,2.46,18.7,11.09,18.2,15.02c-0.48,3.93-7.13,15-16.73,16
		c-9.6,0.97-36.92-5.92-36.92-5.92L476.35,1065.55z" clip-rule="evenodd"></path><path fill="#6998d0" fill-rule="evenodd" d="M449.69,850.76c0,0-51.18,3.16-68.88,27.86c-24.95,34.78-68.25,176.75-56.44,209.24l155.68-0.67
		c0,0,3.78-17.62-1.47-26.16c-5.25-8.53-90.54-22.31-94.49-26.25c-3.93-3.95,49.21-76.78,49.21-88.59
		C433.29,934.4,449.69,850.76,449.69,850.76z" clip-rule="evenodd"></path><polygon fill="#f1923f" fill-rule="evenodd" points="489.72 1123.7 678.18 1123.7 712.16 1005.22 523.97 1005.22" clip-rule="evenodd"></polygon><rect width="246.4" height="4.61" x="431.15" y="1119.08" fill="#0f3970" fill-rule="evenodd" clip-rule="evenodd"></rect><path fill="#0f3970" fill-rule="evenodd" d="M618.34,1062.53c1.19-4.16-1.22-7.54-5.39-7.54c-4.17,0-8.5,3.38-9.69,7.54c-1.2,4.17,1.2,7.54,5.37,7.54
		C612.8,1070.07,617.14,1066.69,618.34,1062.53z" clip-rule="evenodd"></path><path fill="#c59a7c" fill-rule="evenodd" d="M876.93 1148.83l12.95 73.33v.01l35.74 202.54 31.94 181.06c.48 2.75 2.93 4.76 5.79 4.76 2.51 0 4.46-2.15 4.12-4.58l-27.55-205.25-29.47-219.56-4.44-33.12L876.93 1148.83zM735.46 1148.83l12.95 73.33v.01l35.74 202.54 31.94 181.06c.48 2.75 2.93 4.76 5.78 4.76 2.52 0 4.48-2.15 4.14-4.58l-27.55-205.25-29.47-219.56-4.45-33.12L735.46 1148.83z" clip-rule="evenodd"></path><path fill="#9d7558" fill-rule="evenodd" d="M889.87,1222.16c-1.7-31.5,20.58-41.02,20.58-41.02l-4.44-33.12l-29.08,0.82L889.87,1222.16z" clip-rule="evenodd"></path><path fill="#c59a7c" fill-rule="evenodd" d="M410.26,1632.35c2.86,0,5.31-2.01,5.79-4.75l28.39-160.86l40.82-231.38l11.41-64.7l-29.07-0.82l-5.04,37.55
		l-35.41,263.94l-21.02,156.44C405.82,1630.2,407.75,1632.35,410.26,1632.35z" clip-rule="evenodd"></path><path fill="#dfb290" fill-rule="evenodd" d="M414.46,1174.24h544.98c4.97,0,9.03-11.32,9.03-25.15v-0.52c0-13.82-4.06-25.15-9.03-25.15H414.46
		c-4.96,0-9.03,11.32-9.03,25.15v0.52C405.43,1162.92,409.5,1174.24,414.46,1174.24z" clip-rule="evenodd"></path></svg>