<svg xmlns="http://www.w3.org/2000/svg" enable-background="new 0 0 2000 2000" viewBox="0 0 2000 2000" id="refund-policy"><path fill="#d1deed" fill-rule="evenodd" d="M1044.5,1698c284.8,0,517.1-9.6,517.1-21.5c0-11.8-232.3-21.5-517.1-21.5c-284.8,0-517.1,9.6-517.1,21.5
			C527.4,1688.3,759.7,1698,1044.5,1698z" clip-rule="evenodd"></path><path fill="#e9eef7" fill-rule="evenodd" d="M987.2,295c192.7,0,170.7,340.3,309.8,444c184.1,137.3,500.9,69.3,500.9,304.9
			c0,413.6-410.8,563.5-858.6,563.5c-447.7,0-829.7-229.4-696.4-642C376.1,552.9,539.4,295,987.2,295z" clip-rule="evenodd"></path><polygon fill="#1e77d0" fill-rule="evenodd" points="789.4 445.8 945.9 469.1 847.4 592.9 749 716.8 691 569.6 633 422.5" clip-rule="evenodd"></polygon><path fill="#4f8dcb" fill-rule="evenodd" d="M1111.6,1500.1c157.8-68.6,261.1-210.5,287.4-368.5l125.8,21.3c-33.3,199-163.5,377.7-362.3,464.1
				c-312.2,135.8-675.4-7.2-811.2-319.4c-134.2-308.6,4-667.1,308.8-806.4l30.9,78.4l16,40.5c-237.4,112.5-344.2,394-238.7,636.7
				C576,1494.4,864,1607.9,1111.6,1500.1z" clip-rule="evenodd"></path><path fill="#d1e4f6" fill-rule="evenodd" d="M967.1,355.9c-274.9,215.5-292.2,548.6,13.5,790.8C1260.8,893.5,1256.3,586.3,967.1,355.9z" clip-rule="evenodd"></path><path fill="#fff" fill-rule="evenodd" d="M957.7,395.9c-0.1-2.8,2.2-5.2,5-5.2c2.8-0.1,5.2,2.2,5.2,5l6.3,267.4l134.5-74.9c2.5-1.4,5.6-0.5,7,2
					c1.4,2.5,0.5,5.6-2,7l-139.3,77.5l1.8,74.3c0.8,1.4,0.9,3.1,0.1,4.7l1.3,56.9l161.7-60.2c2.7-1,5.6,0.4,6.6,3
					c1,2.7-0.4,5.6-3,6.6l-165,61.5l1.6,66.7c0,0.2,0,0.4,0,0.7l1.6,67.8l121-40.1c2.7-0.9,5.6,0.6,6.5,3.3c0.9,2.7-0.6,5.6-3.3,6.5
					l-123.9,41.1l4.2,179.4c0.1,2.8-2.2,5.2-5,5.2c-2.8,0.1-5.2-2.2-5.2-5l-2.9-120.6L879.1,988c-2.6-1.1-3.9-4.1-2.8-6.7
					c1.1-2.6,4.1-3.9,6.7-2.8l89.4,36.5l-2.9-122.9L803,833.5c-2.7-0.9-4.1-3.9-3.1-6.6c0.9-2.7,3.9-4.1,6.6-3.1l162.7,57.4
					l-1.5-63.1l0-0.3l-1.5-63.6l-161-81.1c-2.5-1.3-3.6-4.4-2.3-6.9c1.3-2.5,4.4-3.6,6.9-2.3l156.1,78.6l-1.7-70.7l0-0.4l-1.8-75.5
					L851,522.6c-2.4-1.6-3-4.7-1.5-7.1c1.6-2.4,4.7-3,7.1-1.5l105.5,69.5L957.7,395.9z" clip-rule="evenodd"></path><path fill="#a3cffb" fill-rule="evenodd" d="M1459.5,524.5c-349.3,6.3-563.8,261.6-465.9,639.1C1369.9,1130.5,1551.4,882.7,1459.5,524.5z" clip-rule="evenodd"></path><path fill="#fff" fill-rule="evenodd" d="M1427.9,550.7c1.7-2.3,4.9-2.8,7.2-1.2c2.3,1.7,2.8,4.9,1.2,7.2l-156.1,217.2l152.5,21.3
					c2.8,0.4,4.8,3,4.4,5.8c-0.4,2.8-3,4.8-5.8,4.4l-157.9-22.1l-43.4,60.3c-0.2,1.6-1.2,3-2.7,3.8l-33.2,46.2l165.4,49.4
					c2.7,0.8,4.3,3.7,3.4,6.4c-0.8,2.7-3.7,4.3-6.4,3.4l-168.8-50.4l-39,54.2c-0.1,0.2-0.2,0.4-0.4,0.5l-39.6,55.1l120.7,40.9
					c2.7,0.9,4.1,3.8,3.2,6.5c-0.9,2.7-3.8,4.1-6.5,3.2l-123.7-41.9l-104.7,145.7c-1.7,2.3-4.9,2.8-7.2,1.2
					c-2.3-1.7-2.8-4.9-1.2-7.2l70.4-98l-51.6-86.9c-1.4-2.4-0.7-5.6,1.8-7s5.6-0.7,7,1.8l49.3,83l71.7-99.8l-97.4-147.1
					c-1.6-2.4-0.9-5.6,1.4-7.1c2.4-1.6,5.6-0.9,7.1,1.4l95.2,143.9l36.9-51.3l0.1-0.2l37.1-51.6L1139.1,680
					c-1.3-2.5-0.2-5.6,2.3-6.9c2.5-1.2,5.6-0.2,6.9,2.3l77.2,156.8l41.3-57.4l0.2-0.3l44.1-61.4l-44.7-125.7c-1-2.7,0.4-5.6,3.1-6.5
					c2.7-1,5.6,0.4,6.5,3.1l42.3,119.1L1427.9,550.7z" clip-rule="evenodd"></path><path fill="#d1e4f6" fill-rule="evenodd" d="M1750.8,955.8c-282.5-205.5-607.6-131.1-757,229.2C1314,1385.3,1608.3,1297,1750.8,955.8z" clip-rule="evenodd"></path><path fill="#fff" fill-rule="evenodd" d="M1709.8,957.7c2.7-0.8,5.6,0.7,6.4,3.4c0.8,2.7-0.7,5.6-3.4,6.4l-255.5,79.2l108.8,108.9c2,2,2,5.3,0,7.3
					c-2,2-5.3,2-7.3,0l-112.7-112.7l-71,22c-1.1,1.1-2.8,1.7-4.5,1.4l-54.4,16.9l102.2,139.1c1.7,2.3,1.2,5.5-1.1,7.2
					c-2.3,1.7-5.5,1.2-7.2-1.1l-104.3-141.9l-63.8,19.8c-0.2,0.1-0.4,0.1-0.6,0.2l-64.8,20.1l71.7,105.4c1.6,2.3,1,5.5-1.4,7.1
					c-2.3,1.6-5.5,1-7.1-1.4l-73.4-108l-171.4,53.1c-2.7,0.8-5.6-0.7-6.4-3.4c-0.8-2.7,0.7-5.6,3.4-6.4l115.2-35.7l11.2-100.4
					c0.3-2.8,2.8-4.8,5.7-4.5c2.8,0.3,4.8,2.8,4.5,5.7l-10.7,96l117.4-36.4l11-176.1c0.2-2.8,2.6-5,5.5-4.8c2.8,0.2,5,2.6,4.8,5.4
					l-10.7,172.2l60.3-18.7l0.2-0.1l60.7-18.8l34-177c0.5-2.8,3.2-4.6,6-4.1c2.8,0.5,4.6,3.2,4.1,6l-33,171.7l67.5-20.9l0.3-0.1
					l72.2-22.4l40.2-127.3c0.8-2.7,3.7-4.2,6.4-3.4c2.7,0.8,4.2,3.7,3.4,6.4l-38,120.5L1709.8,957.7z" clip-rule="evenodd"></path><g><path fill="#fabea7" fill-rule="evenodd" stroke="#f47a44" stroke-miterlimit="2.613" stroke-width=".112" d="M1304.3,662.2l-206.1-33.4l-7.1-0.9l-92.3,0.5v906.7l105.8-0.8l206.1-23c3.6-0.4,6.6-3.7,6.6-8.3V678.4
				C1317.2,669.5,1311.3,663.4,1304.3,662.2z" clip-rule="evenodd"></path><path fill="#ffe1db" fill-rule="evenodd" stroke="#f47a44" stroke-miterlimit="2.613" stroke-width=".259" d="M519.9,628.4h574.4c10.1,0,18.3,8.2,18.3,18.3v875.8c0,7-5.7,12.7-12.7,12.7H512.7c-7,0-12.7-5.7-12.7-12.7
				V648.3C500,637.4,509,628.4,519.9,628.4z" clip-rule="evenodd"></path><rect width="127.2" height="289.7" x="742.7" y="620.7" fill="#f47a44" fill-rule="evenodd" clip-rule="evenodd"></rect><rect width="12.7" height="233.2" x="795" y="620.7" fill="#fabea7" fill-rule="evenodd" clip-rule="evenodd"></rect><rect width="213.4" height="271.7" x="699.6" y="1009.7" fill="#ffe1db" fill-rule="evenodd" clip-rule="evenodd"></rect><path fill="#fabea7" fill-rule="evenodd" d="M699.6,1008.8H913h0.9v0.9v271.7v0.9H913H699.6h-0.9l0-0.9v-271.7l0-0.9H699.6L699.6,1008.8z
					 M912.1,1010.6H700.5v269.8h211.6V1010.6z" clip-rule="evenodd"></path><rect width="7.1" height="118.1" x="706.7" y="1157" fill="#fabea7" fill-rule="evenodd" clip-rule="evenodd"></rect><rect width="3.5" height="118.1" x="717.6" y="1157" fill="#fabea7" fill-rule="evenodd" clip-rule="evenodd"></rect><rect width="4.3" height="118.1" x="723.6" y="1157" fill="#fabea7" fill-rule="evenodd" clip-rule="evenodd"></rect><rect width="4.3" height="118.1" x="730.2" y="1157" fill="#fabea7" fill-rule="evenodd" clip-rule="evenodd"></rect><rect width="4.3" height="118.1" x="736.8" y="1157" fill="#fabea7" fill-rule="evenodd" clip-rule="evenodd"></rect><rect width="4.3" height="118.1" x="743.4" y="1157" fill="#fabea7" fill-rule="evenodd" clip-rule="evenodd"></rect><rect width="7.1" height="118.1" x="751.6" y="1157" fill="#fabea7" fill-rule="evenodd" clip-rule="evenodd"></rect><rect width="3.5" height="118.1" x="762.5" y="1157" fill="#fabea7" fill-rule="evenodd" clip-rule="evenodd"></rect><rect width="4.3" height="118.1" x="768.6" y="1157" fill="#fabea7" fill-rule="evenodd" clip-rule="evenodd"></rect><rect width="4.3" height="118.1" x="775.2" y="1157" fill="#fabea7" fill-rule="evenodd" clip-rule="evenodd"></rect><rect width="4.3" height="118.1" x="781.8" y="1157" fill="#fabea7" fill-rule="evenodd" clip-rule="evenodd"></rect><rect width="4.3" height="118.1" x="788.4" y="1157" fill="#fabea7" fill-rule="evenodd" clip-rule="evenodd"></rect><rect width="7.1" height="118.1" x="796.6" y="1157" fill="#fabea7" fill-rule="evenodd" clip-rule="evenodd"></rect><rect width="3.5" height="118.1" x="807.5" y="1157" fill="#fabea7" fill-rule="evenodd" clip-rule="evenodd"></rect><rect width="4.3" height="118.1" x="813.5" y="1157" fill="#fabea7" fill-rule="evenodd" clip-rule="evenodd"></rect><rect width="4.3" height="118.1" x="820.1" y="1157" fill="#fabea7" fill-rule="evenodd" clip-rule="evenodd"></rect><rect width="4.3" height="118.1" x="826.7" y="1157" fill="#fabea7" fill-rule="evenodd" clip-rule="evenodd"></rect><rect width="4.3" height="118.1" x="833.3" y="1157" fill="#fabea7" fill-rule="evenodd" clip-rule="evenodd"></rect><rect width="7.1" height="118.1" x="841.5" y="1157" fill="#fabea7" fill-rule="evenodd" clip-rule="evenodd"></rect><rect width="3.5" height="118.1" x="852.4" y="1157" fill="#fabea7" fill-rule="evenodd" clip-rule="evenodd"></rect><rect width="4.3" height="118.1" x="858.5" y="1157" fill="#fabea7" fill-rule="evenodd" clip-rule="evenodd"></rect><rect width="4.3" height="118.1" x="865.1" y="1157" fill="#fabea7" fill-rule="evenodd" clip-rule="evenodd"></rect><rect width="4.3" height="118.1" x="871.7" y="1157" fill="#fabea7" fill-rule="evenodd" clip-rule="evenodd"></rect><rect width="4.3" height="118.1" x="878.3" y="1157" fill="#fabea7" fill-rule="evenodd" clip-rule="evenodd"></rect><rect width="7.1" height="118.1" x="886.7" y="1157" fill="#fabea7" fill-rule="evenodd" clip-rule="evenodd"></rect><rect width="7.1" height="118.1" x="898.4" y="1157" fill="#fabea7" fill-rule="evenodd" clip-rule="evenodd"></rect><path fill="#fabea7" fill-rule="evenodd" d="M860.8,1132.4l2.1-0.2l8,0l2.1,0.1l0.1,3.8l-12.3,0.2L860.8,1132.4L860.8,1132.4z M839.7,1017.8h-2.8
					l-0.3,3.5l3.5,0L839.7,1017.8L839.7,1017.8z M811.3,1103.7H808l0,3.5h3.4L811.3,1103.7L811.3,1103.7z M778.7,1025.7l-0.1-3.5
					h-3.4l0,3.4L778.7,1025.7L778.7,1025.7z M759.3,1062.7l3.2,0.1l0.1-3.5l-3.7-0.2L759.3,1062.7L759.3,1062.7z M877.1,1058.2v-3.1
					l-3.7-0.3l0,3.6L877.1,1058.2L877.1,1058.2z M840.6,1082.9h3.6l0-3.6h-3.6L840.6,1082.9L840.6,1082.9z M807.9,1058.5h3.6l0-3.6
					h-3.6L807.9,1058.5L807.9,1058.5z M812,1054.3h3.6v-3.6H812L812,1054.3L812,1054.3z M811.9,1116.2l0.1,3.7l3.6,0l0-3.6
					L811.9,1116.2L811.9,1116.2z M869.2,1054.4l3.7-0.1v-3.6h-3.6L869.2,1054.4L869.2,1054.4z M812,1087.1h3.7l0-3.7h-3.7
					L812,1087.1L812,1087.1z M877.1,1112.5l-4.1-0.2l0.3,3.7l3.7-0.1L877.1,1112.5L877.1,1112.5z M869.5,1152.7l3.5-0.1l0-3.8
					l-3.6-0.1L869.5,1152.7L869.5,1152.7z M812.1,1103.7l3.7-0.1l0-3.8l-3.7-0.1L812.1,1103.7L812.1,1103.7z M852.6,1091.4v-3.8
					l-4,0l0,3.8L852.6,1091.4v8.2h4.1v4l4.1,0.1v-4.1h-4.1v-4l8.2-0.1v3.9l0.9,0.3l7.3-0.1v-8.1l3.9,0l0.1-3.5l-16.1-0.2
					c0,1.6,0.6,3.5-0.9,3.7L852.6,1091.4L852.6,1091.4z M873.4,1083.1l3.7,0.1l-0.1-4l-3.7-0.4l-0.3-3.8l4.1,0v-4l-4.1-0.1l0,4.1
					l-4.1,0v-3.9l-0.9-0.3l-7.3,0l-0.1-3.9l-3.9-0.1v4l4.1,0.1v3.9l4,0.2l0.1,1l-0.2,2.6c-1.4,0.8-1.5,0.6-3.7,0.6v3.6h7.8l0.1-3.7
					l4.6-0.4L873.4,1083.1L873.4,1083.1z M803.2,1083.1l-3.8,0l0.2-3.9l3.7-0.3l0.3-3.8l4-0.1v-4.1l-8.2-0.1l0-4l-4.1,0v4.1h-4.1
					v-8.2l3.9,0l0.2-4.1l-3.9,0l-0.3-3.8l11.8-0.1l0.2,4l4,0.2l0.1,3.8l4.1,0.4l-0.1,3.6h-3.7l0,4.1l3.9,0c0.4-0.7,0.3,0.8,0.6-1.7
					c0.1-0.5,0-1.8,0-2.4l3.7,0.2v3.9h8.2v4.1h8.1l0.1,4l4,0.1l0.3,3.8c0.1,0.1,0.3,0.2,0.4,0.2l1.5,0.4c0.2,0,1.6,0,1.8,0v7.8h-3.6
					c0-0.7,0.1-1.8,0-2.5c-0.1-1-0.3-0.9-0.5-1.3l-3.6-0.1c-0.1-0.5-0.1-1.7-0.2-2l-0.7-2l-7.3,0l-0.1-8.2h-4.1l0,7.7l-3.7,0.2
					c0-1.5,0-3.1,0-4.6c0-0.5,0-1.8-0.1-2.2c-0.4-1.5,0-0.4-0.8-1.2l-2.9,0.1c-0.9,0.9-0.6,0-0.9,1.6c0,0.1,0,2.1,0,2.3
					c0,1.3,0,2.7,0,4l-3.8,0.3l0-4l-4.5-0.3L803.2,1083.1L803.2,1083.1z M873.2,1107.5l-0.1-3.9l3.9,0.1l0,4L873.2,1107.5
					L873.2,1107.5z M848.5,1144.2l4.1,0.1v-3.8h-4.1V1144.2L848.5,1144.2z M758.8,1074.8l-0.2-3.8l-12.3,0v3.9l11.9-0.1l0.2,3.9
					l-8.3,0.4l-0.1,8.1l-3.8-0.6l-0.3-3.3l-3.8-0.1v-16.2l4-0.1l0.1-3.4l4.1-0.7l0.1-8.2l-8.3-0.5l0.1-3.6l1-0.1l19.3,0.1l0,3.5
					l-4.1,0.5l-0.1,3.9c-0.2,0-1.8,0-1.9,0l-1.5,0.4c-0.1,0-0.3,0.1-0.4,0.2l-0.1,6.8l0.1,1l4,0.2v3.9l4.1,0.1l0,4l8.2,0v-4.1h-4.1
					v-4.1l8.1,0l0.1-4.1l-8.1,0l-0.1-4.1l3.8,0l0-4.1l-3.9,0l0.2-4.1l12-0.2l0.2-3.9c5.1,0,4,1,4-4.1l-4.1,0.2l0,3.9l-4.1-0.2l0-7.9
					l4-0.1l0-3.8c-1.5-0.8-1.7-0.5-3.7-0.5v-3.4h11.8l0,3.4c-0.3,0-1.7-0.1-1.9,0c-1.8,0.2-0.6-0.1-1.8,0.5l-0.1,7.9h4.1l-0.1-4.1
					h8.3v8.2l-4.1,0l0,7.8l-3.7,0.1l-0.1-4c-4.7-0.4-4.6-0.9-4.6,3.9l-3.9,0.2c-0.4,2.1-1.1,11,0.5,12.5l7.7,0.1l0,3.8l-12.2,0.2
					l-0.3,7.8l-12,0.2l0-4.1L758.8,1074.8L758.8,1074.8z M844.3,1054.6l4.1,0l-0.1-4l-3.8-0.1L844.3,1054.6L844.3,1054.6z
					 M852.5,1054.6l4.1,0l-0.1-4.1h-3.8L852.5,1054.6L852.5,1054.6z M783.1,1093.3l0.1,2.2l3.9-0.1l0.1-3.8l-2.1-0.3l-2,0V1093.3
					L783.1,1093.3z M828,1148.7l-4.1,0v-4.1l-3.8,0l-0.3-0.9l0.3-3.2H832l0-4.2l4.2-0.1l0.1-3.8l3.5,0c0.9,0.5,0.9-0.4,0.8,4
					c0,1.9,0.1,2.5-0.4,4.3l-3.8,0.3l-0.1,3.8l-8.3,0.6L828,1148.7L828,1148.7z M824,1148.7l0.1,4.1h4l0-4.1l4.1,0l0.1,4.1l16.3-0.1
					l0-7.7l-3.8-0.2l-0.1,4l-4.4,0l0.4-4l3.8-0.7v-2.8l0.3-0.9l3.8,0l0.1-4.1l3.8,0l0.2,4.1h7.8l0.3,3.8c-0.4,0.2-0.4,0.4-1.3,0.5
					c-0.5,0.1-1.7,0.1-2.3,0.1c-1.6,0-3,0-4.6,0l0.2,3.8h3.9l0.1,4.1l3.4-0.1l0.5-4.1l8-0.1l0.1-8l8.3-0.6l0-11.6l-4.1,0l0-4
					l-3.7-0.1c0,0.6,0.1,1.9,0.1,2.4c-0.3,2.5,0.1,1.2-0.7,1.8l-3.9-0.3l0-3.7l3.7-0.2l0.3-12.5l4-0.2v-3.4c-0.7,0-1.8,0.1-2.5,0
					c-1-0.1-0.7-0.2-1.3-0.5l-0.2-3.7l-4,0.1l-0.1,7.6c-1.5,0.9-1.5,0.6-3.9,0.6v3.7c1.9,0,2.4-0.2,3.7,0.5l0.4,3.9l-4.4,0l-0.1-3.9
					c-3.7,0-13.1,0.6-16.1-0.4l-0.1-3.7l-12.3-0.1l-0.1-4.4h12.8l0.1,4.1h7.8l-0.1-7.9l-4,0l0-4l-3.7-0.2c-1-1.4-0.6-4.8-0.6-7.6
					h-3.6c0,2.9,0.5,10.1-0.6,11.9l-3,0l-0.9-0.3v-3.8h-4.1l0-4l3.5-0.2l0.2-3.6l-7.8,0l-0.1,3.6h-4l0,8.2h-4l-0.1,1.1l0.3,2.8
					l3.8,0.2l0.1,4.1l3.9,0l0.4,4.1l12.1,0l-0.3,4l-3.8,0.4v12l-4.1,0l0-12.2l-16.1,0.3l-0.3,3.8l8.2,0v8.2l8.2,0l-0.1,4l-12.1,0.1
					l-0.1-4.1l-20.4,0l0-4l8.2-0.1v-4.1l-4-0.1l-0.3-3.8l-12-0.2l0-7.3l0.3-0.9l3.8,0l0.1-3.9h-12v7.7l3.9,0.1l0.6,4.1l3.4,0.1l0,3
					l0.1,1.1h4v4.1h-4.1v8.2h4.1l0.1-4.1l4,0l0,4l3.9,0.1c0.4,1.8,0.5,6.5-0.1,8.2l-3.8,0.1l0.2,3.9l3.9,0l0.1,4.1l8.1-0.2l0-3.7
					l-3.9-0.2l-0.2-4.1l4-0.2l0.3-8.1l3.8,0.1l0.3,12.2H824L824,1148.7z M840.3,1046.4h2l2.1-0.1l0-3.8l-2.1-0.2l-2,0V1046.4
					L840.3,1046.4z M762.6,1107.7l4.1,0v4.1l3.8,0l0.3,0.9v2.9l7.8,0.1l0.1-8l4.1-0.4l0-7.7l-2.9,0l-0.9,0.2l0,3.9l-4,0.1l-0.1,4
					h-8.2v-4.1h4.1l0-4.1h-4.1v-4.1l11.8,0l0.2-7.9l-3.6,0l-0.3,4.1l-7.9,0.1l-0.1,3.8l-7.6-0.1c-1-1-0.7,0.2-0.8-2.6l0-9.3l-3.5,0
					l-0.3,4l-3.9,0.2l-0.1,3.9l-4.1,0.6l-0.1,7.4l-4.1,0.1l0.1,20.3l3.9,0l0.1-16.3l4-0.1l0-3.9l0.9-0.2l3-0.1
					c0.3,0.5,0.4,0.1,0.5,1.2l0,6.6l4.1,0.1l-0.4,4.5c-2.1,0.2-2.5,0.4-3.8-0.3c-0.7-1.4-0.5-1.5-0.5-3.7h-3.6l0,7.7l4,0.2l0.2,4
					h3.6c0-1.9-0.2-2.3,0.4-3.6c1-0.9,1.8-0.6,3.8-0.7L762.6,1107.7L762.6,1107.7z M766.7,1103.7l-4,0l0,4.1l-3.8-0.3l-0.3-7.9h8.2
					V1103.7L766.7,1103.7z M848.5,1128.2v-4.1h4.1v4.1H848.5L848.5,1128.2z M820,1062.3l-0.1-3.2l-7.8-0.1l0,3.6L820,1062.3
					L820,1062.3z M783.4,1062.6h3.6l0-7.8h-3.6L783.4,1062.6L783.4,1062.6z M770.8,1116.3l-0.1,3.7h-7.8l-0.2-3.7H770.8
					L770.8,1116.3z M807.2,1103.7l-7.8-0.1v-4h-4.1v4.1h-4.1v-8.2h4l0.1-1.1l0-3l-4,0l-0.1-3.7l12.1-0.1l-0.1,3.9l4.4,0l0-4.2
					l3.8,0.3l-0.2,7.9l-11.8,0v4l7.7,0.1L807.2,1103.7L807.2,1103.7z M762.7,1087.3h7.8l0.2-4.1h-7.9L762.7,1087.3L762.7,1087.3z
					 M783,1026l4.1-0.1l0-7.9l-4-0.2L783,1026L783,1026z M812,1111.6l0.2-3.6l8,0.3l-0.2,7.2l-3.6,0.3l-0.4-4.1L812,1111.6
					L812,1111.6z M848.5,1103.7l0,4.1l-3.8-0.2l-0.1-3.8L848.5,1103.7L848.5,1103.7z M787.2,1042.4v4.1l4.1,0l0-4L787.2,1042.4
					L787.2,1042.4z M803.2,1111.7c0.8-1.6,0.5-1,0.5-3.7h3.4v11.8h-3.4c0-2,0.2-2.3-0.5-3.7l-3.6-0.2l-0.1-4L803.2,1111.7
					L803.2,1111.7z M816.3,1095.4l3.5,0.1l0.2-3.7c0.9-0.6-0.4-0.3,1.6-0.6c0.4,0,1.8,0,2.3,0c1.4,0,2.7,0,4.1-0.1l0-3.5h-12
					L816.3,1095.4L816.3,1095.4z M852.6,1087.1l0-2.9l-0.3-0.9l-3.9,0l0.1-4.1l8,0l0.1,3.6c0.8,0.8,0.1,0.5,1.6,0.8c0.2,0,1.7,0,2,0
					v3.6L852.6,1087.1L852.6,1087.1z M836.8,1038.3l7,0.1l0.3-16.2h-3.4l-0.2,12.4l-4,0.2L836.8,1038.3L836.8,1038.3z M876.9,1062.7
					l-0.1,4h-15.8v-15.9l3.1,0l0.3,12.2c2.5,0.7,2.2,0.7,4.9,0l-0.1-4l3.5,0c0,2-0.6,3.1,0.9,3.7L876.9,1062.7L876.9,1062.7z
					 M832.1,1099.6l-0.2,7.9l-3.8,0.1v-8L832.1,1099.6L832.1,1099.6z M828,1046.4l-4.1,0v-8.2h-4.1l0,12.2l-3.8-0.3l-0.3-16
					l-3.8-0.1c-0.1,0.1-0.2,0.3-0.2,0.4c-0.7,1.9-0.4,4.4-0.4,7.7c0,2.6,0,5.2,0,7.7l-4.1,0.4l-0.1,3.8l-3.5,0l-0.4-4l-3.8-0.4
					l-0.1-7.5l4.1,0l0-4l4-0.1l0.1-4.1l-8.1-0.1l-0.1-4l16.2-0.1c0.1-0.5,0.1-1.7,0.2-2c0-0.2,0.1-0.3,0.1-0.5l0.4-1
					c0-0.3,0.1-0.3,0.2-0.5l11.4,0l-0.1-4.1h-12.1l0.1-4.1h16.2l0.1,3.9l3.6,0.2l0.1,12h-3.4c0-0.3,0.1-1.7,0-1.9
					c-0.2-1.8,0.1-0.6-0.5-1.8l-7.9-0.1l0.1,4.1l7.9,0.2l0.2,7.9l3.7,0c0,3.6-0.6,9,0.4,12.4l3.8,0.1v3.6l-20.2-0.1l0.2-3.8h12
					l0-3.1l-0.2-1l-3.9-0.1L828,1046.4L828,1046.4z M832.1,1042.4l-4.1,0l0,4l4.1,0V1042.4L832.1,1042.4z M762.6,1143.9l0-11.6
					l-11.6-0.1l-0.3,12L762.6,1143.9L762.6,1143.9z M751,1038.3l11.6,0l0.1-11.6l-12-0.3L751,1038.3L751,1038.3z M868.3,1038.3
					l0.3-11.9l-12,0.3l0,11.6L868.3,1038.3L868.3,1038.3z M778.8,1078.8c-1.6,0.8-1,0.5-3.7,0.5c0,4.1-0.2,2.9,0.8,3.3
					c0.2,0.1,1.2,0.1,1.6,0.2c1.1,0.2,1.3,0.5,1.4,0.5l0.3,3.7l3.7,0l0-7.9l4.4-0.4l0.3,8.3l3.7-0.1v-6.9l0.2-1h3.9l0-4.1l-16.3,0
					L778.8,1078.8L778.8,1078.8z M791.2,1021.9h3.9l0.2,4.1h-3.8c-0.6,1.9-0.2,6-0.2,8.2l3.9,0l0.4-4.1l3.9,0l0.1-4l12.2,0l-0.3-4.1
					l-3.8-0.2l-0.1-3.9l-4,0.1l-0.1,4l-4.1-0.1l-0.1-4h-8L791.2,1021.9L791.2,1021.9z M848.3,1058.7c0.8-5-1.5-4,4.2-4l0.3,4.1h3.8
					l-0.2,4.1h-3.9l-0.1,4.1h-4l0,4.1h4.1v4.1h-8.2v-3.9l-4.1-0.2l0,3.8l-4.1,0l0-3.8l-4.1-0.2v-3.9l-4.1-0.1l0-4
					c2.6,0,10.2-0.5,12.2,0.3l0.1,3.8l4-0.2l0-8L848.3,1058.7L848.3,1058.7z M783.1,1132.3l4,0.1l0.1,8.1h7.9
					c0.3,1.9,0.5,2.3,0.1,4.1l-3.8,0l-0.1,8.1l-3.9,0.1l-0.1-8l-4.1-0.2l0,3.9l-4,0.2l-0.1,3.9l-3.9,0.1l0-20.2l4-0.1v-4.1l-4.1-0.1
					l0-7.9l8.2-0.2c0,2.9,0.6,10.7-0.6,11.7c-1.3,1.1-0.3,0.1-1.9,0.7c-1.7,0.7-1.6-1-1.6,3.9l4.1-0.2L783.1,1132.3L783.1,1132.3z
					 M799.4,1066.9l4,0l0.1-4.1l-4.1,0.1L799.4,1066.9L799.4,1066.9z M852.6,1022.3c1.9-1.2,18.7-0.6,20.4-0.4l0.2,15.9
					c0.1,5.2-0.1,3.8-0.6,4.6h-20V1022.3L852.6,1022.3z M848.5,1046.4l0.1-28.6l28.5,0.1l0,28.5L848.5,1046.4L848.5,1046.4z
					 M766.7,1022.3c-0.7-0.5,0.7-0.6-4.6-0.6l-15.9,0.2c-0.2,1.7-0.8,18.5,0.4,20.4h20V1022.3L766.7,1022.3z M742.2,1046.3l28.6,0.1
					l0-28.6l-28.5,0L742.2,1046.3L742.2,1046.3z M746.7,1128.2h20v20c-1.5,0.9-3,0.6-5.2,0.6c-1.7,0-3.4,0-5.2,0
					c-3.4,0-6.8,0.2-10.1-0.2l-0.2-15.9C746.1,1127.5,746.2,1129,746.7,1128.2L746.7,1128.2z M742.2,1152.7l-0.1-28.5l28.6-0.1
					l0,28.6L742.2,1152.7L742.2,1152.7z M803.5,1042.4v3.9l4.1,0.2l0-4.1H803.5L803.5,1042.4z M844.4,1120h12.3l0,12.3h-12.3V1120z" clip-rule="evenodd"></path><polygon fill="#f47a44" fill-rule="evenodd" points="1169.8 640.4 1251.7 653.7 1249.1 929.7 1169.8 921.9" clip-rule="evenodd"></polygon><polygon fill="#fabea7" fill-rule="evenodd" points="1204.1 646.1 1216.9 648.1 1217.9 878.9 1204.1 874.3" clip-rule="evenodd"></polygon></g><path fill="#4f8dcb" fill-rule="evenodd" d="M991.2,1535.1c-49.9,7.7-100,7.5-148.7,0c-138.8-21.4-265.8-102.3-342.4-227.3c-11.8-19.3-22.5-39.7-31.8-61
			c-66.2-152.1-48.9-319.6,31.8-451c41.5-67.6,99.7-125.8,172-167.4c11.3-6.5,22.9-12.6,34.9-18.3l7.2,18.3l28.5,72.3l6.3,16
			l46-57.8l12.7-16l11.5-14.5l6.1-7.7l22.1-27.8l98.4-123.8l-156.4-23.3L633,422.5l27.1,68.8c-304.8,139.4-443,497.8-308.8,806.4
			c35.6,81.9,86.8,152.1,148.7,208.7c10.9,10,22.2,19.6,33.7,28.7c172.6,136.5,412.9,175.9,628.7,82c50.2-21.8,96-49.5,137-82
			h-199.6H998.7H991.2z" clip-rule="evenodd"></path><g><path fill="#deecf9" fill-rule="evenodd" d="M444.1,496.7c22.6,0,40.9,18.3,40.9,40.9s-18.3,40.9-40.9,40.9s-40.9-18.3-40.9-40.9
			S421.5,496.7,444.1,496.7z" clip-rule="evenodd"></path><path fill="#fff" fill-rule="evenodd" d="M477.6,562.4c-7.5,9.9-19.3,16.3-32.7,16.3c-22.6,0-40.9-18.3-40.9-40.9c0-14.1,7.1-26.5,18-33.9
			c-5.1,6.8-8.2,15.4-8.2,24.6c0,22.6,18.3,40.9,40.9,40.9C463.2,569.4,471.1,566.8,477.6,562.4z" clip-rule="evenodd"></path><path fill="#d1e4f6" fill-rule="evenodd" d="M444.1,494.9c11.8,0,22.4,4.8,30.2,12.5l0,0l0,0c7.7,7.7,12.5,18.4,12.5,30.2c0,11.8-4.8,22.5-12.5,30.2l0,0
			c-7.7,7.7-18.4,12.5-30.2,12.5c-11.8,0-22.5-4.8-30.2-12.5c-7.7-7.7-12.5-18.4-12.5-30.2c0-11.8,4.8-22.5,12.5-30.2l0,0
			C421.6,499.7,432.3,494.9,444.1,494.9L444.1,494.9z M471.7,509.9c-7.1-7.1-16.9-11.5-27.7-11.5c-10.8,0-20.6,4.4-27.7,11.5h0
			c-7.1,7.1-11.5,16.9-11.5,27.7c0,10.8,4.4,20.6,11.5,27.7c7.1,7.1,16.9,11.5,27.7,11.5c10.8,0,20.6-4.4,27.7-11.5v0
			c7.1-7.1,11.5-16.9,11.5-27.7C483.2,526.8,478.8,517,471.7,509.9L471.7,509.9z" clip-rule="evenodd"></path></g><g><circle cx="1553.6" cy="1318.9" r="40.9" fill="#deecf9" fill-rule="evenodd" clip-rule="evenodd"></circle><path fill="#fff" fill-rule="evenodd" d="M1587.2,1343.7c-7.5,9.9-19.3,16.3-32.7,16.3c-22.6,0-40.9-18.3-40.9-40.9c0-14.1,7.1-26.5,18-33.9
			c-5.1,6.8-8.2,15.4-8.2,24.6c0,22.6,18.3,40.9,40.9,40.9C1572.8,1350.7,1580.7,1348.1,1587.2,1343.7z" clip-rule="evenodd"></path><path fill="#d1e4f6" fill-rule="evenodd" d="M1553.6,1276.2c11.8,0,22.4,4.8,30.2,12.5l0,0l0,0c7.7,7.7,12.5,18.4,12.5,30.2c0,11.8-4.8,22.5-12.5,30.2
			l0,0c-7.7,7.7-18.4,12.5-30.2,12.5c-11.8,0-22.5-4.8-30.2-12.5c-7.7-7.7-12.5-18.4-12.5-30.2c0-11.8,4.8-22.5,12.5-30.2l0,0
			C1531.2,1281,1541.9,1276.2,1553.6,1276.2L1553.6,1276.2z M1581.3,1291.2c-7.1-7.1-16.9-11.5-27.7-11.5
			c-10.8,0-20.6,4.4-27.7,11.5h0c-7.1,7.1-11.5,16.9-11.5,27.7c0,10.8,4.4,20.6,11.5,27.7c7.1,7.1,16.9,11.5,27.7,11.5
			c10.8,0,20.6-4.4,27.7-11.5v0c7.1-7.1,11.5-16.9,11.5-27.7C1592.8,1308.1,1588.4,1298.3,1581.3,1291.2L1581.3,1291.2z" clip-rule="evenodd"></path></g><g><path fill="#deecf9" fill-rule="evenodd" d="M1637.3,652.2c44.7,0,81,36.3,81,81c0,44.8-36.3,81-81,81c-44.8,0-81-36.3-81-81
			C1556.3,688.5,1592.5,652.2,1637.3,652.2z" clip-rule="evenodd"></path><path fill="#fff" fill-rule="evenodd" d="M1703.8,782.3c-14.8,19.6-38.3,32.4-64.8,32.4c-44.7,0-81-36.3-81-81c0-27.9,14.1-52.5,35.6-67.1
			c-10.2,13.6-16.2,30.4-16.2,48.7c0,44.7,36.3,81,81,81C1675.2,796.3,1690.8,791.1,1703.8,782.3z" clip-rule="evenodd"></path><path fill="#d1e4f6" fill-rule="evenodd" d="M1637.3,648.8c23.3,0,44.5,9.5,59.7,24.7l0,0l0,0c15.3,15.3,24.7,36.4,24.7,59.7c0,23.3-9.5,44.5-24.7,59.8
			l0,0c-15.3,15.3-36.4,24.8-59.7,24.8c-23.3,0-44.5-9.5-59.8-24.7c-15.3-15.3-24.7-36.4-24.7-59.8c0-23.3,9.5-44.5,24.8-59.7l0,0
			C1592.8,658.2,1614,648.8,1637.3,648.8L1637.3,648.8z M1692.1,678.4c-14-14-33.4-22.7-54.8-22.7c-21.4,0-40.8,8.7-54.8,22.7h0
			c-14,14-22.7,33.4-22.7,54.8c0,21.4,8.7,40.8,22.7,54.8c14,14,33.4,22.7,54.8,22.7c21.4,0,40.8-8.7,54.8-22.7v0
			c14-14,22.7-33.4,22.7-54.8C1714.8,711.8,1706.2,692.4,1692.1,678.4L1692.1,678.4z" clip-rule="evenodd"></path></g><g><path fill="#deecf9" fill-rule="evenodd" d="M1433.9,1506.9c44.7,0,81,36.3,81,81c0,44.8-36.3,81-81,81c-44.8,0-81-36.3-81-81
			C1352.9,1543.2,1389.2,1506.9,1433.9,1506.9z" clip-rule="evenodd"></path><path fill="#fff" fill-rule="evenodd" d="M1500.4,1637c-14.8,19.6-38.3,32.4-64.8,32.4c-44.7,0-81-36.3-81-81c0-27.9,14.1-52.5,35.6-67.1
			c-10.2,13.6-16.2,30.4-16.2,48.7c0,44.8,36.3,81,81,81C1471.8,1651,1487.4,1645.8,1500.4,1637z" clip-rule="evenodd"></path><path fill="#d1e4f6" fill-rule="evenodd" d="M1433.9,1503.5c23.3,0,44.4,9.5,59.7,24.7l0,0l0,0c15.3,15.3,24.8,36.4,24.8,59.7c0,23.3-9.5,44.5-24.8,59.8
			l0,0c-15.3,15.3-36.4,24.8-59.7,24.8c-23.3,0-44.5-9.5-59.8-24.7c-15.3-15.3-24.7-36.4-24.7-59.8c0-23.3,9.5-44.5,24.8-59.7l0,0
			C1389.5,1512.9,1410.6,1503.5,1433.9,1503.5L1433.9,1503.5z M1488.8,1533.1c-14-14-33.4-22.7-54.8-22.7
			c-21.4,0-40.8,8.7-54.8,22.7h0c-14,14-22.7,33.4-22.7,54.8c0,21.4,8.7,40.8,22.7,54.8c14,14,33.4,22.7,54.8,22.7
			c21.4,0,40.8-8.7,54.8-22.7v0c14-14,22.7-33.4,22.7-54.8C1511.5,1566.5,1502.8,1547.1,1488.8,1533.1L1488.8,1533.1z" clip-rule="evenodd"></path></g><g><path fill="#deecf9" fill-rule="evenodd" d="M1165,379.3c30.2,0,54.7,24.5,54.7,54.7c0,30.2-24.5,54.7-54.7,54.7c-30.2,0-54.7-24.5-54.7-54.7
			C1110.2,403.9,1134.7,379.3,1165,379.3z" clip-rule="evenodd"></path><path fill="#fff" fill-rule="evenodd" d="M1209.9,467.2c-10,13.3-25.9,21.9-43.8,21.9c-30.2,0-54.7-24.5-54.7-54.7c0-18.9,9.5-35.5,24-45.3
			c-6.9,9.2-11,20.5-11,32.9c0,30.2,24.5,54.7,54.7,54.7C1190.5,476.7,1201.1,473.2,1209.9,467.2z" clip-rule="evenodd"></path><path fill="#d1e4f6" fill-rule="evenodd" d="M1165,377c15.8,0,30,6.4,40.4,16.7l0,0l0,0c10.3,10.3,16.7,24.6,16.7,40.4c0,15.8-6.4,30-16.7,40.4l0,0
			c-10.3,10.3-24.6,16.7-40.4,16.7c-15.8,0-30-6.4-40.4-16.7c-10.3-10.3-16.7-24.6-16.7-40.4c0-15.8,6.4-30,16.7-40.4l0,0
			C1134.9,383.4,1149.2,377,1165,377L1165,377z M1202,397c-9.5-9.5-22.6-15.3-37-15.3c-14.5,0-27.6,5.9-37,15.3h0
			c-9.5,9.5-15.3,22.6-15.3,37c0,14.5,5.9,27.6,15.3,37c9.5,9.5,22.6,15.3,37,15.3c14.5,0,27.6-5.9,37-15.3v0
			c9.5-9.5,15.3-22.6,15.3-37C1217.3,419.6,1211.5,406.5,1202,397L1202,397z" clip-rule="evenodd"></path></g><g><circle cx="1323.6" cy="408.6" r="69.9" fill="#deecf9" fill-rule="evenodd" clip-rule="evenodd" transform="rotate(-80.781 1323.636 408.546)"></circle><path fill="#fff" fill-rule="evenodd" d="M1380.9,450.9c-12.7,16.9-33,27.9-55.9,27.9c-38.6,0-69.9-31.3-69.9-69.9c0-24.1,12.2-45.3,30.7-57.9
			c-8.8,11.7-14,26.2-14,42c0,38.6,31.3,69.9,69.9,69.9C1356.3,462.9,1369.8,458.5,1380.9,450.9z" clip-rule="evenodd"></path><path fill="#d1e4f6" fill-rule="evenodd" d="M1323.6,335.7c20.1,0,38.3,8.2,51.5,21.3l0,0l0,0c13.2,13.2,21.3,31.4,21.3,51.5c0,20.1-8.2,38.3-21.3,51.5
			l0,0c-13.2,13.2-31.4,21.3-51.5,21.3c-20.1,0-38.3-8.2-51.5-21.3s-21.3-31.4-21.3-51.5c0-20.1,8.2-38.3,21.3-51.5l0,0
			C1285.3,343.9,1303.5,335.7,1323.6,335.7L1323.6,335.7z M1370.9,361.3c-12.1-12.1-28.8-19.6-47.3-19.6c-18.5,0-35.2,7.5-47.3,19.6
			h0c-12.1,12.1-19.6,28.8-19.6,47.3c0,18.5,7.5,35.2,19.6,47.3s28.8,19.6,47.3,19.6c18.5,0,35.2-7.5,47.3-19.6v0
			c12.1-12.1,19.6-28.8,19.6-47.3C1390.5,390.1,1383,373.4,1370.9,361.3L1370.9,361.3z" clip-rule="evenodd"></path></g><g><path fill="#deecf9" fill-rule="evenodd" d="M292.8,1332.2c22.6,0,40.9,18.3,40.9,40.9s-18.3,40.9-40.9,40.9c-22.6,0-40.9-18.3-40.9-40.9
			S270.2,1332.2,292.8,1332.2z" clip-rule="evenodd"></path><path fill="#fff" fill-rule="evenodd" d="M326.4,1397.9c-7.5,9.9-19.3,16.3-32.7,16.3c-22.6,0-40.9-18.3-40.9-40.9c0-14.1,7.1-26.5,18-33.9
			c-5.1,6.8-8.2,15.4-8.2,24.6c0,22.6,18.3,40.9,40.9,40.9C311.9,1405,319.8,1402.4,326.4,1397.9z" clip-rule="evenodd"></path><path fill="#d1e4f6" fill-rule="evenodd" d="M292.8,1330.5c11.8,0,22.4,4.8,30.2,12.5l0,0l0,0c7.7,7.7,12.5,18.4,12.5,30.2c0,11.8-4.8,22.5-12.5,30.2l0,0
			c-7.7,7.7-18.4,12.5-30.2,12.5c-11.8,0-22.5-4.8-30.2-12.5c-7.7-7.7-12.5-18.4-12.5-30.2c0-11.8,4.8-22.5,12.5-30.2l0,0
			C270.3,1335.3,281,1330.5,292.8,1330.5L292.8,1330.5z M320.5,1345.5c-7.1-7.1-16.9-11.5-27.7-11.5c-10.8,0-20.6,4.4-27.7,11.5h0
			c-7.1,7.1-11.5,16.9-11.5,27.7c0,10.8,4.4,20.6,11.5,27.7c7.1,7.1,16.9,11.5,27.7,11.5c10.8,0,20.6-4.4,27.7-11.5v0
			c7.1-7.1,11.5-16.9,11.5-27.7C332,1362.3,327.6,1352.5,320.5,1345.5L320.5,1345.5z" clip-rule="evenodd"></path></g><g><path fill="#deecf9" fill-rule="evenodd" d="M506,1492.3c22.6,0,40.9,18.3,40.9,40.9c0,22.6-18.3,40.9-40.9,40.9s-40.9-18.3-40.9-40.9
			C465,1510.6,483.4,1492.3,506,1492.3z" clip-rule="evenodd"></path><path fill="#fff" fill-rule="evenodd" d="M539.5,1557.9c-7.5,9.9-19.3,16.3-32.7,16.3c-22.6,0-40.9-18.3-40.9-40.9c0-14.1,7.1-26.5,18-33.9
			c-5.1,6.8-8.2,15.4-8.2,24.6c0,22.6,18.3,40.9,40.9,40.9C525.1,1565,533,1562.4,539.5,1557.9z" clip-rule="evenodd"></path><path fill="#d1e4f6" fill-rule="evenodd" d="M506,1490.5c11.8,0,22.4,4.8,30.2,12.5l0,0l0,0c7.7,7.7,12.5,18.4,12.5,30.2c0,11.8-4.8,22.5-12.5,30.2l0,0
			c-7.7,7.7-18.4,12.5-30.2,12.5c-11.8,0-22.5-4.8-30.2-12.5c-7.7-7.7-12.5-18.4-12.5-30.2c0-11.8,4.8-22.5,12.5-30.2l0,0
			C483.5,1495.3,494.2,1490.5,506,1490.5L506,1490.5z M533.6,1505.5c-7.1-7.1-16.9-11.5-27.7-11.5c-10.8,0-20.6,4.4-27.7,11.5h0
			c-7.1,7.1-11.5,16.9-11.5,27.7c0,10.8,4.4,20.6,11.5,27.7c7.1,7.1,16.9,11.5,27.7,11.5c10.8,0,20.6-4.4,27.7-11.5v0
			c7.1-7.1,11.5-16.9,11.5-27.7C545.1,1522.4,540.7,1512.6,533.6,1505.5L533.6,1505.5z" clip-rule="evenodd"></path></g></svg>