<svg xmlns="http://www.w3.org/2000/svg" data-name="Layer 1" viewBox="0 0 255 250" id="shipment-getting-ready"><path fill="#ffacac" d="M151,60.59c-.53-.05-1.62-.06-1.78-.78-.2-.91,1.38-.16,2.79-.62a5.83,5.83,0,0,1,2.75.32,8.32,8.32,0,0,0,2.87.08c.3,0,.71,3.5.71,3.5a24.57,24.57,0,0,0-3.62.7,18.66,18.66,0,0,1-4.56,1.68c-1.69.19-1.87-1.44-3.38-1.6-.21,0-.81,0-.67-.51s4.82-1.59,5.42-2.48C151.79,60.56,151.25,60.61,151,60.59Z"></path><path fill="#5a5c71" d="M175.57,50.7c6.13-4.61,13.87-10.23,14.88-10.88,4.83-3.08,5.75-.7,6.55,2,1.36,4.62-2.22,8.3-10.21,13s-10.73,4.5-12.77,3.86S169.43,55.31,175.57,50.7Z"></path><path fill="#5a5c71" d="M175.57,50.7c4.21-2.29,11.25,3.08,4.89,7.32s-21.83,6.42-21.83,6.42c-3.47-3.16-1.08-6.28-1.08-6.28A109.79,109.79,0,0,0,175.57,50.7Z"></path><path fill="#002e47" d="M185.06,131.53c.79-.31.72-2.22.72-2.22l5.86-.95s-.09,5-.15,5.85a2.11,2.11,0,0,1-2.63,2.14,13.59,13.59,0,0,0-5.8.16,9.7,9.7,0,0,1-4.38.09c-1.88-.36-3.13-1.25-1.58-2.59S183.19,132.27,185.06,131.53Z"></path><path fill="#00537a" d="M196.73,102.26c0,1.58-1.76,16-3.91,28.05-.63,3.51-8.12.67-8.17-.91-.08-3,1.77-23.76,2.84-29.76C188.17,95.86,196.72,97.45,196.73,102.26Z"></path><path fill="#002e47" d="M206.45,140.59a4.59,4.59,0,0,1,.14-1l5.11-1a6.38,6.38,0,0,1,.57,1.89c.13,1.06.33,3.36.4,4a5,5,0,0,1-1.26,3.88c-1.39,1.56-2.1,2.18-4,1.54s-1.85-3.27-1.54-4.63A30.54,30.54,0,0,0,206.45,140.59Z"></path><path fill="#00537a" d="M212 109.69c.28 1.55 1.09 16.12 1.09 28.35 0 3.58-7.86 2.36-8.18.82-.61-2.91-2.44-23.69-2.44-29.8C202.48 105.21 211.15 105 212 109.69zM201.42 79.89c.09 3-1.1 7.2-1.77 10s-2.32 12.59-3.19 15.39c-1.13 3.64-9.44 2.4-9.45-2.4 0-1.58-.42-20.88 1.73-32.88C189.37 66.52 201.37 78.31 201.42 79.89z"></path><path fill="#00537a" d="M213.1,85.1c1.05,4-.46,24.71-.83,27.64-.47,3.81-8.84,4.34-9.69-.38-.28-1.54-3.42-20.46-3.42-32.69C199.16,76.09,212.69,83.58,213.1,85.1Z"></path><path fill="#5a5c71" d="M198.34,38l7.24-1.9a4.43,4.43,0,0,1,1.74.55,6.42,6.42,0,0,1,1.3,2.24,5.81,5.81,0,0,0,1.56,2.3,70.88,70.88,0,0,1,5.94,5.23c4.47,5.41-1.69,33.33-1.69,45.84,0,0-11.22-.22-17.3-1.86l-1.24-4.7L194,88.93c-2.1-.63-7.08-4.42-7.3-4.71s2-41.8,6.49-45.43C194.21,38,198.34,38,198.34,38Z"></path><path fill="#002e47" d="M215.07 60.11c-1.14-2.66-3-6.71-5.5-7.67.27.85 5.86 24.27 5.86 24.27S218.28 67.63 215.07 60.11zM196.66 40.6A4.09 4.09 0 01198 38.76a2.62 2.62 0 012.26-.68s-1.9.7-1.59 3.5c.13 1.1 0 2.91.12 5 .19 2.35-1.07 9.78-1.07 9.78l-3.21-9.15L196 45.63l-1.7-1.2z"></path><path fill="#fff" d="M206.9,36.11c.86.68,1.56,2.21-.55,4.87a42.9,42.9,0,0,0-3,5c-.69,1.2-5,7.2-5.52,8.9,0,0-.05-1.55-.12-4.06,0-.57,0-7.71.47-9.44C199.31,37.27,204.21,34,206.9,36.11Z"></path><path fill="#ffacac" d="M206,33.89a14.22,14.22,0,0,0,.85,3.28.9.9,0,0,1-.14.88c-.78,1-2.91,3.33-5.11,3.33a4.22,4.22,0,0,1-1.6-2.74C200,37.16,206,33.89,206,33.89Z"></path><path fill="#ffacac" d="M202.4,22.61c6.93.18,5,7.86,5,7.86s.51.23.23,1.22-.34,1.09-.48,1.58-.49,1.4-1.19,1.26c0,0-1,2.66-5.57,4.21a1.57,1.57,0,0,1-2-.82c-.21-.79-1.72-3.11-1.78-4.9,0-1.36.47-1.25.12-2S195.47,22.42,202.4,22.61Z"></path><path fill="#002e47" d="M202.06,22.09c4.72-.2,8.06,3.81,5.73,9.05-.85-1.28-1.82.23-2,.73-.08.28-.33,1.45-.76,1.45s-.41-1.13-.41-1.13c0-3.22.79-3.6-.81-4.36-1.37-.66-4.38,1.78-7.06,1.78C194.4,29.62,195.58,22.37,202.06,22.09Z"></path><path fill="#4b6dff" d="M198.83,43.21l1.8-.36,1.17,1.47a7.59,7.59,0,0,1-1.27,1.78,7,7,0,0,1,.25,3.35c-.55,1.16-3.09,6.87-3.09,6.87l0-7.53a5.76,5.76,0,0,1,1.18-3.14Z"></path><path fill="#002e47" d="M206.26 40.71c2.12-2.64.64-4.59.64-4.59a3.15 3.15 0 011.87 2.16 5.13 5.13 0 01.14 2.72l-1.22 5.67-1.41-.15.4 1.5-9 8.31s3.53-8.38 5.24-10.65C204.42 43.7 205.42 41.74 206.26 40.71zM206.17 31.55a.71.71 0 011.23.06h0a1.44 1.44 0 01-.21 1.66 7.9 7.9 0 01-3.58 2.11.49.49 0 01-.52-.2.48.48 0 01.14-.66A9.88 9.88 0 00206.17 31.55z"></path><path fill="#4b6dff" d="M207.56,30.52a1.21,1.21,0,0,1,0,1.64.11.11,0,0,1-.16,0,.1.1,0,0,1,0-.15,1,1,0,0,0,0-1.34.78.78,0,0,0-1.13.07,2.81,2.81,0,0,0-.8,2.59.11.11,0,0,1-.08.14h0a.12.12,0,0,1-.11-.08,3,3,0,0,1,.88-2.82A1,1,0,0,1,207.56,30.52Z"></path><path fill="#ffacac" d="M222.65,85.26s-3.48-.6-3.55-.32a8.3,8.3,0,0,1-.91,2.73,6,6,0,0,0-1.09,2.54c.05,1.49-1.13,2.79-.2,2.86.74.05,1.06-1,1.26-1.49.08-.2.18-.72.43-.42.68.83.37,5.63.83,5.9s.6-.3.68-.5c.59-1.4,2.19-1.1,2.49-2.78a18.31,18.31,0,0,0-.3-4.85A23.57,23.57,0,0,1,222.65,85.26Z"></path><path fill="#5a5c71" d="M213.55,44.52c-2.21-.81-6.09,2.28-4.52,7.8.33,1.15,4.25,8,6.92,15.21s6,5.53,7.21,3.76.49-3.81-1.71-12.8S217,45.78,213.55,44.52Z"></path><path fill="#5a5c71" d="M216.4,68.84a86.42,86.42,0,0,1,1.49,17.54s2.07,2.85,5.66.68c0,0,1.82-13.42-.19-19.94S215.51,64.64,216.4,68.84Z"></path><g style="isolation:isolate"><path fill="#002e47" d="M59,143.83l-8.57-5a1.51,1.51,0,0,0-.28.15l0,0-4.61,3a1.05,1.05,0,0,1,.3-.15,1,1,0,0,1,.31-.14,1.54,1.54,0,0,1,.3-.11,3.56,3.56,0,0,1,.68-.14H48l.39.06a5.26,5.26,0,0,1,.83.2h0l.2.07a10.77,10.77,0,0,1,1.29.62,5.2,5.2,0,0,1,.7.45,14.14,14.14,0,0,1,2.85,2.74l.14.16.32.43.11.15.1.15c.12.17.26.36.37.55l.09.15,0,.06a19.39,19.39,0,0,1,1,1.74.53.53,0,0,1,.06.1l.35.75c.11.31.25.62.35.93l.09.26a5.67,5.67,0,0,1,.21.62c0,.11.07.21.09.32s.1.37.15.55a2.74,2.74,0,0,1,.09.39,13.4,13.4,0,0,1,.25,1.59,1.33,1.33,0,0,1,0,.28,8.51,8.51,0,0,1,0,.86v0q0,.41,0,.78c0,.05,0,.1,0,.16a5.36,5.36,0,0,1-.1.7.65.65,0,0,1,0,.18,7.07,7.07,0,0,1-.36,1.25,4.34,4.34,0,0,1-.62,1,1,1,0,0,1-.17.21,3.25,3.25,0,0,1-.58.55c-.06.06-.14.1-.2.15l4.61-3a5.18,5.18,0,0,0,2.07-4.05S63.38,146.71,59,143.83Z"></path><path fill="#5a5c71" d="M50.7,142.38c-4.07-2.38-7.36-.31-7.34,4.62s3.34,10.85,7.41,13.23,7.35.31,7.33-4.62S54.77,144.76,50.7,142.38Z"></path></g><g style="isolation:isolate"><path fill="#4b6dff" d="M50.72,146.67c-2.12-1.24-3.82-.16-3.81,2.4a8.76,8.76,0,0,0,3.84,6.86c2.11,1.24,3.82.17,3.81-2.39A8.78,8.78,0,0,0,50.72,146.67Z"></path><path fill="#fff" d="M52.41,157a3.89,3.89,0,0,1-1.91-.58,9.23,9.23,0,0,1-4.09-7.3A3.33,3.33,0,0,1,47.83,146a3,3,0,0,1,3.14.26,9.2,9.2,0,0,1,4.09,7.3,3.33,3.33,0,0,1-1.42,3.09A2.45,2.45,0,0,1,52.41,157Zm-3.35-10.29a1.46,1.46,0,0,0-.73.18,2.43,2.43,0,0,0-.92,2.22A8.22,8.22,0,0,0,51,155.5a2.11,2.11,0,0,0,2.13.26,2.43,2.43,0,0,0,.92-2.22,8.24,8.24,0,0,0-3.59-6.44h0A2.93,2.93,0,0,0,49.06,146.66Z"></path></g><g style="isolation:isolate"><path fill="#002e47" d="M124.23,181.27l-8.57-5a1.51,1.51,0,0,0-.28.15l0,0-4.61,3a1.05,1.05,0,0,1,.3-.15,1,1,0,0,1,.31-.14,1.72,1.72,0,0,1,.29-.11,3,3,0,0,1,.69-.14h.89a2,2,0,0,1,.39.06,5.26,5.26,0,0,1,.83.2h0l.2.07a8.85,8.85,0,0,1,1.29.62,5.2,5.2,0,0,1,.7.45,14.08,14.08,0,0,1,2.85,2.73l.14.17.32.43a1.16,1.16,0,0,0,.11.16l.1.14c.12.17.26.36.37.55l.09.15,0,.06a19.39,19.39,0,0,1,1,1.74.53.53,0,0,1,.06.1c.12.25.23.5.34.75s.26.63.36.93l.09.26a5.67,5.67,0,0,1,.21.62,3,3,0,0,1,.09.32c.06.18.1.37.15.55a2.74,2.74,0,0,1,.09.39,11.62,11.62,0,0,1,.25,1.59,2.66,2.66,0,0,1,0,.28,8.51,8.51,0,0,1,0,.86v0q0,.4,0,.78s0,.11,0,.16a5.37,5.37,0,0,1-.11.7.63.63,0,0,1,0,.19,7.21,7.21,0,0,1-.37,1.24,4,4,0,0,1-.61,1,1,1,0,0,1-.17.21,3.85,3.85,0,0,1-.27.3,3.76,3.76,0,0,1-.31.25c-.06.06-.14.1-.2.15l4.61-3a5.18,5.18,0,0,0,2.07-4S128.64,184.15,124.23,181.27Z"></path><path fill="#5a5c71" d="M116,179.82c-4.07-2.38-7.36-.31-7.34,4.62S112,195.29,116,197.67s7.35.3,7.33-4.62S120,182.2,116,179.82Z"></path></g><g style="isolation:isolate"><path fill="#4b6dff" d="M116,184.11c-2.12-1.24-3.82-.16-3.81,2.4a8.77,8.77,0,0,0,3.84,6.87c2.12,1.23,3.82.16,3.81-2.4A8.78,8.78,0,0,0,116,184.11Z"></path><path fill="#fff" d="M117.67,194.39a3.89,3.89,0,0,1-1.91-.58,9.23,9.23,0,0,1-4.09-7.3,3.33,3.33,0,0,1,1.42-3.1,3.07,3.07,0,0,1,3.14.27h0a9.35,9.35,0,0,1,4.09,7.3,3.33,3.33,0,0,1-1.42,3.09A2.45,2.45,0,0,1,117.67,194.39Zm-3.35-10.29a1.53,1.53,0,0,0-.74.18,2.45,2.45,0,0,0-.91,2.23,8.24,8.24,0,0,0,3.59,6.43,2.13,2.13,0,0,0,2.14.26,2.45,2.45,0,0,0,.92-2.22,8.22,8.22,0,0,0-3.6-6.44h0A2.77,2.77,0,0,0,114.32,184.1Z"></path></g><g style="isolation:isolate"><path fill="#002e47" d="M74.4,152.45l-8.56-5a1.06,1.06,0,0,0-.28.15l0,0-4.61,3a1.2,1.2,0,0,1,.3-.15,1.28,1.28,0,0,1,.31-.15,2.11,2.11,0,0,1,.3-.1,3,3,0,0,1,.68-.14h.2a1.85,1.85,0,0,1,.47,0h.23a1.86,1.86,0,0,1,.38.06,3.92,3.92,0,0,1,.84.2h0l.19.07a8.39,8.39,0,0,1,1.29.62,5.2,5.2,0,0,1,.7.45,13.86,13.86,0,0,1,2.86,2.73l.13.17c.11.13.22.29.33.43l.1.15c0,.05.08.09.11.14l.37.55.09.16s0,0,0,.06c.34.55.67,1.13,1,1.73a.6.6,0,0,0,.06.11c.12.24.22.49.34.75s.25.62.36.93a2.41,2.41,0,0,1,.08.25,5.17,5.17,0,0,1,.21.63,1.81,1.81,0,0,1,.09.31c.06.19.11.38.15.55a1.46,1.46,0,0,1,.09.39,11.52,11.52,0,0,1,.25,1.6,1.33,1.33,0,0,1,0,.28,8.43,8.43,0,0,1,.05.86v0c0,.27,0,.53,0,.78,0,0,0,.1,0,.16a5.21,5.21,0,0,1-.1.69,1.25,1.25,0,0,1,0,.19,6.71,6.71,0,0,1-.37,1.24,4.59,4.59,0,0,1-.61,1,1.68,1.68,0,0,1-.18.21,2.44,2.44,0,0,1-.27.29,1.94,1.94,0,0,1-.31.26,2.31,2.31,0,0,1-.19.14l4.6-3a5.15,5.15,0,0,0,2.07-4.05S78.82,155.34,74.4,152.45Z"></path><path fill="#5a5c71" d="M66.13,151c-4.07-2.38-7.35-.31-7.33,4.61s3.33,10.85,7.4,13.23,7.35.31,7.33-4.62S70.2,153.38,66.13,151Z"></path></g><g style="isolation:isolate"><path fill="#4b6dff" d="M66.15,155.3c-2.12-1.24-3.82-.16-3.81,2.39a8.77,8.77,0,0,0,3.85,6.87c2.11,1.23,3.81.17,3.81-2.4A8.82,8.82,0,0,0,66.15,155.3Z"></path><path fill="#fff" d="M67.85,165.58a3.87,3.87,0,0,1-1.92-.59,9.21,9.21,0,0,1-4.09-7.3,3.35,3.35,0,0,1,1.42-3.09,3.09,3.09,0,0,1,3.14.26h0a9.24,9.24,0,0,1,4.1,7.3,3.37,3.37,0,0,1-1.42,3.1A2.51,2.51,0,0,1,67.85,165.58Zm-3.36-10.3a1.37,1.37,0,0,0-.73.19,2.45,2.45,0,0,0-.92,2.22,8.24,8.24,0,0,0,3.6,6.44,2.15,2.15,0,0,0,2.14.26,2.47,2.47,0,0,0,.92-2.22,8.25,8.25,0,0,0-3.6-6.44h0A2.85,2.85,0,0,0,64.49,155.28Z"></path></g><g style="isolation:isolate"><polygon fill="#00338c" points="37.98 133.73 38.03 145.21 62.02 129.82 61.98 118.33 37.98 133.73"></polygon><polygon fill="#777" points="36.97 133.13 37.98 133.73 61.98 118.33 60.96 117.74 36.97 133.13"></polygon><polygon fill="#fffdfa" points="36.97 133.13 37.02 144.62 38.03 145.21 37.98 133.73 36.97 133.13"></polygon></g><polygon fill="#ffb642" points="35.8 87.43 35.8 132.44 138.29 192.34 137.99 147.12 35.8 87.43"></polygon><path fill="#fff" d="M138.29,192.84a.55.55,0,0,1-.25-.07l-102.5-59.9a.5.5,0,0,1-.24-.43v-45a.47.47,0,0,1,.25-.43.5.5,0,0,1,.5,0l102.2,59.69a.5.5,0,0,1,.24.43l.3,45.21a.5.5,0,0,1-.25.44A.55.55,0,0,1,138.29,192.84Zm-102-60.69,101.49,59.31-.29-44.05L36.3,88.3Z"></path><polygon fill="#ffa044" points="137.99 147.12 138.29 192.34 184.37 162.95 184.07 117.74 137.99 147.12"></polygon><path fill="#fff" d="M138.29,192.84a.44.44,0,0,1-.24-.07.48.48,0,0,1-.26-.43l-.3-45.21a.52.52,0,0,1,.23-.43l46.09-29.38a.5.5,0,0,1,.5,0,.51.51,0,0,1,.26.44l.3,45.21a.48.48,0,0,1-.23.42l-46.08,29.39A.5.5,0,0,1,138.29,192.84Zm.21-45.44.29,44,45.08-28.75-.29-44Z"></path><polygon fill="#ffa044" points="35.79 87.43 138 147.13 189.17 118.56 85.7 58.12 35.79 87.43"></polygon><path fill="#fff" d="M138,147.63a.59.59,0,0,1-.26-.07L35.54,87.86a.49.49,0,0,1,0-.86L85.45,57.69a.5.5,0,0,1,.5,0l103.47,60.44a.49.49,0,0,1,0,.86l-51.17,28.57A.44.44,0,0,1,138,147.63ZM36.78,87.43,138,146.55l50.16-28L85.7,58.7Z"></path><polygon fill="#ffb642" points="85.76 116.62 138 147.13 187.83 117.74 85.76 58.16 85.76 116.62"></polygon><path fill="#fff" d="M138,147.63a.59.59,0,0,1-.26-.07L85.51,117.05a.5.5,0,0,1-.25-.43V58.16a.5.5,0,0,1,.25-.43.5.5,0,0,1,.5,0l102.07,59.58a.5.5,0,0,1,.25.43.48.48,0,0,1-.25.43l-49.83,29.39A.59.59,0,0,1,138,147.63Zm-51.74-31.3L138,146.55l48.85-28.81L86.26,59Z"></path><polygon fill="#ffa044" points="74.69 110.16 138 147.13 149.38 140.89 85.7 103.69 74.69 110.16"></polygon><path fill="#fff" d="M138,147.63a.59.59,0,0,1-.26-.07l-63.3-37a.52.52,0,0,1-.25-.43.49.49,0,0,1,.25-.43l11-6.47a.5.5,0,0,1,.5,0l63.68,37.2a.48.48,0,0,1,.25.43.51.51,0,0,1-.26.44l-11.38,6.24A.53.53,0,0,1,138,147.63ZM75.68,110.15,138,146.55l10.36-5.68L85.7,104.27Z"></path><polygon fill="#ffde91" points="85.7 58.13 189.17 118.56 203.03 104.41 97.84 42.97 85.7 58.13"></polygon><path fill="#fff" d="M189.17,119.06a.48.48,0,0,1-.26-.07L85.44,58.56a.48.48,0,0,1-.23-.34.51.51,0,0,1,.1-.41L97.45,42.66a.48.48,0,0,1,.64-.12L203.28,104a.49.49,0,0,1,.25.36.5.5,0,0,1-.14.42l-13.87,14.15A.47.47,0,0,1,189.17,119.06ZM86.45,58l102.63,59.94,13.15-13.41L98,43.62Z"></path><polygon fill="#ffde91" points="179.04 115.16 138.01 147.12 187.91 117.82 230.13 83.91 179.04 115.16"></polygon><path fill="#fff" d="M138,147.62a.52.52,0,0,1-.42-.22.49.49,0,0,1,.11-.67l41-32,.05,0,51.09-31.25a.5.5,0,0,1,.67.14.51.51,0,0,1-.09.68l-42.22,33.91-50,29.34A.47.47,0,0,1,138,147.62Zm41.31-32.05-35,27.26,43.32-25.44,36.07-29Z"></path><polygon fill="#00537a" points="79.78 158.16 79.85 168.3 101.93 181.19 101.86 171.06 79.78 158.16"></polygon><path fill="#fff" d="M102.43,182.07,79.35,168.59l-.07-11.31,23.08,13.49ZM80.35,168l21.07,12.31-.06-9L80.29,159Z"></path><polygon fill="#002e47" points="101.93 181.19 110.42 176.06 101.86 171.06 101.93 181.19"></polygon><polygon fill="#ffde91" points="20.94 84.24 126.14 145.68 137.99 147.13 34.52 86.7 20.94 84.24"></polygon><path fill="#fff" d="M138,147.63h-.06l-11.85-1.44a.66.66,0,0,1-.2-.06L20.69,84.67a.5.5,0,0,1-.22-.6.51.51,0,0,1,.56-.32L34.61,86.2a.58.58,0,0,1,.17.06L138.25,146.7a.5.5,0,0,1-.26.93ZM126.3,145.2l9.35,1.14L34.35,87.17,23.63,85.24Z"></path><g style="isolation:isolate"><path fill="#5a5c71" d="M179.65,109.71,131,138.16l3.67,2.14c7.83,4.57,12.46,11.79,12.49,19.48l.19,49.39L192,182.35l-.2-51.2C191.77,123.46,187.47,114.28,179.65,109.71Z"></path><path fill="#b0bed9" d="M140.56,143.73,131,138.16l0,5.27,4.73,2.76c4.13,2.41,6.57,6.22,6.59,10.28l.19,49.89,4.82,2.81-.22-53.77A14.42,14.42,0,0,0,140.56,143.73Z"></path><path fill="#fff" d="M147.37,209.67a.48.48,0,0,1-.26-.07l-4.81-2.81a.5.5,0,0,1-.25-.43l-.19-49.89c0-3.86-2.39-7.54-6.34-9.85l-4.73-2.76a.5.5,0,0,1-.25-.43l0-5.27a.52.52,0,0,1,.25-.44.47.47,0,0,1,.5,0l9.55,5.57a14.86,14.86,0,0,1,6.83,12.1l.22,53.77a.5.5,0,0,1-.25.43A.47.47,0,0,1,147.37,209.67Zm-4.32-3.6,3.81,2.23-.21-52.9c0-3.66-2.24-8.84-6.34-11.24h0L131.52,139l0,4.11,4.48,2.62c4.26,2.49,6.82,6.49,6.84,10.71Z"></path></g><polygon fill="#002e47" points="163.37 216.72 198.13 194.23 198.13 186.1 163.37 207.76 163.37 216.72"></polygon><g style="isolation:isolate"><path fill="#002e47" d="M184,217.36a8.65,8.65,0,0,0-3.45-3.29l-9.16-6.43c-.08,0-5,3-5,3s11.17,18.67,11.14,18.71l4.79-2.9a5,5,0,0,0,2.2-4A15.44,15.44,0,0,0,184,217.36Z"></path><path fill="#5a5c71" d="M171.74,211.15c-4.33-2.38-7.82-.31-7.8,4.62A16.71,16.71,0,0,0,171.81,229c4.32,2.37,7.81.31,7.79-4.62A16.73,16.73,0,0,0,171.74,211.15Z"></path></g><g style="isolation:isolate"><path fill="#4b6dff" d="M171.75,215.44c-2.24-1.23-4.05-.16-4,2.4a8.67,8.67,0,0,0,4.08,6.87c2.25,1.23,4.06.16,4.05-2.4A8.67,8.67,0,0,0,171.75,215.44Z"></path><path fill="#fff" d="M173.56,225.72a4.16,4.16,0,0,1-2-.58,9.09,9.09,0,0,1-4.34-7.3,3.3,3.3,0,0,1,1.42-3.05A3.35,3.35,0,0,1,172,215h0a9.25,9.25,0,0,1,4.34,7.3,3.34,3.34,0,0,1-1.42,3.06A2.63,2.63,0,0,1,173.56,225.72ZM170,215.43a1.63,1.63,0,0,0-.85.22,2.36,2.36,0,0,0-.93,2.19,8.14,8.14,0,0,0,3.82,6.43,2.41,2.41,0,0,0,2.38.23,2.37,2.37,0,0,0,.93-2.19,8.14,8.14,0,0,0-3.83-6.43h0A3.19,3.19,0,0,0,170,215.43Z"></path></g><polygon fill="#4178d8" points="196.31 199.23 196.26 230.42 234.56 204.86 234.56 175.84 196.31 199.23"></polygon><polygon fill="#6a8aff" points="182.1 172.96 196.31 199.23 234.56 175.84 220.36 149.57 182.1 172.96"></polygon><path fill="#00537a" d="M221.07,156.45a3.41,3.41,0,0,0-4.79-1.29l-27.9,17.06a3.41,3.41,0,0,0-1.22,4.54l8.43,15.59a3.41,3.41,0,0,0,4.79,1.29l27.9-17.06A3.41,3.41,0,0,0,229.5,172Z"></path><path fill="#fff" d="M198.61,194.65a4,4,0,0,1-1-.14,3.87,3.87,0,0,1-2.43-1.92L186.72,177a3.92,3.92,0,0,1,1.4-5.21L216,154.73a3.9,3.9,0,0,1,3.07-.44,3.83,3.83,0,0,1,2.42,1.92l8.43,15.59a3.91,3.91,0,0,1-1.4,5.21l-27.9,17.06A3.88,3.88,0,0,1,198.61,194.65Zm19.45-39.5a3,3,0,0,0-1.52.43l-27.9,17.06a2.92,2.92,0,0,0-1,3.88L196,192.11a2.86,2.86,0,0,0,1.81,1.43,2.9,2.9,0,0,0,2.28-.32L228,176.16a2.93,2.93,0,0,0,1-3.88l-8.44-15.59a2.84,2.84,0,0,0-1.8-1.43A2.92,2.92,0,0,0,218.06,155.15Z"></path><polygon fill="#80acff" points="151.75 156.28 182.1 172.96 220.36 149.57 190.43 132.87 151.75 156.28"></polygon><path fill="#4b6dff" d="M152,156.4v44.87L163.37,208s3.56-3.05,7-1.05l10.11,7.09a7.63,7.63,0,0,1,4.25,5.74l.12,1.19,11.39,6.89V199.16l-14.2-26.27Z"></path><path fill="#fff" d="M196.26,228.39a.48.48,0,0,1-.26-.07l-11.39-6.89a.52.52,0,0,1-.24-.38l-.12-1.19a7.11,7.11,0,0,0-4-5.35l-10.15-7.12c-3.09-1.78-6.38,1-6.42,1a.5.5,0,0,1-.58.05l-11.35-6.76a.5.5,0,0,1-.24-.43V156.4a.48.48,0,0,1,.25-.43.48.48,0,0,1,.49,0l30,16.5a.48.48,0,0,1,.2.2l14.2,26.26a.5.5,0,0,1,.06.24v28.73a.52.52,0,0,1-.25.44A.57.57,0,0,1,196.26,228.39Zm-10.92-7.69,10.42,6.3V199.28l-14.07-26-29.17-16V201l10.81,6.44c1-.72,4.13-2.72,7.31-.88l10.15,7.11a8.09,8.09,0,0,1,4.46,6.11Z"></path><path fill="#00537a" d="M180.31,175.22a1.43,1.43,0,0,0-.58-.59l-8-4.41a1.46,1.46,0,0,0-2.17,1.28v13.82a1.45,1.45,0,0,0,.76,1.28l18.65,10.24a1.46,1.46,0,0,0,2-2Z"></path><path fill="#fff" d="M189.65,197.53a1.93,1.93,0,0,1-1-.25L170.05,187a2,2,0,0,1-1-1.72V171.5a2,2,0,0,1,2.92-1.72l8,4.41a2,2,0,0,1,.78.79l10.62,19.64a2,2,0,0,1-1.72,2.91Zm-18.65-27a1,1,0,0,0-.5.14,1,1,0,0,0-.47.83v13.82a1,1,0,0,0,.5.85l18.65,10.24a.93.93,0,0,0,1.14-.17.92.92,0,0,0,.17-1.14l-10.62-19.65a1,1,0,0,0-.38-.38l-8-4.42A.93.93,0,0,0,171,170.53Z"></path><g style="isolation:isolate"><polygon fill="#00537a" points="164.13 147.92 182.33 165.52 207.84 149.67 189.63 132.62 164.13 147.92"></polygon><path fill="#fff" d="M182.33,166a.52.52,0,0,1-.35-.14l-18.2-17.6a.51.51,0,0,1-.15-.42.52.52,0,0,1,.24-.37l25.51-15.3a.48.48,0,0,1,.59.07l18.21,17.05a.51.51,0,0,1-.08.79l-25.51,15.84A.5.5,0,0,1,182.33,166Zm-17.39-18,17.46,16.88L207,149.59l-17.45-16.35Z"></path><path fill="#4b6dff" d="M191.73,141.21a4,4,0,0,0-4.49-.33l-9.43,5.54a3.29,3.29,0,0,0-.57,5.42l5.84,5a3.94,3.94,0,0,0,4.58.34L197,151.5a3.3,3.3,0,0,0,.48-5.43Z"></path><path fill="#fff" d="M185.6,158.31a4.36,4.36,0,0,1-2.85-1l-5.84-5.05a3.77,3.77,0,0,1-1.33-3.21,4,4,0,0,1,2-3l9.42-5.54a4.5,4.5,0,0,1,5.07.39l5.79,4.86a3.73,3.73,0,0,1,1.38,3.19,3.89,3.89,0,0,1-1.92,3.05l-9.38,5.73A4.5,4.5,0,0,1,185.6,158.31Zm3.65-17.48a3.45,3.45,0,0,0-1.76.48l-9.42,5.54a2.9,2.9,0,0,0-1.49,2.25,2.78,2.78,0,0,0,1,2.36l5.84,5a3.44,3.44,0,0,0,4,.29l9.38-5.73a2.9,2.9,0,0,0,1.45-2.27,2.81,2.81,0,0,0-1-2.35l-5.8-4.85h0A3.32,3.32,0,0,0,189.25,140.83Z"></path><path fill="#00537a" d="M197.52,146.07l-5.79-4.86a4,4,0,0,0-4.49-.33l-9.43,5.54a3.34,3.34,0,0,0-1.51,4.12,3.44,3.44,0,0,1,1.63-2.15l9.42-5.54a4,4,0,0,1,4.49.34l5.79,4.86a3.24,3.24,0,0,1,1,1.35A3.22,3.22,0,0,0,197.52,146.07Z"></path><path fill="#fff" d="M176.3,151a.5.5,0,0,1-.46-.32,3.85,3.85,0,0,1,1.72-4.74l9.42-5.54a4.5,4.5,0,0,1,5.07.39l5.79,4.86h0a3.75,3.75,0,0,1,1.26,3.83.51.51,0,0,1-.45.38.52.52,0,0,1-.5-.32,3,3,0,0,0-.84-1.15l-5.8-4.85a3.44,3.44,0,0,0-3.91-.29l-9.42,5.53a3,3,0,0,0-1.4,1.84.48.48,0,0,1-.45.37Zm12.95-10.21a3.45,3.45,0,0,0-1.76.48l-9.42,5.54a3,3,0,0,0-1.46,2,4,4,0,0,1,1.06-.9l9.43-5.54a4.48,4.48,0,0,1,5.06.39l5.79,4.86.16.13a2.88,2.88,0,0,0-.91-1.35l-5.8-4.85A3.32,3.32,0,0,0,189.25,140.83Z"></path><polygon fill="#fff" points="164.16 155.53 182.33 165.52 164.13 147.92 164.16 155.53"></polygon></g><path fill="#002e47" d="M196,228.14l-1.53,4.57,37-22.83c1.95-1.2,3.13-2.74,3.13-5Z"></path><path fill="#00537a" d="M201.74,214.52a7.61,7.61,0,0,0-3.12,5.47,2.84,2.84,0,0,0,1.15,2.69,20,20,0,0,0,2.16,1.26l5-8.73a19.68,19.68,0,0,0-2.28-1.19A2.92,2.92,0,0,0,201.74,214.52Z"></path><g style="isolation:isolate"><path fill="#ffb642" d="M204.35,215.51a8,8,0,0,0-3.54,6.26c0,2.27,1.64,3.15,3.62,2a8,8,0,0,0,3.54-6.26C208,215.2,206.33,214.32,204.35,215.51Z"></path><path fill="#fff" d="M202.77,224.76a2.22,2.22,0,0,1-1.14-.29,2.91,2.91,0,0,1-1.32-2.7,8.47,8.47,0,0,1,3.78-6.69h0a3.05,3.05,0,0,1,3.07-.31,3,3,0,0,1,1.31,2.7,8.45,8.45,0,0,1-3.78,6.69A3.79,3.79,0,0,1,202.77,224.76Zm1.84-8.82a7.46,7.46,0,0,0-3.3,5.82,2,2,0,0,0,.8,1.84,2.08,2.08,0,0,0,2.06-.3,7.45,7.45,0,0,0,3.3-5.82,2,2,0,0,0-.8-1.84,2.1,2.1,0,0,0-2.06.3Z"></path><path fill="#ff5978" d="M205.72,216.84a1.69,1.69,0,0,0-.84.29,5.49,5.49,0,0,0-2.4,4.24c0,.38.08,1,.58,1a1.72,1.72,0,0,0,.84-.29,5.49,5.49,0,0,0,2.4-4.24C206.3,217.49,206.22,216.84,205.72,216.84Z"></path></g><path fill="#00537a" d="M227.18,199.76a7.61,7.61,0,0,0-3.11,5.47,2.83,2.83,0,0,0,1.15,2.68,18.42,18.42,0,0,0,2.16,1.26l5-8.73a20.45,20.45,0,0,0-2.28-1.19A2.93,2.93,0,0,0,227.18,199.76Z"></path><g style="isolation:isolate"><path fill="#ffb642" d="M229.8,200.75a8,8,0,0,0-3.54,6.25c0,2.28,1.64,3.16,3.62,2a8,8,0,0,0,3.54-6.26C233.39,200.44,231.78,199.56,229.8,200.75Z"></path><path fill="#fff" d="M228.22,210a2.39,2.39,0,0,1-1.15-.29,3,3,0,0,1-1.31-2.7,8.42,8.42,0,0,1,3.78-6.69h0a3,3,0,0,1,3.06-.31,2.94,2.94,0,0,1,1.32,2.7,8.46,8.46,0,0,1-3.79,6.69A3.73,3.73,0,0,1,228.22,210Zm1.83-8.83a7.47,7.47,0,0,0-3.29,5.83,2,2,0,0,0,.8,1.84,2.1,2.1,0,0,0,2.06-.3,7.46,7.46,0,0,0,3.3-5.82,2,2,0,0,0-.8-1.84A2.11,2.11,0,0,0,230.05,201.17Z"></path><path fill="#ff5978" d="M231.16,202.08a1.69,1.69,0,0,0-.83.29,5.49,5.49,0,0,0-2.4,4.24c0,.38.08,1,.58,1a1.72,1.72,0,0,0,.84-.29,5.49,5.49,0,0,0,2.4-4.24C231.75,202.72,231.66,202.08,231.16,202.08Z"></path></g><polygon fill="#ffde91" points="87.98 44.63 35.8 87.43 85.7 58.13 139.6 16.34 87.98 44.63"></polygon><path fill="#fff" d="M35.8,87.93a.5.5,0,0,1-.32-.89l52.18-42.8.08-.05L139.36,15.9a.5.5,0,0,1,.55.83L86,58.52,36.05,87.86A.47.47,0,0,1,35.8,87.93ZM88.26,45.05,41.06,83.76,85.44,57.7l48.87-37.89Z"></path><polygon fill="#00537a" points="150.46 208.81 163.37 216.61 163.37 208.49 150.46 200.8 150.46 208.81"></polygon><path fill="#fff" d="M163.87,217.49,150,209.09v-9.17l13.91,8.28Zm-12.91-9,11.91,7.19v-6.95L151,201.68Z"></path><path fill="#00537a" d="M184.81,230.68l5,2.5a4.48,4.48,0,0,0,6.49-4v-.87l-11.46-6.77Z"></path><path fill="#fff" d="M191.79,234.16a5,5,0,0,1-2.24-.54L184.31,231V220.67L196.77,228v1.16a5,5,0,0,1-5,5Zm-6.48-3.79,4.69,2.36a4,4,0,0,0,5.77-3.55v-.59l-10.46-6.17Z"></path><g style="isolation:isolate"><polygon fill="#ffa044" points="42.82 187.19 42.87 208.84 74.76 227.37 74.71 205.73 42.82 187.19"></polygon><path fill="#fff" d="M74.76,227.87a.45.45,0,0,1-.25-.07l-31.9-18.53a.51.51,0,0,1-.24-.43l0-21.65a.5.5,0,0,1,.75-.43L75,205.29a.52.52,0,0,1,.25.44l.05,21.64a.5.5,0,0,1-.25.43A.47.47,0,0,1,74.76,227.87ZM43.37,208.55,74.26,226.5,74.21,206l-30.89-18Z"></path><polygon fill="#ffb642" points="74.76 227.37 95.04 215.66 95.04 193.99 74.71 205.73 74.76 227.37"></polygon><path fill="#fff" d="M74.76,227.87a.45.45,0,0,1-.25-.07.48.48,0,0,1-.25-.43l-.05-21.64a.5.5,0,0,1,.25-.44l20.33-11.74a.5.5,0,0,1,.75.44v21.67a.48.48,0,0,1-.25.43L75,227.8A.47.47,0,0,1,74.76,227.87ZM75.21,206l.05,20.48,19.28-11.13V194.85Z"></path><polygon fill="#ffde91" points="42.82 187.19 74.71 205.73 95.15 193.93 63.26 175.39 42.82 187.19"></polygon><path fill="#fff" d="M74.71,206.23a.52.52,0,0,1-.25-.07l-31.9-18.53a.51.51,0,0,1-.24-.44.48.48,0,0,1,.25-.43L63,175a.5.5,0,0,1,.5,0L95.4,193.49a.5.5,0,0,1,0,.87L75,206.16A.59.59,0,0,1,74.71,206.23Zm-30.9-19,30.9,18,19.44-11.23L63.26,176Z"></path></g><polygon fill="#fff" points="52.43 181.61 84.43 200.09 84.43 204.3 88.1 202.31 88.1 197.99 55.8 179.34 52.43 181.61"></polygon><polygon fill="#00537a" points="68.82 221.86 72.64 224.07 72.64 223.89 68.82 221.68 68.82 221.86"></polygon><polygon fill="#00537a" points="68.82 222.44 72.64 224.65 72.64 224.47 68.82 222.26 68.82 222.44"></polygon><polygon fill="#00537a" points="68.09 219.01 73.38 222.06 73.38 221.6 68.09 218.55 68.09 219.01"></polygon><polygon fill="#00537a" points="68.82 221.28 72.64 223.49 72.64 223.31 68.82 221.1 68.82 221.28"></polygon><polygon fill="#00537a" points="68.82 220.12 72.64 222.33 72.64 222.15 68.82 219.94 68.82 220.12"></polygon><polygon fill="#00537a" points="68.82 220.7 72.64 222.91 72.64 222.73 68.82 220.52 68.82 220.7"></polygon><polygon fill="#c0ccda" points="44.21 193.19 49.81 196.42 49.81 192.86 44.21 189.63 44.21 193.19"></polygon><polygon fill="#00537a" points="44.99 190.78 48.95 193.07 48.95 192.88 44.99 190.6 44.99 190.78"></polygon><polygon fill="#00537a" points="44.99 193.18 48.95 195.46 48.95 195.28 44.99 193 44.99 193.18"></polygon><polygon fill="#00537a" points="44.99 191.98 48.95 194.26 48.95 194.08 44.99 191.8 44.99 191.98"></polygon><polygon fill="#00537a" points="44.99 192.58 48.95 194.86 48.95 194.68 44.99 192.4 44.99 192.58"></polygon><polygon fill="#00537a" points="44.99 191.38 48.95 193.67 48.95 193.48 44.99 191.2 44.99 191.38"></polygon><path fill="#5a5c71" d="M72.6 206.17c-.22 0-.3.24-.17.54a.86.86 0 00.64.54c.23 0 .31-.24.18-.54A.86.86 0 0072.6 206.17zM70.9 205.18c-.23 0-.3.25-.17.55a.86.86 0 00.64.54c.23 0 .3-.24.17-.54A.86.86 0 0070.9 205.18zM69.2 204.2c-.23 0-.3.24-.17.54a.86.86 0 00.64.55c.22 0 .3-.25.17-.55A.86.86 0 0069.2 204.2z"></path><g style="isolation:isolate"><polygon fill="#ffa044" points="31.91 166.97 31.96 188.61 63.86 207.14 63.81 185.5 31.91 166.97"></polygon><path fill="#fff" d="M63.86,207.64a.51.51,0,0,1-.25-.06L31.71,189a.5.5,0,0,1-.25-.43L31.41,167a.52.52,0,0,1,.25-.44.49.49,0,0,1,.51,0l31.89,18.53a.5.5,0,0,1,.25.43l0,21.64a.52.52,0,0,1-.25.44A.57.57,0,0,1,63.86,207.64Zm-31.4-19.32,30.89,18,0-20.48L32.42,167.84Z"></path><polygon fill="#ffb642" points="63.86 207.14 84.14 195.43 84.14 173.76 63.8 185.5 63.86 207.14"></polygon><path fill="#fff" d="M63.86,207.64a.51.51,0,0,1-.25-.06.5.5,0,0,1-.25-.44l0-21.64a.47.47,0,0,1,.25-.43l20.33-11.74a.5.5,0,0,1,.5,0,.48.48,0,0,1,.25.43v21.67a.5.5,0,0,1-.25.44L64.11,207.58A.57.57,0,0,1,63.86,207.64Zm.45-21.85,0,20.49,19.29-11.14V174.63Z"></path><polygon fill="#ffde91" points="31.91 166.97 63.81 185.5 84.25 173.7 52.35 155.17 31.91 166.97"></polygon><path fill="#fff" d="M63.81,186a.48.48,0,0,1-.26-.07L31.66,167.4a.5.5,0,0,1-.25-.43.52.52,0,0,1,.25-.44l20.45-11.8a.5.5,0,0,1,.5,0L84.5,173.27a.49.49,0,0,1,0,.86l-20.44,11.8A.47.47,0,0,1,63.81,186Zm-30.9-19,30.9,17.95L83.25,173.7l-30.9-18Z"></path></g><polygon fill="#fff" points="41.53 161.38 73.53 179.86 73.53 184.07 77.2 182.09 77.2 177.77 44.9 159.12 41.53 161.38"></polygon><polygon fill="#00537a" points="57.92 201.63 61.74 203.84 61.74 203.66 57.92 201.46 57.92 201.63"></polygon><polygon fill="#00537a" points="57.92 202.21 61.74 204.42 61.74 204.24 57.92 202.03 57.92 202.21"></polygon><polygon fill="#00537a" points="57.19 198.79 62.47 201.84 62.47 201.38 57.19 198.32 57.19 198.79"></polygon><polygon fill="#00537a" points="57.92 201.06 61.74 203.26 61.74 203.08 57.92 200.88 57.92 201.06"></polygon><polygon fill="#00537a" points="57.92 199.9 61.74 202.1 61.74 201.93 57.92 199.72 57.92 199.9"></polygon><polygon fill="#00537a" points="57.92 200.48 61.74 202.68 61.74 202.5 57.92 200.3 57.92 200.48"></polygon><polygon fill="#c0ccda" points="33.31 172.96 38.9 176.19 38.9 172.64 33.31 169.41 33.31 172.96"></polygon><polygon fill="#00537a" points="34.09 170.56 38.04 172.84 38.04 172.66 34.09 170.37 34.09 170.56"></polygon><polygon fill="#00537a" points="34.09 172.96 38.04 175.24 38.04 175.05 34.09 172.77 34.09 172.96"></polygon><polygon fill="#00537a" points="34.09 171.76 38.04 174.04 38.04 173.85 34.09 171.57 34.09 171.76"></polygon><polygon fill="#00537a" points="34.09 172.35 38.04 174.64 38.04 174.45 34.09 172.17 34.09 172.35"></polygon><polygon fill="#00537a" points="34.09 171.16 38.04 173.44 38.04 173.26 34.09 170.97 34.09 171.16"></polygon><path fill="#5a5c71" d="M61.7 185.94c-.22 0-.3.24-.17.54a.87.87 0 00.64.55c.23 0 .3-.25.17-.55A.84.84 0 0061.7 185.94zM60 185c-.23 0-.3.24-.17.54a.84.84 0 00.64.54c.22 0 .3-.24.17-.54A.86.86 0 0060 185zM58.3 184c-.23 0-.31.25-.18.55a.86.86 0 00.65.54c.22 0 .3-.24.17-.54A.87.87 0 0058.3 184z"></path></svg>