<svg xmlns="http://www.w3.org/2000/svg" enable-background="new 0 0 2950 2950" viewBox="0 0 2950 2950" id="businessman-company-office-building-pin-create-business-contact-address"><ellipse cx="1475" cy="2689.97" fill="#dee2df" rx="1441.67" ry="260.03"></ellipse><path fill="#f4c99a" d="M2078.24,1951.41l3.41,34.01l-14.17,3.89c0,0-43.62,28.39-55.27-14.16c-4.54-16.57,14.16-29.97,28.27-20.17
				c0.2,0.14,0.4,0.28,0.59,0.42c0.48,0.35,1.09-0.24,0.74-0.73l-8.27-11.62c-1.41-1.98-0.99-4.72,0.94-6.19l0,0
				c1.77-1.35,4.27-1.2,5.86,0.36l10.77,10.51c2.41,2.35,5.64,3.66,9,3.66L2078.24,1951.41z"></path><path fill="#5facf2" d="M2065.39,1951.41l7.63,41.52l152.46-36.13c42.91-26.87,97.78-72.67,97.78-72.67l-32.52-64.55l-83.46,85.16
			L2065.39,1951.41z"></path><rect width="70.71" height="61.87" x="2222.4" y="2584.85" fill="#f4c99a" transform="rotate(-96.886 2257.786 2615.755)"></rect><path fill="#353434" d="M2294.58,2689.11h-163.94c-2.46,0-3.9-1.93-4.69-4.72c-2.99-10.57,4.81-21.19,15.69-22.72
			c20.04-2.82,50.16-16.32,78.9-36.75c0.68-0.49,1.5-0.75,2.34-0.75l67.34,0c2.11,0,3.88,1.6,4.08,3.7l5.49,55.53
			C2300.07,2686.47,2297.66,2689.11,2294.58,2689.11z"></path><rect width="70.71" height="61.87" x="2593.73" y="2564.38" fill="#f4c99a" transform="rotate(-122.134 2629.076 2595.336)"></rect><path fill="#353434" d="M2699.27 2637.83l-138.82 87.2c-2.09 1.31-4.33.44-6.49-1.5-8.16-7.35-7.19-20.5 1.2-27.58 15.47-13.05 33.8-40.5 47.26-73.09.32-.77.87-1.44 1.58-1.88l57.03-35.82c1.79-1.12 4.13-.71 5.43.96l34.19 44.11C2702.51 2632.67 2701.88 2636.19 2699.27 2637.83zM2360.61 2115.71c-15.45 18.38-30.89 36.76-46.34 55.13-24.11 28.69-101.24 119.64-112.81 138.52-7.61 12.42-14.68 26.11-17.41 40.55-3.18 16.85 30.11 211.55 35.97 247.38.06.39 1.07 7.44 1.22 7.44 0 0 70.03-2.79 70.03-2.79-1.64-18.22-22.18-225.12-16.42-235.55 5.33-9.65 137.65-122.94 137.37-123.88 0 0 42.39 142.03 42.39 142.03 1.58 5.31 3.9 10.37 6.89 15.04l134.49 210.44 58.86-41.55-105.98-206.2c-4.11-7.99-6.35-16.79-6.57-25.77-1.07-44.16-5.32-183.19-16.9-222.15C2525.4 2114.36 2360.61 2115.71 2360.61 2115.71z"></path><path fill="#5facf2" d="M2341.43,2138.53c0,0-30.06-137.84-53.95-227.94l-12.04-45.42c-6.18-23.3,7.65-47.19,30.94-53.39
		c11.85-3.15,42.47-11.26,72.06-19.09c37.45-9.91,75.8,12.5,85.55,49.99c23.71,91.2,60.66,257.88,66.92,276.24
		C2543.5,2155.82,2341.43,2138.53,2341.43,2138.53z"></path><path fill="#f4c99a" d="M2329.67,1803.49c0.01-3.89,0.03-6.68,0.03-6.68s-18.69-4.47-20.45-5.48c-3.52-2.01-8.1-14.65-7.25-29.16
			s3.33-29.09,4.4-35.1c1.07-6.01,5.39-30.26,28.95-36.96c23.56-6.7,52.1,7.79,57.64,31.11c5.54,23.31,0.33,40.33-4.64,46.73
			s-9.66,18.09-10.64,22.71c-0.38,1.81-0.81,7.74-1.18,14.27c-0.7,12.24-10.73,21.87-22.98,22.09l0,0
			C2340.39,1827.24,2329.63,1816.63,2329.67,1803.49z"></path><path fill="#353434" d="M2378.13,1746.73c-2.03,2.38-4.93,8.06-4.93,8.06c-3.15-4.54-5.02-32.58-0.85-39.5
			c-2.06,4.78-41.06-7.05-51.08-10.98c-2.08-0.82-5.03-0.26-6.56,1.86c-1.66,2.29-6.39,13.73-7.48,16.71
			c0.03-4.49,0.66-8.78,1.07-13.23c0.39-4.21-11.16-21.66-4.51-29.07c9.66-10.76,58.34,0.75,64.16,2.64
			c6.39,2.08,25.98,12.26,26.47,21.75c6.98,4.68,11.63,9.83,9.16,23.9c-1.19,6.78-2.68,13.57-4.1,20.32
			c-1.42,6.71-4.39,12.17-7.38,18.29c-2.56,5.23-5.55,10.22-8.26,15.36c-0.48,0.91-4.33,8.43-6.07,7.6c-0.29-0.14-1.6-7.3-1.9-9.13
			c-0.48-2.91-0.04-5.74,0.27-8.61c0.12-1.07,0.02-2.35,0.64-3.29c0.96-1.47,2.82-1.02,4.31-1.23c4.71-0.67,7.57-4.94,8.77-9.21
			c1.3-4.61,1.77-10.85-3.16-13.53c-2.56-1.39-6.06-1.13-8.2,0.93C2378.34,1746.49,2378.23,1746.61,2378.13,1746.73z"></path><path fill="#e02242" d="M612.59,1074.11c-245.24,0-444.13,198.89-444.13,444.13s444.13,867.2,444.13,867.2
		s443.94-621.96,443.94-867.2S857.83,1074.11,612.59,1074.11z M642.05,1742.15c-147.51,18.76-272.33-105.8-253.56-253.34
		c12.8-100.62,94.05-181.86,194.67-194.67c147.54-18.77,272.1,106.05,253.34,253.56C823.72,1648.21,742.56,1729.37,642.05,1742.15z"></path><path fill="#353434" d="M2065.33,2495.16c-1.61,0-2.95,0-4.55-0.54c-5.36-2.68-8.04-9.11-5.36-14.46
			c2.95-6.96,72.32-163.4,119.2-230.36c12.05-16.61,16.34-32.68,13.39-48.75c-5.63-27.86-34.02-45.54-34.29-46.07
			c-195.54-97.5-499.56-1902.36-526.88-2066.29H721.74L651.82,1294.6c-0.27,5.89-5.09,10.18-10.98,10.18l0,0
			c-5.89,0-10.71-4.29-10.98-10.18l-6.43-135.54l-29.46,137.15c-1.07,5.36-5.63,8.57-10.71,8.57c-0.27,0-0.54,0-0.54,0
			c-5.63,0-9.91-4.29-10.45-9.64l-20.09-220.18c-0.54-5.89,4.02-11.25,9.91-11.79c0.54,0,0.8,0,1.07,0c5.63,0,10.45,4.29,10.98,9.64
			l13.39,148.4l32.14-148.93c1.07-5.36,5.63-8.57,10.71-8.57c0.27,0,0.54,0,0.8,0c5.63,0,9.91,4.82,10.18,10.18l0.54,11.79
			L700.31,77.44c0.27-5.89,5.09-10.18,10.98-10.18h924.93c5.36,0,9.91,3.75,10.71,9.11c111.97,678.76,364.29,1983.25,517.51,2059.86
			c2.41,1.07,37.23,23.04,45,60.54c4.29,21.96-1.34,43.93-16.88,65.89c-45.54,65.36-116.52,224.47-117.32,226.08
			C2073.63,2493.01,2069.62,2495.16,2065.33,2495.16z"></path><circle cx="752.27" cy="130.1" r="130.1" fill="#353434"></circle><circle cx="752.27" cy="130.1" r="76.05" fill="#fff"></circle><circle cx="1594.89" cy="130.1" r="130.1" fill="#353434"></circle><circle cx="1594.89" cy="130.1" r="76.05" fill="#fff"></circle><g><path fill="#f4c99a" d="M2115.76,2001.96l-2.36,34.1l-14.63,1.45c0,0-47.78,20.65-52.1-23.25c-1.69-17.1,18.99-27.16,31.26-15.13
				c0.17,0.17,0.34,0.34,0.52,0.52c0.42,0.42,1.11-0.05,0.85-0.59l-6.2-12.85c-1.05-2.19-0.18-4.82,1.97-5.94l0,0
				c1.98-1.03,4.41-0.46,5.72,1.34l8.85,12.17c1.98,2.72,4.94,4.56,8.26,5.13L2115.76,2001.96z"></path><path fill="#5facf2" d="M2103.1,1999.79l0.54,42.22l156.37-9.98c46.82-19.27,104.87-70.74,104.87-70.74l-21.2-69.1l-92.85,85.47
			L2103.1,1999.79z"></path></g></svg>