<svg xmlns="http://www.w3.org/2000/svg" enable-background="new 0 0 2000 2000" viewBox="0 0 2000 2000" id="Businessteamworkingtosaveplanet"><path fill="#e0f5f2" fill-rule="evenodd" d="M1631.57,514.51c-15.38,0-27.85-12.47-27.85-27.85c0-15.38,12.47-27.84,27.85-27.84s27.85,12.47,27.85,27.84
		C1659.42,502.04,1646.95,514.51,1631.57,514.51L1631.57,514.51z M449.17,1182.15H300.39c-80.07,0-145.59,65.51-145.59,145.59l0,0
		c0,80.07,65.51,145.59,145.59,145.59h1258.03c129.66,0,235.75-106.09,235.75-235.74v0c0-129.66-106.08-235.74-235.75-235.75l0,0
		c-54.82,0-99.68-44.86-99.68-99.68l0,0c0-54.82,44.85-99.68,99.68-99.68h119.97c57,0,103.63-46.64,103.63-103.64l0,0
		c0-57-46.63-103.63-103.63-103.63h-151.7c-22.19,0-40.34-18.16-40.34-40.35l0,0c0-22.19,18.16-40.35,40.34-40.35h26.74
		c15.32,0,27.85-12.53,27.85-27.85l0,0c0-15.31-12.53-27.84-27.85-27.84h-100.22c0,0-38.3,0-75.25,0
		c-36.95,0-41.07,43.66-134.42,43.66c-144.3,0-72.15,0-216.45,0c-19.98,0-36.33,16.35-36.33,36.33l0,0
		c0,19.98,16.35,36.33,36.33,36.33h34.89c28.95,0,52.65,23.69,52.65,52.65v0c0,28.95-23.7,52.64-52.65,52.64H956.96
		c-141.8,0-161.83,37.06-186.67,110.77c-24.84,73.7-153.82,79.65-153.82,79.65H440.09c-43.63,0-79.34,35.7-79.34,79.33l0,0
		c0,43.64,35.7,79.34,79.34,79.34h9.08c41.97,0,76.31,34.34,76.31,76.31l0,0C525.48,1147.81,491.14,1182.15,449.17,1182.15
		L449.17,1182.15z" clip-rule="evenodd" class="colore0e8f5 svgShape"></path><path fill="#c4ebe6" fill-rule="evenodd" d="M134.09,1053.8c68,252.54,292.46,361.99,548.89,222.26C590.52,1008.81,377.51,921.96,134.09,1053.8z" clip-rule="evenodd" class="colorc4d1eb svgShape"></path><path fill="#ffffff" fill-rule="evenodd" d="M158.84,1072c-1.97-0.78-2.94-3.02-2.15-4.99c0.78-1.97,3.02-2.94,4.99-2.15l186.13,73.93l-12.23-114.65
			c-0.22-2.11,1.31-4,3.42-4.23c2.11-0.22,4,1.31,4.23,3.42L355.88,1142l51.69,20.53c1.19-0.11,2.4,0.33,3.25,1.29l39.64,15.74
			l5.84-129.08c0.1-2.12,1.89-3.76,4.01-3.66c2.12,0.1,3.76,1.89,3.66,4.01l-5.96,131.73l46.45,18.45c0.16,0.05,0.31,0.11,0.46,0.18
			l47.18,18.74l7.77-95.11c0.18-2.11,2.03-3.68,4.14-3.51c2.11,0.18,3.68,2.03,3.51,4.14l-7.96,97.44l124.84,49.59
			c1.97,0.78,2.94,3.02,2.15,4.99c-0.78,1.97-3.02,2.94-4.99,2.15l-83.95-33.35l-53.72,53.23c-1.5,1.49-3.93,1.49-5.43-0.01
			c-1.49-1.5-1.49-3.93,0.02-5.43l51.35-50.88l-85.51-33.97l-89.18,97.46c-1.43,1.57-3.87,1.68-5.44,0.24
			c-1.57-1.43-1.68-3.87-0.24-5.44l87.21-95.31l-43.95-17.46l-0.18-0.07l-44.24-17.57l-103.03,87.19c-1.62,1.37-4.05,1.17-5.42-0.45
			c-1.37-1.62-1.17-4.05,0.45-5.42l99.9-84.54l-49.18-19.53l-0.25-0.1l-52.58-20.88l-83.22,55.28c-1.76,1.17-4.15,0.7-5.32-1.07
			c-1.17-1.76-0.7-4.15,1.07-5.32l78.79-52.34L158.84,1072z" clip-rule="evenodd" class="colorffffff svgShape"></path><path fill="#c4ebe6" fill-rule="evenodd" d="M1865.91,880.16c-68,252.54-292.46,361.99-548.89,222.26C1409.48,835.17,1622.49,748.31,1865.91,880.16z" clip-rule="evenodd" class="colorc4d1eb svgShape"></path><path fill="#ffffff" fill-rule="evenodd" d="M1841.16,898.35c1.97-0.78,2.94-3.02,2.15-4.99c-0.78-1.97-3.02-2.94-4.99-2.15l-186.13,73.93l12.23-114.65
			c0.22-2.11-1.31-4-3.42-4.23c-2.11-0.22-4,1.31-4.23,3.42l-12.66,118.67l-51.69,20.53c-1.19-0.11-2.41,0.33-3.25,1.29
			l-39.63,15.74l-5.84-129.08c-0.1-2.12-1.89-3.76-4.01-3.66c-2.12,0.1-3.76,1.89-3.66,4.01l5.96,131.73l-46.45,18.45
			c-0.16,0.05-0.31,0.11-0.46,0.18l-47.18,18.74l-7.77-95.11c-0.18-2.11-2.03-3.68-4.14-3.51c-2.11,0.18-3.68,2.03-3.51,4.14
			l7.96,97.44l-124.84,49.59c-1.97,0.78-2.94,3.02-2.15,4.99c0.78,1.97,3.02,2.94,4.99,2.15l83.95-33.35l53.72,53.23
			c1.5,1.49,3.93,1.49,5.43-0.02c1.49-1.5,1.49-3.93-0.02-5.43l-51.35-50.88l85.51-33.97l89.18,97.47c1.43,1.57,3.87,1.68,5.44,0.24
			c1.57-1.43,1.68-3.87,0.24-5.44l-87.21-95.31l43.95-17.46l0.18-0.07l44.24-17.57l103.03,87.19c1.62,1.37,4.05,1.17,5.42-0.45
			c1.37-1.62,1.17-4.05-0.45-5.42l-99.9-84.54l49.18-19.53l0.25-0.1l52.58-20.88l83.22,55.28c1.76,1.17,4.15,0.7,5.32-1.07
			c1.18-1.76,0.7-4.15-1.07-5.32l-78.79-52.34L1841.16,898.35z" clip-rule="evenodd" class="colorffffff svgShape"></path><path fill="#b0e4de" fill-rule="evenodd" d="M224.08,654.37c-83.65,247.8,42.27,463.45,333.12,489.6C628.68,870.35,499.73,679.86,224.08,654.37z" clip-rule="evenodd" class="colorb0c2e4 svgShape"></path><path fill="#ffffff" fill-rule="evenodd" d="M234.56,683.24c-1.2-1.75-0.77-4.14,0.98-5.34c1.75-1.2,4.14-0.77,5.34,0.98l113.76,164.83l53.48-102.15
			c0.99-1.88,3.31-2.6,5.19-1.62c1.88,0.99,2.6,3.31,1.62,5.19l-55.36,105.73l31.59,45.78c1.05,0.57,1.82,1.61,1.99,2.88l24.22,35.1
			l76.52-104.12c1.26-1.71,3.66-2.08,5.37-0.82c1.71,1.26,2.08,3.66,0.82,5.37L421.99,941.3l28.39,41.14
			c0.1,0.13,0.2,0.26,0.28,0.41l28.83,41.78l59.27-74.79c1.32-1.66,3.73-1.94,5.39-0.62c1.66,1.32,1.94,3.73,0.62,5.39l-60.72,76.63
			l76.3,110.56c1.2,1.75,0.77,4.14-0.98,5.34c-1.75,1.2-4.14,0.77-5.34-0.98l-51.31-74.34l-74.24,14.45
			c-2.08,0.41-4.1-0.95-4.5-3.03c-0.41-2.08,0.95-4.1,3.03-4.51l70.96-13.81l-52.26-75.73l-128.29,31.55
			c-2.06,0.51-4.15-0.75-4.66-2.82c-0.51-2.06,0.75-4.15,2.82-4.66l125.45-30.85l-26.86-38.92l-0.11-0.16l-27.04-39.18l-134.1,15.32
			c-2.11,0.24-4.02-1.28-4.26-3.39c-0.24-2.11,1.28-4.02,3.39-4.26l130.02-14.85l-30.06-43.55l-0.15-0.22l-32.14-46.56l-99.91-0.22
			c-2.12,0-3.84-1.72-3.83-3.84c0-2.12,1.72-3.84,3.84-3.83l94.6,0.21L234.56,683.24z" clip-rule="evenodd" class="colorffffff svgShape"></path><path fill="#b0e4de" fill-rule="evenodd" d="M1775.92,480.72c83.65,247.8-42.27,463.45-333.12,489.6C1371.32,696.71,1500.27,506.21,1775.92,480.72z" clip-rule="evenodd" class="colorb0c2e4 svgShape"></path><path fill="#ffffff" fill-rule="evenodd" d="M1765.44,509.59c1.2-1.75,0.77-4.14-0.98-5.34c-1.75-1.2-4.14-0.77-5.34,0.98l-113.76,164.83l-53.48-102.15
			c-0.98-1.88-3.31-2.6-5.19-1.62c-1.88,0.98-2.6,3.31-1.62,5.19l55.36,105.72l-31.59,45.78c-1.05,0.57-1.82,1.61-1.99,2.88
			l-24.22,35.1l-76.52-104.12c-1.26-1.71-3.66-2.08-5.37-0.82c-1.71,1.26-2.08,3.66-0.82,5.37l78.09,106.26l-28.39,41.14
			c-0.1,0.13-0.2,0.27-0.28,0.41l-28.83,41.78l-59.27-74.79c-1.32-1.66-3.73-1.94-5.39-0.62c-1.66,1.32-1.94,3.73-0.62,5.39
			l60.72,76.62l-76.3,110.56c-1.2,1.75-0.77,4.14,0.98,5.34c1.75,1.2,4.14,0.77,5.34-0.98l51.31-74.34l74.24,14.45
			c2.08,0.41,4.1-0.95,4.51-3.03c0.41-2.08-0.95-4.1-3.03-4.51l-70.96-13.81l52.26-75.73l128.29,31.55
			c2.06,0.51,4.15-0.75,4.66-2.82c0.51-2.06-0.75-4.15-2.82-4.66l-125.45-30.85l26.86-38.92l0.11-0.16l27.04-39.18l134.11,15.32
			c2.11,0.24,4.02-1.28,4.26-3.39c0.24-2.11-1.28-4.02-3.39-4.26l-130.02-14.85l30.06-43.55l0.15-0.22l32.14-46.56l99.91-0.22
			c2.12,0,3.84-1.72,3.83-3.84c0-2.12-1.73-3.84-3.84-3.83l-94.59,0.21L1765.44,509.59z" clip-rule="evenodd" class="colorffffff svgShape"></path><path fill="#c4ebe6" fill-rule="evenodd" d="M1454.48 1543.08c167.6 0 303.46 19.31 303.46 43.14 0 23.82-135.87 43.14-303.46 43.14-167.6 0-303.47-19.31-303.47-43.14C1151.01 1562.4 1286.88 1543.08 1454.48 1543.08zM484.01 1552.93c148.48 0 268.85 17.11 268.85 38.22 0 21.11-120.37 38.22-268.85 38.22s-268.85-17.11-268.85-38.22C215.17 1570.04 335.53 1552.93 484.01 1552.93z" clip-rule="evenodd" class="colorc4d1eb svgShape"></path><path fill="#e0f5f2" fill-rule="evenodd" d="M1518.26,596.51c-26.09,384.38-118.61,810.33-542.18,920.54l-10.52,2.74l-10.52-2.74
		c-423.57-110.21-516.09-536.17-542.18-920.54l-2.51-37.03l36.48-6.84c176.64-33.11,338.61-99.31,501.31-174l17.42-8l17.42,8
		c162.7,74.69,324.67,140.89,501.31,174l36.48,6.84L1518.26,596.51z" clip-rule="evenodd" class="colore0e8f5 svgShape"></path><path fill="#ad59d4" fill-rule="evenodd" d="M1476.6,592.28c-174.55-32.72-330.25-94.1-511.03-177.09c-180.78,82.99-336.48,144.37-511.03,177.09
		c35.63,524.99,191.32,799.78,511.03,882.97C1285.28,1392.05,1440.97,1117.27,1476.6,592.28z" clip-rule="evenodd" class="color8fa3cf svgShape"></path><path fill="#c4ebe6" fill-rule="evenodd" d="M1395.43,652.99c-149.47-35-289.49-90.7-429.86-154.09c-140.36,63.39-280.39,119.09-429.86,154.09
		c21.01,233.51,77.92,522.21,269.77,665.02c48.45,36.08,102.53,61.24,160.08,78.18c57.56-16.94,111.63-42.11,160.08-78.18
		C1317.51,1175.2,1374.42,886.5,1395.43,652.99z" clip-rule="evenodd" class="colorc4d1eb svgShape"></path><path fill="#b0e4de" fill-rule="evenodd" d="M1395.43,652.99c-149.47-35-289.49-90.7-429.86-154.09v897.29c57.56-16.95,111.63-42.11,160.08-78.19
		C1317.51,1175.2,1374.41,886.5,1395.43,652.99z" clip-rule="evenodd" class="colorb0c2e4 svgShape"></path><g fill="#000000" class="color000000 svgShape"><path fill="#f9c679" fill-rule="evenodd" d="M1518.63 1145.84c12.54-3.53 12.85-1.24 14.44-1.76 1.88-.59 17.22-20.9 17.22-20.9s45.64-59.57 47.98-62.9l15-77.53 42.65.07c0 0-18.68 83.73-20.46 87.85-1.79 4.18-73.89 76.75-80 83.34 0 0-4.02 10.84-6.78 17.5-2.76 6.66-8.58 11.56-9.67 13.26-.16.26-4.15 5.81-11.08 11.17-5.96 4.64-2.76-2.61-2.76-2.61s9.27-10.65 8.2-11.3c-.82-.52-5.5 5.62-12.04 10.78-1.69 1.37-3.35 2.68-4.89 3.85-4.04 3.14-7.43 1.44-3.79-2.55 1.28-1.44 3.47-3.72 5.29-5.09 1.97-1.5 3.22-3.53 4.65-5.03 2.84-3.07 4.96-5.23 4.75-5.29-.27-.07-.18-1.11-2.02.26-2.21 1.63-6 6.2-9.46 8.29-1.97 1.24-5.88 4.05-5.88 4.05s-6.85 3.01-7.21 2.68c-1.94-1.89 1.99-5.29 4.92-6.6 1.33-1.76 5.56-4.57 5.56-4.57s7.03-7.71 5.82-8.82c-.52-.46-5.46 3.72-11.05 6.99-5.18 3.01-11.02 5.23-11.89 4.25-1.49-1.63 3.84-5.68 3.84-5.68s3.91-2.55 5.12-3.53c1.43-1.11 5.41-4.9 5.41-4.9s13.16-13.65 11.94-14.56c-1.23-.98-5.25-2.29-6.4-1.76-1.14.52-2.6 2.68-3.75 3.2-1.14.59-3.22.26-4.15-1.11s3.36-6.2 3.36-6.2S1515 1146.82 1518.63 1145.84zM1585.44 1536.37l1.25 26.85c.52 3.46 2.63 11.89 2.6 14.96-.12 11.63-51.62-10.39-39.98-15.42 1.06-.46 6.59-3.92 6.98-7.9.59-6.07 2.07-18.35 2.07-18.35L1585.44 1536.37z" clip-rule="evenodd" class="colorf9af79 svgShape"></path><path fill="#2c0e52" fill-rule="evenodd" d="M1549.45,1562.62c0,0,12.11,3.72,18.32,4.64c6.2,0.98,14.49-6.4,18.86-4.38c4.82,2.29,4.1,24.17,4.1,24.17
			s-64.86,3.2-83.11-2.94C1500.4,1581.76,1524.54,1570.66,1549.45,1562.62z" clip-rule="evenodd" class="color0e2952 svgShape"></path><path fill="#f9c679" fill-rule="evenodd" d="M1699.37,1540.09l1.25,26.91c0.52,3.4,2.63,11.82,2.6,14.96c-0.12,11.63-51.62-10.45-39.97-15.48
			c1.05-0.46,8.24-6.53,8.63-10.45c0.59-6.14,0.41-15.81,0.41-15.81L1699.37,1540.09z" clip-rule="evenodd" class="colorf9af79 svgShape"></path><path fill="#2c0e52" fill-rule="evenodd" d="M1663.37,1566.34c0,0,12.11,3.72,18.32,4.7c6.21,0.92,14.49-6.47,18.86-4.44c4.82,2.28,4.81,22.34,4.81,22.34
			s-69.35,4.31-85.59-0.59C1612.47,1586.2,1638.47,1574.44,1663.37,1566.34z" clip-rule="evenodd" class="color0e2952 svgShape"></path><path fill="#43206f" fill-rule="evenodd" d="M1621.38,1152.24l-21.97,9.21l-48.25,219.2l0.18,164.73l36.86,1.18c0,0,18.63-143.83,18.75-155
			c0.11-11.17,81.44-194.58,81.44-194.58L1621.38,1152.24z" clip-rule="evenodd" class="color20386f svgShape"></path><path fill="#43206f" fill-rule="evenodd" d="M1638.13,1164.52c0,0,14.38,169.37,14.08,197.91c-0.29,28.54,11.13,188.37,11.13,188.37l36.96,0.13
			c0,0,3.17-48.6,7.86-120.18c0.74-11.23-0.45-33.83,0.47-45.46c6.6-83.41,18.78-161.92,13.67-193.14
			c-0.82-5.03-2.33-18.16-5.5-21.49C1692.86,1145.38,1638.13,1164.52,1638.13,1164.52z" clip-rule="evenodd" class="color20386f svgShape"></path><path fill="#9246b5" fill-rule="evenodd" d="M1594.41,1030.49l44.76-2.55c0,0,2.62-39.97,2.81-59.05c0.24-23.12,7.64-57.15,4.88-56.56
			c-7.76,1.76-21.19,8.69-27.48,17.31C1597.61,959.29,1594.41,1030.49,1594.41,1030.49z" clip-rule="evenodd" class="color466fb5 svgShape"></path><path fill="#5fe4d4" fill-rule="evenodd" d="M1701.6,912.01c0,0,25.47,3.85,32.14,8.82c7.5,5.62,15.76,18.16,15.76,18.16s-32.83,147.68-33.14,172.63
			c-0.24,19.2,6.1,66.62,6.1,66.62s-94.69,5.03-130.38-9.54c0,0,11.89-56.11,12.04-70.93c0.15-14.76,15.07-148.99,18.24-158.33
			c2.88-8.49,8.15-23.71,25.48-27.37C1665.16,908.48,1701.6,912.01,1701.6,912.01z" clip-rule="evenodd" class="color6d96ce svgShape"></path><path fill="#f9c679" fill-rule="evenodd" d="M1695.05,872.1l5.88,41.41c0,0-23.56,48.99-37.27,44.55c-11.51-3.66-3.97-47.16-3.97-47.16
			s6.54-23.32,4.77-35.07C1662.69,864.13,1695.05,872.1,1695.05,872.1z" clip-rule="evenodd" class="colorf9af79 svgShape"></path><path fill="#f2b558" fill-rule="evenodd" d="M1664.46,875.82c-1.76-11.69,30.59-3.72,30.59-3.72l0.48,3.46c-0.97,2.28-2.15,4.18-3.57,5.68
			c-7.32,7.71-18.69,12.21-28.49,12.48C1664.52,887.45,1665.18,880.65,1664.46,875.82z" clip-rule="evenodd" class="colorf27458 svgShape"></path><path fill="#f9c679" fill-rule="evenodd" d="M1700.96,813.7c0.92-0.33,6.86,47.16-5.47,60.03c-12.33,12.93-36.15,16.98-44.58,6.6
			c-9.31-11.43-8.32-62.38,10.79-75.64C1680.81,791.5,1700.96,813.7,1700.96,813.7z" clip-rule="evenodd" class="colorf9af79 svgShape"></path><path fill="#43206f" fill-rule="evenodd" d="M1669.19,779.22c14.63,3.07,24.04,12.08,27.49,15.94c6.65,0.85,15.66,4.57,24.85,20.05
			c11.3,19.01,2.6,39.84-10.88,50.03c-13.49,10.12-13.44,22.08-13.44,22.08l-2.03-6.27c-1.51-4.64-2.1-9.6-1.52-14.44
			c0.34-2.94,1-6.14,2.25-8.69c3.29-6.86-6.79-11.49-9.58-17.24c-2.14-4.44-2.14-14.5-5.51-21.75l-4.06-5.62
			c0,0-9.42-7.45-18.73-5.49C1648.72,809.85,1650.42,775.17,1669.19,779.22z" clip-rule="evenodd" class="color20386f svgShape"></path><path fill="#f9c679" fill-rule="evenodd" d="M1686.86 849.37c-.16 5.75 2.44 10.52 5.8 10.65 3.36.06 6.22-4.57 6.37-10.32.16-5.81-2.44-10.58-5.8-10.65C1689.87 838.98 1687.02 843.55 1686.86 849.37zM1740.05 931.47c-8.58-.33-16.75 56.24-11.37 61.85 5.38 5.62 5.71 75.38 5.71 75.38l-80.93-2.87-.01.07c-1.57-1.11-18.41-12.67-20.81-15.15-2.51-2.68-14.89-1.5-18.2 2.09-3.3 3.53 6.27 1.83 9.15 3.79 2.89 2.03-1.25 5.75-1.25 5.75s-20.54 2.74-24.5-1.5c-3.95-4.31-14.57-11.63-16.06-7.38-.78 2.22 4.67 8.88 7.74 11.69-3.84-2.94-8.45-6.07-10.04-5.55-2.91.98-1.74 4.7-.18 5.81 1.56 1.05 17.72 13.65 20.26 14.57 2.48.91 40.35 2.22 46.88 3.72 0 0 106.51 25.41 112.59 23.97 5.34-1.31 11.02-35.4 11.29-61.59C1770.57 1019.91 1766.86 932.51 1740.05 931.47z" clip-rule="evenodd" class="colorf9af79 svgShape"></path><path fill="#9246b5" fill-rule="evenodd" d="M1729.05,918.47c0,0,14.9,3.59,30.14,21.1c13.87,15.87,21.8,104.24,21.8,104.24l-48.52,7.32l-3.43-42.72
			C1708.88,977.3,1704.02,940.16,1729.05,918.47z" clip-rule="evenodd" class="color466fb5 svgShape"></path></g><g fill="#000000" class="color000000 svgShape"><path fill="#9dd9d2" fill-rule="evenodd" d="M965.57,654.2c162.01,0,293.35,131.34,293.35,293.35c0,162.01-131.34,293.35-293.35,293.35
			c-162.01,0-293.35-131.34-293.35-293.35C672.22,785.53,803.56,654.2,965.57,654.2z" clip-rule="evenodd" class="color9db2d9 svgShape"></path><path fill="#e0f5f2" fill-rule="evenodd" d="M965.57,665.01c156.04,0,282.54,126.49,282.54,282.54c0,156.04-126.49,282.53-282.54,282.53
			c-156.04,0-282.53-126.49-282.53-282.53C683.03,791.5,809.53,665.01,965.57,665.01z" clip-rule="evenodd" class="colore0e8f5 svgShape"></path><path fill="#9dd9d2" fill-rule="evenodd" d="M1100.39,764.35c1.51-2.01,1.74-3.11,3.36-4.83c10.36-11.01,28.98-0.22,39.12-0.5l0.95,8.88
			c4.78,0.11,7.56-1.5,7.33-6.55c-0.41-9.16-21.99-5.58-25.11-14.55c5.14-7.17,20.57,2.19,26.72,5.3c4.48,2.27,8.81,4.45,12.88,6.72
			c4.35,2.43,9.36,6.59,11.43,7.78c1.19-4.79,1.68-13.5,3.95-16.32c0.57-0.04,1.14-0.03,1.7,0.05
			c-15.51-17.07-33.02-32.31-52.14-45.33c-1.17,0.62-2.63,1-4.23,1.12c-6.24,0.46-8.16-3.46-15.77-1.06
			c-3.83,1.2-9.13,4.16-13.45,3.51c1.18-0.88,6.86-6.25,7.57-7.52c6.55-11.69-13.67-3.01-10.04-16.96
			c-10.14-4.98-20.6-9.38-31.36-13.18c-0.47,1.28-0.38,3.15,0.35,5.95c1.53,5.89,2.72,10.11-1.58,13.82
			c-3.53,3.05-8.71,3.6-3.85,10.53c3.59,5.13,7.68,3.7,14.85,3.52c1.44,4.03,1.25,7.61,5.03,8.87c4.49,1.5,7.12,1.54,8.99,5.4
			c-1.29,3.32-3.61,4.37-5,8.81c-4.36,13.97-0.97,13.74-18.31,23.85c3.44,3.35,14.51,0.45,17.04,8.63c2.48,8-7.32,9.19-13.35,11.63
			c-9.53,3.86-6.89,8.4-2.34,15.31c2.84,4.32,6.63,12.26,13.53,11.66c2.9-2.82,0.98-4.25,6.3-5.61c1.44,3.92,4.47,6.19,3.59,12.28
			c-0.58,4.04-3.18,7.81-4.48,11.43c-1.44,4-1.85,8.54-3.19,12.62c-3.57,10.87-10.37,20.57-4.78,38.34
			c1.29,4.09,2.89,7.31,5.2,10.58c2.34,3.31,4.6,4.49,6.05,9.74c2.61,9.42,5.31,11.5,15.36,16.3c13.45,6.43,17.1,23.21,27.67,18.8
			c9.27-3.87,1.42-12.71,20.08-11.56c7.87,0.49,7.32-1.2,8.57-7.95c0.94-5.06,4.58-6.17,9.7-4.67c5.13,1.5,9.89,0.24,14.21,1.61
			c8.21,2.6,1.94,13.48,7,23.33c2.72,5.29,9.29,16.17,12.46,19.16c4.94,4.66,12.5,9.9,6.92,21.07c-3.7,7.4-8.68,14.33-3.63,23.67
			c13.19,24.41,22.49,16.59,21.93,41.36c-0.2,9.06,4.66,19.56,10.06,22.31c1.35-0.94,2-1.72,3.16-2.6
			c11.67-31.64,18.05-65.84,18.05-101.53c0-66.88-22.39-128.51-60.07-177.85l-23.61,4.93c0.42,3.14,2.21,3.94,4.71,5.15
			c-5.05,4.2-8.18,11.38-18.97,4.56c-13.45-8.51-10.44,0.73-20.49,0.52c0.75-3.12,0.99-5.83,0.25-9.18c-3.38-2-9.86-1.06-13.3-0.02
			c-7.45,2.25-22.61,10.57-25.74,17.8l-8.8,0.78c2.2-3.41,6.78-4.97,5.33-12.27c-1.05-5.29-4-8.34-3.16-14.91
			C1098.13,765.87,1098.6,766.73,1100.39,764.35L1100.39,764.35z M678.53,886.83c5.6-26.59,14.8-51.86,27.07-75.26
			c5.75,0.08,12.32,0.95,18.86-0.93c9.08-2.61,25.31-10.31,28.83-15.76c-9.47,4-13.08,7.8-26.55,5.84c-1.3-1.36-2.24-3.48-3.59-5.14
			c-2.58,2.8-3,7.57-7.04,8.19c-2.16,0.33-4.04-0.36-5.35-1.65c1.86-3.25,3.79-6.45,5.76-9.62c6.01-1.16,13.82-0.89,18.27-2.47
			c20.75-7.38,12.12-13.59,15.92-15.78c6.52-1.95,7.01,5.09,7.59,10.73c8.19,0.6,19.39-5.09,25.9,0.14
			c-0.18-9.77-6.22-25.62,7.84-24.44c-0.58-3.41,0.2-4.08,2.32-6.54c1.46-1.69,0.35-0.11,1.24-1.67l-6.05-0.01
			c-0.46-2.65-1.47-4.31,1.22-5.08c6.32-1.81,10.91,3.84,17.16,4.28c8.06,0.57,13.68-5.5,21.24-6.89
			c10.56-1.94,13.51,4.28,21.23,6.85c7.21,2.4,20.2-3.37,23.72,2.34c-5.59,5.69-17.11-1.26-14.14,7.61l6.61,1.13
			c-1.17,5.66-2.24,6.49-1.73,13.2c-10.62,1.23-17.95-2.69-28.23-2.46c1.46-4.54,3.78-4.73,3.61-10.52l-9.01,2.74
			c-0.12-0.08-0.26-0.23-0.32-0.29c-3.87-3.63-9.47-4.23-14.38-1.52c2.53,6.06,3.13,5.97,3.25,13.91c2.23,1.71,5.86,2.1,3.8,6.19
			c-1.32,2.63-3.91,3.6-6.09,5.38c-2.82,2.29-2.04,4.55-6.86,3.95c-2.9-0.36-6.02-2.09-6.97-3.78c-1.26,2.49-1.73,4.39-3.11,6.87
			c-3.72,6.73-8.76,12.85-5.34,20.67c5.64,0.65,25.32-2.33,32.26-3.06c23.98-2.53,8.08-13.88,7.23-16.3
			c-2.62-7.51,3.9-20.39,16.08-18.64c5.74,0.83,7.68,5.83,11.45,6.49c8.06,1.41,7.45-3.5,9.22-7.98c6.01-0.81,6.16,4.03,9.51,7.37
			c5.02,5.02,18.16,4.78,24.42,10.36c4.81,4.29,3.93,4.39,6.12,10.95c3.72,0.25,5.62-0.72,8.49,1.6c1.93,1.56,3.59,3.42,2.82,7.24
			c-3.08,2.01-10.94,2.45-15.69,1.86c-5.98-0.74-6.21-4.94-7.38-10.18c-4.02,0.51-7.17,2.32-10.5,3.18
			c-5.38,1.38-8.04-2.57-10.32,1.63c-2.85,5.25-5.23,12.26-8.14,17.26c5.2,0.12,7.29-5.32,15.09-4.92l1.05,5.76l10.76-0.73
			c-0.53,3.97-3.15,7.2-5.29,8.75c-5,3.64-5.53,1.54-8.69-1.3c-15.16-0.6-9.27,10.92-12.77,21.52c-1.83,5.53-6.24,4.88-6.82,10.31
			c-1,9.34-2.6,3.85-6.96,9.23c1.42,4.85,5.54,4.02,2.16,13.09c-1.6,4.28-4.24,7.81-4.19,13.03c0.07,8.66,5.72,17.35,6.79,27.43
			c-3.81-0.99-6.01-3.23-7.79-5.41c-8.21-10.07-11.95-9-23.18-3.37l-0.52,3.86c-18.29,2.32-26.74,11.52-25.9,31.26
			c0.36,8.54,5.23,14.25,12.35,16.23c8.03,2.24,17.6,0.65,15.81-10.97c11.99-1.76,7.27,3.97,11.97,11.65
			c3.81,6.21,9.04,6.73,17.47,4.13c0.76,5.61,0.18,5.33,3.95,7.97c2.69,1.89,3.52,2.93,7.2,4.76c13.04,6.49,7.99-2.32,17.53-0.92
			c2.89,2.67,1.57,4.62,7.68,3.81c-0.07-17.55-2.78-17.19,28.19-18.74c26.73-1.34,19.2-0.84,30.11,5.69
			c2.94,1.76,5.18,2.1,9.08,2.26c16.16,0.63,23.22,9,37.29,10.31c10.77,1.01,34.74-4.86,41.83,2.91c2.52,2.77-1.05,14.49-0.25,20.54
			c0.79,5.91,3.94,12.1,6.16,17.18c12.63,28.73-11.18,20.85-16.8,47.59c-1.54,7.33-4.04,10.68-6.54,16.89
			c-4.48,11.14,7.33,34.9-6.04,36.88c-1.95-1.76-3.94-8.99-9.57-5.74c-5.63,3.25-0.29,13.3,2.78,17.03
			c5.24,6.38,5.66,8.85-1.07,15.04l2.23,0.84c0.53,0.69,0.72,1.99,0.43,3.02c-0.92,3.25-8.75,1.6-14.92,6.43
			c-0.43,11.37,1.78,20.01,4.76,30.01c1.13,3.77,2.11,10.26,4.78,12.26c4.3,3.21,12.34-2.38,12.77,5.07
			c-5.11,2.37-17.36,4.67-24.02,1.79c-4.26-1.84-9.24-9.73-12.02-15.18l-16.44-37.94c-2.43-8.61,1.08-16.58,0.4-25.64
			c-0.62-8.28-2.78-14.48-6.02-21.19c-5.58-11.57-11.53-26.43-17.02-37.29c-7.92,0.24-13.19,0.46-17.59-3.96
			c-1.5-1.51-3.28-4.09-4.85-5.9c-3.44-3.95-6.23-7.73-10.48-10.98c-2.2-1.68-4.32-2.6-6.59-4.15
			c-15.49-10.58-4.28-36.8-12.21-51.02c-5.32-9.54-8.83-4.52-13.23-5.74c-2.15-0.6-4.97-2.53-7.18-3.56
			c-7.98-3.68-16.05-3.8-22.87-8.76c-6.64-4.83-7.62-3.38-16.65-4.04c-13.67-1-28.13,3.62-40.21,1.46
			c-13.11-2.35-18.81-11.32-25.31-17.01c-3.16-2.76-22.21-15.39-26.33-15.12c-3.99,11.46,13.3,17.64,16.46,26.37
			c-16.1-0.08-14.38-11.98-20.63-23.12c-6.14-10.95-17.46-9.18-26.72-16.26c-7.79-5.96-10.52-20.61-12.95-30.08
			c-3.17-12.35-9.29-19.31-12.82-29.6l-0.61,1.53c-0.82,2.8-1.06,6.41-2.28,8.91C681.64,892.81,679.33,890.3,678.53,886.83
			L678.53,886.83z M720.93,785.65c3.24-0.37,4.22-2.46,7.15-3.57c2.48-0.94,8.21,0.54,12.95-0.4c8.17-1.62,3.61-2.66,7.4-7.06
			c2.54-2.95,7.42-2.13,8.03-6.26c-5.49-4.56-6.94,1.32-9.23,3.78c-5.53,5.94-7.05-2.98-11.2,0.73c-1.75,1.56-0.64,2.85-4.49,2.7
			c-1.92-0.08-2.93-0.1-3.66,0.07C725.49,778.93,723.18,782.26,720.93,785.65L720.93,785.65z M741.08,769.97
			c7,2.64,10.19-15.7,0.54-2.72C739.67,769.88,741.08,769.97,741.08,769.97L741.08,769.97z M761.66,752.49
			c1.41,2.46,2.66,2.76,5.66,1.84c4.1-1.25,3.21-1.58,6.22,0.48l0.27-3.78C767.78,750.22,763.19,747.37,761.66,752.49L761.66,752.49
			z M893.06,950.55c3.49,1.86,9.19,1.33,12.51-1.09c4.2-3.07-1.46-2.19,6.92-7.69c0.13-0.09,0.3-0.21,0.42-0.29l0.85-0.63
			c-5.2,0.17-9.87-0.8-14.99,0.59C893.3,942.93,891.56,944.4,893.06,950.55L893.06,950.55z M850.83,948.77
			c6.77-0.18,5.68-1.51,9.11-3.85c7.83-5.36,15.43,3.6,20.55,3.05c3.41-0.37,9.14-0.62,8.63-4.33c-0.59-4.28-4.62-2.77-8.56-2.52
			c-5.17,0.33-5.49-2.6-11.96-1.58C862.34,940.53,851.7,942.94,850.83,948.77L850.83,948.77z M985.48,722.69
			c1.44-1.53,1.48-3.36,3.23-4.9c3.61-3.19,14.19-1.66,14.35-11.49c-2.96-0.22-4.01,0.27-6.86-0.6c-6.36-1.95-6.92,1.03-10.34,3.54
			c-2.78,2.03-3.53,0.64-6.76,1.51c-3.46,0.93-8.95,4.42-4.79,7.37C975.86,719.22,983.11,721.97,985.48,722.69L985.48,722.69z
			 M1035.7,740.64c1.45-2.82,6.85-8.37,6.59-10.83c-0.39-3.71-2.81-0.1-0.4-6.85c1.02-2.86,1.13-4,1.65-7
			c8.4,1.73,15.16,16.1,31.14,18.08c-0.79,5.08,0.49,6.33-3.17,9.05c-2.15,1.6-5.75,3.07-8.54,3.4c-8.07,0.95-7.58-7.81-11.09-11.56
			c-7.84,0.04-1.96,6.9-6.46,9.29C1042.2,745.94,1037.47,742.24,1035.7,740.64L1035.7,740.64z M797.53,730.81
			c-6.32,0.82-13.31,2.28-17.69,4.86c0.3,5.81,6.04,5.79,11.45,4.71c7.47-1.5,8.44-0.24,9.24,6.79c10.32,0.62,20.22,2,20.3-7.11
			l-6.65,0.43c-1.33-2.16-0.02-0.83-1.65-2.11c3.88-9.03,11.13-8.01,16.5-17.22c2.18-3.75,2.43-8.71,4.94-12.12
			c2.92-3.98,6.74-2.34,8.88-8.75c-12.77,0.87-14.42,8.06-25.48,12.38C806.74,716.84,796.5,717.2,797.53,730.81L797.53,730.81z
			 M843.27,722.87c5.4,2.9,12.57-6.04,26.07,5.45c15.28,13.01,20.79,4.47,24.05,4.36c1.45,7.41,2.8,12.08,6.84,15.94
			c1.86,1.77,10.27,8.16,13.73,9.67c7.06,3.09,13.32,0.74,14.82-5.54c1.58-6.64-2.02-15.35,1.17-21.03
			c1.4-2.49,8.51-4.37,14.04-8.71c4.52-3.54,8.08-6.96,12.96-10.41c3.45-2.44,12.8-6.27,14.14-9.29c1.88-4.2-6.06-11.21-3.69-18.21
			c2.95-1.49,7.28-0.11,11-0.96c4.27-0.97,3.51-2.92,5.21-6.86c2.88-6.65,12.81-4.62,8.97-13.41c-5.88-1.86-15.01,7.74-18.54,10.18
			c-5.5,3.78-5.43-0.05-17.22,5.53c-0.74,0.35-2.03,0.93-2.72,1.08c-2.36,0.49-2.6-0.06-2.99-0.22c-0.86-4.1,0.87-6.71,2.06-10.19
			c1.56-4.54,3.84-7.33,3.56-9.87c-0.83-7.48-12.11,1.43-18.66,1.64c-4.31,0.14-8-1.57-11.7,0.41c-4.63,2.48-2.07,6.95-6.09,7.8
			c-7.04,1.48-12.94-9.69-19.42,2.08c-4.18,7.6-8.06,7.36-18.45,8.6c-3.96,0.47-7.13,1.76-9.86,3.53l-22.57,18.55
			c-3.01,3.29-7.51,11.5-7.66,16.66L843.27,722.87L843.27,722.87z M798.29,765.86l-5.94-4.1l1.26,8.7
			c10.13,0.18,11.22,4.01,14.25,8.59C817.93,774.36,800.65,767.2,798.29,765.86z" clip-rule="evenodd" class="color9db2d9 svgShape"></path></g><g fill="#000000" class="color000000 svgShape"><path fill="#facd88" fill-rule="evenodd" d="M644.59,1050.49c2.04-0.69,8.88-2.29,16.86-4.97c8.19,3.33,18.98,2.35,32.36-2.96
			c5.1-8.08,5.56-16.31,1.4-24.67c-10.56,5.03-19.82,6.97-27.8,5.81c9.91-6.53,11.45-10.41,4.61-11.63
			c-0.66,1.54-2.08,2.81-4.26,3.81c-6.89,1.11-11.83,5.77-14.79,13.99c-3.68,0.99-7.48,1.9-9.43,2.51
			C645.52,1037.13,645.91,1042.83,644.59,1050.49z" clip-rule="evenodd" class="colorfab688 svgShape"></path><path fill="#43206f" fill-rule="evenodd" d="M456.88 843.55c-25.5-3.31-44.77-1.56-53.01 10.68 1.04 7.46 3.29 17.17 6.74 29.12-1.49 2.85-3.69 4.33-6.59 4.45-3.63-7.08-6.67-11.31-9.12-12.68-12.15 5.45-9.86 13.84 6.85 25.2.98 3.91 1.93 7.15 2.83 9.72-15.04-3.37-27.62-16.82-29.39-22.64-17.54-34.58 2.02-49.18 12.49-54.5 4.62-34.24 54.34-3.97 79.25-20.48C476.84 826.09 464.6 843.24 456.88 843.55zM378.14 998.71c16.03 19.24 29.48 33.15 40.34 41.72-9.91-35.18-20.52-73.07-31.83-113.65-3.99 3.36-7.19 6.7-9.6 10-.89 16.46-1.11 29.01-.65 37.67 5.87 4.64 10.59 7.55 14.17 8.73C385.16 988.07 381.02 993.25 378.14 998.71zM478.53 989.35c-7.79 17.27-16.55 32.94-26.27 47.04 2.86-42.99 4.32-79.21 4.36-108.67 4.36 2.44 7.61 4.78 10.01 7.33.46.54.91 1.08 1.33 1.62 4.6 16.45 7.59 29.32 8.94 38.63-4.3 1.97-7.94 3.67-10.91 5.11C470.03 983.12 474.21 986.1 478.53 989.35z" clip-rule="evenodd" class="color20386f svgShape"></path><path fill="#8526fe" fill-rule="evenodd" d="M377.06 936.78c-24.72 14.33-44.93 27.03-60.63 38.1-10.6 40.39-16.34 84.02-17.23 130.89 1.45 53.87 6.81 92.85 13.17 113.86 9.27.4 19.14-.51 22.8-4.03 2.01-47.38 2.52-85.83 1.53-115.35 6.78-15.57 12.74-27.2 17.88-34.9 2.24 16.04 5.33 29.94 6.07 44.27-2.62 29.35-3.9 64.4-11.74 105.14 9.78 9.37 31.39 14.96 64.85 16.77 6.27-77.15 7.85-140.84 4.74-191.08-10.87-8.57-24.32-22.48-40.34-41.72 2.88-5.46 7.02-10.64 12.43-15.54-3.58-1.17-8.3-4.08-14.17-8.73C375.95 965.79 376.16 953.23 377.06 936.78zM452.27 1036.38c9.58 102.31 13.59 168.82 19.24 191.88 16.04-1.76 28.39-9.28 35.86-16.71-2.01-58.2-8.8-95.38-11.67-129.4 5.18-55.87 15.79-107.23 4.35-131.1-12.28-8.27-22.97-13.06-32.08-14.38 4.6 16.45 7.59 29.32 8.94 38.63-4.3 1.97-7.94 3.67-10.91 5.11 4.04 2.71 8.22 5.69 12.54 8.94C470.74 1006.61 461.99 1022.29 452.27 1036.38z" clip-rule="evenodd" class="color223f81 svgShape"></path><path fill="#8526fe" fill-rule="evenodd" d="M514.54,967.67c-4.58-5.62-9.41-11.16-14.5-16.62c7.92,16.54,5.26,46.3,1.15,81.6
			c7.99,9.91,25.19,27.6,39.91,38.61c30.22,1.74,62.59-5.27,112.49-20.37c2.02-5.19,1.37-13.81-0.65-21
			c-48.6,2.81-78.3,2.33-97.79,7.35C542.54,1005.78,526.53,987.13,514.54,967.67z" clip-rule="evenodd" class="color223f81 svgShape"></path><path fill="#c4ebe6" fill-rule="evenodd" d="M418.28 952.91c-8.8-11.54-16.11-22.07-24.13-28.65.87-3.52 1.44-6.15 2.4-8.81.46-1.26 3.18-2.74 6.81-3.41-.33.58-1.06 3.03-.46 3.41.15.1.28.23.42.34 8.52 6.88 17.5 12.82 28.53 18.05C426.59 939.97 422.93 946.42 418.28 952.91zM452.83 927.34c.23 7.5.04 13.66-.55 18.47-1.81-5.52-5.15-10.03-10.01-13.52-.74-6.33-1.25-12.26-1.51-17.8C446.06 916.48 450.08 920.77 452.83 927.34z" clip-rule="evenodd" class="colorc4d1eb svgShape"></path><path fill="#ffffff" fill-rule="evenodd" d="M463.36,1161.98c-2.9-32.29-6.3-74.48-11.09-125.6c2.81-42.24,4.27-77.95,4.36-107.12
			c-1.17-0.44-2.42-0.83-3.77-1.19c0.19,7.18,0.01,13.09-0.57,17.75c-1.81-5.52-5.15-10.03-10.01-13.52
			c-1.51,2.91-1.97,6.08-4.4,9.64c-2.61-2.71-5.08-5.31-6.7-7.29c-4.91,5.89-8.44,12.06-12.89,18.26
			c-8.7-11.41-15.95-21.84-23.88-28.43c-2.7,1.39-5.13,2.72-7.28,3.99c11.13,39.95,21.59,77.27,31.36,111.96
			c2.15,34.59,2.06,75.56-0.24,122.9c3.92,0.6,7.93,0.99,12.04,1.18v-0.4c0-0.94,0.78-1.73,1.74-1.75l16.9-0.48
			c0.96-0.03,1.74,0.72,1.74,1.65v0.31C454.82,1163.4,459.05,1162.78,463.36,1161.98z" clip-rule="evenodd" class="colorffffff svgShape"></path><path fill="#5fe4d4" fill-rule="evenodd" d="M448.28,950.5c-2.99-4.82-6.46-7.68-10.41-8.57c-2.94,1.29-6.1,4.28-9.47,8.97c2.63,4.54,5.42,7.71,8.36,9.5
			c-5.54,34.87-8.1,83.41-7.68,145.63c4.2,9.27,8.31,15.96,12.34,20.08c4.86-7.18,7.88-14.58,9.05-22.22
			c-3.84-65.31-6.13-112.96-6.86-142.96C446.4,957.3,447.95,953.82,448.28,950.5z" clip-rule="evenodd" class="color6d96ce svgShape"></path><path fill="#9246b5" fill-rule="evenodd" d="M428.41,938.16c-1.94,2.6-3.7,5.25-5.48,7.93c1.62,1.08,3.7,2.34,6.24,3.78c2.25-2.99,4.41-5.21,6.46-6.65
			C433.16,941.39,430.76,939.71,428.41,938.16L428.41,938.16z M444.39,933.97c-0.92,3.22-2.18,6.19-3.8,8.93
			c2.24,1.09,4.3,2.9,6.19,5.41c1.07-1.68,1.96-4.52,2.66-8.53C448.08,937.63,446.39,935.69,444.39,933.97z" clip-rule="evenodd" class="color466fb5 svgShape"></path><path fill="#8526fe" fill-rule="evenodd" d="M502.36,1409.36c0.22-52.35-1.54-113.98-5.29-184.88c-7.03,4.21-16.05,7.43-27.6,9.91
			c-2.78-7.33-5.32-24.73-9.05-56.54c-3.2,0.86-6.45,1.55-9.74,2.07v1.8c0,0.94-0.78,1.73-1.74,1.75l-16.9,0.48
			c-0.96,0.03-1.74-0.72-1.74-1.65v-1.28c-3.06-0.14-6.16-0.41-9.29-0.8c-1.75,26.75-2.43,44.65-3.81,57.74
			c-27.76-3.46-44.44-6.47-57.85-12.08c-6.86,52.74-10.66,109.62-11.4,170.63c-11.36,24.37-14.47,83.89-9.32,178.57
			c9.68,2.15,20.65,2.15,32.91,0c9.67-42.59,18.08-98.63,25.23-168.12c10.06-33.27,20.48-80.03,31.26-140.28
			c2.17,40.87,8.03,87.09,17.55,138.68c-3.21,38.1,2.36,94.05,16.73,167.85c7.54,0.72,19.43-0.35,35.65-3.21
			C496.31,1509.96,497.78,1456.42,502.36,1409.36z" clip-rule="evenodd" class="color223f81 svgShape"></path><path fill="#2c0e52" fill-rule="evenodd" d="M417.19,1237.95c1.37-13.08,2.06-30.98,3.81-57.74c-1.2-0.15-2.41-0.32-3.63-0.51
			c-0.95,16.54-2.16,33.8-3.63,51.8c-24.09-1.3-42.05-4.56-53.86-9.79c-0.18,1.38-0.37,2.76-0.55,4.15
			C372.75,1231.48,389.43,1234.49,417.19,1237.95L417.19,1237.95z M469.46,1234.39c11.56-2.48,20.58-5.71,27.6-9.91
			c-0.08-1.58-0.17-3.16-0.25-4.75c-6.83,4.13-15.36,7.44-25.31,8.53c-2.38-9.71-4.46-27.12-6.8-51.67
			c-1.42,0.45-2.85,0.88-4.29,1.26C464.15,1209.66,466.68,1227.06,469.46,1234.39z" clip-rule="evenodd" class="color0e2952 svgShape"></path><path fill="#43206f" fill-rule="evenodd" d="M337.57,1590.92c1.56,1.49,2.06,1.07,3.16,0.34c1.79-9.78,20.24-10.92,24.82-0.94
			c1.36-0.53,2.32-1.38,2.88-2.54c3.22,6.33,10.51,12.53,8.57,23.56c-4.9,7.05-30.14,10.55-42.1-3.88
			C331.5,1601.96,335.69,1595,337.57,1590.92L337.57,1590.92z M464.84,1580.17c-3.09,8.37-3.78,15.24-0.14,17.93
			c9.28,1.87,28.3,1.64,57.59,5.49c20.68-1.49,29.64-7.38,24.41-13.92c-17.97,1.11-34.2-3.57-48.68-14.05
			C495.33,1586.57,484.26,1588.08,464.84,1580.17z" clip-rule="evenodd" class="color20386f svgShape"></path><path fill="#facd88" fill-rule="evenodd" d="M339.46,1575.24c-0.5,5.85-0.99,11.2-1.48,16.05c1.24,1.03,1.75,0.62,2.74-0.04
			c1.79-9.78,20.24-10.92,24.82-0.94l0.03-0.01l0.03-0.01h0l0.03-0.01l0.03-0.01l0,0l0.03-0.01l0.03-0.01l0,0l0.03-0.01l0.03-0.01
			l0.01,0l0.02-0.01l0.03-0.01l0.01,0l0.02-0.01l0.03-0.01l0.01,0l0.02-0.01l0.03-0.01l0.01-0.01l0.02-0.01l0.03-0.01l0.01-0.01
			l0.01-0.01l0.03-0.01l0.02-0.01l0.01-0.01l0.03-0.01l0.02-0.01l0.01-0.01l0.03-0.01l0.02-0.01l0.01-0.01l0.03-0.01l0.02-0.01
			l0.01,0l0.03-0.02l0.02-0.01l0.01,0l0.03-0.01l0.02-0.01l0,0l0.03-0.02l0.02-0.01l0,0l0.03-0.01l0.03-0.02l0,0l0.08-0.05
			l0.03-0.02l0,0l0.02-0.01l0.03-0.02l0,0l0.02-0.01l0.03-0.02l0.01,0l0.02-0.01l0.02-0.02l0.01,0l0.02-0.01l0.02-0.02l0.01-0.01
			l0.02-0.01l0.02-0.02l0.01-0.01l0.04-0.03l0.01-0.01l0.01-0.01l0.02-0.02l0.01-0.01l0.01-0.01l0.02-0.02l0.01-0.01l0.01-0.01
			l0.02-0.02l0.01-0.01l0.03-0.03l0.02-0.01l0.01,0l0.02-0.02l0.02-0.01l0,0l0.02-0.02l0.02-0.02l0,0l0.02-0.02l0.02-0.02l0,0
			c-0.81-3.93-1.49-8.37-2.05-13.32C355.79,1577.11,347.22,1576.85,339.46,1575.24L339.46,1575.24z M494.66,1570.55
			c0.71,2.59,1.65,4.85,2.84,6.79c-0.1,0.29-0.22,0.57-0.33,0.84c-0.53,1.22-1.2,2.27-2.02,3.17l-0.01,0.01
			c-0.27,0.3-0.55,0.57-0.85,0.84l-0.02,0.01c-0.09,0.08-0.19,0.16-0.28,0.24l-0.04,0.04c-1.04,0.83-2.25,1.46-3.62,1.91l-0.03,0.01
			c-0.12,0.04-0.25,0.08-0.37,0.11l-0.07,0.02c-0.13,0.04-0.26,0.07-0.39,0.1l-0.04,0.01c-0.14,0.03-0.28,0.07-0.42,0.1l-0.03,0.01
			c-0.14,0.03-0.28,0.06-0.42,0.09l-0.07,0.01l-0.41,0.07l-0.04,0.01c-1.4,0.22-2.93,0.28-4.6,0.19l-0.07,0l-0.5-0.03l-0.08-0.01
			l-0.5-0.04l-0.11-0.01l-0.5-0.05l-0.09-0.01l-0.55-0.07l-0.01,0l-0.57-0.08l-0.13-0.02c-1.38-0.21-2.83-0.5-4.37-0.88l-0.17-0.04
			l-0.6-0.15l-0.08-0.02l-0.59-0.16l-0.18-0.05l-0.54-0.15l-0.19-0.06l-0.54-0.16l-0.23-0.07l-0.55-0.17l-0.16-0.05l-0.61-0.19
			l-0.16-0.05l-0.61-0.2l-0.14-0.05l-0.64-0.22l-0.16-0.06l-0.64-0.22l-0.79-0.29c-0.5-0.18-1.01-0.37-1.53-0.57l-0.12-0.05
			l-0.8-0.31c0.03-2.35-0.09-4.76-0.36-7.23C472.53,1573.58,482.22,1572.63,494.66,1570.55z" clip-rule="evenodd" class="colorfab688 svgShape"></path><path fill="#2c0e52" fill-rule="evenodd" d="M505.04 976.2c.62 15.63-1.34 35.01-3.84 56.45 7.99 9.91 25.19 27.6 39.91 38.61 30.22 1.74 62.59-5.27 112.49-20.37-36.27 8.2-73.35 13.07-111.25 14.59-7.67-5.52-19.46-17.17-35.38-34.94C507.48 1016.96 506.83 998.85 505.04 976.2zM364.56 1108.37c-1.75-21.78-3.39-40.52-4.93-56.22-1.1 4.47-2.79 8.86-5.06 13.18 2.24 16.03 5.33 29.94 6.07 44.27-2.62 29.35-3.9 64.4-11.74 105.14.89.86 1.88 1.68 2.97 2.47C358.26 1192.11 362.49 1155.83 364.56 1108.37z" clip-rule="evenodd" class="color0e2952 svgShape"></path><path fill="#9c8057" fill-rule="evenodd" d="M417.37,1179.7c16.83,2.65,32.61,1.61,47.33-3.11c-0.44-4.62-0.89-9.49-1.35-14.61
			c-16.23,3.02-31.26,3.47-45.11,1.35C417.98,1168.7,417.69,1174.16,417.37,1179.7z" clip-rule="evenodd" class="color9c7357 svgShape"></path><path fill="#ffffff" fill-rule="evenodd" d="M432.03,1162.35l16.9-0.48c0.96-0.03,1.74,0.73,1.74,1.7v18.12c0,0.96-0.78,1.77-1.74,1.79l-16.9,0.48
			c-0.96,0.03-1.74-0.73-1.74-1.69v-18.12C430.29,1163.19,431.07,1162.38,432.03,1162.35z" clip-rule="evenodd" class="colorffffff svgShape"></path><polygon fill="#9c8057" fill-rule="evenodd" points="433.64 1165.59 433.64 1180.63 447.32 1180.25 447.32 1165.2" clip-rule="evenodd" class="color9c7357 svgShape"></polygon><path fill="#facd88" fill-rule="evenodd" d="M383.2,927.92c0.64,0.05,1.33,0.07,2.05,0.06l-0.61,0.55L383.2,927.92L383.2,927.92z M386.98,927.94
			c0.4-0.02,0.79-0.05,1.19-0.08c-0.35,0.21-0.7,0.41-1.04,0.61L386.98,927.94L386.98,927.94z M402.48,915.1
			c8.25,6.75,16.89,12.6,27.37,17.76c0.66,0.32,1.33,0.65,2.01,0.97c-0.23,0.27-0.46,0.54-0.68,0.81c1.42,1.73,3.48,3.93,5.72,6.28
			c0.74-0.21,1.42-0.45,2.05-0.75c1.54-2.85,2.07-5.45,3.33-7.88c-0.17-1.41-0.32-2.8-0.46-4.17c-0.15-1.65-0.68-7.56-0.94-9.17
			c0.84-0.05,1.66-0.12,2.44-0.21c0.98-0.13,2.12-0.31,3.42-0.55l0.05,0.05c10.29-1.94,14.55-7.21,12.78-15.81
			c4.15-17.75,4.74-33.15,0.23-37.3c-0.76-7.59-1.73-14.78-2.91-21.57c-25.51-3.3-44.77-1.56-53.01,10.69
			c1.04,7.46,3.29,17.17,6.74,29.12c-1.49,2.85-3.69,4.33-6.59,4.45c-3.63-7.08-6.67-11.31-9.12-12.68
			c-12.15,5.45-9.86,13.84,6.85,25.2c0.98,3.92,1.93,7.15,2.83,9.72C404.15,911.46,403.44,913.19,402.48,915.1z" clip-rule="evenodd" class="colorfab688 svgShape"></path><path fill="#d8a353" fill-rule="evenodd" d="M440.87,918.95c-4.54,0.39-9.65,0.24-15.35-0.47c5.38,3.58,10.75,6.14,16.1,7.68
			c-0.1-1.05-0.19-2.09-0.28-3.13C441.16,921.32,440.99,919.69,440.87,918.95z" clip-rule="evenodd" class="colored7d57 svgShape"></path><polygon fill="#e5c79a" fill-rule="evenodd" points="404.4 1261.68 397.48 1422.4 222.14 1403.94 242.91 1261.68" clip-rule="evenodd" class="colore5bb9a svgShape"></polygon><path fill="#9c8057" fill-rule="evenodd" d="M426.7 1402.6c-14.12 5.19-22.3 12.3-29.22 19.8l6.92-160.72 7.88-.2L426.7 1402.6zM404.4 1261.68l-20.39 64.47c-2.93 7.15-5.94 13.4-17.82 12.42l-112.52-7.13c-10.03-.63-10.27-5.71-10.36-12.58v-57.18H404.4z" clip-rule="evenodd" class="color9c7357 svgShape"></path><path fill="#ffffff" fill-rule="evenodd" d="M323.17,1327.12l-28.62-1.85c-1.57-0.1-3.15,1-3.39,2.57l-3.89,25.42c-0.24,1.57,0.75,3.01,2.3,3.17
			l29.78,3.01c1.56,0.16,3.23-0.98,3.39-2.57l2.74-26.58C325.63,1328.71,324.75,1327.23,323.17,1327.12z" clip-rule="evenodd" class="colorffffff svgShape"></path><polygon fill="#9c8057" fill-rule="evenodd" points="317.88 1333.97 316.04 1351.9 295.06 1349.78 297.68 1332.66" clip-rule="evenodd" class="color9c7357 svgShape"></polygon><path fill="#9c8057" fill-rule="evenodd" d="M370.76,1261.68c-1.76-6.24-5.86-11.43-11.4-15.5c-2.39-1.75-5.04-3.28-7.9-4.59
			c-1.7-4.39-11.86-8.09-24.28-8.56c-13.16-0.51-24.07,2.79-25.14,7.45c-0.83,0.36-1.64,0.74-2.43,1.15
			c-8.26,4.23-14.43,10.85-16.44,20.06h6.06c1.94-6.75,6.74-11.67,13.02-14.89c0.85-0.43,1.72-0.84,2.62-1.21
			c4.13,2.95,12.23,5.15,21.62,5.51c9.83,0.38,18.42-1.37,22.57-4.22c2.49,1.14,4.81,2.48,6.88,4c3.96,2.9,7,6.53,8.62,10.81H370.76
			z" clip-rule="evenodd" class="color9c7357 svgShape"></path><path fill="#facd88" fill-rule="evenodd" d="M342.03,1240.25c0.1,3.86,1.48,9.7-0.98,12.48c-6.46,7.29-22.28,7.8-29.08,3.11
			c-2.93-2.01-3.26-8.59-3.34-12.81c3.5-8.93,5.39-17.2,5.67-24.79c6.93-4.6,17.38-5.04,20.86-2.65L342.03,1240.25z" clip-rule="evenodd" class="colorfab688 svgShape"></path></g><g fill="#000000" class="color000000 svgShape"><path fill="#43206f" fill-rule="evenodd" d="M1278.72,851.52c5.29-14.35,10.67-28.71,26.81-37.88c13.06-7.39,27.39-7.29,40.11-1.13
			c36.02,17.46,19.83,49.23,43.22,82.72c10.01,14.28,24.98,21.6,32.47,36.61c13.58,27.07,1.76,71.14-34.61,95.95
			c-89.1,60.78-138.01-47.64-138.27-71C1248.26,939.42,1275.32,860.77,1278.72,851.52z" clip-rule="evenodd" class="color20386f svgShape"></path><path fill="#f9c679" fill-rule="evenodd" d="M1164.39,1125.64c10.62-3.33,10.77-1.38,12.12-1.88c1.59-0.52,15.47-18.51,15.47-18.51
			s41.19-52.66,43.31-55.57l16.65-67.52l35.51-0.9c0,0-20.05,72.92-21.76,76.55c-1.7,3.58-65.63,68.16-71.09,74.07
			c0,0-3.92,9.44-6.57,15.29c-2.66,5.85-7.75,10.16-8.76,11.7c-0.15,0.2-3.76,5.12-9.83,9.89c-5.21,4.18-2.16-2.15-2.16-2.15
			s8.29-9.47,7.44-9.99c-0.66-0.44-4.88,5-10.61,9.65c-1.47,1.2-2.92,2.34-4.27,3.39c-3.53,2.8-6.27,1.43-3.03-2.13
			c1.15-1.25,3.1-3.25,4.69-4.48c1.72-1.38,2.87-3.18,4.14-4.52c2.52-2.68,4.4-4.64,4.24-4.66c-0.22-0.03-0.09-0.95-1.69,0.28
			c-1.94,1.45-5.33,5.48-8.34,7.43c-1.7,1.11-5.1,3.59-5.1,3.59s-5.99,3.45-6.26,3.14c-1.51-1.56,2.07-5.28,4.56-6.43
			c1.21-1.62,4.87-4.13,4.87-4.13s6.26-6.82,5.32-7.74c-0.77-0.78-18.91,12.58-20.33,10.93c-1.15-1.39,4.12-5.67,4.12-5.67
			s3.4-2.32,4.46-3.2c1.24-1.01,4.76-4.36,4.76-4.36s11.68-12.12,10.71-12.93c-0.96-0.81-4.24-1.82-5.22-1.32
			c-0.99,0.5-2.32,2.38-3.28,2.84c-0.99,0.5-2.7,0.29-3.41-0.87c-0.69-1.21,3.14-5.44,3.14-5.44S1161.32,1126.59,1164.39,1125.64z" clip-rule="evenodd" class="colorf9af79 svgShape"></path><path fill="#4d2361" fill-rule="evenodd" d="M1361.67 1030.04c2.57-2.15 37.59-32.56 53.21-46.13 0 0-15.58-11.7-25.24 5.35C1379.99 1006.29 1361.67 1030.04 1361.67 1030.04zM1306.23 1032.26c0 0 3.81 13.29 22.43 36.49C1350.19 1068.45 1306.23 1032.26 1306.23 1032.26z" clip-rule="evenodd" class="color233761 svgShape"></path><path fill="#8526fe" fill-rule="evenodd" d="M1215.8,1386.89c5.93,15.16,36.3,46.38,67.6,75.86c37.38,35.2,76.08,67.94,76.08,67.94s17.7,5.4,9.98-20.63
			c0,0-42.67-78.4-60.99-101.54c-5.23-6.62-10.63-12.65-15.71-17.9c-12.67-13.15-23.17-21.36-23.17-21.36s2.4-3.86,6.3-10.53
			c19.05-32.62,73.72-132.49,56.83-176.82c-20.32-53.42-70.83-77.47-70.83-77.47s-16.04,67.58-29.55,137.06
			C1219.89,1305.44,1209.58,1370.96,1215.8,1386.89z" clip-rule="evenodd" class="color223f81 svgShape"></path><path fill="#43206f" fill-rule="evenodd" d="M1232.33 1241.51c9.29 42.79 25.42 103.32 43.56 117.23 19.05-32.62 73.72-132.49 56.83-176.82-20.32-53.42-70.83-77.47-70.83-77.47S1245.85 1172.02 1232.33 1241.51zM1283.4 1462.75c37.38 35.2 76.08 67.94 76.08 67.94s17.7 5.4 9.98-20.63c0 0-42.67-78.4-60.99-101.54-5.23-6.62-10.63-12.65-15.71-17.9C1293.37 1410.64 1292.8 1444.59 1283.4 1462.75z" clip-rule="evenodd" class="color20386f svgShape"></path><path fill="#8526fe" fill-rule="evenodd" d="M1274.62,1131.23l3.53-13.02c24.85,10.76,97.95-4.98,97.95-4.98s21.78,25.81,10.56,78.16
			c-5.47,25.57-24.83,134.74-32.75,166.72c-2.88,11.59-5.11,19.8-6,23.1l-0.02,0.03c-0.28,1-0.05,2.01,0.32,2.99
			c3.38,8.33,5.92,16.87,7.75,25.5c18.09,84.71-31.45,178.29-31.45,178.29l-8.47-4.99c0,0-3.29-112.89-12.07-163.85
			c-1.49-8.65-3.14-15.52-4.96-19.74c-5.3-12.33-9.02-31.71-11.63-54.5c-4.9-43.07-5.78-98.27-5.5-140.75
			C1281.07,1204.11,1274.62,1131.23,1274.62,1131.23z" clip-rule="evenodd" class="color223f81 svgShape"></path><path fill="#f9c679" fill-rule="evenodd" d="M1386.79,1145.05c10.1-15.3-24.57-77.78-23.34-83.68c2.42-11.61,8.13-24.47,13.72-36.02
			c5.6-11.56,11.09-21.83,13.05-28.26c-1.8-2.5-3.57-4.87-5.2-7.08c-2.48-3.41-4.65-6.55-6.03-9.48c-1.54-3.19-2.19-6.17-1.46-9.04
			c0.57-2.17,1.34-4.35,2.27-6.48c0.43-0.99,0.89-1.99,1.39-2.96c5.16-10.34,12.88-18.76,12.88-18.76
			c-12.21-7.82-31.45-11.8-31.62-11.23c-1.44-0.47-2.69-0.81-3.72-1.06c-0.7-0.19-1.43-0.36-2.15-0.52
			c-2.42-0.58-4.85-1.08-6.97-1.47c-4.37-4.39-9.62-20.7-8.04-44.71l-2.12,0.27l-35.57,4.8c0,0,0.12,11.13-0.48,21.54
			c-0.5,8.15-1.43,15.86-3.21,17.56c-2.76,0.22-4.42,0.38-4.42,0.38l-0.02,0.03l-0.05,0.07c-2.01,0.17-3.86,0.34-5.54,0.53
			c0,0-0.13,0.02-0.4,0.03c-3.14,0.36-5.73,0.75-7.83,1.13l-0.43,0.08c-6.07,1.11-8.13,2.16-8.13,2.16v0.11
			c0.3,11.21-17.78,30.82-16.53,56.16c0.06,0.96,9.27,67.39,9.21,68.37c-0.74,18.93-10.01,72.21-10.01,72.21
			C1247.58,1146.2,1381.35,1160.77,1386.79,1145.05z" clip-rule="evenodd" class="colorf9af79 svgShape"></path><path fill="#d8a353" fill-rule="evenodd" d="M1303.88,889.37c0,0,0.12,11.11-0.5,21.52c19.7,0.65,31.19-16.63,36.06-26.32L1303.88,889.37z" clip-rule="evenodd" class="colored7d57 svgShape"></path><path fill="#f9c679" fill-rule="evenodd" d="M1296.71,898.84c0,0,46.47,3.62,48.29-25.36c1.8-28.98,9.02-48.03-20.58-51.57
			c-29.6-3.53-36.06,7.17-39.02,16.69C1282.44,848.13,1284.65,897.15,1296.71,898.84z" clip-rule="evenodd" class="colorf9af79 svgShape"></path><path fill="#43206f" fill-rule="evenodd" d="M1287.77,822.56c7.72-8.26,13.03-6.02,15.93-3.2c26.27-12.43,41.4,9.24,41.4,9.24
			c1.83,20.99,16.1,33.81,16.1,33.81s-8.8,4.72-28.04-1.51c-5.88-1.9-10.94-6.46-15.16-11.9c7.1,13.75,17.28,23.97,17.28,23.97
			c-22.71-12.23-30.08-45.29-30.81-48.77c-2.99,2.36-8.93,7.56-10.98,12.89c-2.76,7.24-4.73,22.36-9.14,21.57
			C1284.36,858.67,1276.18,834.97,1287.77,822.56z" clip-rule="evenodd" class="color20386f svgShape"></path><path fill="#2c0e52" fill-rule="evenodd" d="M1269 1590.7h72.12c0 0 2.69-11.51-2.04-19.35-4.2-6.91-1.61-11.61.21-17.51-3.28 1.34-7.18 3.47-11.83 3.21-3.61-.22-9.23-2.85-12.57-4.79-3.1 3.53-14.56 19.62-18.71 22.6C1291.46 1578.25 1270.44 1577.05 1269 1590.7zM1376.19 1589l27.15-66.83c0 0-9.64-6.83-18.67-5.37-7.99 1.27-11.04-1.72-15.2-6.74.02 3.53-.45 7.91-2.45 12.1-1.54 3.26-4.48 6.17-7.53 8.53 2.11 4.22 11.06 22.19 12.26 27.16C1373.12 1563.5 1364.1 1582.52 1376.19 1589z" clip-rule="evenodd" class="color0e2952 svgShape"></path><path fill="#5fe4d4" fill-rule="evenodd" d="M1266.05,1057.52c0.02-0.55-2.83-21.44-5.35-39.98c-5.59-0.61-12.35-1.93-18.19-4.66
			c0.32-8.09,5.71-77.3,34.79-81.21c1.39-0.38,2.83-0.69,4.2-0.96c0.13-0.02,0.27-0.05,0.43-0.08c3.57-0.67,6.74-1.01,7.83-1.12
			c0.26-0.03,0.4-0.05,0.4-0.05s-8.68,24.64-8.5,27.52c0.17,2.9,28.03,3.86,46.35,4.1c18.18,0.24,28.41-30.16,28.57-30.63
			c0.72,0.16,1.44,0.33,2.15,0.52c1.03,0.26,25.33,3.96,35.34,12.31c0,0-7.72,8.4-12.88,18.75c-0.49,0.97-0.96,1.97-1.39,2.98
			c-0.93,2.11-1.7,4.29-2.27,6.46c-0.74,2.86-0.08,5.85,1.46,9.04c1.39,2.93,3.55,6.07,6.03,9.48c1.63,2.21,3.4,4.58,5.2,7.08
			c-0.67,2.21-1.77,4.89-3.12,7.89v0.02c-2.62,5.75-6.25,12.78-9.93,20.36c-5.59,11.56-11.3,24.43-13.72,36.04
			c-1.24,5.89,33.44,68.37,23.34,83.67c-1.61,4.65-14.44,6.65-31.47,6.74c-40.62,0.21-105.24-10.46-99.29-22.07
			C1256.03,1129.72,1265.31,1076.44,1266.05,1057.52z" clip-rule="evenodd" class="color6d96ce svgShape"></path><path fill="#9246b5" fill-rule="evenodd" d="M1355.32,1151.79c17.03-0.08,29.85-2.09,31.47-6.74c10.1-15.3-24.57-77.78-23.34-83.67
			c2.42-11.61,8.13-24.48,13.72-36.04c3.68-7.58,7.31-14.61,9.93-20.36v-0.02c-1.44-5.66-2.28-8.95-2.28-8.95
			s-36.9,42.91-45.37,63.16C1332.81,1075.05,1348.31,1129.15,1355.32,1151.79z" clip-rule="evenodd" class="color466fb5 svgShape"></path><path fill="#f9c679" fill-rule="evenodd" d="M1372.86,1122.69l7.29,12.65c46.94-18.59,76.83-60.47,76.83-60.47c1.65-23.78-9.48-51.11-22.81-74.71
			c-2.21-3.9-4.47-7.7-6.75-11.37c-9.43,8.06-22.6,18.61-35.14,26.27c1.96,3.23,4.28,7.1,6.81,11.23
			c10.39,17.15,23.85,39.12,25.6,40.87C1427.57,1070.06,1372.86,1122.69,1372.86,1122.69z" clip-rule="evenodd" class="colorf9af79 svgShape"></path><path fill="#5fe4d4" fill-rule="evenodd" d="M1397.15,1031.44c23.11-1.53,40.14-31.58,40.14-31.58c-18.04-31.88-43.23-56.59-43.23-56.59
			C1330.01,967.72,1386.7,1024.55,1397.15,1031.44z" clip-rule="evenodd" class="color6d96ce svgShape"></path><path fill="#f9c679" fill-rule="evenodd" d="M1372.86,1122.69c0,0-3.94-0.57-6.53-2.81c-2.57-2.25-10.77-8.61-11.23-6.64c-0.5,1.97,5.93,5.03,2.56,5.51
			c-3.38,0.48-8.68-1.78-13.98-0.96c-5.29,0.8-13.46,13.02-10.96,14.45c2.52,1.46,11.68-3.36,14.1-1.68
			c2.4,1.68,19.62,11.09,33.35,4.78C1393.91,1129.03,1372.86,1122.69,1372.86,1122.69z" clip-rule="evenodd" class="colorf9af79 svgShape"></path></g></svg>