<svg xmlns="http://www.w3.org/2000/svg" enable-background="new 0 0 3000 3000" viewBox="0 0 3000 3000" id="indian-investment-opportunity"><ellipse cx="1669.9" cy="2948" fill="#ededed" rx="984.1" ry="27"></ellipse><path fill="#585a5e" d="M2418.5 761.3L703.8 383.5C612.6 363.4 555 273.1 575.1 181.9l0 0C595.2 90.7 685.4 33.1 776.6 53.2l1714.6 377.9c91.2 20.1 148.8 110.3 128.7 201.5v0C2599.9 723.8 2509.7 781.4 2418.5 761.3zM2284.9 1398L570.3 1020.2c-91.2-20.1-148.8-110.3-128.7-201.5l0 0c20.1-91.2 110.3-148.8 201.5-128.7l1714.6 377.9c91.2 20.1 148.8 110.3 128.7 201.5v0C2466.4 1360.5 2376.1 1418.1 2284.9 1398z"></path><path fill="#585a5e" d="M1764.8,1440.3c-9.3,13.5-19,26.6-29.2,39.3c-4.6,5.8-9.3,11.6-14.1,17.1c-63.5,75-142,135.8-232,182
					c-138,70.9-302.7,107.3-481.3,107.3h-1.1c-22.2,0-44.6-0.6-67.2-1.7c49.7,80,93.8,162.6,137.5,244.2
					c10.9,20.4,21.9,40.9,32.9,61.2l330.8,611.7c41.4,76.6,17.6,170.9-52.4,219.3c-5.1,3.5-10.4,6.8-16,9.8
					c-25.6,13.8-53.1,20.4-80.3,20.4c-60.1,0-118.2-32.1-148.9-88.7l-330.8-611.8c-11.2-20.7-22.4-41.6-33.6-62.5
					c-99.7-186.3-193.9-362.4-339-480l-105.3-85.3c-65.6-53.3-81.9-146.8-38.1-219.1c23-38,58.9-63.9,99.1-75.1
					c36.2-10.2,76-8.3,112.7,7.7c341.7,148.2,637.4,136.8,823,42.4c3.5-1.8,7-3.6,10.3-5.5c5.2-2.7,10.2-5.5,15.1-8.4
					c54.5-31.7,98-71.1,128.8-115.9c132.5-192.8,40.2-482.7-246.9-775.5c-65.4-66.6-64.3-173.7,2.4-239.1
					c21.2-20.8,46.5-34.8,73.2-42.2c57.4-15.9,121.4-1,166,44.5c204.8,209,333.3,422.5,381.6,634.5
					C1910.2,1081,1876.5,1277.8,1764.8,1440.3z"></path><path fill="#fabc3f" d="M2469.8 737.1L755.2 359.3C664 339.2 606.3 248.9 626.4 157.7l0 0C646.5 66.5 736.8 8.9 828 29l1714.6 377.9c91.2 20.1 148.8 110.3 128.7 201.5v0C2651.3 699.6 2561 757.2 2469.8 737.1zM2336.3 1373.9L621.7 996c-91.2-20.1-148.8-110.3-128.7-201.5l0 0c20.1-91.2 110.3-148.8 201.5-128.7l1714.6 377.9c91.2 20.1 148.8 110.3 128.7 201.5l0 0C2517.7 1336.3 2427.5 1394 2336.3 1373.9z"></path><path fill="#fabc3f" d="M1816.2,1416.1c-17.2,25.1-36,48.8-56.1,71.3c-5,5.7-10.2,11.1-15.4,16.6
					c-70.6,73.9-157,132.3-255.1,174.7c-126.8,54.9-273,83.1-429.9,83.1c-22.5,0-45.3-0.6-68.3-1.8c5.3,8.6,10.7,17.3,15.8,26
					c43.3,71.9,82.7,145.4,121.7,218.2c10.9,20.5,21.9,41,32.9,61.3l330.8,611.7c44.4,82.2,13.8,184.8-68.3,229.2
					c-11.5,6.2-23.4,11-35.4,14.3c-14.8,4.1-29.9,6.1-44.9,6.1c-60.1,0-118.2-32.1-148.9-88.7l-330.8-611.7
					c-11.2-20.7-22.4-41.6-33.6-62.5c-99.7-186.4-193.9-362.4-339-480l-105.3-85.4c-65.6-53.2-81.9-146.7-38.1-219
					c12.5-20.7,28.9-37.9,47.8-51c46.9-32.7,108.7-40.5,164.1-16.5c310.6,134.6,583.1,137.5,769.6,66c4.2-1.6,8.4-3.2,12.4-4.9
					c6.1-2.5,12-5,17.8-7.6c77.5-34.9,138-83.4,177.5-140.8c132.5-192.8,40.2-482.7-246.9-775.5c-65.4-66.7-64.3-173.7,2.4-239.1
					c6.9-6.7,14.2-12.8,21.8-18c66.4-46.5,158.7-39.5,217.4,20.3c204.8,209,333.3,422.5,381.6,634.5
					C1961.5,1056.8,1927.9,1253.7,1816.2,1416.1z"></path><path fill="#e25651" d="M2149.2,1596l1.5,1.4l2,0.3l541.5,69.2l8.3,139.3c2.1,35.3-8.1,70.5-28.9,99.2
			c-33.2,45.9-40.9,104.9-20.5,157.8l14.5,37.5l12.4-4.8l-14.5-37.5c-18.7-48.7-11.7-103,18.9-145.2c22.5-31.1,33.7-69.4,31.4-107.7
			l-9-150.3l-550.4-70.4"></path><path fill="#fdbab3" d="M2618.4,1727.4l51.4-22.5c5.6-2.5,11.4-4.4,17.3-5.9c18-4.7,47.9-1.7,38.7-56.2c-1.4-8.3-11.6-11.8-17.6-5.9
			c-10.7,10.7-16.1,7.4-27.7,5.4l5.4-23.7c1-4.4-1.9-8.8-6.4-9.5l0,0c-3.5-0.6-6.9,1.2-8.4,4.5l-12.2,26.2
			c-3,6.4-7.9,11.7-14.1,15.1l-45.5,25.1"></path><path fill="#585a5e" d="M2251.7,1763.9l172.4,55.3c0.3,0.1,0.6,0.2,0.9,0.3c13.3,4.2,27.8,2.7,40.4-3.4l208.4-101.4l-26.6-69.4
			c0,0-204,82.2-214.2,76l-153.2-103.6l-18.3,12.5l-36.8,86.9L2251.7,1763.9z"></path><rect width="64.9" height="63.2" x="2262.2" y="2754.9" fill="#fdbab3" transform="rotate(-64.02 2294.615 2786.453)"></rect><path fill="#2a2a2c" d="M2407.9,2934.7c0,0-13.6,43.1-90-7.6c-7.5-5-14.5-10.6-20.9-16.9c-9.3-8.9-25.2-22.3-37.3-30.2l-7.6,12.8
				l-46.6-28.3c-4.9-3.2-6.3-9.7-3.4-14.7l18.1-28.1c0,0,79.4,45.5,80.4,46.8c1,1.3,61.6,52.7,61.6,52.7L2407.9,2934.7z"></path><path fill="#414143" d="M2354.8,2939.6l-2.7-1.3c-8.4-4-18.1-9.5-29.1-16.9c-7.5-4.9-14.5-10.6-20.9-16.8
				c-9.3-8.9-24.8-23.2-36.9-31.1c0,0-9.5-5.3-20.4-11.9c-0.8-0.5-1.6-1-2.4-1.4c-1.9-1.1-3.8-2.3-5.6-3.4c-0.8-0.5-1.6-1-2.4-1.5
				c-1.5-0.9-2.9-1.8-4.3-2.7c-0.8-0.5-1.6-1-2.4-1.6c-9.8-6.4-17.4-12.2-16.3-14.1c3.4-8.1,7.3-16,11.7-23.4
				c5.3-9,11.4-17.5,18.4-25.5c4.6-5.3,12.5-6.4,18.3-2.4l41,28.4c3.2,2.2,7.1,2.8,10.7,1.7c0.4-0.2,0.8-0.3,1.2-0.4l0.2-0.1
				l1.1-0.4l0.1-0.1l0.2,0l2.6-1l0.1,0l2.6-1l0.2-0.1c3.3-1.3,6.9,0.6,7.7,4c3.3,14.3,7.6,28,13.1,41.1c7,16.9,18.2,31.7,32.4,42.8
				c0.8,0.6,1.7,1.3,2.5,1.9c3.2,2.3,6.4,4.5,9.9,6.5c28.4,16.4,22.9,25.7,22.9,25.7S2401.8,2961,2354.8,2939.6z"></path><circle cx="2310.5" cy="2820.4" r="3" fill="#c6c7cd"></circle><path fill="#2a2a2c" d="M2309.7,2821.6c0.3,0.2,0.8,0.3,1.2,0.2l16.1-4.7c0.8-0.2,1.2-1,1-1.8c-0.2-0.8-1-1.2-1.8-1l-16.1,4.7
						c-0.8,0.2-1.2,1-1,1.8C2309.2,2821.2,2309.4,2821.5,2309.7,2821.6z"></path><circle cx="2314.1" cy="2828.8" r="3" fill="#c6c7cd"></circle><path fill="#2a2a2c" d="M2313.3,2830c0.3,0.2,0.8,0.3,1.2,0.2l15-4.6c0.8-0.2,1.2-1,1-1.8c-0.2-0.8-1-1.2-1.8-1l-15,4.6
						c-0.8,0.2-1.2,1-1,1.8C2312.8,2829.5,2313,2829.8,2313.3,2830z"></path><g><circle cx="2317.5" cy="2837.4" r="3" fill="#c6c7cd"></circle><path fill="#2a2a2c" d="M2316.7,2838.7c0.3,0.2,0.8,0.3,1.2,0.2l14.4-4.5c0.8-0.2,1.2-1,1-1.8c-0.2-0.8-1-1.2-1.8-1l-14.4,4.5
						c-0.8,0.2-1.2,1-1,1.8C2316.2,2838.2,2316.5,2838.5,2316.7,2838.7z"></path></g><g><circle cx="2320.5" cy="2845.9" r="3" fill="#c6c7cd"></circle><path fill="#2a2a2c" d="M2319.8,2847.1c0.3,0.2,0.8,0.3,1.2,0.1l13.8-4.8c0.8-0.3,1.2-1.1,0.9-1.8c-0.3-0.8-1.1-1.2-1.8-0.9
						l-13.8,4.8c-0.8,0.3-1.2,1.1-0.9,1.8C2319.3,2846.7,2319.5,2846.9,2319.8,2847.1z"></path><circle cx="2324.5" cy="2854" r="3" fill="#c6c7cd"></circle><path fill="#2a2a2c" d="M2323.8,2855.3c0.3,0.2,0.8,0.3,1.2,0.1l13.3-4.6c0.8-0.3,1.2-1.1,0.9-1.8c-0.3-0.8-1.1-1.2-1.8-0.9
						l-13.3,4.6c-0.8,0.3-1.2,1.1-0.9,1.8C2323.3,2854.8,2323.5,2855.1,2323.8,2855.3z"></path><g><circle cx="2328.3" cy="2862.5" r="3" fill="#c6c7cd"></circle><path fill="#2a2a2c" d="M2327.6,2863.8c0.3,0.2,0.8,0.3,1.2,0.1l12.7-4.1c0.8-0.3,1.2-1.1,0.9-1.8c-0.3-0.8-1.1-1.2-1.8-0.9
						l-12.7,4.1c-0.8,0.3-1.2,1.1-0.9,1.8C2327.1,2863.3,2327.3,2863.6,2327.6,2863.8z"></path></g></g><g><path fill="#2a2a2c" d="M2335.9,2874.6c-2.3,4.5-6.5,7.7-11.4,8.8c-5.1,1.2-10.4-0.1-14.5-3.5l-37.9-31.1c-3.1-2.5-7.1-3.7-11-3.1
				c-3.9,0.5-7.5,2.8-9.7,6l-6.7,9.9c-0.8-0.5-1.6-1-2.4-1.4l6.8-10c2.7-3.9,7-6.6,11.7-7.3c4.7-0.6,9.5,0.7,13.2,3.7l37.9,31.1
				c3.4,2.8,7.8,3.8,12.1,2.9c4.1-0.9,7.6-3.6,9.5-7.3c2-3.8,2.1-8.2,0.4-12.1l-19.8-46.6l2.6-1l19.8,46.5
				C2338.4,2864.9,2338.2,2870.2,2335.9,2874.6z"></path></g><g><rect width="64.9" height="63.2" x="1670.3" y="2626" fill="#fdbab3" transform="rotate(-35.767 1702.732 2657.567)"></rect><path fill="#2a2a2c" d="M1732.4,2841.7c0,0-32.4,31.5-75.6-49.3c-4.2-7.9-7.7-16.2-10.5-24.8c-4-12.3-11.6-31.6-18.6-44.3l-12.7,7.7
				l-27.7-47c-2.8-5.1-1-11.5,4-14.5l29.2-16.2c0,0,48.4,77.7,48.7,79.3c0.3,1.7,29.3,75.6,29.3,75.6L1732.4,2841.7z"></path><path fill="#414143" d="M1683.2,2820.9l-1.8-2.4c-5.5-7.5-11.4-16.9-17.7-28.7c-4.2-7.9-7.7-16.2-10.5-24.7
				c-4-12.3-10.9-32.2-17.8-44.8c0,0-5.8-9.2-12.4-20.2c-0.5-0.8-0.9-1.6-1.4-2.4c-1.1-1.9-2.2-3.8-3.3-5.7c-0.5-0.8-1-1.6-1.4-2.4
				c-0.9-1.5-1.7-2.9-2.5-4.4c-0.4-0.8-0.9-1.7-1.3-2.5c-5.6-10.3-9.6-19-7.6-20.2c6.8-5.5,13.9-10.6,21.4-15.1
				c8.9-5.4,18.3-10,28.2-13.7c6.6-2.5,14,0.3,17.2,6.6l22.7,44.5c1.7,3.4,4.9,5.8,8.6,6.6c0.4,0,0.8,0.1,1.2,0.2l0.2,0l1.1,0.1
				l0.1,0l0.2,0l2.7,0.3l0.1,0l2.7,0.3l0.2,0c3.5,0.4,5.8,3.8,4.9,7.2c-3.9,14.1-6.6,28.3-7.9,42.4c-1.8,18.2,1,36.5,8.3,53.1
				c0.4,0.9,0.9,1.9,1.3,2.9c1.7,3.5,3.5,7,5.7,10.4c17.3,27.9,8,33.5,8,33.5S1714.5,2862,1683.2,2820.9z"></path><circle cx="1700.6" cy="2694.9" r="3" fill="#c6c7cd"></circle><path fill="#2a2a2c" d="M1699.3,2695.6c0.2,0.3,0.5,0.6,1,0.7l16.4,3.4c0.8,0.2,1.5-0.3,1.7-1.1c0.2-0.8-0.3-1.5-1.1-1.7
						l-16.4-3.4c-0.8-0.2-1.5,0.3-1.7,1.1C1699.1,2695,1699.2,2695.3,1699.3,2695.6z"></path><circle cx="1699.8" cy="2704" r="3" fill="#c6c7cd"></circle><path fill="#2a2a2c" d="M1698.6,2704.7c0.2,0.3,0.5,0.6,1,0.7l15.3,3.1c0.8,0.2,1.5-0.3,1.7-1.1c0.2-0.8-0.3-1.5-1.1-1.7
						l-15.3-3.1c-0.8-0.2-1.5,0.3-1.7,1.1C1698.4,2704,1698.4,2704.4,1698.6,2704.7z"></path><g><circle cx="1698.8" cy="2713.2" r="3" fill="#c6c7cd"></circle><path fill="#2a2a2c" d="M1697.5,2713.9c0.2,0.3,0.5,0.6,1,0.7l14.8,2.9c0.8,0.2,1.5-0.3,1.7-1.1s-0.3-1.5-1.1-1.7l-14.8-2.9
						c-0.8-0.2-1.5,0.3-1.7,1.1C1697.3,2713.3,1697.3,2713.6,1697.5,2713.9z"></path></g><g><circle cx="1697.4" cy="2722.1" r="3" fill="#c6c7cd"></circle><path fill="#2a2a2c" d="M1696.2,2722.8c0.2,0.3,0.6,0.6,1,0.7l14.4,2.3c0.8,0.1,1.5-0.4,1.7-1.2c0.1-0.8-0.4-1.5-1.2-1.7
						l-14.4-2.3c-0.8-0.1-1.5,0.4-1.7,1.2C1696,2722.2,1696,2722.6,1696.2,2722.8z"></path><circle cx="1697.1" cy="2731.2" r="3" fill="#c6c7cd"></circle><path fill="#2a2a2c" d="M1695.9,2731.9c0.2,0.3,0.6,0.6,1,0.7l13.9,2.3c0.8,0.1,1.5-0.4,1.7-1.2c0.1-0.8-0.4-1.5-1.2-1.7
						l-13.9-2.3c-0.8-0.1-1.5,0.4-1.7,1.2C1695.6,2731.3,1695.7,2731.6,1695.9,2731.9z"></path><g><circle cx="1696.4" cy="2740.5" r="3" fill="#c6c7cd"></circle><path fill="#2a2a2c" d="M1695.2,2741.2c0.2,0.3,0.6,0.6,1,0.7l13.1,2.4c0.8,0.1,1.5-0.4,1.7-1.2s-0.4-1.5-1.2-1.7l-13.1-2.4
						c-0.8-0.1-1.5,0.4-1.7,1.2C1694.9,2740.6,1695,2740.9,1695.2,2741.2z"></path></g></g><g><path fill="#2a2a2c" d="M1697.3,2754.7c-4.2,2.8-9.4,3.7-14.2,2.3c-5.1-1.4-9.1-5-11.1-9.9l-18.6-45.4c-1.5-3.7-4.5-6.6-8.3-7.9
				c-3.7-1.4-7.9-1.1-11.4,0.7l-10.6,5.5c-0.5-0.8-0.9-1.6-1.4-2.4l10.7-5.6c4.2-2.1,9.2-2.5,13.7-0.9c4.4,1.6,8,5.1,9.9,9.5
				l18.6,45.4c1.7,4.1,5,7.1,9.3,8.3c4,1.2,8.4,0.4,11.9-2c3.5-2.4,5.7-6.2,6.1-10.4l4.6-50.4l2.7,0.3l-4.6,50.3
				C1704.2,2747.3,1701.5,2751.8,1697.3,2754.7z"></path></g></g><g><path fill="#414143" d="M2335.8,2797.1l-78.7-39c0,0,152.6-362.5,144.9-368.2l-150.4-155.5l-149.7,230.6
					c-15.6,24-36.9,43.7-61.9,57.5L1732.5,2691l-51.8-70.1l261.3-184.7c32-21.1,56.2-52.3,68.6-88.6
					c25.8-75.4,60.9-206.3,68.1-243.9c6.7-35.5,25.9-67.9,41-100.9l2.5-5.5c0,0,27.3,45.4,214.5,50.2c0,0,127.8,197,187.4,299.4
					c19.8,34.1,20.2,76.1,1,110.5L2335.8,2797.1z"></path></g><g><rect width="72.1" height="128.7" x="2169.4" y="1526.7" fill="#fdbab3"></rect><path fill="#fdbab3" d="M2293.7,1506.9c8.2,54.2-30.2,87.7-67.7,87.7c-37.6,0-68.3-38.4-68.3-87.7s30.5-89.2,68-89.2
			C2263.2,1417.7,2286.3,1458.2,2293.7,1506.9z"></path><path fill="#414143" d="M2258.5,1413.1c-30.3-24.4-56.3-2.4-56.3-2.4c-44.6-12.4-51.8,36.8-51.8,36.8c-51.1-1.4,19,122.8,19,122.8
			l4.7-16.6c2.4-8.5,2-17.7-1.5-25.8c-6.8-15.6-8.5-34.8,7.7-37.4c14.1-2.3,21.7,18.9,24.5,29.2c0.8,2.9,3.8,4.7,6.8,3.9l0,0
			c2.8-0.7,4.6-3.4,4.2-6.3l-6.3-41.2c20.1,6,59.8-1.3,68.4-4.5c0,0,36.8-11.3,30.6-50.2c0,0-4.8,9.8-24.8,10.5
			c0,0,16.5-3.8,14.4-27.3C2298.1,1404.7,2276.3,1427.4,2258.5,1413.1z"></path></g><g><path fill="#e5e5e5" d="M2301.9,1844.2c0,2.3,0,259.7,0,259.7c-79.5,38-152.1,9.8-152,10.4l3.8-437.5l15.7-74.8l56.4,37.6l35.4-29.6
				l22.7,20l4.7,102.1C2288.7,1732.1,2301.9,1841.9,2301.9,1844.2z"></path><path fill="#585a5e" d="M2056.4 2132.3c-2.3 9.7-.1 19.6 9.5 22.2 0 0 184.5 22 163.1-202.8l-10.3-227.8c0-42-13.3-85.8-44.1-114.4l-5.1-7.6-38.2 16c-42 20.4-67.7 64-65.1 110.6l.5 87.3C2070.1 1887.8 2061.4 2111 2056.4 2132.3zM2241.5 1604.7l19.8 5.3c30.7 9 55.1 33.3 55.1 64.6v53.6c0 32.5 2.1 64.9 6.3 97.1l48.3 255.4c1.5 11.3-3.8 15.8-16.8 23.5l-73.3 31c-8.3 2-15.1-6.8-11-14.3h0c14.8-27.6 21-87 18-118.1l-17.6-181.3c-1.6-16.1-2.5-32.2-2.9-48.4L2241.5 1604.7z"></path><polygon fill="#c6c7cd" points="2241.5 1604.7 2248.9 1652.7 2206 1656.5 2169.5 1602 2225.9 1639.6"></polygon><path fill="#e25651" d="M2225.9,1639.6l-9,10.9l3.3,13.5l-3.3,27.5c-9.3,76.8-53.4,145-119.6,184.9l-12.1,7.3
			c-36.5,22-66.6,53.2-87.3,90.4l-25.7,46.2l19.1,35.1l38.9-15.9l31.1-56.1c14-25.3,32.9-47.6,55.5-65.6l23.5-18.8
			c59.6-47.5,94.4-119.6,94.5-195.8l0.1-38l1.4-15.6L2225.9,1639.6z"></path></g><path fill="#414143" d="M2294.3,1531.3L2294.3,1531.3l-75.3-4.1l-4.7-19.2l-12.1,3.5l10.4,54.8c3.3,17.5,19.9,29.2,37.5,26.5v0
		C2279.1,1588.3,2297.4,1560.5,2294.3,1531.3z"></path><g><path fill="#fdbab3" d="M2598.6,1728.1l54.3-14.2c5.9-1.5,11.9-2.5,18-3.1c18.5-1.8,39.8-9.4,39.2-64.7c-0.1-8.5-9.6-13.5-16.4-8.5
			c-12.2,8.9-9.3,20.1-20.4,16.3l9-22.5c1.7-4.2-0.5-9-4.8-10.4l0,0c-3.4-1.1-7.1,0.1-9,3.1l-16.2,24c-4,5.9-9.7,10.3-16.3,12.7
			l-48.9,17.7"></path><path fill="#585a5e" d="M2201.1,1834.3l180.3-16.9c8.4-0.8,16.6-2.4,24.6-5l250.9-92.1l-18.8-67.1l-251.6,69.4
			c-11.6,2.6-23.5,3.1-35.3,1.4l-181.6-35.1l-12,18.7l0.3,94.3L2201.1,1834.3z"></path></g><g><path fill="#e25651" d="M2154.9,1597.9c-1.1,0-22.6-2.8-61.6-4.7c-73.6-3.5-186.7-37.2-348.6-89.1c-7.6-2.4-15.3-4.8-23.1-7.3
			c-108.4-34.7-237.5-75.6-389.7-118.2c-0.7-0.2-1.3-0.4-2-0.6c4.2-1.6,8.4-3.2,12.4-4.9c5.2-2.7,10.2-5.5,15.1-8.4
			c0.9,0.3,1.8,0.6,2.7,0.8c146.7,41.2,271.2,80.6,375.7,114.2c8.3,2.5,16.4,5.2,24.4,7.8c161.9,52,272.4,89.1,340.5,92.5
			c32.3,1.6,54.9,4.8,55.9,4.8L2154.9,1597.9z"></path></g></svg>