<svg xmlns="http://www.w3.org/2000/svg" enable-background="new 0 0 3000 3000" viewBox="0 0 3000 3000" id="join-new-coworker"><rect width="2333.16" height="187.53" x="432.95" y="25" fill="#37424c"></rect><rect width="2333.16" height="1401.08" x="432.95" y="212.53" fill="#ecf0f1"></rect><path fill="#fff" d="M581.09 121.97c0 16.92-13.72 30.64-30.64 30.64-16.92 0-30.64-13.72-30.64-30.64s13.72-30.64 30.64-30.64C567.37 91.34 581.09 105.06 581.09 121.97zM696.68 121.97c0 16.92-13.72 30.64-30.64 30.64-16.92 0-30.64-13.72-30.64-30.64s13.72-30.64 30.64-30.64C682.96 91.34 696.68 105.06 696.68 121.97zM812.28 121.97c0 16.92-13.72 30.64-30.64 30.64-16.92 0-30.64-13.72-30.64-30.64s13.72-30.64 30.64-30.64C798.56 91.34 812.28 105.06 812.28 121.97z"></path><rect width="498.59" height="129.52" x="554.47" y="340.63" fill="#fff" stroke="#fff" stroke-miterlimit="10" stroke-width=".25"></rect><rect width="239.08" height="27.85" x="554.47" y="539.8" fill="#fff" stroke="#fff" stroke-miterlimit="10" stroke-width=".25"></rect><rect width="520.87" height="37.14" x="554.47" y="609.89" fill="#fff"></rect><rect width="520.87" height="37.14" x="554.47" y="679.87" fill="#fff"></rect><rect width="520.87" height="37.14" x="554.47" y="749.85" fill="#fff"></rect><rect width="520.87" height="37.14" x="554.47" y="819.84" fill="#fff"></rect><rect width="559.87" height="367.67" x="1266.3" y="385.2" fill="#fff" stroke="#fff" stroke-miterlimit="10" stroke-width=".25"></rect><rect width="8.67" height="367.69" x="1341.34" y="385.19" fill="#ecf0f1"></rect><rect width="8.67" height="367.69" x="1423.52" y="385.19" fill="#ecf0f1"></rect><rect width="8.66" height="367.69" x="1504.29" y="385.19" fill="#ecf0f1"></rect><rect width="8.67" height="367.69" x="1586.48" y="385.19" fill="#ecf0f1"></rect><rect width="8.67" height="367.69" x="1672.8" y="385.19" fill="#ecf0f1"></rect><rect width="8.67" height="367.69" x="1759.15" y="385.19" fill="#ecf0f1"></rect><g><rect width="559.89" height="8.66" x="1266.29" y="661.5" fill="#ecf0f1"></rect><rect width="559.89" height="8.67" x="1266.29" y="566.78" fill="#ecf0f1"></rect><rect width="559.89" height="8.67" x="1266.29" y="467.91" fill="#ecf0f1"></rect></g><rect width="175.48" height="168.05" x="1218.48" y="342.49" fill="#00dcab"></rect><rect width="99.81" height="84.03" x="1294.15" y="426.51" fill="#ffb807"></rect><g><path fill="#fff" stroke="#fff" stroke-miterlimit="10" stroke-width=".25" d="M2129.78,1021.97h433.12c4.77,0,8.67-3.88,8.67-8.67s-3.89-8.67-8.67-8.67h-433.12
					c-4.77,0-8.66,3.88-8.66,8.67S2125.01,1021.97,2129.78,1021.97z"></path><path fill="#fa5669" d="M2457.06,1055.09L2457.06,1055.09c10.77,0,19.5-8.73,19.5-19.5v-43.18c0-10.77-8.73-19.5-19.5-19.5l0,0
				c-10.77,0-19.5,8.73-19.5,19.5v43.18C2437.56,1046.36,2446.29,1055.09,2457.06,1055.09z"></path></g><g><path fill="#fff" stroke="#fff" stroke-miterlimit="10" stroke-width=".25" d="M2562.9,1177.95h-433.12c-4.77,0-8.66-3.87-8.66-8.66s3.89-8.67,8.66-8.67h433.12
					c4.77,0,8.67,3.87,8.67,8.67C2571.56,1174.08,2567.67,1177.95,2562.9,1177.95z"></path><path fill="#fa5669" d="M2235.62,1211.07L2235.62,1211.07c-10.77,0-19.5-8.73-19.5-19.5v-43.17c0-10.77,8.73-19.5,19.5-19.5l0,0
				c10.77,0,19.5,8.73,19.5,19.5v43.17C2255.12,1202.34,2246.39,1211.07,2235.62,1211.07z"></path></g><g><path fill="#fff" stroke="#fff" stroke-miterlimit="10" stroke-width=".25" d="M2562.9,1333.94h-433.12c-4.77,0-8.66-3.88-8.66-8.67s3.89-8.67,8.66-8.67h433.12
					c4.77,0,8.67,3.88,8.67,8.67C2571.56,1330.06,2567.67,1333.94,2562.9,1333.94z"></path><path fill="#fa5669" d="M2365.84,1367.05L2365.84,1367.05c-10.77,0-19.5-8.73-19.5-19.5v-43.17c0-10.77,8.73-19.5,19.5-19.5l0,0
				c10.77,0,19.5,8.73,19.5,19.5v43.17C2385.34,1358.33,2376.61,1367.05,2365.84,1367.05z"></path></g><g><path fill="#f7b612" d="M1730.73,1106.48l-216.64,114.39l-67.59-235.36c21.49-6.24,44.02-9.71,67.59-9.71
				C1608.37,975.8,1689.83,1028.49,1730.73,1106.48z"></path><path fill="#4385f6" d="M1759.15,1220.87c0,135.19-109.54,245.07-245.07,245.07c-135.19,0-245.07-109.88-245.07-245.07
				c0-111.96,74.87-206.24,177.47-235.36l67.59,235.36L1759.15,1220.87L1759.15,1220.87z"></path><path fill="#fa5669" d="M1759.15,1220.87h-245.07l216.64-114.39h0.35C1749.1,1140.45,1759.15,1179.27,1759.15,1220.87z"></path></g><g><rect width="70.33" height="70.33" x="948.45" y="1128.9" fill="#00dcab"></rect><rect width="70.33" height="70.33" x="948.45" y="1229.92" fill="#f7b612"></rect><rect width="70.33" height="70.33" x="948.45" y="1330.94" fill="#fa5669"></rect></g><g><rect width="70.33" height="70.33" x="568.32" y="1128.9" fill="#02bf96"></rect><rect width="70.33" height="70.33" x="568.32" y="1229.92" fill="#ffc42e"></rect><rect width="70.33" height="70.33" x="568.32" y="1330.94" fill="#fa5669"></rect></g><g><rect width="70.33" height="70.33" x="758.39" y="1128.9" fill="#02bf96"></rect><rect width="70.33" height="70.33" x="758.39" y="1229.92" fill="#ffc42e"></rect><rect width="70.33" height="70.33" x="758.39" y="1330.94" fill="#fa5669"></rect></g><g><rect width="72.42" height="311.81" x="2057.35" y="459.17" fill="#00dcab"></rect><rect width="72.42" height="207.82" x="2191.06" y="563.15" fill="#f7b612"></rect><rect width="72.42" height="346.47" x="2324.75" y="424.5" fill="#fa5669"></rect><rect width="72.42" height="103.84" x="2458.46" y="667.14" fill="#de3830"></rect><g><path fill="#fff" stroke="#fff" stroke-miterlimit="10" stroke-width=".25" d="M2576.68,775.3h-584.77c-2.4,0-4.33-1.95-4.33-4.33V361.51c0-2.39,1.93-4.33,4.33-4.33s4.33,1.95,4.33,4.33
					v405.12h580.44c2.4,0,4.33,1.95,4.33,4.33S2579.08,775.3,2576.68,775.3z"></path></g></g><g><path fill="#632d16" d="M1931.99 1469.83l-20.75 37.78 14.55 7.99 17.95-32.69c1.91-3.48 5.99-4.85 9.04-3.18l119.35 65.54c3.12 1.71 4.08 5.85 2.17 9.33l-17.95 32.69 12.42 6.82 20.75-37.78c3.96-7.21 1.88-15.87-4.51-19.38l-134.25-73.73C1944.3 1459.69 1935.95 1462.63 1931.99 1469.83zM1591.48 1821.8l383.72 210.73c8.2 4.5 18.49 1.51 22.99-6.69l89.27-162.54-413.4-227.03-89.27 162.54C1580.28 1807.01 1583.28 1817.3 1591.48 1821.8z"></path><path fill="#bf6f31" d="M1749.38,1449.46l-100.64,183.25c-2.76,5.03-2.06,11.22,1.73,14.78s7.67,7.18,11.52,10.65
				c52.31,47.74,108.2,89.17,167.54,124.11c16.77,9.95,33.85,19.33,51.24,28.14c61.32,31.33,126.27,56.26,194.63,74.79
				c4.99,1.38,10.12,2.72,15.16,4.01c5.04,1.29,10.63-1.44,13.4-6.47l100.64-183.25c7.19-13.09,3.54-28.79-8.19-35.24
				l-412.91-226.76C1771.87,1431.07,1756.57,1436.37,1749.38,1449.46z"></path><path fill="#ecf0f1" d="M1813.43,1822.49l42.09,23.12c2.53,1.39,5.7,0.46,7.09-2.06l34.58-62.96c1.39-2.53,0.46-5.7-2.06-7.09
				l-42.09-23.11c-2.53-1.39-5.7-0.47-7.09,2.06l-34.58,62.96C1809.98,1817.93,1810.9,1821.11,1813.43,1822.49z"></path><g><path fill="#f7c19b" d="M341.9,1531.37l-86.42-31.15l-19.41,34.41c0,0-102.53,95.13,0.74,153.31
								c40.23,22.67,87.38-17.29,71.06-60.48c-0.23-0.61-0.46-1.22-0.71-1.83c-0.58-1.49,1.34-2.67,2.38-1.45l24.88,29.17
								c4.23,4.96,11.64,5.67,16.74,1.6l0,0c4.68-3.73,5.91-10.34,2.9-15.52l-20.33-34.93c-4.55-7.82-5.87-17.09-3.67-25.86
								L341.9,1531.37z"></path><polygon fill="#f7b612" points="475.57 999.01 233.69 1522.77 342.15 1563.81 543.36 1239.63"></polygon><path fill="#f7c19b" d="M1539.56,1224.59l-21.3,89.36l36.35,15.45c0,0,105.98,91.26,152.27-17.87
								c18.04-42.51-26.94-84.9-68.04-63.86c-0.58,0.3-1.16,0.6-1.74,0.9c-1.42,0.75-2.81-1.03-1.71-2.2l26.21-27.98
								c4.46-4.76,4.34-12.2-0.28-16.81l0,0c-4.24-4.23-10.94-4.72-15.75-1.15l-32.44,24.11c-7.26,5.39-16.34,7.74-25.3,6.53
								L1539.56,1224.59z"></path><path fill="#f7b612" d="M653.21,1671.96l165.71-38.63c0,0,25.49-366.73,132.57-550.29l156.55,137.45
								c45.3,39.78,101.05,65.76,160.65,74.87l274.28,41.92l33.14-122.37l-337.62-89.43L992.34,847.49
								c-72.73-73-178.13-106.16-278.33-82.09c-51.05,12.26-105.04,39.75-155.14,93.29c-127.46,161.73-168.9,387.77-178.46,693.06
								l0,0C388.8,1660.08,507.66,1677.05,653.21,1671.96z"></path><rect width="130.64" height="98.67" x="188.79" y="2724.21" fill="#f7c19b" transform="rotate(-69.218 254.12 2773.656)"></rect><path fill="#3a556a" d="M182.29,2799.85l-46.22,55.45c-3.87,4.64-6.23,9.94-6.9,15.43l0,0c-1.67,13.86,7.68,27.02,23.58,33.19
							l158.66,61.53c13.57,5.26,28.48,8.13,43.69,8.41l0,0c16.7,0.29,30.68-10.01,31.25-23.03l0,0c0.23-5.29-1.84-10.48-5.87-14.71
							l-81.88-106.83c-1.95-2.56-4.88-4.57-8.37-5.77l-84.54-29.16C197.28,2791.46,187.35,2793.79,182.29,2799.85z"></path><rect width="98.68" height="130.65" x="815.54" y="2751.47" fill="#f7c19b" transform="matrix(1 -.00591 .00591 1 -16.64 5.163)"></rect><path fill="#3a556a" d="M807.29 2867.06l-23.14 68.38c-1.94 5.72-2.24 11.52-.88 16.88l0 0c3.43 13.53 16.9 22.44 33.95 22.46L987.4 2975c14.55.02 29.5-2.67 43.78-7.9l0 0c15.68-5.73 25.02-20.39 20.85-32.74l0 0c-1.69-5.02-5.49-9.12-10.78-11.61l-114.88-70.15c-2.74-1.67-6.2-2.5-9.89-2.37l-89.36 3.27C818.25 2853.82 809.82 2859.58 807.29 2867.06zM324.84 2774.91L584.37 2345l42.71-433.2 128.1 387.32 40.64 489.22h140.22l-12.59-558.06-104.53-596.95c0 0-272.78 50.99-438.5-81.58l15.29 752.47-193.75 418.37L324.84 2774.91z"></path><g><path fill="#f7c19b" d="M885.32,754.19c-2.49-1.43-5.62,0.27-5.73,3.14l-2.28,52.08c-0.08,2.72-0.1,4.83-1.93,6.05
							c-5.01,3.08-9.94,5.15-14.9,6.36c-21.46,5.34-42.18-5.26-58.32-18.41c-16.63-13.42-28.29-29.44-30.75-33.68
							c-0.46-0.73-0.5-1.6-0.24-2.39l28.18-73.36c0.42-1.16,0.24-2.44-0.46-3.47c-32.52-49.56-1.93-113.62-1.93-113.62
							c75.29-136.54,171.22-71,213.57-30.92c14.14,13.39,20.58,33.08,17.22,52.24C991.93,801.69,907.35,767.19,885.32,754.19z"></path></g><g><path fill="#37424c" d="M862.01,607.75l-10.61,46.44c-1.23,5.38,3.42,10.28,8.85,9.34l0,0c2.76-0.48,5.05-2.42,5.97-5.07
							l11.61-33.31c2.57-7.36,8.9-12.69,16.54-14.17c14.58-2.82,37.85-11.32,43.43-36.93c1.21-5.52,6.86-8.85,12.24-7.17
							c18.73,5.85,56.73,15.51,77.33,5.3c3.79-1.88,7.73-3.42,11.79-4.59c11.37-3.27,32.53-12.72,31.18-37.58
							c-0.22-4.11-3.15-7.6-7.16-8.52l-33.88-7.74c-2.35-0.54-3.92-2.76-3.65-5.16l3.41-29.77c0.36-3.21-2.52-5.85-5.69-5.18
							l-41.88,8.86c-9.11,1.93-18.49-1.44-24.34-8.69c-12.15-15.03-39.11-38.15-87.96-33.62c-43.45,4.02-77.03,38.38-96.65,64.64
							c-12.86,17.22-17.35,39.29-12.44,60.22l11.51,49.02c0.43,1.82,0.72,3.66,0.87,5.51c1.16,14.02,0.19,75.99,26.31,72.72
							c0.72-0.09,1.29-0.65,1.45-1.35l14.43-27.01c1.57-6.84,1.11-13.98-1.34-20.55c-6.62-17.68-16.59-54.56,13.32-58.47
							c9.98-1.31,20.16,1.62,27.91,8.02C859.31,596.87,863.32,602.02,862.01,607.75z"></path></g><g><polygon fill="#f7c19b" points="2726.91 2739.86 2736.7 2880.19 2847.66 2874.75 2840.17 2739.86"></polygon><path fill="#37424c" d="M2871.02,2932.59c-0.18,23.51-19.41,42.41-42.92,42.4l-196.62-0.07c-17.4,0-31.5-14.11-31.49-31.5l0,0
							c0-3.07,3.15-9.65,5.53-11.57l122.87-95.12c4.28-3.46,9.84-1.94,14.25,1.35c28.86,21.54,69.87,20.77,110.76,18.44
							C2868.48,2883.41,2871.2,2908.82,2871.02,2932.59z"></path><polygon fill="#f7c19b" points="2338.1 2734.95 2335.83 2875.6 2446.85 2879.68 2450.95 2744.65"></polygon><path fill="#37424c" d="M2472.8,2932.59c-0.18,23.51-19.41,42.41-42.92,42.4l-196.62-0.07c-17.39,0-31.49-14.11-31.49-31.5l0,0
								c0-3.07,3.15-9.65,5.53-11.57l122.87-95.12c4.28-3.46,9.83-1.94,14.25,1.35c28.86,21.54,69.86,20.77,110.76,18.44
								C2470.26,2883.41,2472.99,2908.82,2472.8,2932.59z"></path><path fill="#f7c19b" d="M1756.34,1226.47l1.66,80.5l-33.27,5.03c0,0-105.37,53.86-124.39-48.95
						c-7.4-40.05,37.97-66.01,68.61-39.04c0.43,0.38,0.86,0.76,1.29,1.15c1.05,0.95,2.54-0.25,1.83-1.49l-16.9-29.55
						c-2.87-5.03-1.42-11.31,3.28-14.19l0,0c4.32-2.65,10.03-1.58,13.41,2.52l22.82,27.64c5.11,6.18,12.29,10.19,20.01,11.15
						L1756.34,1226.47z"></path><polygon fill="#37424c" points="2331.48 1474.22 2318.31 2774.82 2463.99 2774.82 2531.56 1794.64 2723.09 2774.82 2851.89 2774.82 2789.93 1530.21 2531.56 1408.26"></polygon><path fill="#2b91cc" d="M2301.18,1118.22c41.05,96.25,17.48,335.35,8.72,467.66c-10.41,35.98,314.62,14.33,475.42-1.95
						c28.31-2.86,47.56-29.99,40.6-57.58l-54.17-214.6c-9.86-46.65-13.39-94.33-10.43-141.92c6.39-102.73-10.54-311.65-206-416.18
						c-1.17-0.71-2.35-1.29-3.52-1.88c-0.35,0.23-22.27,21.57-35.05,25.79c-19.48,7.04-39.89,3.52-62.53-12.08
						c-6.92-4.34,0.77-7.14-6.51-13.71l-7.3,1.56c-37.64,14.95-78.19,36.54-120.26,61.59c-0.41,0.24-0.81,0.48-1.21,0.72
						c-52.76,31.24-97.24,74.7-132.23,125.04l-137.38,197.64l-317.26,75.2V1325l389.4-51.62"></path><g><path fill="#f7c19b" d="M2104.88,1422.66l30.6,74.86l-29.54,18.35c0,0-79.89,93.7-134.89,5.01
								c-21.43-34.55,11.98-77.5,50.57-64.74c0.54,0.18,1.09,0.37,1.64,0.55c1.33,0.46,2.3-1.27,1.19-2.15l-26.58-20.81
								c-4.53-3.54-5.42-10.03-2.02-14.67l0,0c3.11-4.25,8.88-5.58,13.54-3.12l31.48,16.59c7.04,3.71,15.25,4.53,22.88,2.27
								L2104.88,1422.66z"></path><path fill="#2b91cc" d="M2064.98,1422.23l36.99,109.91l290.18-112.74c45.04-17.59,80.35-53.86,96.56-99.43l7.37-20.62
							l-14.68-58.41l-78.6-147.76c-33.98,107.36-58.98,200.45-58.98,200.45L2064.98,1422.23z"></path></g></g><g><path fill="#f7c19b" d="M2449.21,722.87c0,0-101.32,1.32-80.97-93.76l-13-11.09c-3.31-2.82-3.51-7.87-0.43-10.95l25.87-25.87
					c0,0-6.27-53.1,33.82-82.03l117.24,6.12l36.53,31.19l-0.63,34.12l29.07,47.15l-38.12,64.51l-6.72,71.14
					c-2.58,27.37-25.93,48.06-53.41,47.34l0,0c-29.73-0.78-52.82-26.17-50.77-55.84L2449.21,722.87z"></path><path fill="#0b1226" d="M2558.6,682.24c0,0,180.36-136.41,30.39-235.92c-44.99-28.23-80.81-27.46-114.64-20.41
					c-13.36,2.78-27.16,2.3-40.13-1.95c-25.59-8.39-70.58-11.95-71.11,66.55c-0.1,14.17,11.28,25.77,25.45,25.59l51.32-0.67
					l5.43,42.37l22.21,18.19l-1.39,35.02l17.37,14.83l3.27-24.83c1.8-13.65,12.2-25.2,25.88-26.78c5.17-0.59,10.78,0.15,16.38,3.36
					c17.79,10.2,20.2,35.49,5.66,49.95c-1.38,1.37-2.91,2.76-4.6,4.17L2558.6,682.24z"></path></g></g></g></svg>