<svg xmlns="http://www.w3.org/2000/svg" viewBox="0 0 128 128" id="Trusted"><g fill="#4285f4" class="color3fbbc4 svgShape"><path d="M60.864 20.238c-10.23 0-18.553 8.315-18.553 18.54 0 10.224 8.322 18.541 18.553 18.541 10.229 0 18.552-8.317 18.552-18.541s-8.322-18.54-18.552-18.54zm9.603 15.996-4.175 4.069.987 5.745c.16.954-.398 1.361-1.254.911l-5.162-2.714-5.16 2.714c-.855.45-1.418.043-1.255-.911l.986-5.745-4.174-4.069c-.691-.674-.479-1.333.479-1.474l5.769-.837 2.581-5.229c.429-.866 1.121-.866 1.549 0l2.58 5.229 5.77.837c.957.141 1.172.801.479 1.474zM96.171 66.919a21.33 21.33 0 0 1-1.371.67c-2.016 1.453-4.377 2.188-6.399 2.804-.553.168-1.107.338-1.629.514a45.67 45.67 0 0 0-1.031 1.433c-1.735 2.472-4.03 5.705-7.861 7.642-.914.711-1.939 1.32-3.145 1.715-.979.322-2.035.484-3.137.484-2.451 0-4.752-.803-6.785-1.511-1.457-.51-2.964-1.033-3.947-1.033-.988 0-2.499.525-3.958 1.034-2.028.708-4.328 1.51-6.773 1.51a9.992 9.992 0 0 1-3.137-.481 9.978 9.978 0 0 1-1.747-.788.503.503 0 0 0-.085-.021c-5.181-1.662-7.976-5.642-10.018-8.549-.38-.55-.904-1.295-1.3-1.789l-.521-.156a52.529 52.529 0 0 1-2.356-.763l-20.369 43.177c-1.135 2.397-.604 3.836 1.119 3.836.589 0 1.315-.17 2.164-.521l12.742-5.307a6.492 6.492 0 0 1 2.503-.508c2.525 0 4.874 1.508 5.828 4.008l4.242 11.146c.646 1.692 1.538 2.54 2.459 2.54.888 0 1.796-.79 2.53-2.375l20.007-43.438 20.009 43.438c.731 1.585 1.642 2.375 2.528 2.375.918 0 1.813-.848 2.457-2.54l4.246-11.146a6.157 6.157 0 0 1 5.785-3.983c.838 0 1.694.167 2.527.521l12.357 5.23c.855.361 1.59.534 2.181.534 1.711 0 2.243-1.431 1.13-3.831L96.171 66.919z" fill="#34a853" class="color000000 svgShape"></path><path d="M101.066 38.778c0-4.136-4.776-7.466-5.983-11.2-1.248-3.871.631-9.385-1.688-12.605-2.354-3.254-8.154-3.146-11.39-5.511-3.198-2.347-4.874-7.951-8.716-9.209A5.403 5.403 0 0 0 71.598 0c-3.365 0-7.23 2.545-10.732 2.545C57.364 2.545 53.495 0 50.138 0a5.49 5.49 0 0 0-1.703.253c-3.841 1.256-5.517 6.862-8.714 9.209-3.23 2.366-9.031 2.257-11.387 5.511-2.325 3.22-.442 8.734-1.691 12.605-1.202 3.734-5.98 7.062-5.98 11.2 0 4.14 4.778 7.469 5.98 11.202 1.247 3.87-.634 9.383 1.691 12.606.531.73 1.24 1.287 2.05 1.745l2.03.604c1.562.463 2.487.766 3.198 1.125l.658.332.124.121c1.228.412 2.387.891 3.326 1.578 2.772 2.033 4.401 6.514 7.287 8.49.857.229 1.75.369 2.681.369 2.469 0 4.831-.807 6.946-1.526 2.059-.702 3.07-1.006 4.017-1.077l.383-.027.386.035c.852.078 1.791.373 3.727 1.03l.078.027.172.056.11.038 2.163.964c1.109.277 2.305.48 3.531.48 1.085 0 2.132-.158 3.107-.469.383-.125.741-.278 1.094-.438 2.473-2.162 4.058-6.083 6.603-7.954.595-.435 2.606-1.694 2.606-1.694l.664-.336c.795-.4 1.885-.736 3.385-1.186 1.135-.337 2.469-.741 3.795-1.302.35-.293.67-.616.938-.987 2.32-3.224.441-8.738 1.689-12.608 1.208-3.726 5.984-7.056 5.984-11.198zm-40.202 23.16c-12.8 0-23.176-10.369-23.176-23.16 0-12.792 10.376-23.16 23.176-23.16 12.801 0 23.175 10.368 23.175 23.16 0 12.791-10.374 23.16-23.175 23.16z" fill="#34a853" class="color000000 svgShape"></path></g></svg>