<svg xmlns="http://www.w3.org/2000/svg" viewBox="0 0 66 66" id="Bid"><path d="m24.2 22.5 13-13c1.3-1.3 1.3-3.4 0-4.7-1.3-1.3-3.5-1.3-4.7 0l-13 13.1c-1.3 1.3-1.3 3.5 0 4.7 1.2 1.2 3.4 1.3 4.7-.1zM35.9 39c1.3 1.3 3.4 1.3 4.7 0l13.1-13.1c1.3-1.3 1.3-3.4 0-4.7-1.3-1.3-3.5-1.3-4.7 0L36 34.3c-1.5 1.3-1.4 3.4-.1 4.7zM25.5 24.1l8.9 8.9c0-.1.1-.1.1-.1l13-13 .1-.1-8.9-8.9-.1.1-13 13s-.1 0-.1.1zm.6 3.4L2.4 49.9c-1.8 1.7-1.8 4.5-.1 6.2 1.8 1.8 4.6 1.7 6.2-.1l22.4-23.8-4.8-4.7zM33 50.8v1.8h-1.4c-1.6 0-2.9 1.3-2.9 2.9v2.6H63v-2.6c0-1.6-1.3-2.9-2.9-2.9h-1.4v-1.8c0-1.6-1.3-2.9-2.9-2.9H35.9c-1.6 0-2.9 1.3-2.9 2.9zm31 9.4H27.5c-.6 0-1 .4-1 1s.4 1 1 1H64c.6 0 1-.4 1-1s-.4-1-1-1z" fill="#ffffff" class="color000000 svgShape"></path></svg>