<svg xmlns="http://www.w3.org/2000/svg" enable-background="new 0 0 2000 2000" viewBox="0 0 2000 2000" id="find-leads-generate-sales-leads"><path fill="#eaeff8" fill-rule="evenodd" d="M998,1490.5c181,0,347.6,2.7,479.8,7.2c323.5-184.9,211.5-545.3,95.3-749.2
			c-161.6-283.7-543.6-385.7-701.6-159.3c-214.5,307.3-421.3,200-533,433.4c-111.7,233.4,57.9,457.1,179.8,475.1
			C650.4,1493.2,817,1490.5,998,1490.5z" clip-rule="evenodd"></path><ellipse cx="998" cy="1524.6" fill="#d2dfee" fill-rule="evenodd" clip-rule="evenodd" rx="778.1" ry="34.1"></ellipse><path fill="#fff" fill-rule="evenodd" d="M1248.9,549.8c194.3,43.3,318,222,330.1,308.3c5,35.4-4.2-47.5-103.4-122.9c-88.6-67.4-157.6-79.9-263-88.1
			c-74.5-5.8-152.5-14.9-147-59.3C1070.1,552.7,1123.4,521.9,1248.9,549.8z" clip-rule="evenodd"></path><path fill="#d2dfee" fill-rule="evenodd" d="M496.7,1412c-8.9-11.1-21.4-20.3-25-34c-4.3-16.2,5.2-33.3,2.8-49.9c-3-20.9-23.1-34.5-34-52.5
			c-10.7-17.7-5.7-23.7-6.7-44.3c-1.5-31.1-27-70.4-61-59.9c-34.5,10.7-28.9,42.8-22.8,67c4.3,17.2,1.5,19.7-2.7,36.9
			c-5.1,20.8-21.5,40.9-14.6,61.2c4.2,12.6,16.5,21,21,33.5c5,14.1-1.1,29.5-3.4,44.3c-5,31.2,2.2,57.2,24.8,83
			c2.4,2.3,5,4.5,7.6,6.5c31.8-1.8,67.5-3.4,106.7-4.9l0.3-0.3C510.5,1475.8,516.6,1437,496.7,1412z" clip-rule="evenodd"></path><path fill="#fff" fill-rule="evenodd" d="M388.5,1199.5c-0.5-1.4-2.1-2.1-3.5-1.6c-1.4,0.5-2.1,2.1-1.6,3.5c2.7,7.1,5,14.4,6.9,22.1
			c-0.8-0.7-1.6-1.4-2.4-2.1c-3.7-3-7.9-5.6-12.6-7.8c-1.4-0.6-3-0.1-3.6,1.3c-0.6,1.4-0.1,3,1.3,3.6c4.3,2,8.2,4.4,11.5,7.1
			c3.2,2.6,6,5.4,8.3,8.6c3.5,16.7,5.8,34.6,7.8,53.5c-3.2-4.9-6.5-9.3-10.1-13.2c-6.2-6.8-13.1-12-20.7-15.8
			c-1.3-0.7-3-0.1-3.6,1.2c-0.7,1.3-0.1,3,1.2,3.6c6.9,3.4,13.3,8.3,19.1,14.6c5.8,6.3,11,13.9,15.6,23l0.5,5.1
			c1.2,11.3,2.4,22.8,3.8,34.6c0,0.1,0,0.2,0,0.3c1.5,12.3,3.2,24.9,5.4,37.7c-5.9-9.1-12.2-17.2-19-24.1
			c-10-10.3-20.9-18.2-32.8-24c-1.4-0.7-3-0.1-3.6,1.3c-0.7,1.4-0.1,3,1.3,3.6c11.3,5.4,21.7,13.1,31.2,22.8
			c9.5,9.8,18.1,21.7,25.8,35.8c3.4,16.9,7.6,34.2,13.3,51.7l0,0l0,0.1v0c2.8,8.6,5.9,17.2,9.4,25.8c-8.3-7.1-17-13.2-26.3-18.4
			c-12.9-7.2-26.8-12.5-41.6-15.9c-1.5-0.3-2.9,0.6-3.3,2c-0.3,1.5,0.6,2.9,2,3.3c14.4,3.3,27.8,8.5,40.2,15.4
			c12.3,6.9,23.7,15.5,34.2,25.9c2.4,5.4,5,10.8,7.8,16.1l6-0.3c-9.7-18.6-17.2-37.1-23.2-55.4c-1-13.3,0.6-26.6,4.7-39.9
			c4.2-13.5,11.2-27,20.8-40.5c0.9-1.2,0.6-2.9-0.6-3.8c-1.2-0.9-2.9-0.6-3.8,0.6c-9.9,14-17.1,28-21.5,42c-2.5,8-4.1,15.9-4.9,23.9
			c-8.2-29.6-12.7-58.5-16-86c3.2-11.7,6.8-21.6,10.7-29.7c3.9-8.1,8.2-14.3,12.8-18.6c1.1-1,1.1-2.8,0.1-3.9
			c-1-1.1-2.8-1.1-3.9-0.1c-5.1,4.8-9.8,11.6-14,20.2c-2.6,5.4-5.1,11.5-7.4,18.4c-0.8-7.3-1.5-14.5-2.3-21.5l-0.6-5.5
			c0-0.1,0-0.2,0-0.3C403.5,1262.6,399.6,1228.5,388.5,1199.5z" clip-rule="evenodd"></path><path fill="#c5def8" fill-rule="evenodd" d="M405.3,1426.7c-9.5-5.1-20.9-7.8-27.5-16.3c-7.8-10-6.2-24.7-12.8-35.6c-8.3-13.7-26.3-17.2-39.3-26.5
			c-12.7-9.2-11-14.8-17.8-28.9c-10.2-21.3-39.7-41.1-60.2-23.6c-20.9,17.7-7.4,38.4,3.9,53.4c8.1,10.7,6.9,13.3,9.1,26.5
			c2.6,16-2.8,34.9,8,47c6.7,7.5,17.8,9.7,24.6,17.1c7.7,8.4,8,20.9,10.8,31.9c3.7,14.6,10,26.4,20.1,35.9c27.2-2.1,59.2-4,95.3-5.7
			c2.8-4,5-8.3,6.6-12.8C433.8,1467,426.6,1438.1,405.3,1426.7z" clip-rule="evenodd"></path><path fill="#fff" fill-rule="evenodd" d="M267,1310.7c-0.8-0.8-2.1-0.8-2.9-0.1c-0.8,0.8-0.8,2.1-0.1,2.9c4,4.1,7.7,8.6,11.4,13.4
			c-0.8-0.3-1.5-0.5-2.3-0.7c-3.5-1-7.2-1.5-11.1-1.7c-1.1,0-2.1,0.8-2.1,2c0,1.1,0.8,2.1,2,2.1c3.6,0.1,7,0.7,10.1,1.5
			c3,0.8,5.8,2,8.3,3.5c7.4,10.6,14.3,22.4,21.3,34.9c-3.7-2.5-7.3-4.6-11-6.2c-6.4-2.9-12.7-4.5-19.1-4.9c-1.1-0.1-2.1,0.8-2.2,1.9
			c-0.1,1.1,0.8,2.1,1.9,2.2c5.8,0.3,11.7,1.8,17.6,4.5c5.9,2.7,11.8,6.5,17.7,11.4l1.9,3.4c4.1,7.5,8.4,15.2,12.9,23
			c0,0.1,0.1,0.2,0.1,0.2c4.7,8.1,9.6,16.4,14.9,24.7c-6.8-4.6-13.6-8.3-20.4-11.2c-10-4.2-20-6.5-29.9-7c-1.1-0.1-2.1,0.8-2.2,2
			c-0.1,1.1,0.8,2.1,2,2.2c9.5,0.4,19,2.7,28.5,6.7c9.5,4,19,9.7,28.6,17.3c7.4,10.8,15.5,21.6,24.6,32l0,0l0,0l0,0
			c4.5,5.1,9.2,10.2,14.2,15.2c-7.9-2.5-15.8-4.2-23.8-5c-11.1-1.2-22.4-0.8-33.7,1.2c-1.1,0.2-1.9,1.3-1.7,2.4
			c0.2,1.1,1.3,1.9,2.4,1.7c11-1.9,21.9-2.3,32.6-1.2c10.6,1.1,21.1,3.8,31.5,7.9c3.6,3.3,7.3,6.6,11.2,9.8l6.2-0.3
			c-13.5-10.8-25.2-22.3-35.6-34.2c-4.7-9-7.5-18.7-8.5-29.2c-1-10.7-0.2-22.1,2.4-34.4c0.2-1.1-0.5-2.2-1.6-2.5
			c-1.1-0.2-2.2,0.5-2.5,1.6c-2.8,12.7-3.6,24.6-2.5,35.7c0.6,6.3,1.9,12.3,3.7,18.1c-14.5-18.2-26.2-37-36.7-55.2
			c-1.2-9.1-1.7-17-1.3-23.8c0.4-6.8,1.5-12.4,3.4-16.8c0.5-1,0-2.3-1.1-2.7c-1-0.5-2.3,0-2.7,1.1c-2.1,4.9-3.4,10.9-3.8,18.2
			c-0.2,4.5-0.1,9.5,0.3,15c-2.7-4.8-5.4-9.6-8-14.3l-2-3.7c0-0.1-0.1-0.1-0.1-0.2C296.1,1350.2,283.3,1327.6,267,1310.7z" clip-rule="evenodd"></path><path fill="#d2dfee" fill-rule="evenodd" d="M1464.8,1401.5c9.7-12.1,23.3-22.1,27.3-37.1c4.7-17.7-5.7-36.3-3.1-54.4c3.2-22.8,25.2-37.6,37.1-57.3
			c11.7-19.3,6.2-25.8,7.3-48.4c1.6-34,29.5-76.9,66.6-65.4c37.7,11.7,31.5,46.7,24.9,73.1c-4.7,18.8-1.6,21.5,3,40.3
			c5.5,22.7,23.4,44.7,16,66.8c-4.6,13.7-18.1,22.9-22.9,36.6c-5.5,15.4,1.2,32.2,3.7,48.4c5.4,34.1-2.4,62.4-27.1,90.6
			c-3,2.8-6.1,5.5-9.4,7.9c-34.2-1.7-72.5-3.3-114-4.7c-0.6-0.6-1.1-1.2-1.7-1.8C1449.8,1471.1,1443.1,1428.7,1464.8,1401.5z" clip-rule="evenodd"></path><path fill="#fff" fill-rule="evenodd" d="M1582.9,1169.6c0.6-1.5,2.3-2.3,3.8-1.7c1.5,0.6,2.3,2.3,1.7,3.8c-2.9,7.7-5.4,15.8-7.5,24.1
			c0.9-0.8,1.7-1.5,2.6-2.3c4-3.2,8.6-6.1,13.8-8.5c1.5-0.7,3.3-0.1,4,1.4c0.7,1.5,0.1,3.3-1.4,4c-4.7,2.2-8.9,4.8-12.6,7.8
			c-3.5,2.8-6.5,5.9-9.1,9.4c-3.8,18.2-6.3,37.7-8.5,58.3c3.4-5.4,7.1-10.2,11-14.4c6.8-7.4,14.3-13.1,22.6-17.2
			c1.5-0.7,3.3-0.1,4,1.3c0.7,1.5,0.1,3.3-1.3,4c-7.6,3.8-14.5,9.1-20.8,15.9c-6.3,6.8-12,15.2-17,25.1l-0.6,5.6
			c-1.3,12.3-2.6,24.9-4.1,37.7c0,0.1,0,0.2,0,0.4c-1.6,13.4-3.5,27.2-5.8,41.1c6.4-9.9,13.4-18.7,20.8-26.4
			c10.9-11.2,22.8-19.9,35.8-26.1c1.5-0.7,3.3-0.1,4,1.4c0.7,1.5,0.1,3.3-1.4,4c-12.3,5.9-23.7,14.2-34.1,24.9
			c-10.3,10.7-19.7,23.7-28.1,39c-3.7,18.5-8.3,37.3-14.5,56.4l0,0l0,0.1l0,0c-3,9.3-6.5,18.7-10.3,28.2c9-7.7,18.6-14.4,28.7-20.1
			c14.1-7.9,29.3-13.7,45.4-17.4c1.6-0.4,3.2,0.6,3.6,2.2c0.4,1.6-0.6,3.2-2.2,3.6c-15.7,3.6-30.3,9.2-43.9,16.8
			c-13.4,7.5-25.9,16.9-37.3,28.3c-2.8,6.3-5.8,12.5-9.1,18.8l-6.6-0.3c10.9-20.7,19.3-41.3,26-61.7c1.1-14.5-0.6-29.1-5.2-43.6
			c-4.6-14.7-12.2-29.5-22.7-44.2c-0.9-1.3-0.6-3.2,0.7-4.1c1.3-1,3.2-0.6,4.1,0.7c10.8,15.3,18.6,30.6,23.5,45.9
			c2.7,8.7,4.5,17.4,5.3,26.1c8.9-32.3,13.9-63.8,17.5-93.9c-3.5-12.8-7.4-23.6-11.7-32.4c-4.3-8.8-8.9-15.6-14-20.3
			c-1.2-1.1-1.2-3-0.1-4.2c1.1-1.2,3-1.2,4.2-0.1c5.6,5.3,10.7,12.6,15.3,22c2.9,5.9,5.5,12.6,8.1,20.1c0.9-8,1.7-15.8,2.5-23.5
			l0.6-6c0-0.1,0-0.2,0-0.3C1566.6,1238.4,1570.9,1201.2,1582.9,1169.6z" clip-rule="evenodd"></path><path fill="#c5def8" fill-rule="evenodd" d="M1564.6,1417.5c10.3-5.6,22.8-8.5,30-17.8c8.5-10.9,6.8-27,14-38.8c9-14.9,28.7-18.7,42.9-28.9
			c13.9-10,12-16.1,19.4-31.5c11.2-23.2,43.3-44.8,65.7-25.8c22.8,19.3,8.1,41.9-4.3,58.3c-8.9,11.7-7.5,14.5-9.9,28.9
			c-2.9,17.5,3.1,38.1-8.7,51.3c-7.3,8.2-19.4,10.6-26.8,18.7c-8.4,9.1-8.7,22.8-11.7,34.8c-4,16.2-11.2,29.2-22.4,39.6
			c-29.7-2-64.2-3.9-102.8-5.6c-3.4-4.6-6.1-9.7-8-15.1C1533.5,1461.5,1541.3,1430,1564.6,1417.5z" clip-rule="evenodd"></path><path fill="#fff" fill-rule="evenodd" d="M1715.5 1290.9c.9-.9 2.3-.9 3.2-.1.9.9.9 2.3.1 3.2-4.3 4.5-8.4 9.4-12.4 14.6.8-.3 1.7-.5 2.5-.8 3.8-1.1 7.8-1.7 12.1-1.9 1.2 0 2.3.9 2.3 2.2 0 1.2-.9 2.3-2.2 2.3-3.9.2-7.6.7-11.1 1.7-3.2.9-6.3 2.2-9.1 3.8-8 11.5-15.6 24.4-23.2 38.1 4-2.7 8-5 12-6.8 6.9-3.1 13.9-4.9 20.8-5.3 1.2-.1 2.3.9 2.4 2.1.1 1.2-.9 2.3-2.1 2.4-6.4.4-12.8 2-19.2 4.9-6.4 2.9-12.8 7-19.3 12.4l-2.1 3.7c-4.5 8.2-9.2 16.6-14 25.1 0 .1-.1.2-.1.2-5.1 8.9-10.5 17.9-16.3 26.9 7.4-5 14.9-9.1 22.3-12.2 10.9-4.6 21.8-7.1 32.7-7.6 1.2-.1 2.3.9 2.4 2.1.1 1.2-.9 2.3-2.1 2.4-10.4.5-20.7 2.9-31.1 7.3-10.4 4.4-20.8 10.6-31.2 18.9-8 11.8-16.9 23.5-26.8 35l0 0 0 0 0 0c-4.9 5.6-10 11.1-15.5 16.6 8.6-2.7 17.2-4.5 25.9-5.5 12.2-1.3 24.4-.8 36.8 1.3 1.2.2 2 1.4 1.8 2.6-.2 1.2-1.4 2-2.6 1.8-12-2.1-23.9-2.6-35.6-1.3-11.6 1.2-23 4.1-34.4 8.6-4.3 3.9-8.7 7.8-13.3 11.6l-6.8-.3c15.2-12 28.4-24.9 40.1-38.3 5.1-9.8 8.2-20.4 9.3-31.9 1.1-11.6.2-24.1-2.7-37.5-.3-1.2.5-2.4 1.7-2.7 1.2-.3 2.4.5 2.7 1.7 3 13.8 3.9 26.8 2.8 38.9-.7 6.9-2 13.5-4 19.8 15.8-19.8 28.6-40.3 40-60.2 1.3-9.9 1.8-18.6 1.4-26-.4-7.4-1.6-13.5-3.7-18.3-.5-1.1 0-2.5 1.2-3 1.1-.5 2.5 0 3 1.2 2.3 5.3 3.7 11.9 4.1 19.9.3 4.9.1 10.4-.3 16.4 3-5.3 5.8-10.5 8.7-15.6l2.2-4c0-.1.1-.1.1-.2C1683.7 1334 1697.7 1309.3 1715.5 1290.9zM941.5 674.4c-2.8 38.2-8.4 43.5-44.9 46.4 36.4 2.9 42.1 8.2 44.9 46.4 2.8-38.2 8.4-43.5 44.9-46.4C949.9 717.9 944.2 712.6 941.5 674.4L941.5 674.4zM1089.6 775.2c-1.5 20.4-4.5 23.2-24 24.8 19.5 1.6 22.5 4.4 24 24.8 1.5-20.4 4.5-23.2 24-24.8C1094.1 798.4 1091.1 795.6 1089.6 775.2L1089.6 775.2zM1024.7 618.1c-1.5 20.7-4.6 23.5-24.3 25.1 19.7 1.6 22.8 4.4 24.3 25.1 1.5-20.7 4.6-23.5 24.3-25.1C1029.3 641.6 1026.2 638.8 1024.7 618.1zM887.7 1301.1c2.3 31 6.8 35.2 36.3 37.6-29.5 2.4-34.1 6.7-36.3 37.6-2.3-31-6.8-35.2-36.3-37.6C880.9 1336.3 885.5 1332 887.7 1301.1L887.7 1301.1zM767.7 1382.7c1.2 16.5 3.6 18.8 19.4 20.1-15.8 1.3-18.2 3.6-19.4 20.1-1.2-16.5-3.6-18.8-19.4-20.1C764.1 1401.5 766.5 1399.3 767.7 1382.7L767.7 1382.7zM820.3 1255.5c1.2 16.7 3.7 19.1 19.7 20.3-16 1.3-18.4 3.6-19.7 20.3-1.2-16.7-3.7-19.1-19.7-20.3C816.6 1274.5 819.1 1272.2 820.3 1255.5zM1359.4 1224.7c-1.7 23.7-5.2 27-27.8 28.8 22.6 1.8 26.1 5.1 27.8 28.8 1.7-23.7 5.2-27 27.8-28.8C1364.6 1251.7 1361.1 1248.4 1359.4 1224.7L1359.4 1224.7zM1451.3 1287.3c-.9 12.7-2.8 14.4-14.9 15.4 12.1 1 13.9 2.7 14.9 15.4.9-12.7 2.8-14.4 14.9-15.4C1454.1 1301.7 1452.2 1299.9 1451.3 1287.3L1451.3 1287.3zM1411 1189.8c-.9 12.8-2.8 14.6-15 15.6 12.2 1 14.1 2.8 15 15.6.9-12.8 2.8-14.6 15-15.6C1413.9 1204.4 1412 1202.6 1411 1189.8z" clip-rule="evenodd"></path><g><path fill="#f08261" fill-rule="evenodd" d="M1008.1,1156.3c-47,52.8-115.1,119.4-166.9,155.4c-45.3,31.5-90.5,54.1-132.9,63.8
				c-37.2,8.5-69.3,6.7-94.7-3.1c-16-6.2-29.4-15.6-39.7-27.7c-10.4-12.2-17.8-27.2-21.7-44.3c-6.6-28.9-3.6-63.8,11.2-102.1
				c18.7-48.4,55.3-100,105.5-154.1c52.9-57.1,113.7-99.1,190.1-159l-61.6-103.5C716,845.4,644.7,908,588.1,969
				c-59.3,64-103.4,127.2-127.5,189.5c-23.1,59.7-27.2,116.7-15.9,166c8,35,23.5,66.2,45.5,91.8c22.1,25.8,50.4,45.9,83.8,58.8
				c45.1,17.4,99.1,21.4,158.6,7.9c57.5-13.1,115.6-41.6,171.7-80.6c59.1-41.1,111.5-83.2,164.1-142.3L1008.1,1156.3z" clip-rule="evenodd"></path><path fill="#f08261" fill-rule="evenodd" d="M995.9,1169.8c3.1-4.5,7.2-9,12.2-13.5C1004.2,1160.7,1000.1,1165.2,995.9,1169.8L995.9,1169.8z
				 M1008.1,1156.3l60.2,103.8c59.5,0.7,89.2,1,89.2,1c-35.9-72.2-53.8-108.3-53.8-108.3C1040,1155.1,1008.1,1156.3,1008.1,1156.3z" clip-rule="evenodd"></path><path fill="#71afed" fill-rule="evenodd" d="M1000.5,1162.3c-2.1,2.3-3.9,4.6-5.5,6.9l1.7,1.4c2.1-2.3,4.2-4.6,6.3-6.9c1.8-2,3.5-3.9,5-5.5l59.5,102.5
				l0.3,0.5l0.6,0l89.2,1l1.8,0l-0.8-1.6l-53.8-108.3l-0.3-0.6l-0.7,0l-95.6,3.4l-1.8,0.1l0.5,0.8
				C1004.4,1158.1,1002.3,1160.2,1000.5,1162.3L1000.5,1162.3z M1010,1157.3l93.1-3.3l52.7,106l-86.8-1L1010,1157.3z" clip-rule="evenodd"></path><path fill="#dfedfa" fill-rule="evenodd" d="M802.1,781.8c13.4,0.3,54.9,1.3,124.4,2.9c0,0,20.2,33.5,60.7,100.5c0.5,0.8,1.6,2.7-0.9,2.6
				c-10.4-0.2-52.9-1.1-127.4-2.7l-60.5-101.5C796.6,780.6,797.4,781.7,802.1,781.8z" clip-rule="evenodd"></path><path fill="#71afed" fill-rule="evenodd" d="M802,784l123.2,2.9c3.6,6,23.4,38.8,59.7,98.7l-124.7-2.6l-59-99L802,784L802,784L802,784z M926.5,782.5
				l-124.4-2.9c-1.1,0-2-0.1-2.7-0.2c-1.3-0.1-2-0.2-2.9,0.3h0c-2.1,1.2-1.6,2.4,0,5.1L857,886.3l0.6,1l1.2,0l127.4,2.7
				c2.9,0.1,3.8-1.3,3.8-3.1c0-1.2-0.6-2.3-1-2.9l0,0c-40.4-66.9-60.7-100.4-60.7-100.5l-0.6-1L926.5,782.5z" clip-rule="evenodd"></path><path fill="#71afed" fill-rule="evenodd" d="M988.8,887.9C739.7,1028,606.5,1159.1,589.3,1281c-4.3,30.3-6,46.4,16.6,68.1c38.1,36.5,99.5,34.6,184.3-5.8
				c-28,15.1-55.5,26.2-81.9,32.2c-37.2,8.5-69.3,6.7-94.7-3.1c-16-6.2-29.4-15.6-39.7-27.7c-10.4-12.2-17.8-27.2-21.7-44.3
				c-6.6-28.9-3.6-63.8,11.2-102.1c18.7-48.4,55.3-100,105.5-154.1c52.9-57.1,113.7-99.1,190.1-159L988.8,887.9z" clip-rule="evenodd"></path><path fill="#71afed" fill-rule="evenodd" stroke="#71afed" stroke-miterlimit="2.613" stroke-width=".216" d="M984.8,888.9c-122.9,69.4-217.4,136.6-283.5,201.6c-66.8,65.7-104.4,129.2-113.1,190.4
				c-2.1,15.3-3.7,26.9-1.8,37.6c1.9,10.7,7.2,20.4,18.7,31.4c19.3,18.5,44.4,27.2,75.5,26.3c18.7-0.6,39.6-4.7,62.6-12.4
				c-11.9,4.5-23.6,8.1-35.2,10.7c-18.1,4.1-35,5.8-50.5,5.3c-16.1-0.5-30.7-3.4-43.5-8.4c-7.9-3-15.1-6.9-21.6-11.4v0
				c-6.6-4.6-12.5-10-17.6-15.9c-5.2-6-9.6-12.8-13.2-20.2c-3.6-7.3-6.4-15.2-8.3-23.7c-3.3-14.6-4.2-30.8-2.3-48.2
				c1.8-16.7,6.2-34.6,13.4-53.2c9.3-24.1,23.1-49,40.8-74.7c17.7-25.7,39.4-52.1,64.4-79.1c41.4-44.6,87.5-80.1,142.3-122
				c15.1-11.6,30.9-23.7,47.4-36.6L984.8,888.9L984.8,888.9z M702.8,1092c66.5-65.5,162-133.2,286.5-203.2l-0.5-2.1L858.9,884
				l-0.7,0.2c-16.6,13-32.5,25.2-47.7,36.9c-54.8,42.1-101.1,77.5-142.5,122.3c-25.1,27.1-46.9,53.6-64.6,79.3
				c-17.8,25.8-31.7,50.9-41,75.1c-7.3,18.8-11.7,36.9-13.6,53.8c-1.9,17.6-1.1,34.1,2.3,48.9c2,8.6,4.8,16.7,8.5,24.2
				c3.7,7.5,8.2,14.4,13.5,20.6c5.2,6.1,11.3,11.6,18,16.3l0,0c6.7,4.7,14.1,8.6,22.1,11.7c13,5,27.9,8,44.2,8.5
				c15.7,0.5,32.8-1.2,51.1-5.3c13.1-3,26.4-7.2,40-12.5c13.9-5.5,28-12.1,42.2-19.8l0,0v0l0,0l-1-2
				c-42.2,20.1-78.6,30.7-109.2,31.7c-30.4,1-55-7.6-73.9-25.6c-11.1-10.7-16.3-19.9-18.1-30.2c-1.8-10.4-0.3-21.9,1.8-36.9
				C599,1220.4,636.4,1157.4,702.8,1092z" clip-rule="evenodd"></path><path fill="#fbbfa8" fill-rule="evenodd" d="M732.5,1483c57.5-13.1,115.6-41.6,171.7-80.6c59.1-41.1,111.5-83.2,164.1-142.3l89.2,1
				c-257.1,258.8-466.8,322.1-629.2,189.9c13.9,9.7,29.1,17.8,45.6,24.2C619.1,1492.6,673.1,1496.6,732.5,1483z" clip-rule="evenodd"></path><path fill="#71afed" fill-rule="evenodd" d="M732.8,1484.1c28.2-6.4,56.5-16.5,84.7-29.7c29.5-13.8,58.7-31.1,87.5-51.1c29.6-20.6,57.5-41.4,84.6-64.5
				c27-23,53.2-48.2,79.4-77.6l86.1,1c-127.7,128.2-243.6,208-347.8,239.5c-96.7,29.2-183.3,16.6-259.8-37.6
				c0.8,0.4,1.6,0.9,2.4,1.3c7.6,4,15.5,7.7,23.8,10.8c23.1,8.9,48.6,14.4,75.9,15.7C675.7,1493.2,703.6,1490.7,732.8,1484.1
				L732.8,1484.1z M816.5,1452.4c-28,13.2-56.2,23.2-84.2,29.6c-29,6.6-56.7,9-82.7,7.7c-27.1-1.3-52.3-6.7-75.2-15.6
				c-8.2-3.1-16-6.7-23.6-10.7c-7.6-4-14.9-8.5-21.8-13.3l-1.3,1.8c81.5,66.4,174.8,83.7,280.1,51.9
				c105-31.7,221.9-112.3,350.6-241.9l1.8-1.9l-2.6,0l-89.2-1l-0.5,0l-0.3,0.4c-26.3,29.5-52.5,54.8-79.5,77.8
				c-27,23-54.9,43.8-84.4,64.4C875,1421.4,845.8,1438.6,816.5,1452.4z" clip-rule="evenodd"></path><path fill="#fff" fill-rule="evenodd" d="M563.5,1329.8l-88.9,65.8c-13.8-21.1-24-45-29.9-71.1c-11.2-49.3-7.1-106.3,15.9-166
				c24.1-62.4,68.2-125.6,127.5-189.5c56.6-61,127.9-123.6,209.2-187.3l61.6,103.5c-76.4,59.9-137.2,101.9-190.1,159
				c-50.2,54.1-86.8,105.8-105.5,154.1c-14.8,38.3-17.8,73.2-11.2,102.1C554.6,1311.1,558.5,1320.9,563.5,1329.8z" clip-rule="evenodd"></path><path fill="#71afed" fill-rule="evenodd" d="M527.2,1452.5c81.7,66.5,175.3,83.9,280.8,52c105.2-31.7,222.2-112.4,350.9-242.1l1-1l-0.6-1.2l-53.8-108.3
				l-0.6-1.1l-1.3,0l-95.6,3.4l-1.2,0.5c-2.6,2.3-4.9,4.6-7,6.9c-2.1,2.3-3.9,4.5-5.5,6.8c-24.6,26.8-53.4,56-82.2,82.3
				c-25.1,23-50.1,43.9-72.1,59.2c-23.1,16.1-46.2,29.8-68.8,40.7c-21.6,10.4-42.8,18.1-63.4,22.8c-18.1,4.1-34.9,5.8-50.3,5.3
				c-16-0.5-30.5-3.4-43.2-8.3c-7.8-3-15-6.8-21.5-11.3v0c-6.6-4.6-12.4-9.9-17.5-15.8c-1.9-2.2-3.7-4.6-5.4-7
				c-1.7-2.4-3.3-5-4.8-7.6c-2.5-4.4-4.7-9-6.5-13.8c-1.8-4.8-3.4-9.9-4.6-15.1c-3.3-14.5-4.2-30.6-2.3-47.9
				c1.8-16.7,6.2-34.4,13.4-53c9.3-24,23-48.9,40.7-74.5c17.7-25.6,39.3-52,64.4-79c41.3-44.6,87.5-80,142.2-121.9
				c15-11.5,30.7-23.5,47.2-36.4l126.2,2.7l1.4,0l0.5-1.3l1.2-3.1l0.3-0.9l-0.5-0.8l-60.5-100l-0.6-0.9l-1.1,0l-129.2-3l-1.2,0.4
				c-40.7,31.9-78.9,63.5-114,94.8c-35.1,31.3-67.1,62.2-95.4,92.8c-29.7,32-55.6,63.9-77.1,95.6c-21.5,31.7-38.7,63.3-50.7,94.6
				c-11.4,29.4-18.1,58.2-20.8,85.7c-2.8,28.7-1,56,4.8,81.4c3,13.1,7,25.7,12,37.6c5.1,12,11.1,23.4,18.1,34.1
				c2.4,3.6,4.9,7.2,7.5,10.7c2.6,3.5,5.4,6.9,8.2,10.2c5.6,6.6,11.7,12.8,18.2,18.7C513.3,1442.1,520.1,1447.5,527.2,1452.5
				L527.2,1452.5z M806.9,1500.8c-104.2,31.4-196.6,14.3-277.3-51.4l-0.1-0.1c-7-4.9-13.7-10.3-20-16c-6.3-5.7-12.3-11.8-17.8-18.3
				c-2.8-3.3-5.5-6.6-8-10c-2.5-3.4-5-6.9-7.4-10.5c-6.9-10.5-12.8-21.7-17.8-33.5c-4.9-11.7-8.9-24.1-11.8-36.9
				c-5.7-25-7.4-51.9-4.7-80.2c2.6-27.2,9.3-55.6,20.5-84.7c12-31,29-62.3,50.3-93.8c21.4-31.5,47.2-63.2,76.8-95.1
				c28.2-30.4,60.1-61.3,95.2-92.5c34.9-31.1,72.8-62.5,113.2-94.2l127.4,3l59.4,98.3l-0.3,0.9L859,883.2l-1.2,0.4
				c-16.5,12.9-32.4,25.2-47.7,36.8c-54.8,42.1-101.1,77.6-142.6,122.4c-25.2,27.1-46.9,53.6-64.7,79.4
				c-17.8,25.8-31.7,51-41.1,75.3c-7.3,18.9-11.7,37-13.6,54c-1.9,17.7-1.1,34.3,2.3,49.2c1.2,5.4,2.8,10.6,4.7,15.6
				c1.9,5,4.2,9.8,6.8,14.4c1.5,2.7,3.2,5.3,5,7.9c1.8,2.5,3.7,5,5.7,7.3c5.3,6.2,11.4,11.7,18.2,16.5l0,0
				c6.7,4.7,14.2,8.7,22.3,11.8c13.1,5.1,28,8,44.5,8.6c15.7,0.5,32.9-1.2,51.3-5.4c20.9-4.7,42.4-12.6,64.2-23.1
				c22.9-11,46.1-24.8,69.3-41c22.2-15.4,47.3-36.4,72.5-59.5c28.9-26.5,57.8-55.8,82.5-82.6l0.2-0.2c1.5-2.2,3.3-4.4,5.3-6.6
				c1.8-2,3.9-4.1,6.2-6.2l93.7-3.4l52.6,105.9C1027.3,1389.3,911.2,1469.4,806.9,1500.8z" clip-rule="evenodd"></path><path fill="#eff9fc" fill-rule="evenodd" d="M1236.4,806.7c33.2,16.9,46.4,57.5,29.5,90.7c-16.9,33.2-57.5,46.4-90.7,29.5
					c-33.2-16.9-46.4-57.5-29.5-90.7C1162.6,803,1203.2,789.8,1236.4,806.7z" clip-rule="evenodd"></path><path fill="#61a0e0" fill-rule="evenodd" d="M1237.1,805.3c17,8.6,28.8,23.3,34.3,40.1c5.5,16.8,4.5,35.7-4.1,52.6c-8.6,17-23.3,28.8-40.1,34.3
					c-16.8,5.5-35.7,4.5-52.6-4.1c-17-8.6-28.8-23.3-34.3-40.1l0,0c-5.5-16.8-4.5-35.7,4.1-52.6c8.6-17,23.3-28.8,40.1-34.3
					C1201.2,795.7,1220.1,796.7,1237.1,805.3L1237.1,805.3z M1268.5,846.4c-5.2-16-16.6-30.1-32.8-38.4c-16.2-8.3-34.3-9.2-50.3-3.9
					c-16,5.2-30.1,16.6-38.4,32.8c-8.3,16.2-9.2,34.3-3.9,50.3c5.2,16,16.6,30.1,32.8,38.4c16.2,8.3,34.3,9.2,50.3,3.9
					c16-5.2,30.1-16.6,38.4-32.8C1272.8,880.4,1273.7,862.4,1268.5,846.4z" clip-rule="evenodd"></path><g><path fill="#ffb27d" fill-rule="evenodd" d="M1215.2,855.3c-0.1,8.1-2.8,14.2,12.2,21.2c-8.9,12.3-17.7,16.8-17.7,16.8s-18.8-8.4-25.2-14
						c7.9-5.8,13.7-6.5,13.6-14.2c0-1.9,0-9.5,0.1-9.6L1215.2,855.3z" clip-rule="evenodd"></path><path fill="#ffb27d" fill-rule="evenodd" d="M1218,827.5c-7.2-10.1-24.4-7.6-26.3,8c-0.8,6.3,0.3,16,3.1,21.8c0.6,1.2,1.5,2,2.7,3.6
						c1.4,1.8,2.8,3,4,3.3c3.9,1.1,7.8,1.6,11.1-0.7c1.6-1.1,2.9-2.5,4.1-4.3c1.1-1.7,2.3-3,2.7-5.6
						C1220.7,844.4,1222.1,833.3,1218,827.5z" clip-rule="evenodd"></path><path fill="#284191" fill-rule="evenodd" d="M1188.9,825.6c-2.4,5.1-0.4,9.7,0.3,15.4l0.8,6.7c0.1-1.5,0.9-2.5,1.5-4.9c0.9-3.9,1.7-9.2,2.8-9.7
						c6.2-2.9,18-2.4,23.2,0.1c1.5,0.7,3.5,14.1,3.5,14.1c9.1-22.2-3.9-21-3.4-25.4C1211.5,816.2,1193.7,815.4,1188.9,825.6z" clip-rule="evenodd"></path><path fill="#ffb27d" fill-rule="evenodd" d="M1189.9,842.4c2.9-0.9,3.1,5.3,3.1,8.4C1193,856.8,1185.2,843.8,1189.9,842.4z" clip-rule="evenodd"></path><path fill="#ffb27d" fill-rule="evenodd" d="M1190.5 845.4c.1-.3.5-.2.4.1-.5 1.7 0 2.7.7 3.1.1.1.1.2.1.3C1191.3 849.6 1189.7 847.9 1190.5 845.4zM1222.7 842.3c-2.9-.9-3.1 5.3-3.1 8.4C1219.6 856.7 1227.4 843.7 1222.7 842.3z" clip-rule="evenodd"></path><path fill="#ffb27d" fill-rule="evenodd" d="M1222.1,845.3c-0.1-0.3-0.5-0.1-0.4,0.1c0.5,1.7,0,2.7-0.7,3.1c-0.1,0.1-0.1,0.2-0.1,0.3
						C1221.3,849.6,1222.9,847.8,1222.1,845.3z" clip-rule="evenodd"></path><path fill="#f08261" fill-rule="evenodd" d="M1198.2,861.9c0.1-0.1,0.3-0.1,0.4,0c2.5,3.3,11.5,4.4,15.8-0.3c0.2-0.3,0.7,0.1,0.4,0.4
						C1208.8,872.9,1196.8,865.7,1198.2,861.9z" clip-rule="evenodd"></path><path fill="#8bbae9" fill-rule="evenodd" d="M1195.2,872.2c3.4,9.5,19.9,8.2,25.3,0.4c6.4,2.2,15.8,7.5,18.7,9.8c2.3,5.6,3.4,24.4,3.2,42.8
						c-4.8,3-9.9,5.4-15.3,7.1c-16.8,5.5-35.7,4.5-52.6-4.1c-0.5-0.3-1.1-0.6-1.6-0.9c-0.6-20.7-2.8-42.1,2.3-48.7
						C1177,876.2,1195.2,872.2,1195.2,872.2z" clip-rule="evenodd"></path><path fill="#61a0e0" fill-rule="evenodd" d="M1222.1,902.7c-6,0-38.2,0-38.4-0.5c-0.3-0.5-0.8-2.7,5.1-2.6c51.6,0.9,35.6-1.1,36.4,2.9
						C1225.1,902.6,1223.6,902.7,1222.1,902.7z" clip-rule="evenodd"></path><path fill="#ee7e63" fill-rule="evenodd" d="M1233.2,930c-0.3-1.8-1-2.6-3.3-3.9c-0.4-0.2-0.5,0-0.5,0.4c0.1,0.6,0.7,2.8,1.2,4.5
						C1231.5,930.8,1232.4,930.4,1233.2,930z" clip-rule="evenodd"></path><path fill="#ffb27d" fill-rule="evenodd" d="M1228.6,923.1c2,0.9,2,1.3,2.9,3c1.1,1.9,2.2,2.7,3,3.3c-0.9,0.4-1.7,0.8-2.6,1.1
						c-0.2-0.3-0.5-0.7-0.7-1.1c-3.3,1.7-5.8-5.5-10.9-2.2c-1.2,0.8,0.7,2.2,2.8,2.7c0.8,0.2,3.7,0.7,4,1.8c0.1,0.2,0,0.5-0.1,0.7
						c-0.5,0.2-0.9,0.3-1.4,0.4c-0.2,0-0.5-0.1-0.8-0.1c-7.3-1.7-9,0.1-10.9,0.4c-2.8,0.4-10-2.2-8-6.3c0.8-1.5,2.8-1.7,4.3-2.3
						C1224.1,919.4,1216.8,917.8,1228.6,923.1z" clip-rule="evenodd"></path><path fill="#61a0e0" fill-rule="evenodd" d="M1214.1,935.2c0.7-0.5,1.3-1,1.9-1.5c1.3-1.2-1.6-8-1.8-8.7c-12.9-0.1-28.4-3-41.2-3.2l6.2-6
						c6.7-32.4-4.3-36.8-4.3-36.8c0.1-0.2-11.9,20.6-16.3,38.1c4.6,4.3,9.9,8.1,15.9,11.1C1187.2,934.7,1200.9,936.9,1214.1,935.2z" clip-rule="evenodd"></path><path fill="#ffb27d" fill-rule="evenodd" d="M1205,933c-0.9-3.2-0.5-8.3-0.4-8.2c-3.3-1.2-6.1,3.8-8.5-1.8c-0.9-2.5-9.9-11.2-8.5-7.5
						c0.5,1.4,2,3.8,1.2,3.2c-5.3-4.3-10.9-10.4-10.5-7.7c0.2,1.1,7.3,8.6,6.6,8c-0.2-0.1-8.7-7.7-8.9-7.7c-3-0.1,2.4,4.4,6.9,9.1
						c0.6,0.6-8.3-6.1-8.3-6.1c-2,0.6,0.8,2.4,8.1,8.9c1,0.9-8.7-6.6-7.5-3c8.8,8.2,14.4,10.7,16.5,11.4
						C1192.6,932.2,1205,933,1205,933z" clip-rule="evenodd"></path><path fill="#61a0e0" fill-rule="evenodd" d="M1196.2,935.1c-0.6-0.4-1.2-0.9-1.7-1.4c-0.8-0.7,3.9-10,4.7-10c5-0.1,23.8-0.4,32.7,3.5
						c-0.2-0.7-2.6-45.4,7.4-44.8c6.8,0.4,10.5,19.8,11.7,36.5c-7,6.1-15.1,10.6-23.8,13.4C1217.3,935.6,1206.7,936.6,1196.2,935.1z
						" clip-rule="evenodd"></path><path fill="#61a0e0" fill-rule="evenodd" d="M1218.7 907.2c-4.8 0-30.6 0-30.8-.5-.2-.5-.6-2.7 4.1-2.6 41.3.9 28.5-1.1 29.2 2.9C1221.2 907.1 1220 907.2 1218.7 907.2zM1222.1 911.7c-6 0-38.2 0-38.4-.5-.3-.5-.8-2.7 5.1-2.6 51.6.9 35.6-1.1 36.4 2.9C1225.1 911.6 1223.6 911.7 1222.1 911.7z" clip-rule="evenodd"></path><path fill="#284191" fill-rule="evenodd" d="M1219.9,831.6c-4.2-4.3-11.9-4.4-22.9-0.4c-7-1.7-8.5-5-5.6-10.2c4.2-7.4,13.2-1.6,24.2-8.5
						C1215.2,817.9,1231.2,822.1,1219.9,831.6z" clip-rule="evenodd"></path><path fill="#284191" fill-rule="evenodd" d="M1190.2,827.1c1.3-1,1.7-2.1,1.2-3.2c-2-1.1-3.8-1.1-5.6-0.1C1186.9,823.8,1188.4,824.9,1190.2,827.1z" clip-rule="evenodd"></path><path fill="#284191" fill-rule="evenodd" d="M1192.4,824.9c-0.9,1-1.7,1.2-2.5,0.7c-0.5-1.9-0.2-3.6,0.8-5C1190.6,821.5,1191.2,822.9,1192.4,824.9z" clip-rule="evenodd"></path><path fill="#61a0e0" fill-rule="evenodd" d="M1195.8,871.6c6.9,8.2,14.9,8.3,24.1,0.3l2.2,1.3c-10.3,9-20.9,8.7-28.6-0.6L1195.8,871.6z" clip-rule="evenodd"></path></g><g><path fill="#eff9fc" fill-rule="evenodd" d="M1324.7,970.8c31,15.8,43.3,53.6,27.5,84.6c-15.8,31-53.6,43.3-84.6,27.5c-31-15.8-43.3-53.6-27.5-84.6
					C1255.8,967.3,1293.7,955,1324.7,970.8z" clip-rule="evenodd"></path><path fill="#61a0e0" fill-rule="evenodd" d="M1325.3,969.5c15.8,8.1,26.9,21.8,32,37.4c5.1,15.6,4.2,33.3-3.8,49.1c-8.1,15.8-21.8,26.9-37.4,32
					c-15.6,5.1-33.2,4.2-49.1-3.8c-15.8-8.1-26.9-21.8-32-37.4l0,0c-5.1-15.6-4.2-33.2,3.8-49.1c8.1-15.8,21.8-26.9,37.4-32
					C1291.9,960.6,1309.5,961.5,1325.3,969.5L1325.3,969.5z M1354.6,1007.8c-4.9-15-15.4-28.1-30.6-35.8c-15.1-7.7-32-8.5-46.9-3.7
					c-15,4.9-28.1,15.4-35.8,30.6c-7.7,15.1-8.5,32-3.7,46.9c4.9,15,15.4,28.1,30.6,35.8c15.1,7.7,32,8.5,46.9,3.7
					c15-4.9,28.1-15.4,35.8-30.6C1358.6,1039.6,1359.5,1022.8,1354.6,1007.8z" clip-rule="evenodd"></path><g><path fill="#284191" fill-rule="evenodd" d="M1278.4,1041.7c-4.8-10.5-5.5-18.8-2.1-22.5C1286.5,1027.4,1287.2,1035.8,1278.4,1041.7z" clip-rule="evenodd"></path><path fill="#8bbae9" fill-rule="evenodd" d="M1285.3,1057.4v32.9c10.4,1.8,21,0.9,30.8-2.2c9.7-3.1,18.6-8.6,25.9-16c-1.7-13.9-4.7-20.4-14.7-21.7
					c-2.8-1.3-6.5-1.9-10.9-3.8C1308.5,1054.7,1296.3,1058.4,1285.3,1057.4z" clip-rule="evenodd"></path><path fill="#ffb27d" fill-rule="evenodd" d="M1281.2,1039.2c7-60.7,18.7,11.6,30.6,6c1.1,0.4,2.2,0.8,3.3,1.3c-8.3,10.5-19.4,13.6-33.1,9.2
					c0.7-2.3,0.9-5.1,0.7-8.6C1282.1,1045.6,1281.6,1043,1281.2,1039.2z" clip-rule="evenodd"></path><path fill="#8bbae9" fill-rule="evenodd" d="M1303.1,1055.6c-5.3,1.7-10.2,2.3-14.7,1.8v33.3c9.4,1.1,18.8,0.2,27.6-2.7c1.9-0.6,3.8-1.3,5.7-2.1
					C1331.4,1025.2,1292.4,1068.1,1303.1,1055.6z" clip-rule="evenodd"></path><path fill="#ffb27d" fill-rule="evenodd" d="M1303.8,1039.2c0.1-8.5-0.9-16,4.3-22.5c1.9-7.9-1.9-14.5-0.8-23.5c-5.5-1.5-10.6-5.7-15.3-12.4
					c-4.6,6.3-10.1,11.2-16.5,14.7c0.7,4.6,0.5,10.6-0.6,17.8c-0.3,2.7,2.3,3.1,3.4,5.9c0.6,1.5,0.8,4.6,1.7,5.9
					c4.2,6,7.5,11.8-6.9,20.2c-1.1,0.4-2.2,0.8-3.3,1.3c8.3,10.5,19.4,13.6,33.1,9.2c-0.7-2.3-0.9-5.1-0.7-8.6
					C1302.9,1045.6,1303.4,1043,1303.8,1039.2z" clip-rule="evenodd"></path><path fill="#f08261" fill-rule="evenodd" d="M1304.7,1023.7c-7.1,8.5-13.5,10.5-19.5,6.1c3.2,4.5,7.6,5.7,13.4,3.8c2.5,0.7,4.2,3.4,4.9,8.1
					c0.1-0.8,0.2-1.6,0.3-2.5C1303.9,1033.6,1303.5,1028.4,1304.7,1023.7z" clip-rule="evenodd"></path><path fill="#61a0e0" fill-rule="evenodd" d="M1322.3,1085.6c-0.1-4.2,0.1-8.4,1-13c-1.6,4.5-2.4,9.1-2.7,13.8
					C1321.2,1086.1,1321.8,1085.8,1322.3,1085.6z" clip-rule="evenodd"></path><path fill="#8bbae9" fill-rule="evenodd" d="M1301,1057.4v33.6c-11.4,0.9-23.1-1.3-34.1-6.8c-8.8-4.5-16.1-10.7-21.8-18c1.9-9.9,5.4-14.8,13.9-15.9
					c1.9-0.9,3.7-1.1,5.3-0.7c1.7-1.2,3.6-2.2,5.6-3.1C1277.2,1055.6,1289.8,1058.7,1301,1057.4z" clip-rule="evenodd"></path><path fill="#61a0e0" fill-rule="evenodd" d="M1267.1 1084.2c0-3.7-.2-7.5-1-11.7 1.5 4.1 2.3 8.3 2.6 12.5C1268.2 1084.8 1267.6 1084.5 1267.1 1084.2zM1269.9 1048.2c-.4-.5-.4-1.2.1-1.7.5-.4 1.2-.4 1.7.1 3.1 3.6 7.9 6.7 13.1 8.5 4.6 1.6 9.5 2.1 13.8.8 2.9-.9 5.4-1.9 7.5-3 2.1-1.1 3.8-2.3 5.1-3.5.5-.5 1.2-.4 1.7 0 .5.5.4 1.2 0 1.7-1.5 1.4-3.4 2.7-5.7 3.9-2.2 1.2-4.9 2.2-7.9 3.1-4.7 1.4-10.1.9-15.2-.8C1278.5 1055.5 1273.3 1052.1 1269.9 1048.2z" clip-rule="evenodd"></path><path fill="#61a0e0" fill-rule="evenodd" d="M1269.9,1055.2c-0.4-0.4-0.4-1,0.1-1.3c0.5-0.3,1.2-0.3,1.7,0.1c3.1,2.9,7.9,5.3,13.1,6.8
					c4.6,1.3,9.5,1.6,13.8,0.6c2.9-0.7,5.4-1.5,7.5-2.4c2.1-0.9,3.8-1.8,5.1-2.8c0.5-0.4,1.2-0.4,1.7,0c0.5,0.4,0.4,1,0,1.3
					c-1.5,1.1-3.4,2.2-5.7,3.1c-2.2,0.9-4.9,1.8-7.9,2.5c-4.7,1.2-10.1,0.8-15.2-0.6C1278.5,1061,1273.3,1058.3,1269.9,1055.2z" clip-rule="evenodd"></path><path fill="#284191" fill-rule="evenodd" d="M1291.3,979c2.6-0.2,4,0.5,4.4,2.3c-1.8,3.3-4.4,5.3-7.7,6C1289.4,986.1,1290.5,983.3,1291.3,979z" clip-rule="evenodd"></path><path fill="#284191" fill-rule="evenodd" d="M1317.7,1007.6c-8.6-6-14.9-11.1-18.8-15.2c-13,2.6-20.3-0.4-22-9c0.9-9.9,7.3-13.7,19.3-11.5
					C1312.2,973.6,1319.4,985.5,1317.7,1007.6z" clip-rule="evenodd"></path><path fill="#284191" fill-rule="evenodd" d="M1276.9 1005.6c1.7-6.4 2.2-11.5 5.4-14.1-.6-21.5-10.7-12.7-13.7 1.2-2.8 13-4.9 32.8-3.7 58.1 2.8-.6 6.2-2.1 10.2-4.4C1286.7 1039.6 1275.3 1011.7 1276.9 1005.6zM1303.1 989.9c2.1-11.7 3.1-9.9 8.1-3.4 8.6-2.9 13.2 62.7 3.8 69.3-.5.4-1.2-.7-2.1-1.4-16.2-11.7-8.3-28.5-5.9-35.2.5-1.4.6-6.7.6-13.1C1307.6 999.2 1305.3 992 1303.1 989.9z" clip-rule="evenodd"></path><path fill="#284191" fill-rule="evenodd" d="M1282.1,980.4c-1.4,2.2-2.9,2.8-4.5,2c-1.4-3.5-1.4-6.7,0.1-9.8C1277.7,974.5,1279.2,977.1,1282.1,980.4z" clip-rule="evenodd"></path><path fill="#284191" fill-rule="evenodd" d="M1276.3 980.5c1.4 0 2.1-.5 2.1-1.5-1.2-1.6-2.6-2.5-4.4-2.6C1274.8 976.9 1275.6 978.3 1276.3 980.5zM1334.1 1052.6c.1-.3-3.5-3-3.8-3.7-8.3-25.6-17.3-36-22.1-42.2-7.5 25.9-6.8 39.5 1.9 40.9 2.1-.3 6.2.7 20.8 4.1C1331.6 1051.9 1333.9 1053.3 1334.1 1052.6zM1303 992c-1.5-.7-2.6-.5-3.2.5.4 2.4 1.5 4.2 3.4 5.3C1302.6 996.7 1302.5 994.8 1303 992z" clip-rule="evenodd"></path><path fill="#61a0e0" fill-rule="evenodd" d="M1293.9,1064.7c2.1,0,3.7,1.7,3.7,3.7c0,2-1.7,3.7-3.7,3.7c-2,0-3.7-1.7-3.7-3.7
					C1290.1,1066.4,1291.8,1064.7,1293.9,1064.7z" clip-rule="evenodd"></path><path fill="#61a0e0" fill-rule="evenodd" d="M1293.9 1066.9c.8 0 1.5.7 1.5 1.5 0 .8-.7 1.5-1.5 1.5-.8 0-1.5-.7-1.5-1.5C1292.4 1067.6 1293 1066.9 1293.9 1066.9zM1293.9 1072.5c.8 0 1.5.7 1.5 1.5 0 .8-.7 1.5-1.5 1.5-.8 0-1.5-.7-1.5-1.5C1292.4 1073.2 1293 1072.5 1293.9 1072.5z" clip-rule="evenodd"></path></g></g><g><circle cx="1112" cy="680.7" r="70.7" fill="#eff9fc" fill-rule="evenodd" clip-rule="evenodd" transform="rotate(-10.827 1111.666 680.613)"></circle><path fill="#61a0e0" fill-rule="evenodd" d="M1144.8,616.3c17.8,9.1,30.2,24.5,36,42.1c5.7,17.6,4.7,37.4-4.3,55.2c-9.1,17.8-24.5,30.2-42.1,36
					c-17.6,5.7-37.4,4.7-55.2-4.3c-17.8-9.1-30.2-24.5-36-42.1l0,0c-5.7-17.6-4.7-37.4,4.3-55.2c9.1-17.8,24.5-30.2,42.1-36
					C1107.2,606.2,1127,607.2,1144.8,616.3L1144.8,616.3z M1177.7,659.3c-5.5-16.8-17.4-31.5-34.4-40.2c-17-8.7-35.9-9.6-52.7-4.1
					c-16.8,5.5-31.5,17.4-40.2,34.4c-8.7,17-9.6,35.9-4.1,52.7c5.5,16.8,17.4,31.5,34.4,40.2c17,8.7,35.9,9.6,52.7,4.1
					c16.8-5.5,31.5-17.4,40.2-34.4C1182.2,695,1183.2,676.1,1177.7,659.3z" clip-rule="evenodd"></path><g><path fill="#284191" fill-rule="evenodd" d="M1139.5,638.3c-26.6-8.4-46.4-9.7-48,1.4c-4.7,40.1-8.1,63-7.7,65.6c0.9,0,1.8,0.1,2.6,0.1
					c0.2,0,0.5-5.6,0.7-5.6c0.3,0,0.5,5.7,0.8,5.7c21.3,1.2,40.6,0.8,49.6,1.8c2.3,0.3,1.3-8.3,1.9-8.2c0.6,0.1-0.6,8.9,1.6,9
					c1.8,0.1,3.2,0.7,4.4,1c1.5-11.1-1.2-17.4-1.7-28C1143,665.3,1143.5,646.4,1139.5,638.3z" clip-rule="evenodd"></path><path fill="#61a0e0" fill-rule="evenodd" d="M1136.4,703.3c7.7,9.8-1.1,28.1-30.1,20.7c-12.5-3.2-22.7-14.3-18.5-22.1
					C1095.4,687.8,1125.9,690,1136.4,703.3z" clip-rule="evenodd"></path><path fill="#61a0e0" fill-rule="evenodd" d="M1109.1,692.8c-1.1,0-2.3,0-3.4,0.2c-8.3,0.7-14.7,4.1-17.5,9.2c-1.2,2.2-1.2,4.9,0.1,7.7
					c2.6,5.9,10,11.5,18.1,13.6c14.1,3.6,25.3,1.4,30.1-5.9c2.9-4.4,2.6-9.9-0.5-13.9C1130.8,697.1,1119.9,692.8,1109.1,692.8
					L1109.1,692.8z M1118.7,726.2c-3.8,0-8.1-0.6-12.6-1.7c-8.3-2.1-16.1-8-18.8-14.2c-1.4-3.1-1.4-6.1,0-8.7
					c2.9-5.5,9.6-9,18.3-9.8c12.4-1.1,25.2,3.5,31.2,11.1c3.5,4.4,3.7,10.3,0.6,15.1C1133.9,723.5,1127.3,726.2,1118.7,726.2z" clip-rule="evenodd"></path><path fill="#ffb27d" fill-rule="evenodd" d="M1146.9,719.1c-14-11-27.6-11.4-20.7-37.7l-25-2.8c-2,19.6-0.8,21.1-9.6,27.9c-1.9,1.5-14.2,7.5-14.2,7.5
					C1095.5,731.4,1130,731.8,1146.9,719.1z" clip-rule="evenodd"></path><path fill="#ec7d63" fill-rule="evenodd" d="M1125.4,684.8c-0.9,4.6-1.4,8-0.8,12.4c-8.9-6.7-21.9-3.6-23.8-14.8
					C1100.2,678.5,1110.2,696.5,1125.4,684.8z" clip-rule="evenodd"></path><path fill="#ffb27d" fill-rule="evenodd" d="M1096.8,641.1c-12.5,37.3,16.2,65.2,34,36.8C1162.8,626.8,1106.9,610.8,1096.8,641.1z" clip-rule="evenodd"></path><path fill="#284191" fill-rule="evenodd" d="M1125.5,631.5c0.6,6.3-4.6,6.8-9.2,6.7c-14.3-0.1-21.8,17.7-22.4,23.8c-9.5-25,13.7-49.8,27.6-43
					C1125.8,621.1,1125.2,627.7,1125.5,631.5z" clip-rule="evenodd"></path><path fill="#284191" fill-rule="evenodd" d="M1116.6,627.4c-3,5.5,1.6,8.1,5.7,9.8c13.2,5.6,14,28.4,12.1,34.2c18.7-19.2,6.1-54.7-9.3-53.9
					C1120.6,617.7,1118.5,624,1116.6,627.4z" clip-rule="evenodd"></path><path fill="#ffb27d" fill-rule="evenodd" d="M1092.9,652.1c4-0.4,2.6,7.5,1.9,11.4C1093.3,671.2,1086.7,652.7,1092.9,652.1z" clip-rule="evenodd"></path><path fill="#ffb27d" fill-rule="evenodd" d="M1093.2 662c-.2 0-.3-.1-.4-.2-1-1.6-1.4-4.7.3-6.1.2-.2.6-.2.7.1.2.2.2.6-.1.8-1.2 1-.8 3.5-.1 4.7.2.2.1.6-.2.7L1093.2 662zM1139.8 660.7c-3.6-1.8-5.2 6.1-5.9 10C1132.6 678.4 1145.5 663.5 1139.8 660.7z" clip-rule="evenodd"></path><path fill="#ffb27d" fill-rule="evenodd" d="M1136.2,669.9c-0.2,0-0.3-0.1-0.4-0.2c-0.2-0.2-0.1-0.6,0.1-0.7c1.1-0.8,2.4-3,1.6-4.4
					c-0.1-0.3,0-0.6,0.2-0.7c0.3-0.1,0.6,0,0.7,0.2c1.1,1.9-0.4,4.7-1.9,5.8C1136.4,669.8,1136.3,669.9,1136.2,669.9z" clip-rule="evenodd"></path><path fill="#8bbae9" fill-rule="evenodd" d="M1055.9 726.3c12.3-30.7 37.7-20.6 28.3 16.8l-1 4c-1.4-.6-2.7-1.2-4-1.9C1069.9 740.4 1062 733.9 1055.9 726.3zM1166.2 728.6c-11.8-34.1-39.1-24.6-29.4 13.9l1.4 5.6C1148.8 744 1158.4 737.4 1166.2 728.6z" clip-rule="evenodd"></path><path fill="#d6e6f3" fill-rule="evenodd" d="M1125.2,700.7c5.3,1.1,11.9,3.2,23.2,7.1c0.7,0.3,1.1,0.9,1.1,1.7c-0.9,11.1-0.3,22.1,0.5,32.8
					c-4.9,3-10.1,5.4-15.6,7.2c-17.6,5.7-37.4,4.7-55.2-4.3c-2.9-1.5-5.7-3.1-8.3-4.9c0.1-15.9,0.7-28.9,0.9-31
					c8.1-3.5,15.7-7.3,26.1-9.4C1106.4,713.9,1112.9,711.4,1125.2,700.7z" clip-rule="evenodd"></path><path fill="#61a0e0" fill-rule="evenodd" d="M1110.3,712.9c0-0.3,0.3-0.6,0.6-0.6c0.3,0,0.6,0.3,0.6,0.6c0,12.5,0.1,25.9,0.3,40.1l-1.2,0
					C1110.4,738.8,1110.3,725.4,1110.3,712.9z" clip-rule="evenodd"></path><path fill="#61a0e0" fill-rule="evenodd" d="M1072.3,709.5c-0.3,4.6-0.8,16.8-0.9,31l-1.1-0.7c0.1-16.9,0.9-30.4,0.9-30.7l0-0.3l0.3-0.1
					c1.3-0.6,2.6-1.1,3.9-1.7c6.7-2.9,13.6-6,22.3-7.8l0.4-0.1l0.2,0.3c3.6,5.9,6.8,8.9,10.2,9.4c4.5,0.7,9.6-2.8,16.3-8.6l0.2-0.2
					l0.3,0c5.5,1.1,12.4,3.4,23.2,7.1c0.9,0.3,1.5,1.2,1.4,2.2c-0.9,10.9-0.3,21.8,0.5,32.4l-1,0.6c-0.8-10.8-1.4-22-0.5-33.2
					c0-0.5-0.3-1-0.7-1.1c-10.6-3.7-17.4-5.9-22.8-7.1c-6.8,5.9-12.1,9.5-16.9,8.7c-3.7-0.6-7.1-3.6-10.8-9.6
					c-8.5,1.8-15.2,4.8-21.8,7.6C1074.7,708.5,1073.5,709,1072.3,709.5z" clip-rule="evenodd"></path><path fill="#61a0e0" fill-rule="evenodd" d="M1118.6,721.2l-0.1,0c-0.3,0-0.6-0.2-0.7-0.5c-1.5-3.2-3.7-5.8-6.6-7.8l-0.3,0c-2.4,2-4.1,4.5-5.1,7.4
					c-0.1,0.3-0.3,0.5-0.6,0.6c-0.3,0.1-0.6,0-0.8-0.2c-5.7-5.8-11.3-12-13.5-18.9c-0.1-0.3,0.1-0.6,0.3-0.7
					c0.3-0.1,0.6,0.1,0.7,0.3c2.1,6.6,7.5,12.7,13,18.3c1.1-3,2.9-5.5,5.4-7.6c0.4-0.4,1.1-0.4,1.6-0.1c2.9,2.1,5.2,4.7,6.8,8
					c4.2-4.9,9.8-11.6,12.2-17.7c0.1-0.3,0.4-0.4,0.7-0.3c0.3,0.1,0.4,0.4,0.3,0.7c-2.5,6.4-8.3,13.2-12.6,18.2
					C1119.1,721.1,1118.8,721.2,1118.6,721.2z" clip-rule="evenodd"></path><path fill="#8bbae9" fill-rule="evenodd" d="M1069.6 739.3c.1-10.3.4-20.6 1.4-30.3 0-.2.1-.3.2-.4 7.5-4.3 11.6-5.7 23.3-8.7.3-.1.6.1.6.5 0 3.3 1 24.1 2 51.1-6.1-1.3-12.1-3.4-17.9-6.3C1075.8 743.4 1072.6 741.4 1069.6 739.3zM1151.8 741.1c-.6-11.3-1.2-22.5-2.3-32.9 0-.1-.1-.2-.2-.2-5.4-2.2-7.7-2.5-19.7-7.3-.2-.1-.4.1-.4.2-.1 2.7-1.2 23.3-2.4 50.6 2.5-.5 5-1.2 7.5-2C1140.5 747.5 1146.3 744.7 1151.8 741.1z" clip-rule="evenodd"></path><path fill="#61a0e0" fill-rule="evenodd" d="M1087.8,702c-1.8,7.8-4.3,11.7-7.2,18.9c-0.2,0.5,0.1,1.1,0.7,1.1c2.1,0.1,4.1,0.5,6.1,1.2
					c0.2,0.1,0.2,0.3,0.1,0.4c-5.7,8.2-6.2,8.2-5.6,12c0.6,3.4,1.3,7.5,2.2,12c3.8,1.6,7.7,2.8,11.7,3.7c-0.1-18-0.5-34.5-0.8-51.1
					c0-0.2-0.2-0.3-0.4-0.3l-6.5,1.7C1088,701.6,1087.8,701.8,1087.8,702z" clip-rule="evenodd"></path><path fill="#61a0e0" fill-rule="evenodd" d="M1088.3 702.1c-1.2 5.4-2.8 8.8-4.6 12.8-.8 1.9-1.7 3.9-2.6 6.2-.1.1 0 .2 0 .3 0 0 .1.1.2.1 2.1.1 4.2.5 6.2 1.2.2.1.4.2.5.5.1.2 0 .5-.1.7-.8 1.2-1.5 2.2-2.1 3.1-3.6 5.2-3.8 5.5-3.3 8.5.6 3.4 1.4 7.6 2.3 12.3l-1.2-.5c-.9-4.4-1.6-8.4-2.2-11.6-.6-3.4-.2-4 3.5-9.3.6-.8 1.2-1.7 1.9-2.8-1.8-.6-3.7-.9-5.6-1-.4 0-.8-.2-1-.6-.2-.4-.3-.8-.1-1.2.9-2.4 1.8-4.3 2.7-6.2 1.8-4 3.3-7.4 4.5-12.6.1-.4.4-.7.8-.8l6.5-1.7c.3-.1.5 0 .7.1.2.2.3.4.3.7.1 4.6.2 9.1.2 13.6.2 12.1.4 24.4.5 37.6l-1.1-.2c-.1-13.1-.3-25.3-.5-37.3-.1-4.5-.2-8.9-.2-13.3L1088.3 702.1zM1136.4 703.3c1.7 7.7 3.3 10.9 6 17.8.3.8-.2 1.8-1.2 1.9-1.6.1-3.1.4-4.7.9-.5.2-.7.8-.4 1.2 5.3 7.6 5.8 7.7 5.1 11.4-.5 3.2-1.3 7.1-2.2 11.3-1.6.6-3.1 1.2-4.7 1.7-2.4.8-4.8 1.4-7.3 2 .8-17.1 1.9-32.9 2.2-50.5 0-.2.2-.4.4-.3 1.3.5 5.7 2.2 6.5 2.5L1136.4 703.3z" clip-rule="evenodd"></path><path fill="#61a0e0" fill-rule="evenodd" d="M1129.8,701.2c-0.2,11.7-0.8,22.8-1.4,33.6c-0.3,5.4-0.6,10.9-0.8,16.5l-1.1,0.2
					c0.3-5.7,0.6-11.3,0.8-16.8c0.6-10.8,1.2-22.1,1.4-33.8c0-0.3,0.1-0.5,0.4-0.7c0.2-0.1,0.5-0.2,0.8-0.1l6.5,2.5
					c0.3,0.1,0.5,0.3,0.5,0.6c1.5,6.6,2.8,9.9,4.9,15c0.3,0.8,0.7,1.7,1.1,2.7c0.2,0.6,0.2,1.2-0.1,1.7c-0.3,0.5-0.9,0.8-1.5,0.9
					c-1.5,0.1-3.1,0.4-4.6,0.9l-0.1,0.1l0,0.2c0.6,0.9,1.2,1.8,1.7,2.5c3.7,5.3,4.1,5.8,3.5,9.3c-0.5,3.1-1.3,6.9-2.1,11l-1.2,0.5
					c0.9-4.4,1.7-8.3,2.3-11.6c0.5-3,0.3-3.3-3.3-8.5c-0.5-0.7-1.1-1.6-1.7-2.5c-0.2-0.3-0.3-0.8-0.2-1.2c0.1-0.4,0.4-0.7,0.8-0.8
					c1.6-0.5,3.2-0.8,4.8-0.9c0.3,0,0.5-0.2,0.6-0.4c0.1-0.2,0.2-0.5,0.1-0.7c-0.4-1-0.7-1.8-1.1-2.7c-2.1-5.1-3.4-8.5-4.9-15.1
					L1129.8,701.2z" clip-rule="evenodd"></path><path fill="#284191" fill-rule="evenodd" d="M1102.4,752.4l-17.2-22c-0.7-0.9-2-1-2.8-0.4l-12.4,9.5c2.9,2.1,6,3.9,9.2,5.6
					C1086.7,749,1094.5,751.3,1102.4,752.4z" clip-rule="evenodd"></path><path fill="#2b478b" fill-rule="evenodd" d="M1083.6,730.2c-0.3,0-0.6,0.1-0.9,0.3l-12.2,9.4l-0.9-0.6l12.5-9.6c1.1-0.8,2.7-0.6,3.6,0.5l17.5,22.4
					c-0.5-0.1-1-0.1-1.5-0.2l-16.9-21.5C1084.5,730.4,1084,730.2,1083.6,730.2z" clip-rule="evenodd"></path><path fill="#284191" fill-rule="evenodd" d="M1100.3,647c20.4,2,34.5-2.1,34-19.4c-23.8-24.8-54.4-3.6-39.3,35.9C1095.8,657.6,1097.6,652.1,1100.3,647
					z" clip-rule="evenodd"></path><path fill="#284191" fill-rule="evenodd" d="M1118.6,624.2c2.8,0.7,4.5,0.1,5.2-1.8c-1.4-3.9-3.9-6.6-7.5-7.9C1117.7,616.1,1118.5,619.3,1118.6,624.2z
					" clip-rule="evenodd"></path><path fill="#284191" fill-rule="evenodd" d="M1121.3,625.5c0.7,0.5,1.2-0.3,1.6-2.2c0-3.8-0.5-6.2-1.3-7.2C1121.8,617.6,1121.7,620.7,1121.3,625.5z" clip-rule="evenodd"></path></g></g><g><path fill="#eff9fc" fill-rule="evenodd" d="M1403.9,606.1c34.8,17.7,48.7,60.3,30.9,95.1c-17.7,34.8-60.3,48.7-95.1,30.9
				c-34.8-17.7-48.7-60.3-30.9-95.1C1326.5,602.3,1369.1,588.4,1403.9,606.1z" clip-rule="evenodd"></path><path fill="#61a0e0" fill-rule="evenodd" d="M1404.6,604.7c17.8,9.1,30.2,24.5,36,42.1c5.7,17.6,4.7,37.4-4.3,55.2c-9.1,17.8-24.5,30.2-42.1,36
				c-17.6,5.7-37.4,4.7-55.2-4.3c-17.8-9.1-30.2-24.5-36-42.1l0,0c-5.7-17.6-4.7-37.4,4.3-55.2c9.1-17.8,24.5-30.2,42.1-36
				C1367.1,594.7,1386.8,595.7,1404.6,604.7L1404.6,604.7z M1437.5,647.8c-5.5-16.8-17.4-31.5-34.4-40.2c-17-8.7-35.9-9.6-52.7-4.1
				c-16.8,5.5-31.5,17.4-40.2,34.4c-8.7,17-9.6,35.9-4.1,52.7c5.5,16.8,17.4,31.5,34.4,40.2c17,8.7,35.9,9.6,52.7,4.1
				c16.8-5.5,31.5-17.4,40.2-34.4C1442.1,683.5,1443,664.6,1437.5,647.8z" clip-rule="evenodd"></path><path fill="#ffb27d" fill-rule="evenodd" d="M1363.9 647l.5-6.3c-.9-.9-1.6-1.5-2.1-2.3-1.4-2.3-2.3-3.1-3-2-.3.2-.4 1-.3 2 .3 1.7 1.4 4.3 1.8 5.8C1361.2 645.5 1362.7 649.6 1363.9 647zM1396.7 676l-9.2-.4-31.5-2.3-10.7-.1c10 .9 18.7-8 19.7-10.8.8-2.3 1.2-6.3.6-8.7l8.8.6 8.8-.9C1382.1 664 1387.1 671.9 1396.7 676z" clip-rule="evenodd"></path><path fill="#f37960" fill-rule="evenodd" d="M1363.2,664.2c0.8-0.4,1.6-0.9,1.9-1.7c0.8-2.3,1.1-6.6,0.6-9l8.9,0.9l8.8-0.9c0,0.1-0.1,1.4-0.2,1.8
						c-0.1,0.3,0,0.8,0,0.9c-0.4,0.5-0.5,0.6-1,1c-0.5,0.4-1,0.8-1.4,1.3c-0.7,0.9-1.3,2.2-2,2.8c-1.5,1.3-3.6,2-6.2,2.6
						C1369.5,664.5,1365.4,664.8,1363.2,664.2z" clip-rule="evenodd"></path><path fill="#ffb27d" fill-rule="evenodd" d="M1374.7,659.7c-0.1,0-0.1,0-0.2,0c-1.9,0-2.8,0-3.9-0.4c-1-0.4-1.5-1.4-2.9-2.7c-1.2-1.1-2.8-3.2-3.4-4.4
						c-0.7-1.7-0.8-2.6-1.3-5.2c-0.3-2.1-1.3-3.9-1.4-6c-0.1-2.2,0.2-4.5,0.2-7c-0.1-2.5-0.1-4.5,0.2-6.3c0.3-1.8,1-3.2,2.4-4.5v0
						c0.8-0.7,1.7-1.3,2.7-1.8l0,0c0.1,0,0.1-0.1,0.2-0.1l0.1-0.1c0.1,0,0.1,0,0.2-0.1c0.1,0,0.1,0,0.2-0.1c0.1,0,0.1,0,0.2-0.1
						c0.1,0,0.1,0,0.1-0.1c0.1,0,0.1-0.1,0.2-0.1l0.1,0c0.1,0,0.2-0.1,0.3-0.1l0,0c2.6-0.9,5.6-1.2,8.3-0.8c2.8,0.4,5.4,1.5,7.4,3.2
						c1.4,1.3,2.1,2.7,2.4,4.5c0.3,1.7,0.2,3.8,0.2,6.2c-0.1,2.5,0.3,4.8,0.2,7c-0.1,2.1-1.1,3.9-1.4,6c-0.4,2.6-1.2,3.8-1.9,5.5
						c-0.5,1.2-1.5,3-2.7,4.1c-1.4,1.3-1.8,2.3-2.8,2.8C1377.4,659.7,1376.5,659.7,1374.7,659.7z" clip-rule="evenodd"></path><path fill="#8bbae9" fill-rule="evenodd" d="M1365.1,658.9c-0.7,2.1-1.4,3.9-2.2,5.9c-4.6,1.7-9.6,4.6-13,5.3c-12.9,2.8-14.9,7.7-15.4,19.7
						c-2.3,11.4-3.9,22.5-5.6,33.9l-0.2,1.5c3.4,2.6,7,4.9,10.9,6.9c2.2,1.1,4.3,2.1,6.6,2.9c-0.1-1.4-0.3-2.8-0.5-4.2
						c2-16.2,4.6-16.1,6.4-36.6l10.9,4.2l17.1,6.7l18.2,18.5l-0.9,10.9l0.1,0.3c6-2.3,11.7-5.5,16.8-9.4c-0.7-11.7-4.3-23.5-4.5-34
						c0.6-11.1-1.7-15.7-10.2-17.7c-3.8-1.7-8.1-3.1-13-5.7l-2.1-5.9c-2.2,5.5-2.9,5.9-6.8,10.3
						C1369.6,667,1365.6,662.7,1365.1,658.9z" clip-rule="evenodd"></path><path fill="#8bbae9" fill-rule="evenodd" d="M1349.7,687.6l-0.6,1.9c-0.1,7.4,1.1,14.7,0.5,22.2c-0.9,10.7-0.7,18.1-0.1,24.6
						c16.3,5.5,33.5,4.6,48.7-1.5c0.7-3.3,1.3-7.1,1.7-11.6c1.2-12.3,2-21.3-1.9-32.4l-15.9-0.9L1349.7,687.6z" clip-rule="evenodd"></path><path fill="#61a0e0" fill-rule="evenodd" d="M1400.9 733.6c-.4-4.2-.6-8.7-.7-13.9 1-10.6 1.3-18.9-2.3-29h-1.1c3.8 11 1.4 19.7.3 32 0 .3-1 5.4-1.5 13C1397.4 735.1 1399.1 734.4 1400.9 733.6zM1350.8 687.8l.6 7c-.1 7.4-1.5 9.3-2.1 16.8-.7 9.1-1 17.9-.9 24.3 1.2.4 2.4.8 3.6 1.1-.2-6.4.6-13.3 1.4-17.5.9-5 1-9.3 1.1-13.4C1354.6 701.1 1354.2 693.8 1350.8 687.8zM1365.1 659.1c-1.4 2.9-2.9 5.6-3.9 6.6-.2 1.7 2.5 7.1 8 12.9-3.5-5.6-7.2-9.9-6.6-12.5.5-1.1 2-3.9 3-5.6L1365.1 659.1z" clip-rule="evenodd"></path><path fill="#61a0e0" fill-rule="evenodd" d="M1369,678.7c2.5-3,3.6-4.8,6.7-7.3l3.1,0.3c2.5,1.7,3.7,2.7,5.5,8.8l-3.3-3.2l-3.9-2.2l-2,0.3l-2,1.1
						C1371.8,677,1370.3,677.9,1369,678.7z" clip-rule="evenodd"></path><path fill="#4f8ecc" fill-rule="evenodd" d="M1375.7,671.5c-1.4,1-1.8,1.7-3.2,3.2c0.9,1.6,1.7,2.3,2.8,3.7l0,1.8c0.1,16-1.3,34.6-1.8,50.5l6.4,7.3
						l4.2-8.2c0.4-14.1-2.2-35.4-4.2-51c0.5-1.2,1.1-3,2-3.8c-1.2-1.9-1.9-2.5-3.4-3.7C1378.6,671.5,1376,671.3,1375.7,671.5z" clip-rule="evenodd"></path><path fill="#284191" fill-rule="evenodd" d="M1378.8,627.4c-4.1-0.3-15.6-2.6-13.6,3.9l-1-1c-0.5,2.4-0.7,3.2-0.6,5.7l-1.2-0.9
						c0.1,4.3,0.6,5.3,0.8,9.3c-1.9-3.2-1-7-3-8.4c-0.4-5-1-4.8,0-9.8l-1.1,0.2c0.4-0.8,1-1.4,1.5-2.1c-0.7,0.1-1.9,1.4-2.6,2.2
						c1-4.5,5.4-8.8,10.9-10.8c6.5-2.4,12.7-2.5,16.6,1.2c0.5,1.1,0.7,1.1,0.4,1.9c1,0.1,1.3-0.7,2.3-0.8c-0.4,0.2-0.9,1.3-1.3,1.5
						c2.2,2.2,2.1,3,2.6,6.8c-0.4-1.7-0.6-2-1.4-3.5c0.5,1.6,1.3,3.7,1.5,4.9c0.3,1.9-0.4,3.4-0.5,4.8c-0.6,6.6-0.1,5.9-2.7,13.2
						c0.2-2.1,0.1-3.9,0.1-5.8c0-2.1,0-4.4-0.3-7.1C1384.8,623.6,1383,629,1378.8,627.4z" clip-rule="evenodd"></path><path fill="#ffb27d" fill-rule="evenodd" d="M1365 647l-.5-6.3c.9-.9 1.6-1.5 2.1-2.3 1.4-2.3 2.3-3.1 3-2 .3.2.4 1 .3 2-.3 1.7-1.4 4.3-1.8 5.8C1367.8 645.5 1366.2 649.6 1365 647zM1385.5 646.3c-.4-8.8.6-1.2 1-8.6.9-2.3 1.5-3.1 2-2 .2.2.3 1 .2 2-.2 1.7-.9 4.3-1.2 5.8C1387.3 644.8 1386.3 648.9 1385.5 646.3z" clip-rule="evenodd"></path><path fill="#4f8ecc" fill-rule="evenodd" d="M1357,697.3c2.6,0.4,4.9,0.6,6.9,0.6c2,0,3.7-0.2,5.1-0.5l0.5,1.8c-1.6,0.4-3.4,0.6-5.5,0.6
					c-2.1,0-4.5-0.2-7.1-0.6L1357,697.3z" clip-rule="evenodd"></path></g><g><path fill="#eff9fc" fill-rule="evenodd" d="M1447.5,831.3c-34.8,17.7-48.7,60.3-30.9,95.1c17.7,34.8,60.3,48.7,95.1,30.9c34.8-17.7,48.7-60.3,30.9-95.1
				C1524.9,827.4,1482.3,813.6,1447.5,831.3z" clip-rule="evenodd"></path><path fill="#61a0e0" fill-rule="evenodd" d="M1446.8,829.8c-17.8,9.1-30.2,24.5-36,42.1c-5.7,17.6-4.7,37.4,4.3,55.2c9.1,17.8,24.5,30.2,42.1,36
				c17.6,5.7,37.4,4.7,55.2-4.3c17.8-9.1,30.2-24.5,35.9-42.1l0,0c5.7-17.6,4.7-37.4-4.3-55.2c-9.1-17.8-24.5-30.2-42.1-36
				C1484.4,819.8,1464.6,820.8,1446.8,829.8L1446.8,829.8z M1413.9,872.9c5.5-16.8,17.4-31.5,34.4-40.2c17-8.7,35.9-9.6,52.7-4.1
				c16.8,5.5,31.5,17.4,40.2,34.4c8.7,17,9.6,35.9,4.1,52.7c-5.5,16.8-17.4,31.5-34.4,40.2c-17,8.7-35.9,9.6-52.7,4.1
				c-16.8-5.5-31.5-17.4-40.2-34.4C1409.4,908.6,1408.4,889.7,1413.9,872.9z" clip-rule="evenodd"></path><path fill="#284191" fill-rule="evenodd" d="M1509.7,899.1c-2.6-6-5.4-26.4-10.4-40.5c-2.6-7.5-8.2-14.1-15.6-15.3c-3.3-0.5-7.2-2.1-10.9,1.3
					c-14.9-0.9-24.9,40.9-7.3,51.8c-0.2,8.8,4.4,17.6,11.9,21.3c1.8,0.9,4.6,2.2,5,2.6c-0.5-0.5,3.6,20.6,22.4,12.7
					C1512,938.5,1512,904.6,1509.7,899.1z" clip-rule="evenodd"></path><path fill="#ffb27d" fill-rule="evenodd" d="M1469,893.5c-0.1,0,6.4,3.4,11.2,2c4.5-1.2,7.5-7.1,7.4-7.1c-1.9-0.4-2.5-3-2.4-14.4l-0.9,0.2l-14.6,2.9
					c0,0,0.3,4.6,0.3,8.9C1470,889.6,1469.8,893.1,1469,893.5z" clip-rule="evenodd"></path><path fill="#f08261" fill-rule="evenodd" d="M1469.7,877.1c0,0,0.3,4.6,0.3,8.9c8.2-0.2,12.5-7.7,14.3-11.8L1469.7,877.1z" clip-rule="evenodd"></path><path fill="#284191" fill-rule="evenodd" d="M1487.3,874.7c0,0,5.5-5.8,7.7-11.3c1.5-3.9,2.5-19.3-13-20.2c0,0-4.5-0.5-9.2,1.5
					c-3.7,1.5-9.4,5.4-6.8,19.5l0.5,4.7L1487.3,874.7z" clip-rule="evenodd"></path><path fill="#4567c6" fill-rule="evenodd" d="M1487,964.6c0.2-1.8,0.4-3.6,0.6-5.5l-19.4,4.9C1474.4,965.1,1480.7,965.3,1487,964.6z" clip-rule="evenodd"></path><path fill="#ffb27d" fill-rule="evenodd" d="M1469.6,881.6c4.6,1.6,15.5,0.9,19.1-10.4c1.9-11.9,5.6-19.5-6.5-22.1c-12.1-2.6-15.2,1.5-16.8,5.4
					c-1.4,3.4-2.4,20.3,1,24.4C1467,879.6,1468.8,881.4,1469.6,881.6z" clip-rule="evenodd"></path><path fill="#284191" fill-rule="evenodd" d="M1474.3,847.3c0,0,2.4,14.9,10,18.6c7.6,3.6,11.4,2.2,11.4,2.2s-5.1-6.1-4.7-14.8
					C1491,853.3,1479.6,841.5,1474.3,847.3z" clip-rule="evenodd"></path><path fill="#284191" fill-rule="evenodd" d="M1475.4,848.7c0,0-4.5,2.3-6.1,5.1c-1.6,2.8-3,8.9-4.8,8.3c0,0-2.2-10.2,3.2-14.6
					C1473.6,842.8,1475.4,848.7,1475.4,848.7z" clip-rule="evenodd"></path><path fill="#8bbae9" fill-rule="evenodd" d="M1473.7,887.9c0,0-15.8-2.5-21,2.8c-6.5,6.4-18.6,43.4-18.2,47.6c0.2,1.6,6.6,0.9,8.8-1.4
					C1454.2,925.4,1469.9,896.5,1473.7,887.9z" clip-rule="evenodd"></path><path fill="#8bbae9" fill-rule="evenodd" d="M1508.6,958.8c-0.9-9.1-2.1-17.9-2.8-23.7c-0.5-4.2,1.1-23.2-0.1-33.5c-0.2-1.5-0.4-2.9-0.8-3.9
					c-2.4-7.8-13-9.9-18.5-10.1l-16.5,0.6c0,0-17,17.9-19.4,23.8c-2.4,5.8-3.1,25.9-5,35.5c-0.4,1.9-0.9,4.8-1.5,8.1
					C1463.3,966.5,1487.2,968.4,1508.6,958.8z" clip-rule="evenodd"></path><path fill="#61a0e0" fill-rule="evenodd" d="M1475.6,944.6c0,0,3.6,11.1,12.6,19.9c6.9-0.8,13.8-2.7,20.5-5.7c-0.9-9.1-2.1-17.9-2.8-23.7
					c-0.5-4.2,1.1-23.2-0.1-33.5c-0.3,0.1-0.6,0.3-1,0.3C1477,907.2,1473,938.8,1475.6,944.6z" clip-rule="evenodd"></path><path fill="#f0a16e" fill-rule="evenodd" d="M1435.3,939c0,0,16.6,5.4,36.7-3.3c0,0,5.5-0.5,8.2,0.2c0,0-0.6-5.5-3.3-6.9c-2.7-1.5-14.1,1.7-17.6,1.3
					C1452,929.1,1438.9,928.3,1435.3,939z" clip-rule="evenodd"></path><path fill="#61a0e0" fill-rule="evenodd" d="M1450.1,926.3c0,0-1.6-13.5,3.7-21.6c0,0-1.9-0.6-3.2,1.5c-1.3,2.1-10.6,22.1-6.2,23.6
					C1448.8,931.2,1450.1,926.3,1450.1,926.3z" clip-rule="evenodd"></path><path fill="#f0a16e" fill-rule="evenodd" d="M1474.3,928.5c0.2,0,7.8,1,9.2,1.9c1.3,1,0.2,4.3-2.4,4.6C1478.5,935.4,1474.3,928.5,1474.3,928.5z" clip-rule="evenodd"></path><path fill="#ffb27d" fill-rule="evenodd" d="M1495,933.6c0,0-21.6-0.8-41.2-4.6c0,0-3.6,0-3.2,3.2c0.4,3.1,34,20.6,41.3,17.3L1495,933.6z" clip-rule="evenodd"></path><path fill="#fab280" fill-rule="evenodd" d="M1453.8,929c0,0-2.3-2.8-3.7-2.8c-1.4,0-5.1,1.8-5.7,3.5c-0.6,1.7,4.4,0.5,6.2,2.5
					C1452.5,934.2,1453.8,929,1453.8,929z" clip-rule="evenodd"></path><path fill="#8bbae9" fill-rule="evenodd" d="M1486.5,887.5c0,0,18.2,0,20.8,6.6c4.8,11.9-11.1,51.4-15.3,55.4c-1.8,1.7-10.2-1-10.2-12.4
					C1481.8,931.2,1482.2,896.7,1486.5,887.5z" clip-rule="evenodd"></path><path fill="#284191" fill-rule="evenodd" d="M1475.1,848c-1.7,0.9-2.9,0.8-3.6-0.4c0.3-2.8,1.5-4.9,3.6-6.3C1474.4,842.6,1474.4,844.8,1475.1,848z" clip-rule="evenodd"></path><path fill="#284191" fill-rule="evenodd" d="M1473.4,848.7c1.2,0.2,1.7-0.2,1.3-1.3c-1.7-2.2-3.4-3.6-5.1-4.1C1470.6,844,1471.9,845.9,1473.4,848.7z" clip-rule="evenodd"></path><path fill="#284191" fill-rule="evenodd" d="M1475.8 848.8c-1.8-.8-3-.6-3.6.6.5 2.7 1.9 4.7 4 6C1475.5 854.2 1475.3 852 1475.8 848.8zM1464.1 860c1-.5 1.7-.4 2 .3-.3 1.6-1 2.7-2.2 3.4C1464.4 863 1464.5 861.8 1464.1 860z" clip-rule="evenodd"></path><path fill="#61a0e0" fill-rule="evenodd" d="M1470.5,887.3c-0.5,0-0.9,0.4-1,0.9c0,0.5,0.4,0.9,0.9,1c8.9,0.2,14.2,0.3,15.8,0.2c0.5,0,0.9-0.5,0.9-1
					c0-0.5-0.5-0.9-1-0.9C1484.6,887.6,1479.3,887.5,1470.5,887.3z" clip-rule="evenodd"></path><path fill="#61a0e0" fill-rule="evenodd" d="M1470.8,889.1c-0.5,0-0.9,0.4-0.9,0.9c0,0.5,0.4,0.9,0.9,0.9c3.6,0.1,6.5,0.1,8.7,0.2c2.2,0,3.6,0,4.2,0
					c0.5,0,0.9-0.4,0.9-0.9c0-0.5-0.4-0.9-0.9-0.9c-0.6,0-2,0-4.2,0C1477.4,889.2,1474.5,889.2,1470.8,889.1z" clip-rule="evenodd"></path><path fill="#61a0e0" fill-rule="evenodd" d="M1471.5,890.6c-0.5,0-1,0.4-1,0.9c0,0.5,0.4,1,0.9,1c2.7,0.1,4.7,0.2,6.2,0.2c1.5,0,2.4,0,3,0
					c0.5,0,0.9-0.5,0.9-1c0-0.5-0.5-0.9-1-0.9c-0.5,0-1.4,0-2.8,0C1476.3,890.8,1474.2,890.7,1471.5,890.6z" clip-rule="evenodd"></path><path fill="#61a0e0" fill-rule="evenodd" d="M1471.8,891.9c-0.5,0-0.9,0.4-0.9,0.9c0,0.5,0.4,0.9,0.9,0.9c2.2,0,3.8,0.1,4.9,0.2c1.1,0.1,1.7,0.1,2.2,0
					c0.5-0.1,0.9-0.5,0.8-1c-0.1-0.5-0.5-0.9-1-0.8c-0.3,0-0.9,0-1.9,0C1475.7,892.1,1474.1,892,1471.8,891.9z" clip-rule="evenodd"></path><path fill="#61a0e0" fill-rule="evenodd" d="M1473.6,892.9c-0.5,0-0.9,0.4-0.9,0.9c0,0.5,0.4,0.9,0.9,0.9c0.9,0,1.7,0.1,2.2,0.1c0.5,0,0.9,0.1,1.1,0
					c0.5-0.1,0.8-0.6,0.8-1.1c-0.1-0.5-0.6-0.8-1.1-0.8c-0.1,0-0.3,0-0.7,0C1475.4,893,1474.7,892.9,1473.6,892.9z" clip-rule="evenodd"></path><path fill="#61a0e0" fill-rule="evenodd" d="M1474.5,894.5c-0.5-0.1-1,0.3-1,0.8c0,0.5,0.3,1,0.8,1c0,0,0.1,0,0.1,0l0.1,0c0.4,0.2,0.7,0.2,1.1-0.2
					c0.4-0.4,0.4-0.9,0-1.3c-0.2-0.2-0.4-0.3-0.6-0.3C1475,894.6,1474.8,894.5,1474.5,894.5z" clip-rule="evenodd"></path></g><polygon fill="#f57a44" fill-rule="evenodd" points="966.9 744.9 1022.1 692.7 924.3 760.9 964.3 758.6 895.8 816.1 943.5 800.1 1003.5 738.6" clip-rule="evenodd"></polygon><polygon fill="#1e77d1" fill-rule="evenodd" points="1168.5 1130.2 1237.3 1065 1115.3 1150 1165.2 1147.3 1079.8 1218.9 1139.3 1199 1214.2 1122.3" clip-rule="evenodd"></polygon><path fill="#61a0e0" fill-rule="evenodd" d="M1124.7 913.9c1-.8 2.5-.7 3.3.3.8 1 .7 2.5-.3 3.3l-164 140.5c-1 .8-2.5.7-3.3-.3-.8-1-.7-2.5.3-3.3L1124.7 913.9zM1241.8 703.1c1-.8 2.5-.7 3.3.3.8 1 .7 2.5-.3 3.3l-164 140.5c-1 .8-2.5.7-3.3-.3-.8-1-.7-2.5.3-3.3L1241.8 703.1zM1358.9 867c1-.8 2.5-.7 3.3.3.8 1 .7 2.5-.3 3.3l-164 140.5c-1 .8-2.5.7-3.3-.3-.8-1-.7-2.5.3-3.3L1358.9 867zM1395.3 912.4c1-.8 2.5-.7 3.3.3.8 1 .7 2.5-.3 3.3l-57.8 49.5c-1 .8-2.5.7-3.3-.3-.8-1-.7-2.5.3-3.3L1395.3 912.4zM1073.2 757.3c1-.8 2.5-.7 3.3.3.8 1 .7 2.5-.3 3.3l-100.8 86.4c-1 .8-2.5.7-3.3-.3-.8-1-.7-2.5.3-3.3L1073.2 757.3z" clip-rule="evenodd"></path></g><g><path fill="#284191" fill-rule="evenodd" d="M671.1,574.7c-39.7,14.4-65.1,15.7-76.3,4.2c-11.4-2.7-18.8-12.8-22.3-30.3c-11.8-26.8-1.7-69.5,14.9-48.4
			c13.7-35.1,68.8-14.8,99.9-34.2c18.9,12.3,11.7,42.8-1.9,53.1C686,554,684,572.8,671.1,574.7z" clip-rule="evenodd"></path><path fill="#284191" fill-rule="evenodd" d="M578.4,504c4.3-3.3,5.7-6.9,4.1-10.8c-6.6-3.7-12.8-3.8-18.8-0.4C567.4,493,572.3,496.8,578.4,504z" clip-rule="evenodd"></path><path fill="#284191" fill-rule="evenodd" d="M586.6 494.8c-3 3.4-5.8 4.2-8.4 2.3-1.6-6.4-.6-12.1 2.8-17C580.6 483.4 582.4 488.3 586.6 494.8zM607.6 509.5c-7.5-3-13.1-2-17 3 .3 11.2 6.1 33.7 15 38.7C607.2 550 606.8 526.3 607.6 509.5z" clip-rule="evenodd"></path><path fill="#284191" fill-rule="evenodd" d="M610.4,498.6c-12.6,6.1-16.8,11.7-12.5,16.6c19.1,2.8,37.3,0.8,54.7-6.2C642.1,510,628,506.6,610.4,498.6z" clip-rule="evenodd"></path><path fill="#284191" fill-rule="evenodd" d="M684.5,517.5c-14.3-14.4-41.3-16.2-78.5-2.6c-23.5-5.8-28.8-16.7-18.9-34.4c14-25,44.4-5.2,81.6-28.7
			C667.4,470.1,722.8,485.7,684.5,517.5z" clip-rule="evenodd"></path><path fill="#ffb27d" fill-rule="evenodd" d="M595.1,529.8c9.9-2.1,8.9,18.1,8.2,28.2C601.8,577.8,579.6,533.1,595.1,529.8z" clip-rule="evenodd"></path><path fill="#ffb27d" fill-rule="evenodd" d="M583.6,612c5.5,0.4,14.1-0.7,15.6-2.6c5.8-7.4,9.8-15.1,11.3-19.9c-1.1-3.2-2.3-7.3-3.6-12.2
			c-21.1-14.3-23.9-24.9-8.6-31.7c3.1,1.7,6.9,7.1,11.5,16c3.6-0.1,6.4-2,8.3-5.6c-4.3-15.1-7.2-27.3-8.5-36.7
			c10.4-15.4,34.6-17.6,66.8-13.5c1.5,8.5,2.7,17.6,3.7,27.2c4,3.7,15.6,65.3-23.8,67.8c-0.3,4.5,0.2,10,0.4,10.7
			c0.5,1,2.1,1.9,4.3,2.7l0,0C661.6,635.1,635.8,634.4,583.6,612z" clip-rule="evenodd"></path><path fill="#284191" fill-rule="evenodd" d="M676.4,505.8c-32.1-4.2-56.4-2-66.8,13.5c1.3,9.4,4.1,21.6,8.5,36.7c-1.9,3.6-4.6,5.5-8.3,5.6
			c-4.6-8.9-8.4-14.2-11.5-16c-15.3,6.9-12.4,17.4,8.6,31.7c1.2,4.9,2.4,9,3.6,12.2c-18.9-4.2-34.8-21.2-37-28.5
			c-22.1-43.5,2.5-61.9,15.7-68.6c5.8-43.1,68.4-5,99.8-25.8C701.5,483.8,686.1,505.4,676.4,505.8z" clip-rule="evenodd"></path><path fill="#f08261" fill-rule="evenodd" d="M635.1,596.3c5.1,2.5,12.2,4,21.1,4.4c-0.2,3,0,6.5,0.1,8.7C647.4,607.7,640.3,603.3,635.1,596.3z" clip-rule="evenodd"></path><path fill="#284191" fill-rule="evenodd" d="M671.8,495.1c4.8,3.7,6.4,7.8,4.7,12.2c-7.4,4.2-14.5,4.3-21.2,0.4C659.3,507.6,664.8,503.3,671.8,495.1z" clip-rule="evenodd"></path><path fill="#ffb27d" fill-rule="evenodd" d="M533.8,1315.4l-7.1,22.9c-1.2,2.8-4.9,9.5-5.6,12.2c-2.5,10,46.7,2.7,37.8-4.3c-0.8-0.6-5.6-7.5-5.1-11
			c0.9-5.4,3.2-13.7,3.2-13.7L533.8,1315.4z" clip-rule="evenodd"></path><path fill="#284191" fill-rule="evenodd" d="M558.8,1346c0,0-11.2,0.5-16.8-0.1c-5.5-0.6-11-8.8-15.2-8c-4.7,0.9-11,21.8-11,21.8
			c34.4,17.7,60.3,22.1,75.3,21.6C597.9,1381,578.4,1358.5,558.8,1346z" clip-rule="evenodd"></path><path fill="#ffb27d" fill-rule="evenodd" d="M635.9,1326.2l-0.8,23.9c-0.4,3-2.2,10.5-2.2,13.2c0.2,10.3,45.7-9.7,35.3-14c-0.9-0.4-7.4-5.7-7.8-9.2
			c-0.6-5.5-0.5-14-0.5-14L635.9,1326.2z" clip-rule="evenodd"></path><path fill="#284191" fill-rule="evenodd" d="M668.2,1349.2c0,0-10.7,3.4-16.2,4.3c-5.5,0.9-12.9-5.6-16.8-3.7c-4.3,2.1-4.9,23.9-4.9,23.9
			s64,5.5,78.3,1.1C715,1372.7,690.4,1356.1,668.2,1349.2z" clip-rule="evenodd"></path><path fill="#ffb27d" fill-rule="evenodd" d="M847.7,634.5l1.3-2.3c20.6,7.1,34,15.8,29.2,24.2c-3.4,10.6-14.5,14.8-24.5,24.9c-4.6-5.5-9.1-9.1-13.6-10.9
			c-2.9-11.6-2.8-20.8,0.3-27.7l6.7-6.8L847.7,634.5z" clip-rule="evenodd"></path><path fill="#71afed" fill-rule="evenodd" d="M854.4,682.1c-14.8,63.3-40.7,112.4-77.9,147.3c-13.4-4.1-25.3-13.2-35.6-27.4c0.6,45.8-0.6,91.3-3.4,136.6
			c-27.1,12.8-63.1,12-107.9-2.5l-18.2-22.4c-4.7-0.9-15.3,4.3-20.4,12.1c-42.6-32.5-71.3-67.5-88.3-102.2
			c4.6-74.6,14.7-133.4,30.4-176.6c7.9-12.2,26.6-24.2,55.9-36c48.5,20.8,72.5,21.4,72,1.9c14.3,4.7,33.2,13,56.8,24.9
			c19.7,14.9,36.4,55.5,50.3,121.5c22.5-28.2,45.9-58.1,70.1-89.8C843.5,671.3,848.9,675.4,854.4,682.1L854.4,682.1z M601.5,893.5
			c14.1-46.4,6.3-103.7-23.4-171.9c-7.5,33.6-15.6,66.7-24.2,99.3C564,825.7,579.9,849.9,601.5,893.5z" clip-rule="evenodd"></path><path fill="#4567c6" fill-rule="evenodd" d="M596.2,954c6.9-0.5,18-6.5,33.3-17.9c44.9,14.5,80.8,15.3,107.9,2.5c4.8,76.3-13.9,156.3-37.7,245.4
			c-23.3,39.1-22.3,66.7-34.7,157c-6.9,4.9-18.3,4.2-34.2-2.1c-5-77-1.6-128,18.4-156.7c-3.1-25.8,5-89.3,5.4-129.1
			c-14.5,32.4-24.5,76.2-43.5,120.4c-23.1,53.8-39.1,111.4-51.3,164c-12.9,2.5-24.9,1-36.2-4.4c12.9-86.4,27.2-145.8,43-178.3
			c-0.6-84.9,7.5-161.2,24.3-228.8C594.1,933.8,595.8,943.2,596.2,954z" clip-rule="evenodd"></path><path fill="#ffb27d" fill-rule="evenodd" d="M629.5,936.1c-15.3,11.4-26.4,17.4-33.3,17.9c-0.4-10.8-2.2-20.2-5.3-28.2c5.1-7.9,15.7-13,20.4-12.1
			L629.5,936.1z" clip-rule="evenodd"></path><path fill="#4f8ecc" fill-rule="evenodd" d="M740.9 802c-1.5-44.4-5-80.9-10.7-109.3 14.4 60.4 28.3 100.4 41.8 120.2 8.5-.3 19.3-5.3 32.4-15.2-8.5 11.6-17.8 22.2-27.9 31.7C763.1 825.4 751.3 816.2 740.9 802zM611.3 913.7c-2.6-6.5-5.9-13.2-9.8-20.2 14.1-46.4 6.3-103.7-23.4-171.9 43.2 61.4 55.5 127 36.8 196.5L611.3 913.7z" clip-rule="evenodd"></path><path fill="#3b5bb3" fill-rule="evenodd" d="M595.8,964.9c0.5-3.9,0.6-7.5,0.5-10.8c6.9-0.5,18-6.5,33.3-17.9c3.6,1.2,7.2,2.3,10.7,3.3
			C629.5,950.6,614.7,959.1,595.8,964.9z" clip-rule="evenodd"></path><path fill="#fc9774" fill-rule="evenodd" d="M1028.7 596.4c-9.9-5.9-34.9 17.6-56 52.6-21 35-30.1 68.2-20.2 74.1 9.9 5.9 34.9-17.6 56-52.6C1029.5 635.5 1038.6 602.3 1028.7 596.4zM885.6 565L865 552.7c-4.7-2.8-14.7 5.3-22.4 18.1-7.7 12.8-10.2 25.5-5.5 28.3l20.6 12.4c-4.7-2.8-2.2-15.5 5.5-28.3C870.9 570.4 880.9 562.2 885.6 565z" clip-rule="evenodd"></path><path fill="#fbbfa8" fill-rule="evenodd" d="M863.2,583.2c7.1-11.9,16.2-19.7,21.3-18.6c44.5,21.1,89.8,31.7,135.9,31.9c-12.2,4.6-31.2,25.1-47.7,52.5
			c-16.7,27.8-25.8,54.4-23.9,67.2c-24.2-43.4-54.9-78.6-92-105.5C853.4,606.8,856.1,595,863.2,583.2z" clip-rule="evenodd"></path><path fill="#f57a44" fill-rule="evenodd" d="M992.6 650l-14.1-10.1c-1.9 2.9-3.9 6-5.7 9.1-2.5 4.1-4.8 8.2-6.9 12.2l15.7 7.2c5.4 2.4 11.7 1.4 14.7-3.7v0C999.3 659.6 997.4 653.4 992.6 650zM839 631.1l10.9 6.6c-3.6 1-6.9 2.7-9.8 5.3l-6-3.6c-3.4-2-5.6-5.3-6.5-8.9-.9-3.6-.4-7.5 1.6-10.9l11.2-18.6 8.2 4.9-11.2 18.6c-.7 1.1-.8 2.4-.5 3.6C837.2 629.4 837.9 630.4 839 631.1L839 631.1zM876.6 653.3L876.6 653.3c-1.5 2.5-3.4 3.9-5.5 4.1-6.3-1.5-12.9-4.2-19.6-8.4-1.2-.7-2-1.3-2.6-1.8-.1.3-.3.6-.5.9l21.4 12.9c3.4 2 7.3 2.5 10.9 1.6 3.6-.9 6.8-3.1 8.9-6.5l6.7-11.1c-2.3-2.4-4.6-4.7-7-7l-7.9 13.1c-.7 1.1-1.8 1.9-3 2.2l0 0C877.9 653.3 877.2 653.4 876.6 653.3z" clip-rule="evenodd"></path><path fill="#4f8ecc" fill-rule="evenodd" d="M658.5,612.5c0.1,2-0.3,4.6-0.8,6h0c-0.7,1.7-1.9,3.1-3.6,4.1c-2,1.1-4.7,1.8-8,2
			c-12.1,0.8-31.2-3.6-59-14.1l-6.6,3.3c28.6,10.7,53.1,17,65.9,16.1c4.2-0.3,7.6-1.2,10.3-2.7c2.9-1.6,4.9-3.9,6-6.9v0
			c0.8-2.2,1.2-3.8,1-6.6L658.5,612.5z" clip-rule="evenodd"></path><path fill="#4f8ecc" fill-rule="evenodd" d="M661.6,632.2c0.7,0.4,1.6,0.2,2.1-0.5c0.4-0.7,0.2-1.6-0.5-2.1c-1.8-1.1-5.6-1.3-11.3-0.6
			c-5.4,0.7-12.7,2.2-21.8,4.6c-0.8,0.2-1.3,1-1.1,1.8c0.2,0.8,1,1.3,1.8,1.1c9.1-2.3,16.3-3.8,21.5-4.5
			C657.3,631.4,660.4,631.4,661.6,632.2L661.6,632.2z M662.3,636.5c-1.2-0.7-4.3-0.8-9.3-0.1c-5.2,0.7-12.4,2.2-21.5,4.5
			c-0.8,0.2-1.6-0.3-1.8-1.1c-0.2-0.8,0.3-1.6,1.1-1.8c9.2-2.3,16.4-3.9,21.8-4.6c5.7-0.7,9.4-0.6,11.3,0.6c0.7,0.4,0.9,1.4,0.5,2.1
			C663.9,636.7,663,636.9,662.3,636.5z" clip-rule="evenodd"></path></g><g><path fill="#ecece9" fill-rule="evenodd" d="M1433,1397c0.1,3.1,0.2,5.7,0.5,7.6C1433.2,1402.8,1433,1400.2,1433,1397z" clip-rule="evenodd"></path><path fill="#8bbae9" fill-rule="evenodd" d="M1337.8 1165.7c-2.3-3-5.4-5.2-8.6-7.2-.8-.5-2.1-.2-2.5.7-2.4 4.5-4.7 9.2-7.5 13.6-.9 1.4-2.2 3.3-3.4 4.2-.1.1-.4.2-.5.3 0 0 0 0-.1-.1-.2-.3-.4-.7-.5-1.1-2.2-6.7.5-13.9-1.3-20.6-.9-3.6-3.2-7.3-5.7-9.9-2.8-2.8-6.5-4.1-8.3-8-.3-.6-.7-.8-1.2-.9h-.3c-.6.1-1.3.4-1.6.9-4 5.8-9.7 11.8-10.7 19-1 6.4 2.5 11.8 6.2 16.7 1.8 2.4 3.6 4.8 5 7.4.8 1.4 2.1 4.1.7 5.5-1.5 1.5-3.7-1.2-4.8-2.4-2.4-2.4-4.4-5.2-6.4-7.9-3.4-4.5-8.8-11.3-15.1-10-2.8.5-4 3.4-4.1 6-.2 4 1.7 8.3 3.7 11.7 4.5 7.7 13.6 9.9 19.4 16.1 1.3 1.4 5 6.3 2.9 8.3-.7.7-2.5.5-3.3.3-2.1-.3-4.5-1.1-6.2-2.5-6.6-5.1-9-13.9-15.9-18.8-3-2.1-7.7-3.4-11.3-2.5-3.1.7-4.5 3.6-4.6 6.6-.2 3.6 1.5 7.2 3.2 10.2 2.1 3.4 4.9 6.3 8.4 8.3 7 4 15.8 4.5 20.4 11.8.6 1 1.3 2.3 1 3.5-.2.9-1.6 1.2-2.4 1.4-3.6.8-8.3-.5-11.4-2.2-3.8-2-6.6-5.7-9.5-8.7-3.1-3.2-6.5-5.9-10.8-7.2-3.1-.9-7-.8-9 2.1-1.9 2.7-1.5 6.3-.7 9.3 1 3.9 3.1 7.6 5.8 10.7 2.9 3.3 7.4 5.2 11.4 6.5 4.2 1.4 8.6 2.3 12.7 3.8 1.1.4 1.9.7 3.1.8 1.3.1 2.6 0 3.8.4 1.1.3.4 1.4 0 2.2-.9 1.8-3.6 1.8-5.3 1.9-1.6.1-3.3.5-4.9.6-1.9 0-3.8-.3-5.6-.6-3.7-.6-7.6-1.2-11.2-.1-3.5 1.1-6 4.4-6.6 8-1.3 7.5 7 12 13.2 13 4 .6 7.6-.3 11.1-2.2 4.3-2.4 7.7-5.9 12.7-6.6.3 2-.4 3.6-2.2 5.1-2.4 2.1-5.8 3.2-8.7 4.3-5.8 2.2-14.2 4.1-17.4 10-.4.7-.3 1.6.3 2.2 2.7 2.6 5.9 4.7 9.8 5 3.2.3 6.3-1.2 8.9-2.9 4.6-3.1 8.6-7.9 13.8-10-.7 1.3-1.9 2.2-3.4 3.4-2.6 2-3.9 4.8-4.7 8-1.1 4.8.6 10 6.2 10 3.1 0 6.1-1.5 8.7-3.1 2.9-1.8 5.3-4.3 7.1-7.2 2.3-3.5 3.5-7.6 4.2-11.8 4.7 9.1 14.9 18.7 24.5 10.8 8.2-6.8-5.3-11.9-10.7-17.3 1.1.4 2.1 1 3.1 1.5 2.8 1.4 5.5 3 8.4 4.2 5.4 2.2 11.5 2 14.8-3.6 2.8-4.8-3-7.1-6.6-8.1-2.9-.9-8.4-1.8-10.5-4.7 7.2.8 15.2 1.7 21.4-2.5 2.8-1.9 6.2-5.5 6.5-9 .3-2.9-2.8-3.9-5.1-4.1-6.1-.6-12.1 2.1-18.2 1.9-1.5-.1-2.9-.2-4.4-.5-.5-.1-1.1-.3-1.6-.5-.2-.1-.4-.3-.5-.3 0-.1.1-.2.2-.3.5-.6 1.3-1.1 1.9-1.6 1.6-1 3.2-1.6 5.1-1.8 3.6-.4 7.1.1 10.7-.6 4-.7 7.2-3 9.9-6 2.3-2.6 4.6-6 5-9.6.4-3.7-1.9-6.3-5.2-7.5-9.3-3.6-14.8 6.1-21.4 10.4-1.8 1.2-3.9 1.9-5.9 2.5-.8.3-3.2 1.1-4 .4-.5-.4 1.1-2.9 1.4-3.4 1.3-2.2 3-3.7 5.2-4.9 5.6-3.2 12.3-4.2 16.7-9.2 2.9-3.3 5.1-8.9 2.3-12.9-3-4.3-9.6-3.1-13.4-.6-4.7 3.1-7.1 9.4-12.8 11-.5-2.7.6-5.2 2.4-7.6 2.6-3.5 6.1-6.4 9.2-9.4 3-2.9 6.1-6.1 7.7-10C1341.4 1173.2 1340.4 1169.1 1337.8 1165.7zM1478.1 1295.3c.9-3.6.7-7.5.3-11.2-.1-1-1.1-1.7-2.1-1.5-5.1.9-10.1 2-15.3 2.5-1.7.2-4 .3-5.4-.1-.1 0-.4-.2-.5-.2 0 0 0-.1 0-.1.1-.4.3-.7.6-1.1 3.9-5.9 11.2-8.2 15.4-13.7 2.2-2.9 3.8-7 4.2-10.6.5-3.9-.8-7.7 1.1-11.4.7-1.4-.7-2.6-2-2.5-7 .4-15.2-.3-21.6 3.3-5.6 3.2-7.7 9.3-9.2 15.2-.7 2.9-1.5 5.7-2.7 8.5-.7 1.5-1.9 4.1-3.9 3.9-2.1-.2-1.4-3.6-1.1-5.2.5-3.4 1.4-6.7 2.3-9.9 1.4-5.4 3.4-13.8-1.5-18.1-2.2-1.9-5.2-1-7.2.5-3.3 2.3-5.5 6.5-6.9 10.2-3.2 8.3.7 16.8-.6 25.2-.3 1.9-1.8 7.8-4.7 7.4-1-.1-1.9-1.6-2.3-2.4-1.1-1.9-1.9-4.2-1.9-6.4-.1-8.3 5.4-15.7 4.9-24.1-.2-3.7-2.1-8.2-5-10.5-2.5-2-5.7-1.3-8 .4-2.9 2.1-4.8 5.6-6 8.8-1.4 3.8-1.9 7.8-1.3 11.7 1.2 7.9 6.3 15.2 3.4 23.3-.4 1.1-1 2.5-2.1 3-.9.4-1.9-.5-2.6-1-2.8-2.3-4.7-6.8-5.3-10.3-.8-4.2.4-8.7 1-12.8.6-4.4.6-8.7-1.1-12.9-1.2-3-3.7-6-7.2-5.7-3.2.2-5.9 2.7-7.7 5.2-2.5 3.2-4 7.2-4.8 11.2-.8 4.3.5 9 1.9 13 1.5 4.2 3.5 8.1 4.9 12.3.4 1.1.6 2 1.3 3 .7 1.1 1.6 2 2.1 3.2.4 1-.9 1.1-1.7 1.3-2 .5-3.6-1.7-4.8-3-1.1-1.2-2.5-2.2-3.5-3.5-1.2-1.5-2.1-3.2-3-4.8-1.8-3.2-3.7-6.7-6.9-8.9-3-2.1-7.2-2-10.4-.3-6.7 3.6-5.1 13-2 18.4 2 3.5 4.9 5.8 8.6 7.3 4.6 1.9 9.4 2.4 13 5.9-1.4 1.5-3.1 1.9-5.3 1.4-3.1-.6-6.1-2.6-8.7-4.2-5.3-3.2-12-8.7-18.6-7.4-.8.2-1.5.8-1.6 1.6-.4 3.8 0 7.5 2.1 10.7 1.8 2.7 4.9 4.2 7.8 5.2 5.3 1.7 11.5 1.9 16.4 4.7-1.5.3-2.9-.1-4.7-.6-3.2-.8-6.2-.1-9.2 1.3-4.4 2.1-7.5 6.6-4 11 1.9 2.4 5 3.9 7.8 4.9 3.2 1.2 6.6 1.5 10 1.1 4.2-.4 8.2-2 11.9-4-4.3 9.3-5.5 23.3 6.7 25.9 10.4 2.3 6.1-11.6 7-19.1.3 1.1.5 2.2.7 3.3.6 3.1 1 6.2 1.9 9.2 1.6 5.6 5.6 10.3 12 9.4 5.5-.8 3.7-6.7 2.3-10.2-1.1-2.8-3.7-7.7-2.8-11.2 3.8 6.1 8.1 12.9 15.2 15.2 3.2 1 8.1 1.4 11.1-.5 2.4-1.6 1.3-4.7.1-6.6-3.3-5.2-9.1-8.2-12.8-13.1-.9-1.2-1.7-2.4-2.3-3.8-.2-.5-.5-1-.6-1.6-.1-.2 0-.5 0-.6.1 0 .2 0 .3 0 .8 0 1.6.3 2.4.6 1.8.6 3.3 1.5 4.6 2.9 2.5 2.6 4.4 5.6 7 8.1 3 2.7 6.8 3.8 10.8 4.1 3.5.2 7.6-.1 10.6-2 3.2-2 3.8-5.3 2.7-8.7-3-9.5-13.9-7.8-21.4-10.4-2-.7-3.9-1.8-5.6-3-.7-.5-2.8-1.9-2.8-2.9 0-.6 3-.9 3.5-1 2.5-.3 4.8.1 7.1 1.1 5.9 2.4 10.9 7.1 17.6 7.4 4.4.2 10.2-1.5 11.6-6.2 1.5-5-3.5-9.5-7.8-10.9-5.4-1.8-11.8.3-16.5-3.3 1.8-2.1 4.4-2.8 7.4-2.8 4.4-.1 8.8.8 13.1 1.4 4.1.6 8.5 1 12.6-.2C1474.5 1302.7 1477.1 1299.4 1478.1 1295.3z" clip-rule="evenodd"></path><path fill="#8bbae9" fill-rule="evenodd" d="M1228.7,1193.9c-3.5-1.4-7.3-1.7-11.1-1.7c-1,0-1.8,0.9-1.8,1.9c0.2,5.2,0.7,10.3,0.6,15.5
			c-0.1,1.7-0.2,4-0.8,5.3c0,0.1-0.2,0.4-0.3,0.5c0,0-0.1,0-0.1,0c-0.4-0.2-0.7-0.4-1-0.7c-5.3-4.6-6.7-12.1-11.7-17
			c-2.6-2.6-6.5-4.6-10-5.5c-3.8-1-7.7-0.2-11.2-2.6c-1.3-0.9-2.7,0.4-2.7,1.7c-0.5,7-2.2,15.1,0.6,21.8c2.5,6,8.2,8.8,13.9,11.1
			c2.8,1.1,5.5,2.3,8,3.8c1.4,0.8,3.9,2.4,3.4,4.3c-0.5,2-3.8,0.9-5.4,0.5c-3.3-0.9-6.4-2.2-9.6-3.5c-5.2-2.1-13.3-5.2-18.1-0.8
			c-2.1,1.9-1.6,5-0.4,7.2c1.9,3.6,5.8,6.3,9.2,8.1c7.8,4.3,16.7,1.5,24.9,3.8c1.9,0.5,7.6,2.8,6.8,5.6c-0.3,1-1.9,1.7-2.7,2
			c-2,0.8-4.4,1.4-6.6,1.1c-8.3-1-14.9-7.3-23.3-7.9c-3.7-0.3-8.4,1-11,3.7c-2.3,2.2-2,5.4-0.6,8c1.7,3.1,5,5.4,8,7.1
			c3.5,1.9,7.5,2.9,11.5,2.8c8-0.2,15.8-4.3,23.6-0.4c1.1,0.5,2.3,1.3,2.7,2.5c0.3,0.9-0.7,1.9-1.3,2.4c-2.7,2.5-7.4,3.8-10.9,4
			c-4.3,0.2-8.5-1.5-12.6-2.6c-4.3-1.2-8.6-1.7-13-0.6c-3.2,0.8-6.4,2.9-6.6,6.4c-0.2,3.3,2,6.2,4.2,8.3c2.9,2.9,6.6,4.9,10.5,6.2
			c4.1,1.4,9,0.7,13.1-0.3c4.3-1,8.5-2.5,12.9-3.3c1.2-0.2,2-0.4,3.1-0.9c1.1-0.6,2.2-1.3,3.5-1.7c1-0.3,1,1,1.1,1.9
			c0.2,2-2.2,3.4-3.6,4.4c-1.3,1-2.5,2.1-3.9,3c-1.6,1-3.4,1.7-5.2,2.4c-3.5,1.4-7.1,2.9-9.7,5.7c-2.5,2.7-2.9,6.9-1.6,10.2
			c2.7,7.1,12.2,6.7,18,4.3c3.7-1.5,6.4-4.1,8.4-7.6c2.4-4.3,3.5-9.1,7.5-12.1c1.3,1.5,1.5,3.3,0.8,5.5c-1,3-3.3,5.7-5.3,8.1
			c-3.9,4.8-10.1,10.8-9.7,17.5c0.1,0.8,0.6,1.6,1.4,1.7c3.7,0.8,7.5,1,10.9-0.8c2.9-1.4,4.8-4.3,6.1-7.1c2.4-5,3.4-11.2,6.7-15.7
			c0.1,1.5-0.5,2.9-1.2,4.6c-1.2,3.1-0.9,6.2,0.1,9.2c1.5,4.7,5.6,8.2,10.4,5.4c2.6-1.6,4.5-4.5,5.9-7.1c1.6-3,2.3-6.4,2.4-9.8
			c0.1-4.2-0.9-8.4-2.5-12.3c8.7,5.4,22.4,8.4,26.6-3.4c3.6-10-10.7-7.5-18-9.3c1.1-0.2,2.3-0.2,3.4-0.3c3.1-0.2,6.3-0.2,9.4-0.7
			c5.8-0.9,10.9-4.2,10.8-10.7c-0.1-5.6-6.2-4.5-9.8-3.6c-2.9,0.8-8.1,2.7-11.4,1.3c6.6-3,13.9-6.4,17-13.1
			c1.4-3.1,2.5-7.9,0.9-11.1c-1.2-2.6-4.5-1.9-6.5-0.9c-5.6,2.6-9.3,8-14.6,11c-1.3,0.7-2.6,1.3-4,1.8c-0.5,0.2-1.1,0.3-1.6,0.4
			c-0.2,0-0.5,0-0.6,0c0-0.1,0-0.2,0-0.3c0.1-0.8,0.5-1.6,0.9-2.3c0.8-1.7,1.9-3.1,3.4-4.2c2.9-2.2,6.1-3.6,8.9-6
			c3.1-2.6,4.7-6.3,5.4-10.2c0.6-3.5,0.9-7.5-0.7-10.8c-1.6-3.4-4.8-4.4-8.3-3.8c-9.8,1.7-9.5,12.8-13,20c-0.9,1.9-2.3,3.6-3.7,5.2
			c-0.6,0.6-2.2,2.6-3.2,2.4c-0.6-0.1-0.6-3.1-0.5-3.6c0-2.6,0.7-4.7,2-6.9c3.1-5.6,8.4-9.9,9.6-16.5c0.8-4.3-0.2-10.3-4.6-12.3
			c-4.8-2.1-9.9,2.3-11.8,6.4c-2.4,5.1-1.2,11.7-5.3,16c-1.8-2.1-2.2-4.7-1.9-7.7c0.5-4.4,1.9-8.6,3.1-12.8c1.1-4,2.1-8.3,1.4-12.5
			C1235.7,1198.4,1232.7,1195.4,1228.7,1193.9z" clip-rule="evenodd"></path><path fill="#a4d0fc" fill-rule="evenodd" d="M1407.4,1244.6c-0.5-3.7-2.1-7.2-3.8-10.5c-0.5-0.9-1.7-1.2-2.5-0.7c-4.4,2.7-8.7,5.6-13.3,8
			c-1.5,0.8-3.6,1.8-5,1.9c-0.1,0-0.4,0-0.6,0c0,0,0-0.1,0-0.1c0-0.4,0-0.8,0.1-1.2c1.5-6.9,7.4-11.7,9.2-18.4c1-3.5,0.9-7.9,0-11.4
			c-1-3.8-3.6-6.9-3.2-11c0.1-1.5-1.6-2.1-2.8-1.6c-6.4,3-14.3,5.3-18.8,11.1c-4,5.1-3.7,11.5-3,17.5c0.4,2.9,0.7,5.9,0.6,8.9
			c-0.1,1.6-0.2,4.6-2.1,5.1c-2,0.6-2.6-2.8-3-4.5c-0.8-3.3-1.2-6.7-1.6-10.1c-0.7-5.6-1.9-14.1-8.1-16.3c-2.7-0.9-5.1,1-6.5,3.1
			c-2.2,3.4-2.7,8.1-2.7,12c0,8.9,6.8,15.4,8.8,23.6c0.5,1.9,1.2,8-1.6,8.6c-1,0.2-2.4-0.8-3-1.4c-1.7-1.4-3.3-3.2-4.2-5.2
			c-3.1-7.7-0.8-16.6-4.3-24.2c-1.6-3.4-5-6.8-8.5-7.9c-3-0.9-5.7,0.9-7.3,3.4c-1.9,3-2.4,7-2.3,10.4c0.1,4,1.1,7.9,3.1,11.4
			c4,6.9,11.4,11.8,11.8,20.4c0,1.2,0,2.7-0.9,3.6c-0.7,0.7-2,0.3-2.8,0c-3.5-1.1-6.9-4.6-8.8-7.6c-2.3-3.6-2.8-8.2-3.8-12.3
			c-1-4.3-2.7-8.3-5.8-11.6c-2.2-2.4-5.6-4.2-8.8-2.7c-2.9,1.4-4.4,4.7-5.3,7.7c-1.1,3.9-1.1,8.2-0.3,12.1c0.8,4.3,3.8,8.2,6.6,11.4
			c2.9,3.3,6.3,6.2,9.1,9.7c0.7,0.9,1.3,1.6,2.3,2.3c1.1,0.7,2.2,1.3,3.1,2.2c0.8,0.8-0.4,1.4-1.1,1.9c-1.7,1.2-4-0.3-5.6-1
			c-1.5-0.7-3.1-1.2-4.5-2c-1.6-0.9-3.1-2.2-4.6-3.4c-2.9-2.3-6-4.9-9.7-5.7c-3.6-0.8-7.4,0.8-9.7,3.5c-4.9,5.8,0,13.9,4.9,17.9
			c3.1,2.5,6.7,3.6,10.7,3.6c4.9,0.1,9.6-1.3,14.3,0.7c-0.7,1.9-2.1,2.9-4.4,3.3c-3.1,0.6-6.6-0.2-9.7-0.7c-6.1-1.1-14.4-3.6-20,0
			c-0.7,0.4-1.1,1.3-0.8,2.1c1.1,3.6,2.8,7,5.9,9.2c2.6,1.8,6.1,2.1,9.2,1.9c5.6-0.3,11.4-2.5,17-1.7c-1.3,0.8-2.8,1-4.6,1.2
			c-3.3,0.4-5.8,2.2-8,4.6c-3.3,3.6-4.5,8.9,0.3,11.7c2.6,1.5,6.1,1.8,9.1,1.7c3.4-0.1,6.7-1.1,9.7-2.7c3.7-1.9,6.9-4.8,9.6-8.1
			c-0.5,10.3,3.5,23.6,15.8,21.6c10.5-1.7,1.4-13-0.6-20.3c0.7,0.9,1.3,1.9,1.9,2.8c1.7,2.6,3.2,5.4,5.2,7.8c3.6,4.6,9,7.5,14.6,4.3
			c4.8-2.8,0.9-7.6-1.6-10.3c-2.1-2.2-6.3-5.8-6.7-9.4c5.8,4.3,12.3,9.1,19.7,8.6c3.4-0.2,8.1-1.7,10.2-4.5c1.7-2.4-0.5-4.8-2.3-6.1
			c-5-3.6-11.5-4.3-16.7-7.5c-1.3-0.8-2.4-1.7-3.5-2.7c-0.4-0.4-0.8-0.8-1.1-1.2c-0.1-0.2-0.2-0.4-0.3-0.6c0.1-0.1,0.2-0.1,0.3-0.2
			c0.8-0.3,1.6-0.3,2.5-0.4c1.9-0.1,3.6,0.2,5.3,1c3.3,1.5,6.1,3.6,9.5,4.9c3.8,1.4,7.8,1,11.6-0.2c3.4-1.1,7-2.9,9.1-5.8
			c2.2-3,1.5-6.4-0.7-9.1c-6.3-7.8-15.8-2.2-23.8-1.7c-2.1,0.1-4.3-0.3-6.3-0.7c-0.8-0.2-3.3-0.7-3.7-1.6c-0.2-0.6,2.4-2,2.9-2.2
			c2.2-1.2,4.5-1.7,7-1.6c6.4,0,12.8,2.6,19.1,0.4c4.1-1.4,8.9-5.1,8.5-10c-0.4-5.2-6.8-7.5-11.3-7.3c-5.6,0.3-10.9,4.6-16.5,3.1
			c0.9-2.6,3.1-4.2,5.8-5.3c4-1.7,8.4-2.5,12.7-3.5c4.1-1,8.3-2.2,11.7-4.8C1406.8,1252.9,1408,1248.8,1407.4,1244.6z" clip-rule="evenodd"></path><path fill="#8bbae9" fill-rule="evenodd" d="M1380.2,1209c-2.1,9.3-4,18.6-6.6,27.7c-2.7,9.4-6.6,18-12,26.2c-11,16.9-25.1,31.5-36.5,48.1
			c-0.5,0.7-0.4,1.4,0,1.9c-2.2,4.1-3.5,8.9-4.4,13.4c-1.6,7.8-2.1,15.9-2.4,23.9c-0.4,9.8-0.3,19.5,0.1,29.2
			c0.5,11.5,1.3,23,0.8,34.4c0,0.7-0.1,1.3-0.1,2c-0.1,2.4,3.6,2.4,3.7,0c0.6-11.2,0-22.4-0.6-33.6c-0.5-10-0.7-19.9-0.4-29.9
			c0.3-7.7,0.7-15.5,2-23.1c1.2-6.9,3.1-14.8,8.4-19.9c0.7-0.7,0.7-1.6,0.2-2.3c10.6-14.5,22.8-27.8,32.7-42.8
			c5.3-8,9-16.7,11.8-25.9c2.8-9.3,4.6-18.9,6.8-28.3C1384.3,1207.6,1380.7,1206.7,1380.2,1209z" clip-rule="evenodd"></path><path fill="#8bbae9" fill-rule="evenodd" d="M1320.1,1416.4c-2-17.9-10.2-34-18.8-49.5c-8.5-15.5-17.4-31.1-20-48.8c-0.3-2.3-3.9-1.3-3.6,1
			c5.2,35.3,34.7,61.7,38.6,97.4C1316.6,1418.7,1320.3,1418.7,1320.1,1416.4z" clip-rule="evenodd"></path><path fill="#8bbae9" fill-rule="evenodd" d="M1374.3,1332.4c-15.8,6.9-31.2,17.4-41.8,31.1c-5.8,7.5-9.2,16-11.3,24.9c-0.8-9.3-2.5-18.5-4.3-27.7
			c-4.2-21.4-7.3-42.8-9.4-64.5c-0.8-8.6-1.4-17.2-1.8-25.9c-0.1-2.4-3.8-2.4-3.7,0c1.1,24,3.9,47.8,7.6,71.5c2.5,16,6.8,31.9,8,48
			c-1.4-8.8-3.5-17.4-6.2-25.8c-3.8-12-9-23.7-15.7-34.5c0-0.5-0.1-0.9-0.5-1.4c-0.5-0.5-0.9-1-1.4-1.5c-1.7-2.5-3.4-5-5.3-7.3
			c-0.8-1.1-2-0.7-2.6,0.2c-2.8-2.2-5.8-4.1-9.1-5.8c-7.6-3.9-17-6.5-20.6-15c-0.9-2.2-4.1-0.3-3.2,1.9c3.6,8.5,12.4,11.7,20.1,15.4
			c6.9,3.4,12.7,7.7,18,13.2c7.4,11.2,12.9,23.7,16.9,36.4c4.9,15.5,7.8,31.7,7.8,48c0,0.1,0,0.2,0,0.3c-0.3,1.2,0.7,2,1.7,2.1
			c0.5,1.7,3.5,1.4,3.6-0.7c1.3-17.4,3.3-35.7,14.5-49.9c10.3-13.1,25.3-23.1,40.4-29.7C1378.3,1334.6,1376.4,1331.4,1374.3,1332.4z
			" clip-rule="evenodd"></path><path fill="#c3dffa" fill-rule="evenodd" d="M1264,1208.6c-3.3-1.7-7.1-2.4-10.8-2.8c-1-0.1-1.9,0.7-2,1.7c-0.3,5.2-0.3,10.3-0.9,15.5
			c-0.2,1.7-0.6,4-1.3,5.2c0,0.1-0.3,0.3-0.3,0.5c0,0-0.1,0-0.1-0.1c-0.4-0.2-0.6-0.5-0.9-0.8c-4.8-5.1-5.5-12.7-10-18.1
			c-2.4-2.8-6-5.2-9.4-6.5c-3.7-1.4-7.7-0.9-10.9-3.6c-1.2-1-2.7,0.2-2.9,1.4c-1.1,7-3.7,14.8-1.5,21.8c1.9,6.2,7.3,9.6,12.8,12.4
			c2.6,1.4,5.3,2.8,7.6,4.6c1.3,1,3.6,2.8,3,4.6c-0.7,2-3.8,0.5-5.4-0.1c-3.2-1.2-6.2-2.8-9.2-4.4c-5-2.6-12.7-6.4-18-2.6
			c-2.3,1.7-2.1,4.8-1.1,7.2c1.5,3.7,5.1,6.8,8.4,9c7.3,5,16.5,3.1,24.4,6.1c1.8,0.7,7.2,3.5,6.2,6.2c-0.4,0.9-2,1.5-2.9,1.7
			c-2.1,0.6-4.5,0.9-6.7,0.5c-8.1-1.8-14.1-8.7-22.4-10.1c-3.6-0.6-8.4,0.2-11.3,2.6c-2.5,2-2.5,5.2-1.4,7.9
			c1.4,3.3,4.4,5.9,7.3,7.8c3.3,2.2,7.1,3.6,11.1,3.9c8,0.6,16.2-2.7,23.5,1.9c1,0.6,2.2,1.5,2.4,2.7c0.2,1-0.9,1.8-1.5,2.3
			c-2.9,2.2-7.7,3.1-11.2,2.9c-4.3-0.2-8.4-2.3-12.3-3.8c-4.2-1.6-8.4-2.5-12.8-1.8c-3.2,0.5-6.6,2.3-7.2,5.8
			c-0.5,3.2,1.4,6.3,3.3,8.7c2.6,3.1,6.1,5.5,9.8,7.1c4,1.8,8.9,1.5,13.1,1c4.4-0.5,8.7-1.6,13.1-2c1.2-0.1,2.1-0.2,3.2-0.6
			c1.2-0.5,2.3-1.1,3.6-1.3c1.1-0.2,0.9,1.1,0.9,1.9c0,2-2.5,3.1-4,4c-1.4,0.8-2.7,1.9-4.2,2.6c-1.7,0.8-3.6,1.3-5.4,1.9
			c-3.6,1.1-7.4,2.2-10.2,4.7c-2.7,2.5-3.5,6.6-2.6,10c2,7.3,11.5,7.9,17.5,6.1c3.9-1.2,6.7-3.5,9-6.8c2.8-4.1,4.4-8.7,8.6-11.4
			c1.1,1.7,1.2,3.4,0.2,5.5c-1.3,2.9-3.9,5.3-6.1,7.6c-4.3,4.4-11.1,9.8-11.4,16.5c0,0.8,0.4,1.6,1.2,1.9c3.6,1.2,7.3,1.7,11,0.3
			c3-1.1,5.2-3.8,6.8-6.5c2.9-4.8,4.4-10.8,8.2-15c-0.1,1.5-0.8,2.8-1.6,4.5c-1.5,2.9-1.5,6-0.8,9.2c1.1,4.8,4.8,8.8,9.9,6.4
			c2.8-1.3,4.9-4,6.5-6.5c1.9-2.8,2.9-6.1,3.3-9.5c0.5-4.2-0.1-8.4-1.3-12.5c8.2,6.2,21.5,10.5,26.8-0.8c4.5-9.6-9.9-8.5-17-11
			c1.1-0.1,2.3,0,3.4,0c3.1,0.1,6.3,0.4,9.4,0.2c5.9-0.3,11.3-3.1,11.8-9.6c0.5-5.6-5.7-5.1-9.4-4.5c-3,0.5-8.3,1.9-11.5,0.2
			c6.8-2.4,14.4-5,18.2-11.4c1.7-2.9,3.2-7.6,2-11c-1-2.7-4.3-2.3-6.4-1.5c-5.8,2.1-10,7.1-15.6,9.5c-1.4,0.6-2.7,1.1-4.2,1.4
			c-0.5,0.1-1.1,0.2-1.7,0.2c-0.2,0-0.5-0.1-0.6-0.1c0-0.1,0-0.2,0-0.3c0.2-0.8,0.7-1.5,1.1-2.3c1-1.6,2.2-2.9,3.8-3.8
			c3.1-1.9,6.5-3,9.4-5.1c3.3-2.3,5.3-5.8,6.4-9.7c1-3.4,1.6-7.4,0.4-10.8c-1.3-3.5-4.4-4.8-7.9-4.6c-9.9,0.8-10.7,11.8-14.9,18.6
			c-1.1,1.8-2.7,3.4-4.2,4.8c-0.6,0.6-2.4,2.4-3.4,2.1c-0.6-0.1-0.3-3.1-0.2-3.7c0.3-2.5,1.2-4.6,2.6-6.7c3.7-5.3,9.3-9.1,11.1-15.5
			c1.2-4.2,0.8-10.2-3.4-12.7c-4.5-2.6-10,1.3-12.4,5.2c-2.9,4.8-2.4,11.6-6.8,15.4c-1.6-2.2-1.7-4.9-1.1-7.8
			c0.9-4.3,2.7-8.4,4.3-12.5c1.5-3.9,2.9-8.1,2.6-12.3C1270.4,1213.7,1267.8,1210.5,1264,1208.6z" clip-rule="evenodd"></path><polygon fill="#c3dffa" fill-rule="evenodd" points="1361.9 1524.7 1282.4 1524.7 1256.4 1421.9 1386.1 1421.9" clip-rule="evenodd"></polygon><rect width="145.2" height="13.4" x="1247.7" y="1408.5" fill="#8bbae9" fill-rule="evenodd" clip-rule="evenodd"></rect><polygon fill="#a4d0fc" fill-rule="evenodd" points="1321.3 1421.9 1256.4 1421.9 1282.4 1524.7 1321.3 1524.7" clip-rule="evenodd"></polygon><rect width="73.5" height="13.4" x="1247.7" y="1408.5" fill="#61a0e0" fill-rule="evenodd" clip-rule="evenodd"></rect><polygon fill="#8bbae9" fill-rule="evenodd" points="1361.9 1526.2 1282.4 1526.2 1256.4 1512.4 1386.1 1512.4" clip-rule="evenodd"></polygon><polygon fill="#61a0e0" fill-rule="evenodd" points="1321.3 1512.4 1256.4 1512.4 1282.4 1526.2 1321.3 1526.2" clip-rule="evenodd"></polygon></g></svg>