<svg xmlns="http://www.w3.org/2000/svg" data-name="Layer 1" viewBox="0 0 128 128" id="Leads"><path d="M76.684 84.445a2.028 2.028 0 0 0-2.828 0L60.822 97.478c-8.124 8.123-21.529 7.935-29.882-.419-8.017-8.018-8.524-21.775-.418-29.882l13.033-13.032a2.026 2.026 0 0 0 0-2.829L28.831 36.592a2.059 2.059 0 0 0-2.828 0L12.969 49.625c-17.596 17.597-17.242 46.583.79 64.616A46.671 46.671 0 0 0 46.794 128a44.437 44.437 0 0 0 31.582-12.97s13.016-13.015 13.033-13.032a2.019 2.019 0 0 0 0-2.83zM40.986 39.989a1.994 1.994 0 0 0 1.414-.568l6.168-6.168.877 2.948a2 2 0 0 0 3.331.844l9.627-9.626a2 2 0 0 0-2.829-2.829l-7.252 7.252-.876-2.95a2 2 0 0 0-3.332-.843l-8.543 8.543a2.006 2.006 0 0 0 1.415 3.397zm59.595 25.608-9.626 9.627a2 2 0 0 0 .844 3.331l2.948.876-6.168 6.17a2 2 0 0 0 0 2.828 2.03 2.03 0 0 0 2.829 0l8.543-8.544a2 2 0 0 0-.844-3.331l-2.949-.876 7.252-7.252a2 2 0 1 0-2.829-2.83zm18.51-33.866a4.614 4.614 0 0 0-4.05-3.764l-8.783-1.381a1.03 1.03 0 0 1-.402-.149 15.841 15.841 0 0 1-3.912 1.284l.013.032a4.754 4.754 0 0 0 3.679 2.784l8.827 1.388c.439.059.657.294.672.394l1.524 9.688H81.33l1.53-9.721c.009-.067.228-.302.71-.368l8.784-1.38a4.755 4.755 0 0 0 3.678-2.786l.013-.031a15.843 15.843 0 0 1-3.912-1.284 1.027 1.027 0 0 1-.4.149l-8.74 1.374a4.626 4.626 0 0 0-4.09 3.738l-1.888 11.999a2 2 0 0 0 1.976 2.31h40.006a2 2 0 0 0 1.976-2.31zm-20.096-7.727a12.002 12.002 0 1 0-12.002-12.002 12.015 12.015 0 0 0 12.002 12.002zm-24.497 9.965a24.982 24.982 0 0 1 8.687-24.315 15.888 15.888 0 0 1 2.398-6.351A28.954 28.954 0 0 0 73.2 42.216zm37.905-30.673a15.888 15.888 0 0 1 2.4 6.35A24.988 24.988 0 0 1 123.498 34l1.296 8.23a28.954 28.954 0 0 0-12.39-38.935zM99 54a24.845 24.845 0 0 1-13.527-3.992H79.04a28.92 28.92 0 0 0 39.92 0h-6.433A24.845 24.845 0 0 1 99 54z" fill="#0000FF" class="color000000 svgShape"></path></svg>