<svg xmlns="http://www.w3.org/2000/svg" viewBox="0 0 5000 3000" id="message-inbox"><rect width="1506.037" height="220.896" x="3274.536" y="454.428" fill="#f9ead2" opacity=".75" rx="110.448" ry="110.448"></rect><rect width="1506.037" height="220.896" x="475.666" y="1081.771" fill="#f9ead2" opacity=".75" rx="110.448" ry="110.448"></rect><path fill="#f9ead2" d="M3802.353,1859.323h181.252c28.693-115.04,43.949-235.398,43.949-359.324,0-119.799-14.254-236.266-41.123-347.818h-837.93c-60.998,0-110.448-49.449-110.448-110.447s49.449-110.448,110.448-110.448h765.81C3691.395,396.18,3163.416,20,2547.554,20c-204.375,0-399.074,41.426-576.159,116.338h907.144c60.999,0,110.448,49.449,110.448,110.448h0c0,60.999-49.449,110.448-110.448,110.448H1607.022c-329.434,271.447-539.468,682.578-539.468,1142.766,0,.492,.009,.981,.009,1.473h1139.453c60.999,0,110.448,49.449,110.448,110.447h0c0,60.999-49.449,110.448-110.448,110.448H1084.168c48.321,320.654,199.507,607.601,418.891,826.15h1278.286c60.998,0,110.448,49.449,110.448,110.448s-49.449,110.447-110.448,110.447h-995.09c222.435,133.687,482.881,210.587,761.298,210.587,611.44,0,1136.26-370.794,1361.915-899.781h-107.116c-60.999,0-110.448-49.45-110.448-110.448s49.449-110.448,110.448-110.448Z" opacity=".75"></path><rect width="1506.037" height="220.896" x="219.427" y="1912.338" fill="#f9ead2" opacity=".75" rx="110.448" ry="110.448"></rect><rect width="1506.037" height="220.896" x="2746.472" y="1391.025" fill="#f9ead2" opacity=".75" rx="110.448" ry="110.448"></rect><rect width="1506.037" height="220.896" x="2799.487" y="2327.622" fill="#f9ead2" opacity=".75" rx="110.448" ry="110.448"></rect><circle cx="1104.354" cy="351.932" r="285.373" fill="#ffc1ae" opacity=".75"></circle><circle cx="4435.677" cy="2693.957" r="183.167" fill="#ffc1ae" opacity=".75"></circle><circle cx="4191.552" cy="845.892" r="113.972" fill="#ffc1ae" opacity=".75"></circle><circle cx="2689.486" cy="618.337" r="56.986" fill="#ffc1ae" opacity=".75"></circle><circle cx="3646.077" cy="1736.542" r="56.986" fill="#ffc1ae" opacity=".75"></circle><circle cx="2632.5" cy="2327.622" r="56.986" fill="#ffc1ae" opacity=".75"></circle><circle cx="3217.549" cy="1251.166" r="56.986" fill="#ffc1ae" opacity=".75"></circle><circle cx="3102.353" cy="2844.573" r="56.986" fill="#ffc1ae" opacity=".75"></circle><circle cx="3388.508" cy="2170.84" r="113.972" fill="#ffc1ae" opacity=".75"></circle><circle cx="1601.527" cy="845.892" r="113.972" fill="#ffc1ae" opacity=".75"></circle><circle cx="1914.079" cy="2022.786" r="113.972" fill="#ffc1ae" opacity=".75"></circle><path fill="#999" d="M937.156,1022.016h0c-63.877,0-115.66,51.783-115.66,115.66v464.382h402.667V1022.016h-287.007Z"></path><path fill="#ccc" d="M1284.135,1022.016h-346.979c63.877,0,115.66,51.783,115.66,115.66v537.539c0,63.877,51.783,115.659,115.659,115.659h357.688V1022.016h-242.029Z"></path><path fill="#f2f2f2" d="M1284.135,765.18v910.035c0,63.877-51.783,115.659-115.66,115.659h783.916c63.877,0,115.659-51.783,115.659-115.659V765.18h-783.915Z"></path><rect width="502.062" height="143.439" x="1359.1" y="932.058" fill="#ccc"></rect><rect width="351.263" height="25.702" x="1359.1" y="1120.476" fill="#999" rx="12.851" ry="12.851"></rect><rect width="109.234" height="25.702" x="1359.1" y="1172.952" fill="#999" rx="12.851" ry="12.851"></rect><rect width="433.724" height="25.702" x="1489.752" y="1172.952" fill="#999" rx="12.851" ry="12.851"></rect><rect width="412.305" height="25.702" x="1359.1" y="1225.427" fill="#999" rx="12.851" ry="12.851"></rect><rect width="234.532" height="25.702" x="1359.1" y="1277.902" fill="#999" rx="12.851" ry="12.851"></rect><polygon fill="#3c6279" points="3429.501 1611.043 2629.597 1053.606 1829.709 1611.043 1829.709 2268.827 3429.501 2268.827 3429.501 1611.043"></polygon><polygon fill="#69f99f" points="1991.013 895.439 1991.013 2506.957 3348.902 2506.957 3348.902 1271.092 2973.233 895.439 1991.013 895.439"></polygon><rect width="862.478" height="51.601" x="2132.099" y="1790.874" fill="#fff" rx="25.801" ry="25.801"></rect><rect width="361.209" height="51.601" x="2132.099" y="1871.962" fill="#fff" rx="25.801" ry="25.801"></rect><rect width="361.209" height="51.601" x="2532.008" y="1871.962" fill="#fff" rx="25.801" ry="25.801"></rect><rect width="449.668" height="51.601" x="2132.099" y="1953.049" fill="#fff" rx="25.801" ry="25.801"></rect><path fill="#6fb6e0" d="M2629.597,2164.864l-799.888-557.437v947.481c0,11.711,5.205,22.213,13.435,29.299,6.772,5.832,15.583,9.359,25.223,9.359h1522.476c9.641,0,18.451-3.527,25.223-9.359,8.23-7.101,13.435-17.588,13.435-29.299v-947.481l-799.904,557.437Z"></path><path fill="#7bc9fa" d="M3416.067,2584.208c-6.772,5.832-15.582,9.359-25.223,9.359H1868.367c-9.641,0-18.451-3.527-25.223-9.359l786.453-548.078,786.469,548.078Z"></path><polygon fill="#337a4e" points="2973.233 895.439 2973.233 1271.092 3348.902 1271.092 2973.233 895.439"></polygon><rect width="731.06" height="150.528" x="2304.427" y="1318.452" fill="#fff"></rect><rect width="234.583" height="51.601" x="2132.099" y="1530.411" fill="#fff" rx="25.801" ry="25.801"></rect><rect width="525.227" height="51.601" x="2132.099" y="1621.327" fill="#fff" rx="25.801" ry="25.801"></rect><circle cx="3737.246" cy="847.691" r="441.258" fill="#999"></circle><circle cx="3737.246" cy="847.691" r="353.314" fill="#f2f2f2"></circle><circle cx="3890.445" cy="1113.04" r="24.413" fill="#ccc"></circle><circle cx="3584.046" cy="582.342" r="24.413" fill="#ccc"></circle><circle cx="4002.595" cy="1000.891" r="24.413" fill="#ccc"></circle><circle cx="3471.896" cy="694.492" r="24.413" fill="#ccc"></circle><circle cx="4043.644" cy="847.691" r="24.413" fill="#ccc"></circle><circle cx="3430.847" cy="847.691" r="24.413" fill="#ccc"></circle><circle cx="4002.595" cy="694.492" r="24.413" fill="#ccc"></circle><circle cx="3471.896" cy="1000.891" r="24.413" fill="#ccc"></circle><circle cx="3890.445" cy="582.342" r="24.413" fill="#ccc"></circle><circle cx="3584.046" cy="1113.04" r="24.413" fill="#ccc"></circle><circle cx="3737.246" cy="541.292" r="24.413" fill="#ccc"></circle><circle cx="3737.246" cy="1154.09" r="24.413" fill="#ccc"></circle><path fill="#999" d="M3737.246,870.191h-120.457c-12.427,0-22.5-10.073-22.5-22.5s10.073-22.5,22.5-22.5h97.957v-218.433c0-12.427,10.073-22.5,22.5-22.5s22.5,10.073,22.5,22.5v240.933c0,12.427-10.073,22.5-22.5,22.5Z"></path><circle cx="1519.496" cy="1592.429" r="160.396" fill="#999"></circle><circle cx="1519.496" cy="1592.429" r="128.429" fill="#fff"></circle><circle cx="1575.183" cy="1688.882" r="8.874" fill="#ccc"></circle><circle cx="1463.808" cy="1495.975" r="8.874" fill="#ccc"></circle><circle cx="1615.949" cy="1648.116" r="8.874" fill="#ccc"></circle><circle cx="1423.042" cy="1536.741" r="8.874" fill="#ccc"></circle><circle cx="1630.871" cy="1592.429" r="8.874" fill="#ccc"></circle><circle cx="1408.121" cy="1592.429" r="8.874" fill="#ccc"></circle><circle cx="1615.949" cy="1536.741" r="8.874" fill="#ccc"></circle><circle cx="1423.042" cy="1648.116" r="8.874" fill="#ccc"></circle><circle cx="1575.183" cy="1495.975" r="8.874" fill="#ccc"></circle><circle cx="1463.808" cy="1688.882" r="8.874" fill="#ccc"></circle><circle cx="1519.496" cy="1481.054" r="8.874" fill="#ccc"></circle><circle cx="1519.496" cy="1703.804" r="8.874" fill="#ccc"></circle><path fill="#999" d="M1519.496,1600.607h-43.786c-4.517,0-8.179-3.662-8.179-8.179s3.662-8.179,8.179-8.179h35.607v-79.4c0-4.517,3.662-8.179,8.179-8.179s8.179,3.662,8.179,8.179v87.578c0,4.517-3.662,8.179-8.179,8.179Z"></path></svg>