<svg xmlns="http://www.w3.org/2000/svg" enable-background="new 0 0 2500 2500" viewBox="0 0 2500 2500" id="user-login"><path fill="#fee4e8" d="M2065.95,648.85c-104.41-53.13-228.1-29.22-337.41,51.36c-68.67,50.62-153.33,68.25-234.33,49.25
							c-1.11-0.26-2.22-0.52-3.33-0.78c-101.51-23.84-182.96-103.61-221.06-209.1c-37.55-103.95-101.32-185.98-188.7-230.45
							c-232.7-118.42-544.45,74.15-696.32,430.12c-151.87,355.97-86.36,740.54,146.34,858.96
							c118.32,60.22,257.09,40.01,384.88-41.19c120.97-76.87,262.57-104.84,399.1-71.24c14.67,3.61,29.35,7.26,44.02,10.93
							c83.22,20.86,158.84,65.58,226.25,122.81c15.86,13.47,33.1,25.07,51.71,34.54c185.42,94.36,431.74-54.16,550.17-331.74
							C2305.67,1044.74,2251.37,743.22,2065.95,648.85z"></path><rect width="1157.24" height="1523.79" x="784.66" y="699.14" fill="#fff"></rect><path fill="#070706" d="M1941.9,2225.79H784.66c-1.57,0-2.85-1.28-2.85-2.85V699.14c0-1.57,1.28-2.85,2.85-2.85H1941.9
							c1.57,0,2.85,1.28,2.85,2.85v1523.8C1944.75,2224.51,1943.47,2225.79,1941.9,2225.79z M787.51,2220.08h1151.54V701.99H787.51
							V2220.08z"></path><path fill="#34cec3" d="M1005.74,773.81c0,19.98,23.23,34.55,44.11,18.39c15.6-20.95,1.1-43.75-18.74-43.75
							C1017.12,748.44,1005.74,759.78,1005.74,773.81z"></path><path fill="#ffb839" d="M927.91,773.81c0,19.98,23.23,34.55,44.11,18.39c15.6-20.95,1.1-43.75-18.74-43.75
							C939.29,748.44,927.91,759.78,927.91,773.81z"></path><path fill="#ff571c" d="M850.07,773.81c0,19.98,23.23,34.55,44.11,18.39c15.6-20.95,1.1-43.75-18.74-43.75
							C861.45,748.44,850.07,759.78,850.07,773.81z"></path><path fill="#789afe" d="M1568.13,1092.61c0,46.18-15.22,88.72-40.98,122.93c-37.4,49.76-96.92,81.89-163.91,81.89
						c-67,0-126.51-32.2-163.85-81.96c-25.69-34.21-40.98-76.75-40.98-122.87c0-113.11,91.71-204.83,204.82-204.83
						C1476.42,887.78,1568.13,979.5,1568.13,1092.61z"></path><circle cx="1363.28" cy="1031.98" r="68.85" fill="#fff"></circle><path fill="#fff" d="M1527.16,1215.54c-37.4,49.76-96.92,81.89-163.91,81.89c-67,0-126.51-32.2-163.85-81.96
						c31.68-57.89,93.21-97.11,163.85-97.11C1433.95,1118.37,1495.48,1157.65,1527.16,1215.54z"></path><path fill="#070706" d="M1363.25,1300.29c-65.95,0-126.5-30.29-166.13-83.1c-27.18-36.2-41.55-79.28-41.55-124.58
						c0-114.51,93.16-207.68,207.68-207.68c114.55,0,207.74,93.16,207.74,207.68c0,45.44-14.37,88.54-41.55,124.65
						C1489.78,1270.02,1429.2,1300.29,1363.25,1300.29z M1363.25,890.64c-111.37,0-201.97,90.61-201.97,201.98
						c0,44.06,13.97,85.95,40.41,121.16c38.54,51.36,97.43,80.82,161.57,80.82c64.15,0,123.06-29.43,161.63-80.76
						c26.44-35.11,40.41-77.02,40.41-121.22C1565.28,981.24,1474.65,890.64,1363.25,890.64z"></path><g><path fill="#fff" d="M1799.1,1562.12H960.15c-3.81,0-6.89-3.09-6.89-6.89v-174.51c0-3.81,3.09-6.89,6.89-6.89h838.95
					c3.81,0,6.89,3.09,6.89,6.89v174.51C1805.99,1559.03,1802.91,1562.12,1799.1,1562.12z"></path><path fill="#070706" d="M1779.78,1564.97H979.46c-16.03,0-29.06-13.04-29.06-29.06v-135.87c0-16.03,13.04-29.06,29.06-29.06h800.32
					c16.03,0,29.06,13.04,29.06,29.06v135.87C1808.84,1551.93,1795.81,1564.97,1779.78,1564.97z M979.46,1376.68
					c-12.88,0-23.36,10.48-23.36,23.36v135.87c0,12.88,10.48,23.36,23.36,23.36h800.32c12.88,0,23.36-10.48,23.36-23.36v-135.87
					c0-12.88-10.48-23.36-23.36-23.36H979.46z"></path></g><g><path fill="#fff" d="M1799.1,1819.4H960.15c-3.81,0-6.89-3.09-6.89-6.89V1638c0-3.81,3.09-6.89,6.89-6.89h838.95
					c3.81,0,6.89,3.09,6.89,6.89v174.51C1805.99,1816.32,1802.91,1819.4,1799.1,1819.4z"></path><path fill="#070706" d="M1779.78,1822.25H979.46c-16.03,0-29.06-13.04-29.06-29.06v-135.87c0-16.03,13.04-29.06,29.06-29.06h800.32
					c16.03,0,29.06,13.04,29.06,29.06v135.87C1808.84,1809.22,1795.81,1822.25,1779.78,1822.25z M979.46,1633.96
					c-12.88,0-23.36,10.48-23.36,23.36v135.87c0,12.88,10.48,23.36,23.36,23.36h800.32c12.88,0,23.36-10.48,23.36-23.36v-135.87
					c0-12.88-10.48-23.36-23.36-23.36H979.46z"></path></g><g><path fill="#ffb839" d="M1660.28,2099.99h-561.31c-4.35,0-7.87-3.52-7.87-7.87v-187.51c0-4.35,3.52-7.87,7.87-7.87h561.31
					c4.35,0,7.87,3.52,7.87,7.87v187.51C1668.15,2096.47,1664.62,2099.99,1660.28,2099.99z"></path><path fill="#070706" d="M1638.23,2102.84h-517.2c-18.07,0-32.77-14.7-32.77-32.78v-143.41c0-18.07,14.7-32.77,32.77-32.77h517.2
					c18.07,0,32.77,14.7,32.77,32.77v143.41C1671,2088.14,1656.3,2102.84,1638.23,2102.84z M1121.02,1899.59
					c-14.93,0-27.07,12.14-27.07,27.07v143.41c0,14.93,12.14,27.07,27.07,27.07h517.2c14.93,0,27.07-12.15,27.07-27.07v-143.41
					c0-14.93-12.15-27.07-27.07-27.07H1121.02z"></path></g><g><path fill="#e3e3e3" d="M1537.58,1488.68h-522.3c-3.38,0-6.13-2.74-6.13-6.13v-34.34c0-3.38,2.74-6.13,6.13-6.13h522.3
					c3.38,0,6.13,2.74,6.13,6.13v34.34C1543.7,1485.94,1540.96,1488.68,1537.58,1488.68z"></path></g><g><path fill="#252420" d="M1206.81 1737.36c1.15.4 1.68 1.29 1.6 2.68-.09 1.38-.96 3.51-2.63 6.39-1.67 2.88-3.08 4.67-4.23 5.39-1.15.72-2.19.71-3.11-.04l-17.17-13.72 3.45 21.66c.29 1.21-.2 2.13-1.47 2.76-1.27.63-3.57.95-6.9.95-3.34 0-5.64-.32-6.9-.95-1.27-.63-1.76-1.55-1.47-2.76l3.45-21.66-17.17 13.72c-.86.75-1.87.75-3.02 0s-2.59-2.56-4.31-5.44c-1.67-2.82-2.53-4.92-2.59-6.3-.06-1.38.46-2.27 1.55-2.68l20.54-7.94-20.54-7.94c-1.09-.4-1.61-1.3-1.55-2.68.06-1.38.92-3.51 2.59-6.39 1.67-2.88 3.09-4.69 4.27-5.44 1.18-.75 2.2-.72 3.06.09l17.17 13.72-3.45-21.66c-.29-1.15.2-2.06 1.47-2.72 1.26-.66 3.57-.99 6.9-.99 3.34 0 5.64.33 6.9.99 1.26.66 1.75 1.57 1.47 2.72l-3.45 21.66 17.17-13.72c.92-.81 1.94-.82 3.07-.04 1.12.78 2.55 2.6 4.27 5.48 1.67 2.82 2.55 4.92 2.63 6.3.09 1.38-.45 2.27-1.6 2.68l-20.45 7.94L1206.81 1737.36zM1312.51 1737.36c1.15.4 1.68 1.29 1.6 2.68-.09 1.38-.96 3.51-2.63 6.39-1.67 2.88-3.08 4.67-4.23 5.39-1.15.72-2.19.71-3.11-.04l-17.17-13.72 3.45 21.66c.29 1.21-.2 2.13-1.47 2.76-1.27.63-3.57.95-6.9.95-3.34 0-5.64-.32-6.9-.95-1.27-.63-1.76-1.55-1.47-2.76l3.45-21.66-17.17 13.72c-.86.75-1.87.75-3.02 0-1.15-.75-2.59-2.56-4.31-5.44-1.67-2.82-2.53-4.92-2.59-6.3-.06-1.38.46-2.27 1.55-2.68l20.54-7.94-20.54-7.94c-1.09-.4-1.61-1.3-1.55-2.68.06-1.38.92-3.51 2.59-6.39 1.67-2.88 3.09-4.69 4.27-5.44 1.18-.75 2.2-.72 3.06.09l17.17 13.72-3.45-21.66c-.29-1.15.2-2.06 1.47-2.72 1.26-.66 3.57-.99 6.9-.99 3.34 0 5.64.33 6.9.99 1.26.66 1.75 1.57 1.47 2.72l-3.45 21.66 17.17-13.72c.92-.81 1.94-.82 3.07-.04 1.12.78 2.55 2.6 4.27 5.48 1.67 2.82 2.55 4.92 2.63 6.3.09 1.38-.45 2.27-1.6 2.68l-20.45 7.94L1312.51 1737.36zM1418.21 1737.36c1.15.4 1.68 1.29 1.6 2.68s-.96 3.51-2.63 6.39c-1.67 2.88-3.08 4.67-4.23 5.39-1.15.72-2.19.71-3.1-.04l-17.18-13.72 3.45 21.66c.29 1.21-.2 2.13-1.47 2.76-1.27.63-3.57.95-6.9.95-3.34 0-5.64-.32-6.91-.95-1.27-.63-1.76-1.55-1.47-2.76l3.45-21.66-17.18 13.72c-.86.75-1.87.75-3.02 0-1.15-.75-2.59-2.56-4.31-5.44-1.67-2.82-2.53-4.92-2.59-6.3-.06-1.38.46-2.27 1.55-2.68l20.54-7.94-20.54-7.94c-1.09-.4-1.61-1.3-1.55-2.68.06-1.38.92-3.51 2.59-6.39 1.67-2.88 3.09-4.69 4.27-5.44 1.18-.75 2.2-.72 3.06.09l17.18 13.72-3.45-21.66c-.29-1.15.2-2.06 1.47-2.72 1.27-.66 3.57-.99 6.91-.99 3.33 0 5.64.33 6.9.99 1.27.66 1.76 1.57 1.47 2.72l-3.45 21.66 17.18-13.72c.92-.81 1.94-.82 3.06-.04 1.12.78 2.54 2.6 4.27 5.48 1.67 2.82 2.55 4.92 2.63 6.3.09 1.38-.45 2.27-1.6 2.68l-20.45 7.94L1418.21 1737.36zM1523.91 1737.36c1.15.4 1.68 1.29 1.6 2.68-.09 1.38-.96 3.51-2.63 6.39-1.67 2.88-3.08 4.67-4.23 5.39-1.15.72-2.19.71-3.1-.04l-17.18-13.72 3.45 21.66c.29 1.21-.2 2.13-1.47 2.76s-3.57.95-6.9.95c-3.34 0-5.64-.32-6.91-.95s-1.76-1.55-1.47-2.76l3.45-21.66-17.17 13.72c-.87.75-1.87.75-3.02 0-1.15-.75-2.59-2.56-4.31-5.44-1.67-2.82-2.53-4.92-2.59-6.3-.06-1.38.46-2.27 1.55-2.68l20.54-7.94-20.54-7.94c-1.09-.4-1.61-1.3-1.55-2.68.06-1.38.92-3.51 2.59-6.39 1.67-2.88 3.09-4.69 4.27-5.44 1.18-.75 2.2-.72 3.07.09l17.17 13.72-3.45-21.66c-.29-1.15.2-2.06 1.47-2.72s3.57-.99 6.91-.99c3.33 0 5.64.33 6.9.99s1.76 1.57 1.47 2.72l-3.45 21.66 17.18-13.72c.92-.81 1.94-.82 3.06-.04 1.12.78 2.54 2.6 4.27 5.48 1.67 2.82 2.55 4.92 2.63 6.3.09 1.38-.45 2.27-1.6 2.68l-20.45 7.94L1523.91 1737.36zM1629.61 1737.36c1.15.4 1.68 1.29 1.6 2.68-.09 1.38-.96 3.51-2.63 6.39-1.67 2.88-3.08 4.67-4.23 5.39-1.15.72-2.19.71-3.1-.04l-17.18-13.72 3.45 21.66c.29 1.21-.2 2.13-1.47 2.76s-3.57.95-6.9.95c-3.34 0-5.64-.32-6.91-.95s-1.76-1.55-1.47-2.76l3.45-21.66-17.17 13.72c-.87.75-1.87.75-3.02 0s-2.59-2.56-4.31-5.44c-1.67-2.82-2.53-4.92-2.59-6.3-.06-1.38.46-2.27 1.55-2.68l20.54-7.94-20.54-7.94c-1.09-.4-1.61-1.3-1.55-2.68.06-1.38.92-3.51 2.59-6.39 1.67-2.88 3.09-4.69 4.27-5.44 1.18-.75 2.2-.72 3.07.09l17.17 13.72-3.45-21.66c-.29-1.15.2-2.06 1.47-2.72s3.57-.99 6.91-.99c3.33 0 5.64.33 6.9.99s1.76 1.57 1.47 2.72l-3.45 21.66 17.18-13.72c.92-.81 1.94-.82 3.06-.04 1.12.78 2.54 2.6 4.27 5.48 1.67 2.82 2.55 4.92 2.63 6.3.09 1.38-.45 2.27-1.6 2.68l-20.45 7.94L1629.61 1737.36z"></path></g><g><path fill="#fff" d="M1242.27 2033.17c0 1.27-.05 2.34-.16 3.2s-.26 1.59-.48 2.16c-.21.57-.48.98-.79 1.24-.32.25-.69.38-1.11.38h-37.6c-1.4 0-2.57-.41-3.52-1.24-.95-.82-1.43-2.17-1.43-4.03v-74.5c0-.42.14-.8.41-1.14.27-.34.73-.61 1.36-.82.63-.21 1.49-.38 2.57-.51 1.08-.13 2.42-.19 4.03-.19 1.65 0 3 .06 4.06.19 1.06.13 1.9.3 2.54.51.63.21 1.09.49 1.36.82.27.34.41.72.41 1.14v66.01h25.81c.42 0 .79.12 1.11.35.32.23.58.61.79 1.14.21.53.37 1.23.48 2.09C1242.22 2030.84 1242.27 2031.91 1242.27 2033.17zM1330.12 1998.17c0 6.81-.85 12.89-2.54 18.26-1.69 5.37-4.21 9.92-7.55 13.66-3.34 3.74-7.47 6.6-12.4 8.56-4.93 1.97-10.62 2.95-17.09 2.95-6.38 0-11.95-.84-16.71-2.51-4.76-1.67-8.72-4.22-11.89-7.64-3.17-3.43-5.55-7.78-7.13-13.06-1.59-5.28-2.38-11.54-2.38-18.77 0-6.64.85-12.61 2.54-17.91 1.69-5.31 4.2-9.82 7.54-13.54 3.34-3.72 7.47-6.57 12.4-8.56 4.92-1.99 10.64-2.98 17.15-2.98 6.21 0 11.7.82 16.45 2.47 4.76 1.65 8.73 4.19 11.92 7.61 3.19 3.42 5.6 7.75 7.23 12.97C1329.3 1984.91 1330.12 1991.07 1330.12 1998.17zM1312.62 1999.06c0-4.31-.34-8.23-1.01-11.76-.68-3.53-1.83-6.55-3.46-9.07-1.63-2.51-3.79-4.46-6.5-5.83-2.7-1.37-6.09-2.06-10.14-2.06-4.1 0-7.53.77-10.27 2.31-2.75 1.54-4.97 3.61-6.66 6.18-1.69 2.58-2.89 5.59-3.58 9.04-.7 3.45-1.05 7.09-1.05 10.94 0 4.48.34 8.51 1.02 12.08.67 3.57 1.82 6.63 3.42 9.16 1.61 2.54 3.76 4.47 6.47 5.8 2.7 1.33 6.11 2 10.21 2 4.1 0 7.52-.76 10.27-2.28 2.75-1.52 4.97-3.59 6.66-6.21 1.69-2.62 2.89-5.68 3.58-9.16C1312.27 2006.7 1312.62 2002.99 1312.62 1999.06zM1416.44 1970.84c0 1.23-.05 2.28-.16 3.17-.11.89-.25 1.6-.44 2.12-.19.53-.42.9-.7 1.11-.27.21-.6.32-.98.32-.55 0-1.44-.38-2.66-1.14-1.23-.76-2.85-1.59-4.88-2.47-2.03-.89-4.45-1.71-7.26-2.47-2.81-.76-6.08-1.14-9.8-1.14-3.97 0-7.57.69-10.78 2.06-3.21 1.37-5.96 3.32-8.24 5.83-2.28 2.52-4.04 5.54-5.26 9.07-1.23 3.53-1.84 7.43-1.84 11.7 0 4.69.62 8.82 1.87 12.4 1.25 3.57 2.99 6.56 5.23 8.97 2.24 2.41 4.94 4.23 8.09 5.45 3.15 1.23 6.63 1.84 10.43 1.84 1.86 0 3.7-.21 5.52-.64 1.82-.42 3.51-1.06 5.07-1.9v-19.02h-15.54c-.76 0-1.35-.48-1.77-1.43-.42-.95-.63-2.57-.63-4.85 0-1.18.05-2.18.16-2.98.1-.8.26-1.45.48-1.93.21-.49.46-.85.76-1.08.3-.23.63-.35 1.01-.35h27.71c.68 0 1.28.12 1.81.35.53.23.99.58 1.4 1.05.4.46.71 1.02.92 1.68.21.66.32 1.41.32 2.25v32.66c0 1.27-.22 2.38-.67 3.33-.44.95-1.35 1.7-2.73 2.25-1.38.55-3.08 1.12-5.11 1.71-2.03.59-4.13 1.1-6.31 1.52-2.18.42-4.38.74-6.59.95-2.22.21-4.45.32-6.69.32-6.55 0-12.42-.94-17.6-2.82-5.18-1.88-9.56-4.61-13.16-8.18s-6.34-7.93-8.24-13.06c-1.9-5.14-2.85-10.96-2.85-17.47 0-6.72 1.02-12.75 3.04-18.1 2.03-5.35 4.9-9.89 8.62-13.63 3.72-3.74 8.21-6.61 13.47-8.59 5.26-1.99 11.13-2.98 17.59-2.98 3.55 0 6.79.24 9.7.73 2.92.49 5.46 1.08 7.64 1.78 2.18.7 3.98 1.45 5.42 2.25 1.44.8 2.44 1.5 3.01 2.09.57.59.98 1.43 1.24 2.5C1416.31 1967.14 1416.44 1968.73 1416.44 1970.84zM1456.6 2037.87c0 .42-.14.8-.41 1.14-.28.34-.73.61-1.36.82-.63.21-1.48.38-2.54.51-1.06.13-2.41.19-4.06.19-1.61 0-2.95-.06-4.03-.19-1.08-.13-1.93-.3-2.57-.51-.63-.21-1.09-.48-1.36-.82-.28-.34-.41-.72-.41-1.14v-77.48c0-.42.14-.8.41-1.14.27-.34.74-.61 1.39-.82.66-.21 1.51-.38 2.57-.51 1.06-.13 2.39-.19 4-.19 1.65 0 3 .06 4.06.19 1.06.13 1.9.3 2.54.51.63.21 1.09.49 1.36.82.27.34.41.72.41 1.14V2037.87zM1548.63 2034.32c0 .97-.17 1.84-.51 2.6-.34.76-.79 1.4-1.36 1.9-.57.51-1.25.88-2.03 1.11-.78.23-1.57.35-2.38.35h-7.1c-1.48 0-2.76-.15-3.84-.44-1.08-.3-2.07-.83-2.98-1.62-.91-.78-1.79-1.84-2.63-3.17-.85-1.33-1.8-3.05-2.86-5.17l-20.42-38.36c-1.18-2.28-2.39-4.74-3.61-7.39-1.23-2.64-2.32-5.21-3.3-7.7h-.13c.17 3.04.29 6.08.38 9.1.09 3.02.13 6.14.13 9.35v42.93c0 .42-.12.8-.35 1.14-.23.34-.63.62-1.2.86-.57.23-1.34.41-2.31.54-.98.13-2.22.19-3.74.19-1.48 0-2.71-.06-3.68-.19-.97-.13-1.73-.3-2.28-.54-.55-.23-.93-.52-1.14-.86-.21-.34-.32-.72-.32-1.14v-73.74c0-1.99.58-3.48 1.75-4.47 1.16-.99 2.59-1.49 4.28-1.49h8.94c1.61 0 2.96.14 4.06.41 1.1.27 2.08.73 2.95 1.36.87.63 1.68 1.51 2.44 2.63.76 1.12 1.54 2.5 2.35 4.15l15.98 29.99c.93 1.82 1.85 3.6 2.76 5.36.91 1.75 1.79 3.51 2.63 5.26.84 1.75 1.67 3.48 2.47 5.17.8 1.69 1.59 3.38 2.34 5.07h.07c-.13-2.96-.22-6.04-.29-9.26-.06-3.21-.1-6.28-.1-9.19v-38.49c0-.42.13-.8.38-1.14.25-.34.67-.63 1.27-.89.59-.25 1.37-.43 2.35-.54s2.22-.16 3.74-.16c1.44 0 2.64.05 3.62.16.97.11 1.72.28 2.25.54.53.25.9.55 1.11.89.21.34.32.72.32 1.14V2034.32z"></path></g><g><path fill="#070706" d="M995.45,1489.8c0,0,55.38-10.86,110.82,30.34c55.44,41.2,53.25,66.44,53.25,66.44l-66.88,19.87l-38.41-19.4
					l-50.71-66.83L995.45,1489.8z"></path><ellipse cx="1020.5" cy="1486.68" fill="#fc9fad" rx="25.22" ry="57.23" transform="rotate(-9.032 1020.976 1486.955)"></ellipse><path fill="#fc9fad" d="M997.07,1545.73c0,0,88.39-204.08,114.62-194.24s-7.94,90.39-7.94,90.39s25.29-4.11,27.54,15.6
						c0,0,23.43-5.04,25.12,13.93c0,0,27.21,13.18,19.42,52.05s-58.38,94.9-58.38,94.9L997.07,1545.73z"></path><path fill="#070706" d="M1086.03 1475.68c-.5 0-1-.13-1.46-.4-1.35-.81-1.8-2.56-.99-3.91l17.87-30c.81-1.35 2.56-1.79 3.91-.99 1.35.81 1.8 2.56.99 3.91l-17.87 30C1087.94 1475.18 1087 1475.68 1086.03 1475.68zM1116.33 1491.91c-.43 0-.85-.09-1.26-.3-1.41-.7-1.99-2.41-1.29-3.82l15.76-31.9c.69-1.41 2.4-1.99 3.82-1.29 1.41.7 1.99 2.41 1.29 3.82l-15.76 31.9C1118.39 1491.33 1117.38 1491.91 1116.33 1491.91zM1139.98 1503.42c-.47 0-.94-.12-1.38-.36-1.38-.76-1.88-2.5-1.11-3.88l16.19-29.18c.76-1.38 2.5-1.88 3.88-1.11 1.38.76 1.88 2.5 1.11 3.88l-16.19 29.18C1141.95 1502.89 1140.98 1503.42 1139.98 1503.42z"></path><path fill="#ffb839" d="M1159.52,1586.57c0,0-63.08,222.31-154.33,297.67c-12.74,10.53-25.97,18.17-39.69,21.98
					c-11.98,3.31-23.65,4.87-34.98,4.87c-147.14-0.04-236.91-260.75-236.91-260.75l-21.63-210.18c2.02,0.04,4.07,0.11,6.05,0.15
					c63.08,2.85,120.18,38.21,152.92,92.16l79.39,160.26l85.13-202.92C1018.73,1565.93,1104.31,1586.95,1159.52,1586.57z"></path><path fill="#fff" d="M1005.19,1884.24c-12.74,10.53-25.97,18.17-39.69,21.98c-11.98,3.31-23.65,4.87-34.98,4.87
					c-2.55-5.25-3.95-11.1-3.95-17.3c0-22.01,17.87-39.88,39.88-39.88C985.19,1853.9,1000.9,1866.82,1005.19,1884.24z"></path><path fill="#070706" d="M910.32,1695.58c-1.08,0-2.07-0.61-2.55-1.59l-79.37-160.25c-0.7-1.41-0.12-3.12,1.29-3.82
					c1.41-0.7,3.12-0.12,3.82,1.29l76.6,154.66l82.74-197.17c0.61-1.45,2.27-2.14,3.73-1.53c1.45,0.61,2.14,2.28,1.53,3.73
					l-85.15,202.92c-0.43,1.03-1.42,1.71-2.54,1.75C910.38,1695.58,910.35,1695.58,910.32,1695.58z"></path><path fill="#070706" d="M931.04,1913.83c-57.96,0-114.99-39.64-166.78-116.53c-46.66-69.29-73.09-145.29-73.35-146.04
					c-0.51-1.49,0.28-3.11,1.77-3.62c1.5-0.51,3.11,0.28,3.62,1.77c1.03,3,105.18,299.32,268.41,254.06
					c109.32-30.29,191.25-314.81,192.06-317.68c0.43-1.52,2.01-2.38,3.52-1.97c1.52,0.43,2.39,2.01,1.97,3.52
					c-3.36,11.85-83.64,290.48-196.03,321.61C954.5,1912.21,942.75,1913.83,931.04,1913.83z"></path><path fill="#ffb839" d="M304.55,1987.58l-6.79,235.35h484.52v-696.16c0-39.31-28.25-73.02-66.99-79.69
					c-98.03-16.86-276.84-35.1-350.02,38.22c-80.46,80.61-54.28,366.67-54.28,366.67L304.55,1987.58"></path><path d="M582.63,1670.12c8.94-10.71,108.68,123.39,59.18,213.45l-48.74-32.58c0,0-47.82-26.27-47.82-32.05
					s10.51-85.97,11.56-91.33C557.86,1722.24,582.63,1670.12,582.63,1670.12z"></path><path fill="#fc9fad" d="M548.82,1702.97c0,0,48.88-18.97,46.42-34.92c-2.46-15.95-13.58-77.62,7.36-91.93
						c27.55-18.82,54.51,66.33,54.51,66.33s29.91-8.03,42.7,0.28c20.07,13.03,10.14,38.26,10.14,38.26s17.55-3.8,25.5,9.52
						c10.64,17.83-5.55,34.75-5.55,34.75s14.26,0.58,18.95,15.32c4.29,13.48-11.54,31.1-11.54,31.1s6.56,16.43-6.38,28.11
						c-16.28,14.68-125.53,47.52-125.53,47.52L548.82,1702.97z"></path><path fill="#070706" d="M637.49 1654.03c-1.09 0-2.13-.63-2.61-1.69-.64-1.44.01-3.12 1.45-3.77l19.63-8.72c1.44-.64 3.12.01 3.76 1.45.64 1.44-.01 3.12-1.45 3.77l-19.63 8.72C638.27 1653.95 637.88 1654.03 637.49 1654.03zM682.77 1693.64c-1.17 0-2.26-.72-2.68-1.88-.53-1.48.23-3.12 1.72-3.65l27.19-9.8c1.48-.54 3.11.23 3.65 1.72.53 1.48-.23 3.12-1.72 3.65l-27.19 9.8C683.42 1693.58 683.09 1693.64 682.77 1693.64zM700.38 1741.02c-1.1 0-2.15-.64-2.61-1.71-.63-1.44.03-3.12 1.47-3.75l29.53-12.91c1.44-.64 3.12.03 3.75 1.47.63 1.44-.03 3.12-1.47 3.75l-29.53 12.91C701.15 1740.94 700.76 1741.02 700.38 1741.02zM713.93 1783.29c-1.15 0-2.24-.71-2.67-1.85-.55-1.47.19-3.12 1.67-3.67l23.39-8.76c1.48-.55 3.12.2 3.67 1.67.55 1.47-.19 3.12-1.67 3.67l-23.39 8.76C714.6 1783.24 714.27 1783.29 713.93 1783.29z"></path><path fill="#ffb839" d="M641.83,1883.55c0,0-174.1,152.5-321.2,138.74c-71.67-6.69-93.99-113.57-87.56-225.24
					c1.44-24.45,4.22-49.12,8.17-73.04c9.62-58.1,26.08-111.63,46.27-146.27c65.51-112.35,109.31-114.18,109.31-114.18
					l-26.23,335.19l212.04-128.66C573.39,1729.42,606.73,1824.05,641.83,1883.55z"></path><path fill="#070706" d="M370.57 1801.6c-.52 0-1.04-.14-1.49-.42-.91-.56-1.43-1.58-1.35-2.65L380 1641.81c.12-1.57 1.49-2.8 3.07-2.62 1.57.12 2.74 1.49 2.62 3.07l-11.84 151.16 207.31-125.74c1.34-.82 3.1-.39 3.92.96.82 1.35.39 3.1-.96 3.92l-212.07 128.63C371.59 1801.46 371.08 1801.6 370.57 1801.6zM339.53 2026.01c-6.45 0-12.83-.28-19.18-.88-8.83-.82-17.38-2.89-25.41-6.14-1.46-.59-2.16-2.25-1.57-3.71.59-1.46 2.24-2.17 3.71-1.57 7.52 3.04 15.53 4.98 23.81 5.75 144.16 13.46 317.32-136.52 319.05-138.03 1.18-1.04 2.99-.92 4.02.27 1.04 1.18.92 2.99-.27 4.02C642.01 1887.18 481.81 2026.01 339.53 2026.01zM473.41 1189.23c-20.06 6.37-35.21 24.53-40.61 44.87-5.4 20.34-1.81 42.4 7.17 61.43 8.98 19.03 23.05 35.28 38.7 49.35 10.15 9.13 21.16 17.53 33.67 22.99 12.51 5.47 26.67 7.86 39.96 4.75 14.11-3.3 26.41-12.69 34.61-24.63s12.48-26.3 13.74-40.73c2.77-31.77-9.38-64.52-32.19-86.8"></path><g><path fill="#fc9fad" d="M635.13,1289.9l10.11,143.1c78.14,103.22-155.17,118.98-143.12-2.17c5.52-32.36,8.24-85.13,10.55-140.94
					L635.13,1289.9z"></path></g><g><path fill="#070706" d="M644.33,1412.44c0,0-39.63-21.59-57.56-47.53s57.56-22.05,57.56-22.05V1412.44z"></path></g><g><path fill="#fc9fad" d="M720.05,1206.01c42.49,73.59,20.68,146.3-25.6,170.41c-52.59,27.4-117.89,10.56-160.38-63.03
					c-42.49-73.59-44.84-173.81,6.52-203.46C591.95,1080.28,677.57,1132.42,720.05,1206.01z"></path></g><g><path fill="#070706" d="M534.96,1226.86c0,0,157.39-78.22,130.55-141.44c-16.37-38.56-95.32-58.29-170.15,17.98
					c-65.39,66.66-3.64,179.79-3.64,179.79L534.96,1226.86z"></path></g><g><circle cx="515.2" cy="1262.56" r="42.87" fill="#fc9fad"></circle></g><g><path fill="#070706" d="M513.77,1286.39c-0.63,0-1.27-0.04-1.9-0.12c-7-0.9-13.25-6.47-15.56-13.87
					c-1.93-6.15-1.27-13.36,1.85-20.3c2.08-4.63,4.81-8,8.12-10.01c5.6-3.41,13.21-3.08,19.39,0.82c4.85,3.07,8.81,8.21,11.43,14.89
					c0.58,1.46-0.14,3.12-1.61,3.7c-1.46,0.58-3.12-0.14-3.7-1.61c-1.52-3.86-4.34-9.1-9.17-12.15c-4.31-2.72-9.68-3.03-13.38-0.78
					c-2.31,1.4-4.29,3.92-5.89,7.48c-2.55,5.67-3.12,11.44-1.61,16.26c1.64,5.22,6.1,9.3,10.85,9.92c3.41,0.43,7.72-1.19,9-4.67
					c0.85-2.3,0.14-5.16-1.7-6.79c-1.83-1.63-4.75-2.01-6.95-0.9c-1.4,0.71-3.12,0.15-3.83-1.26c-0.71-1.4-0.15-3.12,1.25-3.83
					c4.27-2.16,9.74-1.45,13.31,1.73c3.57,3.18,4.91,8.54,3.25,13.03C525.08,1282.98,519.61,1286.39,513.77,1286.39z"></path></g><g><path fill="#070706" d="M662.27 1319.29c-3.49 0-6.9-.69-10.09-2.09-5.71-2.5-13.27-8.37-16.84-22.18-.39-1.52.52-3.08 2.05-3.47 1.52-.4 3.08.52 3.47 2.05 2.37 9.18 7.07 15.53 13.6 18.38 5.95 2.6 12.95 2.03 19.7-1.62 1.39-.75 3.11-.23 3.86 1.16.75 1.39.23 3.12-1.16 3.86C672.04 1317.98 667.07 1319.29 662.27 1319.29zM668.09 1274.31c-.98 0-1.94-.51-2.47-1.42-.79-1.36-.33-3.11 1.03-3.9 2.08-1.21 4.05-2.36 5.55-3.89 1.42-1.46 2.2-3.15 2.14-4.64-.07-1.88-1.4-3.78-3-5.9l-16.9-22.42c-.95-1.26-.7-3.04.56-3.99 1.25-.95 3.04-.7 3.99.56l16.89 22.42c1.68 2.23 3.99 5.29 4.15 9.1.12 3.1-1.21 6.24-3.76 8.85-2.04 2.09-4.44 3.48-6.76 4.84C669.07 1274.18 668.58 1274.31 668.09 1274.31zM698.56 1203.31c-1.35 5.23-7.55 7.04-13.85 4.06-6.32-3.01-10.31-9.68-8.96-14.91 1.35-5.23 7.56-7.04 13.85-4.06C695.87 1191.4 699.91 1198.08 698.56 1203.31zM685.44 1166.32c6.11 4.48-5.58 6.48-12.3 14.75-6.97 8.51-4.89 15.96-8.73 16.66-3.34 1.32-10.37-6.17-6.46-19.6C661.78 1164.33 679.5 1161.31 685.44 1166.32zM643.23 1247.31c-1.35 5.23-7.55 7.04-13.85 4.06-6.32-3.01-10.31-9.68-8.96-14.91 1.35-5.23 7.56-7.04 13.85-4.06C640.54 1235.4 644.57 1242.08 643.23 1247.31zM627.64 1209.68c6.11 4.48-5.58 6.48-12.3 14.75-6.97 8.51-4.89 15.96-8.73 16.66-3.34 1.32-10.37-6.17-6.46-19.6C603.99 1207.69 621.71 1204.67 627.64 1209.68z"></path></g><g><path fill="#070706" d="M784.66,1825.62c-1.57,0-2.85-1.28-2.85-2.85v-167.44c0-1.57,1.28-2.85,2.85-2.85s2.85,1.28,2.85,2.85
					v167.44C787.51,1824.34,786.23,1825.62,784.66,1825.62z"></path></g></g><g><path fill="none" d="M473.41,1189.23c-20.06,6.37-35.21,24.53-40.61,44.87c-5.4,20.34-1.81,42.4,7.17,61.43
				c8.98,19.03,23.05,35.28,38.7,49.35c10.15,9.13,21.16,17.53,33.67,22.99c12.51,5.47,26.67,7.86,39.96,4.75
				c14.11-3.3,26.41-12.69,34.61-24.63s12.48-26.3,13.74-40.73c2.77-31.77-9.38-64.52-32.19-86.8"></path></g><g><path fill="#fff" d="M1946.78,1324.84c-187.14-138.17-140.38-345.75-121.46-451.07c168.24,13.32,248.29-59.68,248.29-59.68
					s36.6,101.97,191.53,168.9C2232.59,1084.92,2176.81,1290.27,1946.78,1324.84z"></path><path fill="#070706" d="M1946.78,1327.69c-0.61,0-1.2-0.19-1.69-0.56c-181.17-133.75-144.59-333.56-124.94-440.9
					c0.82-4.48,1.62-8.8,2.36-12.97c0.26-1.44,1.6-2.43,3.03-2.34c164.88,13.05,245.35-58.23,246.14-58.95
					c0.71-0.64,1.69-0.89,2.61-0.66c0.92,0.23,1.67,0.91,2,1.8c0.36,1.01,38.13,101.65,189.97,167.24c1.34,0.58,2.03,2.09,1.59,3.48
					c-1.29,4.03-2.61,8.22-3.98,12.55c-32.84,104.07-93.97,297.79-316.67,331.26C1947.06,1327.68,1946.92,1327.69,1946.78,1327.69z
					 M1827.67,876.81c-0.61,3.38-1.25,6.87-1.91,10.45c-19.39,105.93-55.47,302.95,121.76,434.58
					c218.23-33.44,278.5-224.46,310.91-327.16c1.1-3.47,2.16-6.84,3.2-10.11c-135.88-59.48-180.81-146.94-189.18-165.84
					c-14.81,11.66-83.17,59.49-207.26,59.49C1853.2,878.22,1840.71,877.78,1827.67,876.81z"></path><path fill="#34cec3" d="M1962.36,1262.08c-141.15-104.21-105.88-260.78-91.61-340.22c126.89,10.05,187.27-45.02,187.27-45.02
					s27.61,76.91,144.46,127.39C2177.93,1081.12,2135.86,1236,1962.36,1262.08z"></path><g><path fill="#fff" d="M1985.09,1103c-3.3-0.82-6.28-2.9-8.18-6.04l-21.11-35.06c-3.78-6.29-1.76-14.45,4.53-18.23
						c6.29-3.78,14.44-1.76,18.23,4.52l14.26,23.68l76.81-46.25c6.29-3.78,14.44-1.76,18.23,4.53c3.79,6.28,1.76,14.44-4.53,18.23
						l-88.19,53.1C1992,1103.38,1988.39,1103.82,1985.09,1103z"></path></g></g><g><path fill="#070706" d="M625.29,719.6c-3.84,1.69-8.32-0.05-10.01-3.89l-21.8-49.5c-10.61-24.09-38.84-35.07-62.94-24.46
						c-24.09,10.61-35.07,38.84-24.46,62.94l21.8,49.5c1.69,3.84-0.05,8.32-3.89,10.01c-3.84,1.69-8.32-0.05-10.01-3.89l-21.8-49.5
						c-13.98-31.76,0.48-68.97,32.23-82.96c31.76-13.98,68.97,0.48,82.96,32.23l21.8,49.5C630.87,713.43,629.13,717.91,625.29,719.6
						z"></path><path fill="#ff571c" d="M666.09,713.27l48.61,110.4c7.58,17.21-0.23,37.3-17.44,44.88l-110.9,48.83
						c-17.23,7.59-37.3-0.23-44.88-17.44l-48.61-110.4c-7.58-17.2,0.21-37.29,17.44-44.88l110.9-48.83
						C638.41,688.25,658.51,696.06,666.09,713.27z"></path><path fill="#070706" d="M572.69,923.12c-14.19,0-27.75-8.23-33.82-22.03l-48.61-110.4c-3.97-9.02-4.2-19.05-0.63-28.23
						c3.57-9.19,10.5-16.43,19.53-20.41l110.9-48.83c9.02-3.97,19.05-4.19,28.23-0.62c9.19,3.57,16.43,10.5,20.4,19.52l48.61,110.4
						c8.2,18.62-0.28,40.44-18.9,48.64l-110.9,48.83C582.69,922.11,577.65,923.12,572.69,923.12z M634.92,695.78
						c-4.27,0-8.53,0.89-12.56,2.66l-110.9,48.83c-7.63,3.36-13.5,9.49-16.51,17.25c-3.01,7.76-2.82,16.24,0.54,23.87l48.61,110.4
						c6.93,15.74,25.38,22.9,41.12,15.98l110.9-48.83c15.74-6.93,22.91-25.38,15.98-41.12l-48.61-110.4l0,0
						c-3.36-7.62-9.48-13.49-17.25-16.5C642.56,696.49,638.73,695.78,634.92,695.78z"></path><g><path fill="#070706" d="M596.42,841.87l-1.2-31.36c-6.05-0.79-11.54-4.64-14.17-10.62c-4.03-9.14,0.14-19.81,9.28-23.83
					c9.14-4.03,19.82,0.1,23.85,9.24c2.63,5.98,1.78,12.62-1.73,17.62l22.32,22.06L596.42,841.87z"></path></g></g><g><circle cx="445.06" cy="1898.63" r="35.04" fill="#fff"></circle></g><g><circle cx="677.95" cy="2030.97" r="22.43" fill="#fff"></circle></g><g><circle cx="471.56" cy="2068.57" r="26.5" fill="#fff"></circle></g><g><path fill="#fff" d="M300.93,1762.91c0,23.46-19.05,42.51-42.51,42.51c-9.51,0-18.29-3.12-25.36-8.36
			c1.44-24.45,4.22-49.12,8.17-73.04c5.25-2.32,11.06-3.61,17.19-3.61C281.88,1720.4,300.93,1739.41,300.93,1762.91z"></path></g><g><circle cx="433.48" cy="1524.02" r="23.45" fill="#fff"></circle></g><g><circle cx="1004.99" cy="1719.89" r="9.53" fill="#fff"></circle></g><g><circle cx="755.95" cy="1589.93" r="16.52" fill="#fff"></circle></g></svg>