<svg xmlns="http://www.w3.org/2000/svg" viewBox="0 0 2000 1838.9" id="non-disclosure-agreement-contract"><linearGradient id="a" x1=".069" x2="1951.208" y1="1273.511" y2="1273.511" gradientUnits="userSpaceOnUse"><stop offset="0" stop-color="#fff"></stop><stop offset=".429" stop-color="#d6d6d6"></stop><stop offset="1" stop-color="#fff"></stop></linearGradient><path fill="url(#a)" d="M1941.2 1184.3c13.3 7.7 13.3 20.2.2 27.8l-1068.6 621c-13.2 7.6-34.7 7.6-48 0L10.1 1362.7c-13.2-7.6-13.3-20.2-.2-27.8l1068.6-621c13.1-7.6 34.8-7.6 48 0l814.7 470.4zM864.7 1819.2l1052.7-611.7c8.8-5.1 8.7-13.4-.1-18.5l-798.7-461.1c-8.8-5.1-23.2-5.1-32 0L33.9 1339.6c-8.8 5.1-8.7 13.4.1 18.5l798.7 461.1c8.8 5.1 23.2 5.1 32 0z"></path><path fill="#E9F0F7" d="M1951.1 1174.9c0 .4-.1.7-.1 1.1-.1.3-.1.6-.2.9-.1.3-.2.7-.3 1-.1.3-.2.6-.3.8-.2.4-.3.7-.5 1.1-.1.3-.3.5-.5.8-.2.4-.5.8-.8 1.2-.3.4-.6.7-.9 1.1-.1.1-.2.2-.2.3-.4.5-.9.9-1.4 1.4-.3.3-.7.6-1 .8-.3.3-.6.5-1 .8-.4.3-.8.5-1.2.8-.4.3-.8.6-1.3.8l-1068.6 621c-1 .6-2.1 1.1-3.2 1.6-.3.1-.6.3-1 .4-.9.4-1.7.7-2.6 1-.3.1-.7.2-1 .3-.6.2-1.2.3-1.7.5-.4.1-.9.3-1.3.4-.6.1-1.2.3-1.9.4-.4.1-.9.2-1.3.3-1.3.2-2.6.4-3.9.5-.4 0-.8.1-1.2.1-.8.1-1.6.1-2.3.2h-5c-.6 0-1.2-.1-1.7-.1s-1-.1-1.6-.1c-.6-.1-1.1-.1-1.7-.2-.5-.1-1-.1-1.5-.2l-1.8-.3c-.5-.1-.9-.2-1.4-.3-.7-.2-1.4-.3-2.1-.5l-1.2-.3c-1.2-.4-2.5-.8-3.6-1.2-.6-.2-1.1-.5-1.7-.7-.3-.1-.6-.2-.9-.4-.9-.4-1.7-.8-2.5-1.3L10.1 1338.4c-6.7-3.8-10-8.9-10-14l-.1 24.4c0 5.1 3.3 10.2 10 14l814.7 470.4c.8.5 1.6.9 2.5 1.3.3.1.6.3.9.4.5.2 1 .5 1.5.7.1 0 .1 0 .2.1 1.2.5 2.4.9 3.6 1.2.1 0 .2.1.3.1.3.1.6.1.9.2.7.2 1.4.4 2.1.5.2 0 .4.1.5.1.3.1.6.1.9.1l1.8.3c.2 0 .5.1.7.1.3 0 .5.1.8.1.6.1 1.1.1 1.7.2.3 0 .5.1.8.1h.8c.6 0 1.2.1 1.7.1h4.9c.8 0 1.6-.1 2.3-.2.3 0 .6 0 .9-.1h.3c1.3-.1 2.6-.3 3.9-.5h.2c.4-.1.7-.2 1.1-.2.6-.1 1.2-.2 1.8-.4.5-.1.9-.2 1.4-.4.6-.2 1.2-.3 1.7-.5.1 0 .3-.1.4-.1.2-.1.4-.2.6-.2.9-.3 1.8-.6 2.6-1 .3-.1.7-.3 1-.4 1.1-.5 2.2-1 3.2-1.6l1068.6-621c.1-.1.3-.2.4-.2l.9-.6c.4-.3.8-.5 1.2-.8.3-.2.6-.5 1-.8.3-.3.7-.6 1-.8l.2-.2 1.2-1.2c.1-.1.2-.2.2-.3.2-.2.4-.5.6-.7.1-.1.2-.2.2-.4.3-.4.6-.8.8-1.2.1-.2.2-.3.3-.5.1-.1.1-.2.1-.3.2-.4.3-.7.5-1.1l.3-.6c0-.1 0-.1.1-.2.1-.3.2-.7.3-1 .1-.2.1-.4.2-.7v-.2c.1-.4.1-.7.1-1.1 0-.2.1-.5.1-.7v-.3l.1-24.4c.1.4.1.7 0 1z"></path><path fill="#0C3461" d="M396.9 1575.3v.4c0 .2 0 .5.1.7v.2c0 .2.1.3.1.5V1577.4c0 .2.1.3.1.5l.6 1.8c.1.1.1.3.2.4.1.1.1.3.2.4 0 .1.1.1.1.2.3.6.6 1.1 1 1.6.1.1.1.2.2.3.1.1.1.1.1.2.1.1.2.2.2.3 0 0 0 .1.1.1l.1.1c.2.2.3.4.5.5.1 0 .1.1.1.1.3.2.5.5.8.7.2.2.5.4.8.5.1.1.2.1.3.2l29.7 17.1c.1.1.2.2.4.2.1.1.2.1.4.2 0 0 .1 0 .1.1.1 0 .1 0 .1.1.1.1.3.1.4.1.1 0 .2.1.3.1.1 0 .3.1.4.1h1.2c.1 0 .1 0 .2-.1h.1c.1 0 .2-.1.2-.1h.1c.1 0 .2-.1.2-.1h.1l.1-.1c1-.6 1.6-1.9 1.6-3.6 0-2.7-1.4-5.7-3.3-7.9-.7-.8-1.5-1.5-2.4-2l-21.2-12.3-8.4-4.9c-1.6-.9-3-1-4.1-.4-.1 0-.1.1-.1.1-.1.1-.1.1-.2.1l-.1.1-.2.2c-.1.1-.2.2-.2.3-.1.1-.1.2-.2.3-.2.3-.4.7-.5 1.1 0 .1-.1.2-.1.3 0 .1 0 .2-.1.2 0 .2-.1.3-.1.4v.4zM573.8 1672c-2.5-1.4-4.5-.3-4.5 2.6s2 6.4 4.5 7.8c2.5 1.4 4.5.3 4.5-2.6.1-2.8-2-6.3-4.5-7.8zM560.2 1664.2c-2.5-1.4-4.5-.3-4.5 2.6s2 6.4 4.5 7.8c2.5 1.4 4.5.3 4.5-2.6s-2-6.4-4.5-7.8zM587.5 1679.9c-2.5-1.4-4.5-.3-4.5 2.6s2 6.4 4.5 7.8 4.5.3 4.5-2.6c0-2.8-2-6.3-4.5-7.8zM601.1 1687.8c-2.5-1.4-4.5-.3-4.5 2.6s2 6.4 4.5 7.8c2.5 1.4 4.5.3 4.5-2.6.1-2.9-2-6.4-4.5-7.8zM614.8 1695.7c-2.5-1.4-4.5-.3-4.5 2.6s2 6.4 4.5 7.8c2.5 1.4 4.5.3 4.5-2.6s-2-6.4-4.5-7.8zM628.5 1703.6c-2.5-1.4-4.5-.3-4.5 2.6s2 6.4 4.5 7.8c2.5 1.4 4.5.3 4.5-2.6s-2.1-6.4-4.5-7.8zM642.1 1711.5c-2.5-1.4-4.5-.3-4.5 2.6s2 6.4 4.5 7.8c2.5 1.4 4.5.3 4.5-2.6s-2-6.4-4.5-7.8zM655.8 1719.3c-2.5-1.4-4.5-.3-4.5 2.6s2 6.4 4.5 7.8c2.5 1.4 4.5.3 4.5-2.6 0-2.8-2-6.3-4.5-7.8zM669.4 1727.2c-2.5-1.4-4.5-.3-4.5 2.6s2 6.4 4.5 7.8c2.5 1.4 4.5.3 4.5-2.6s-2-6.3-4.5-7.8zM683.1 1735.1c-2.5-1.4-4.5-.3-4.5 2.6s2 6.4 4.5 7.8c2.5 1.4 4.5.3 4.5-2.6s-2-6.4-4.5-7.8zM696.7 1743c-2.5-1.4-4.5-.3-4.5 2.6s2 6.4 4.5 7.8c2.5 1.4 4.5.3 4.5-2.6s-2-6.4-4.5-7.8zM710.4 1750.9c-2.5-1.4-4.5-.3-4.5 2.6s2 6.4 4.5 7.8c2.5 1.4 4.5.3 4.5-2.6s-2-6.4-4.5-7.8zM724 1758.7c-2.5-1.4-4.5-.3-4.5 2.6s2 6.4 4.5 7.8c2.5 1.4 4.5.3 4.5-2.6 0-2.8-2-6.3-4.5-7.8zM737.7 1766.6c-2.5-1.4-4.5-.3-4.5 2.6s2 6.4 4.5 7.8c2.5 1.4 4.5.3 4.5-2.6 0-2.8-2-6.3-4.5-7.8zM751.3 1774.5c-2.5-1.4-4.5-.3-4.5 2.6s2 6.4 4.5 7.8c2.5 1.4 4.5.3 4.5-2.6s-2-6.4-4.5-7.8zM124.5 1412.1c-2.5-1.4-4.5-.3-4.5 2.6s2 6.4 4.5 7.8c2.5 1.4 4.5.3 4.5-2.6.1-2.9-2-6.4-4.5-7.8zM110.9 1404.2c-2.5-1.4-4.5-.3-4.5 2.6s2 6.4 4.5 7.8c2.5 1.4 4.5.3 4.5-2.6s-2-6.4-4.5-7.8zM138.2 1420c-2.5-1.4-4.5-.3-4.5 2.6s2 6.4 4.5 7.8c2.5 1.4 4.5.3 4.5-2.6s-2-6.4-4.5-7.8zM151.8 1427.8c-2.5-1.4-4.5-.3-4.5 2.6s2 6.4 4.5 7.8c2.5 1.4 4.5.3 4.5-2.6.1-2.8-2-6.3-4.5-7.8zM165.5 1435.7c-2.5-1.4-4.5-.3-4.5 2.6s2 6.4 4.5 7.8 4.5.3 4.5-2.6c0-2.8-2-6.3-4.5-7.8zM179.2 1443.6c-2.5-1.4-4.5-.3-4.5 2.6s2 6.4 4.5 7.8c2.5 1.4 4.5.3 4.5-2.6s-2.1-6.3-4.5-7.8zM192.8 1451.5c-2.5-1.4-4.5-.3-4.5 2.6s2 6.4 4.5 7.8c2.5 1.4 4.5.3 4.5-2.6s-2-6.4-4.5-7.8zM206.5 1459.4c-2.5-1.4-4.5-.3-4.5 2.6s2 6.4 4.5 7.8c2.5 1.4 4.5.3 4.5-2.6s-2-6.4-4.5-7.8zM220.1 1467.3c-2.5-1.4-4.5-.3-4.5 2.6s2 6.4 4.5 7.8c2.5 1.4 4.5.3 4.5-2.6s-2-6.4-4.5-7.8zM233.8 1475.1c-2.5-1.4-4.5-.3-4.5 2.6s2 6.4 4.5 7.8c2.5 1.4 4.5.3 4.5-2.6 0-2.8-2-6.3-4.5-7.8zM247.4 1483c-2.5-1.4-4.5-.3-4.5 2.6s2 6.4 4.5 7.8c2.5 1.4 4.5.3 4.5-2.6 0-2.8-2-6.3-4.5-7.8zM261.1 1490.9c-2.5-1.4-4.5-.3-4.5 2.6s2 6.4 4.5 7.8c2.5 1.4 4.5.3 4.5-2.6s-2-6.4-4.5-7.8zM274.7 1498.8c-2.5-1.4-4.5-.3-4.5 2.6s2 6.4 4.5 7.8 4.5.3 4.5-2.6-2-6.4-4.5-7.8zM97.2 1396.3c-2.5-1.4-4.5-.3-4.5 2.6s2 6.4 4.5 7.8c2.5 1.4 4.5.3 4.5-2.6.1-2.8-2-6.3-4.5-7.8zM83.6 1388.4c-2.5-1.4-4.5-.3-4.5 2.6s2 6.4 4.5 7.8c2.5 1.4 4.5.3 4.5-2.6 0-2.8-2-6.3-4.5-7.8z"></path><path fill="#2F3F69" d="M1917.2 1164.6c8.8 5.1 8.9 13.4.1 18.5L864.7 1794.8c-8.8 5.1-23.2 5.1-32 0L34 1333.7c-8.8-5.1-8.9-13.4-.1-18.5l1052.7-611.7c8.8-5.1 23.2-5.1 32 0l798.6 461.1zM860.7 1792.5l1052.7-611.7c6.6-3.8 6.5-10.1-.1-13.9l-798.7-461.1c-6.6-3.8-17.4-3.8-24 0L37.9 1317.5c-6.6 3.8-6.5 10.1.1 13.9l798.7 461.1c6.6 3.8 17.4 3.8 24 0z"></path><path fill="#AEC7E6" d="M1941.2 1159.9c13.3 7.7 13.3 20.2.2 27.8l-1068.6 621c-13.2 7.6-34.7 7.6-48 0L10.1 1338.4c-13.2-7.6-13.3-20.2-.2-27.8l1068.6-621c13.1-7.6 34.8-7.6 48 0l814.7 470.3zM864.7 1794.8l1052.7-611.7c8.8-5.1 8.7-13.4-.1-18.5l-798.7-461.1c-8.8-5.1-23.2-5.1-32 0L33.9 1315.2c-8.8 5.1-8.7 13.4.1 18.5l798.7 461.1c8.8 5.1 23.2 5.1 32 0z"></path><path fill="#0C3461" d="M1913.3 1166.9c6.6 3.8 6.7 10.1.1 13.9L860.7 1792.5c-6.6 3.8-17.4 3.8-24 0L38 1331.4c-6.6-3.8-6.7-10.1-.1-13.9l1052.7-611.7c6.6-3.8 17.4-3.8 24 0l798.7 461.1z"></path><path fill="#27639E" d="m1913.3 1180.8-183.7 106.8-1603.3-21.4 964.3-560.4c6.6-3.8 17.4-3.8 24 0l798.7 461.1c6.6 3.8 6.6 10.1 0 13.9z"></path><path fill="#27639E" d="M1113.1 743 99.6 1327.1l759.5 441.3 1013.4-584.1z"></path><path fill="#98ADD4" d="M1998.2 529.3c.2-1.4.4-2.7.6-4.1 0-.3.1-.6.1-.9 0-.3 0-.5.1-.8.3-2.6.6-5.1.7-7.6v-.7c.1-2.4.2-4.8.2-7.1v-1c0-2.4-.1-4.7-.3-7 0-.5-.1-.9-.1-1.4-.2-2.3-.5-4.5-.8-6.7-.1-.3-.1-.6-.2-.9-.4-2.1-.8-4.2-1.3-6.2 0-.2-.1-.4-.1-.6-.5-2.1-1.2-4.1-1.9-6-.1-.4-.3-.7-.4-1.1-.7-1.9-1.5-3.7-2.4-5.5-.2-.3-.3-.6-.5-.9-1-1.8-2-3.6-3.1-5.2-4.9-7.3-10.9-12.8-17.7-16.8L1211.7 7.6c6.8 3.9 12.8 9.5 17.7 16.8 1.1 1.7 2.1 3.4 3.1 5.2.2.3.3.6.5.9.9 1.8 1.7 3.6 2.4 5.5.1.4.3.7.4 1.1.7 2 1.4 3.9 1.9 6 .1.2.1.4.1.6.5 2 1 4.1 1.3 6.2.1.3.1.6.2.9.4 2.2.6 4.4.8 6.7 0 .4.1.9.1 1.4.2 2.3.3 4.6.3 7v1c0 2.3-.1 4.7-.2 7.1v.7c-.2 2.5-.4 5-.7 7.6-.1.6-.1 1.1-.2 1.7-.2 1.3-.4 2.7-.6 4.1l-.3 1.8c-.3 1.9-.7 3.9-1.1 5.8l-1.2 5.1c-.1.4-.2.7-.3 1.1-.3 1.3-.7 2.6-1 4-.7 2.6-1.5 5.2-2.4 7.9-.2.5-.4 1.1-.5 1.6-.8 2.4-1.7 4.8-2.6 7.2-.1.4-.3.7-.4 1.1l-2.4 6c-.3.6-.5 1.2-.8 1.9-.9 2.1-1.8 4.1-2.8 6.2-.1.2-.2.3-.2.5-1 2.2-2.2 4.3-3.3 6.5-.3.6-.6 1.2-1 1.8-.9 1.7-1.8 3.3-2.8 5-.3.6-.6 1.1-1 1.7-1.3 2.2-2.6 4.3-3.9 6.4l-.6.9c-1.3 1.9-2.6 3.9-3.9 5.8-.4.5-.8 1.1-1.1 1.6-1.6 2.3-3.3 4.6-5.1 6.9-1.1 1.4-2.2 2.9-3.4 4.3-1.2 1.4-2.3 2.8-3.5 4.1-.6.6-1.1 1.2-1.7 1.9-.7.8-1.5 1.6-2.2 2.4l-1.8 1.8c-.7.7-1.3 1.4-2 2-1.6 1.5-3.2 3-4.8 4.4-.1.1-.2.2-.3.2-1.7 1.5-3.4 2.9-5.1 4.2-.5.4-1 .8-1.5 1.1-1.3 1-2.6 1.9-3.9 2.8-.5.4-1 .7-1.5 1.1-1.7 1.2-3.5 2.3-5.2 3.3-1.6.9-3.2 1.8-4.8 2.6-.5.3-1.1.5-1.6.7-1.1.5-2.1 1-3.2 1.4-1.5.6-2.9 1.2-4.4 1.7-.4.1-.7.2-1.1.3-1.2.4-2.5.8-3.7 1.1-1.6.4-3.2.7-4.8 1-.5.1-1 .1-1.4.2-1.1.1-2.2.3-3.3.3-.6 0-1.1.1-1.7.1h-2.6c-.6 0-1.1 0-1.7-.1-.8-.1-1.5-.2-2.3-.3-.6-.1-1.1-.1-1.6-.2-.7-.1-1.4-.3-2.1-.5-.5-.1-1.1-.3-1.6-.4-.7-.2-1.3-.4-2-.7l-1.5-.6c-.7-.3-1.3-.6-2-1-.5-.3-1-.5-1.5-.8l759.4 441.3c.1.1.2.1.4.2l1.2.6c.6.3 1.3.7 2 1 .1 0 .2.1.3.1.4.2.8.3 1.2.4.6.2 1.3.5 2 .7.1 0 .2.1.4.1l1.2.3c.7.2 1.4.3 2.1.5.2 0 .3.1.5.1.4.1.8.1 1.2.1.8.1 1.5.2 2.3.3.2 0 .4.1.6.1h4.5c.3 0 .5-.1.8-.1l3.3-.3c.3 0 .7 0 1-.1.1 0 .3-.1.4-.1 1.6-.3 3.2-.6 4.8-1 .3-.1.6-.2.9-.2.9-.3 1.9-.6 2.8-.9.4-.1.7-.2 1.1-.3 1.4-.5 2.8-1 4.3-1.6 0 0 .1 0 .1-.1 1.1-.4 2.1-.9 3.2-1.4.5-.3 1.1-.5 1.6-.7 1.6-.8 3.2-1.6 4.8-2.6 1.7-1 3.5-2.1 5.2-3.3.5-.3 1-.7 1.5-1.1 1.3-.9 2.6-1.8 3.9-2.8.5-.4 1-.8 1.5-1.1 1.7-1.3 3.4-2.7 5.1-4.2.1-.1.2-.2.3-.2 1.6-1.4 3.2-2.9 4.8-4.4l.6-.6c.5-.5 1-1 1.4-1.5l1.8-1.8c.7-.8 1.5-1.6 2.2-2.4.6-.6 1.1-1.2 1.7-1.9l.5-.5 3-3.6c1.1-1.3 2.1-2.6 3.2-4 .1-.1.2-.2.2-.3 1.7-2.3 3.4-4.5 5.1-6.9.2-.2.3-.4.5-.7l.6-.9c1.3-1.9 2.6-3.8 3.9-5.8.2-.2.3-.5.5-.7 0-.1.1-.2.1-.2 1.4-2.1 2.7-4.3 3.9-6.4.1-.2.2-.4.4-.6.2-.4.4-.8.6-1.1.9-1.6 1.9-3.3 2.8-5 .2-.4.4-.7.6-1.1.1-.2.2-.5.4-.7 1.1-2.2 2.2-4.3 3.3-6.5v-.1c.1-.1.1-.3.2-.4 1-2.1 1.9-4.1 2.8-6.2.1-.3.3-.6.4-.9.1-.3.3-.7.4-1 .8-2 1.7-4 2.4-5.9.1-.3.2-.5.3-.8 0-.1.1-.2.1-.2.9-2.4 1.8-4.8 2.6-7.2.1-.3.2-.5.3-.8l.3-.9c.9-2.6 1.7-5.3 2.4-7.9v-.2c.4-1.3.7-2.5 1-3.8.1-.4.2-.8.3-1.1.4-1.7.8-3.4 1.2-5v-.1c.4-2 .8-3.9 1.1-5.8-.1-.6 0-1.2.1-1.8z"></path><path fill="#AEC7E6" d="M1910.7 505.7c1.1-.4 2.1-.8 3.2-1.2.3-.1.6-.2.8-.3.9-.3 1.8-.6 2.7-.8 1.2-.3 2.4-.5 3.5-.7.4-.1.7-.1 1-.1.8-.1 1.6-.2 2.4-.2.4 0 .8 0 1.2-.1h1.9c.4 0 .8 0 1.2.1.6 0 1.1.1 1.7.2.4.1.8.1 1.2.2l1.5.3 1.2.3c.5.1.9.3 1.4.5.4.1.7.3 1.1.4.5.2.9.5 1.4.7.4.2.8.4 1.1.6L1179.8 64.3c-.1-.1-.2-.1-.3-.2-.3-.2-.6-.3-.8-.4-.5-.2-.9-.5-1.4-.7-.1 0-.1-.1-.2-.1l-.9-.3c-.5-.2-.9-.4-1.4-.5-.1 0-.2-.1-.3-.1-.3-.1-.6-.1-.9-.2-.5-.1-1-.3-1.5-.3-.1 0-.2-.1-.3-.1-.3 0-.6-.1-.9-.1-.5-.1-1.1-.1-1.7-.2-.2 0-.3 0-.5-.1H1165.4c-.2 0-.4 0-.6.1-.8 0-1.6.1-2.4.2-.3 0-.5 0-.7.1-.1 0-.2 0-.3.1-1.1.2-2.3.4-3.5.7-.2.1-.5.1-.7.2-.6.2-1.3.4-2 .6-.3.1-.6.2-.8.3-1 .3-2.1.7-3.1 1.2h-.1c-.8.3-1.5.7-2.3 1.1-.4.2-.7.3-1.1.5-1.1.6-2.3 1.2-3.4 1.8-1.3.7-2.5 1.5-3.8 2.4-.4.2-.7.5-1.1.8-.9.6-1.9 1.3-2.8 2-.4.3-.7.5-1.1.8-1.2 1-2.5 2-3.7 3.1l-.2.2c-1.2 1-2.3 2.1-3.5 3.2l-.4.4c-.3.3-.7.7-1 1.1l-1.3 1.3c-.5.6-1.1 1.1-1.6 1.7-.4.5-.8.9-1.2 1.4-.1.1-.2.3-.4.4-.7.8-1.5 1.7-2.2 2.6-.8.9-1.5 1.9-2.2 2.8-.7.9-1.3 1.8-2 2.7-.5.7-1 1.3-1.5 2-.2.3-.4.5-.6.8-1.2 1.7-2.4 3.5-3.5 5.3-.1.1-.1.2-.1.2-.2.3-.3.5-.5.8-.9 1.4-1.7 2.7-2.5 4.1-.3.6-.6 1.2-1 1.7-.3.6-.7 1.2-1 1.7-.3.5-.6 1.1-.9 1.6-.8 1.6-1.6 3.1-2.4 4.7-.1.1-.1.2-.2.3v.1c-.8 1.8-1.6 3.5-2.4 5.3-.2.4-.4.9-.5 1.3-.3.6-.5 1.3-.8 1.9-.3.7-.6 1.5-.9 2.2-.4 1-.7 1.9-1 2.9-.2.7-.5 1.3-.7 2l-.3.9c-.6 1.7-1.1 3.4-1.5 5-.1.4-.2.7-.3 1.1 0 .1 0 .1-.1.2-.7 2.4-1.2 4.7-1.7 7.1V148.3c-.5 2.2-.8 4.3-1.1 6.4-.1.4-.1.8-.2 1.2 0 .3-.1.6-.1 1-.2 1.6-.3 3.1-.4 4.6 0 .4-.1.9-.1 1.3-.1 2.2-.2 4.3-.2 6.4 0 .6.1 1.2.1 1.7 0 1.5.1 3 .3 4.4.1.7.2 1.5.3 2.2.2 1.3.3 2.5.6 3.7.1.7.3 1.5.5 2.2.3 1.2.6 2.3.9 3.4.2.7.4 1.3.6 2 .4 1.2.9 2.3 1.4 3.4.2.5.4 1.1.7 1.6.8 1.6 1.6 3.1 2.6 4.5 3.4 5 7.6 9 12.4 11.7l759.4 441.3c-4.8-2.8-9-6.7-12.4-11.7-1-1.4-1.8-2.9-2.6-4.5-.3-.5-.5-1.1-.7-1.6-.5-1.1-1-2.2-1.4-3.4-.2-.7-.4-1.3-.6-2-.3-1.1-.7-2.3-.9-3.4-.2-.7-.3-1.4-.5-2.2-.2-1.2-.4-2.5-.6-3.7-.1-.7-.2-1.4-.3-2.2-.1-1.5-.2-2.9-.3-4.4 0-.6-.1-1.2-.1-1.7 0-2.1 0-4.3.2-6.4 0-.4.1-.9.1-1.3.1-1.8.3-3.7.6-5.6.1-.4.1-.8.2-1.2.3-2.1.7-4.3 1.1-6.4v-.2c.5-2.4 1.1-4.9 1.8-7.3.1-.4.2-.7.3-1.1.6-2 1.2-4 1.9-5.9.2-.7.5-1.3.7-2 .6-1.7 1.3-3.4 1.9-5.1.3-.6.5-1.3.8-1.9.9-2.2 1.9-4.5 3-6.7.1-.1.1-.2.2-.3 1-2.1 2.1-4.2 3.3-6.3.3-.6.6-1.2 1-1.7 1.1-2 2.3-3.9 3.5-5.8.2-.3.3-.5.5-.8 1.4-2.1 2.8-4.3 4.3-6.3.5-.7 1-1.3 1.5-2 1.4-1.9 2.8-3.7 4.3-5.6.8-1 1.7-2 2.5-3 .4-.5.8-.9 1.2-1.4.5-.6 1.1-1.2 1.6-1.7l1.3-1.3 1.5-1.5c1.1-1.1 2.3-2.2 3.4-3.2l.2-.2c1.2-1.1 2.5-2.1 3.7-3.1.4-.3.7-.6 1.1-.8.9-.7 1.9-1.4 2.8-2 .4-.3.7-.5 1.1-.8 1.3-.8 2.5-1.6 3.8-2.4 1.1-.7 2.3-1.3 3.4-1.8.4-.2.8-.4 1.2-.5.4-.5 1.1-.8 1.9-1.2z"></path><path fill="#E9F0F7" d="M1888.4 457.3c1.7-1 3.4-1.9 5.1-2.8.5-.3 1-.5 1.4-.7 1.4-.7 2.7-1.4 4.1-2 .4-.2.8-.4 1.1-.5 1.6-.8 3.3-1.5 4.9-2.1 2.1-.9 4.3-1.7 6.4-2.4.4-.2.9-.3 1.3-.4 1.7-.6 3.3-1.1 5-1.5.9-.3 1.9-.5 2.8-.7l2.4-.6c1-.2 2-.4 2.9-.6.8-.1 1.6-.3 2.3-.4 1.4-.2 2.7-.4 4-.5.3 0 .6-.1.9-.1 1.6-.2 3.3-.3 4.9-.3h4.7c.5 0 1 0 1.4.1 1.2.1 2.5.1 3.7.3.3 0 .5 0 .8.1 1.5.2 2.9.4 4.3.6.3.1.7.1 1 .2 1.2.2 2.3.5 3.5.8.3.1.6.2.9.2 1.4.4 2.7.8 4 1.3.3.1.6.2.8.3 1.1.4 2.2.9 3.3 1.4.3.1.6.3.8.4 1.3.6 2.7 1.3 4 2.1L1212 7.7c-.2-.1-.4-.2-.6-.4-1.1-.6-2.2-1.2-3.3-1.7-.3-.1-.6-.3-.9-.4-.5-.2-1-.5-1.6-.7-.6-.2-1.1-.4-1.7-.7-.3-.1-.6-.2-.8-.3-1.2-.4-2.3-.8-3.5-1.2-.2 0-.3-.1-.5-.1-.3-.1-.6-.2-.9-.2-1.1-.3-2.3-.6-3.5-.8-.3-.1-.7-.1-1-.2-.2 0-.4-.1-.6-.1-1.2-.2-2.5-.4-3.8-.5-.3 0-.5 0-.8-.1-.8-.1-1.6-.2-2.5-.2h-1.2c-.5 0-1 0-1.4-.1H1178.3l-4.5.3c-.3 0-.6.1-.8.1-1.1.1-2.3.3-3.4.4-.2 0-.4.1-.6.1-.8.1-1.6.3-2.3.4l-3 .6-2.4.6c-.7.2-1.3.3-2 .5-.3.1-.5.2-.8.2-1.7.5-3.3 1-5 1.5-.4.1-.9.3-1.3.4-2.1.7-4.2 1.5-6.4 2.4-.1 0-.2.1-.4.1-1.5.6-3 1.3-4.6 2-.4.2-.8.4-1.1.5-1.4.6-2.7 1.3-4.1 2-.5.2-1 .5-1.4.7-1.7.9-3.4 1.8-5.1 2.8l759.3 441.7z"></path><path fill="none" d="M1611.3 1296.2 851.9 854.9c47-27.2 91.2-73.7 124.3-131.1 33.2-57.4 51.3-118.8 51.2-172.8l759.4 441.3c.2 54-18 115.4-51.2 172.8-33.1 57.4-77.3 104-124.3 131.1z"></path><path fill="#E9F0F7" d="M1027.4 551c0 11.3-.7 22.8-2.3 34.6-1.1 8.2-2.5 16.4-4.3 24.8-1.4 6.6-3.1 13.3-4.9 20-1.6 5.9-3.4 11.8-5.4 17.7-1.8 5.5-3.8 11-5.9 16.4-2 5.2-4.1 10.4-6.4 15.7-2.2 5.1-4.5 10.1-7 15.2-2.4 5-5 10.1-7.6 15-2.4 4.5-4.9 8.9-7.4 13.4-.3.6-.7 1.1-1 1.7-3 5.1-6.1 10.2-9.2 15.1-3.3 5.2-6.7 10.3-10.2 15.3-3.8 5.4-7.7 10.7-11.7 15.8-4.6 5.9-9.3 11.6-14 17.1-6.2 7.1-12.5 13.9-19 20.3-18.7 18.5-38.7 34-59.2 45.9l759.4 441.3c20.5-11.8 40.5-27.4 59.2-45.9 6.5-6.4 12.8-13.2 19-20.3 4.8-5.5 9.5-11.2 14-17.1 4-5.1 7.9-10.4 11.7-15.8 3.5-5 6.9-10.1 10.2-15.3 3.2-4.9 6.2-10 9.2-15.1.3-.6.7-1.1 1-1.7 2.6-4.4 5-8.9 7.4-13.4 2.7-5 5.2-10 7.6-15 2.4-5.1 4.8-10.1 7-15.2 2.3-5.2 4.4-10.4 6.4-15.7 2.1-5.5 4.1-11 5.9-16.4 2-5.9 3.8-11.8 5.4-17.7 1.9-6.7 3.5-13.4 4.9-20 1.8-8.3 3.2-16.6 4.3-24.8 1.5-11.8 2.3-23.4 2.3-34.6L1027.4 551z"></path><path fill="#E9F0F7" d="M1786.8 992.3 1027.4 551l-1-364.8 759.4 441.3zM1786.2 616.8c0-.6.1-1.3.2-1.9.1-1.2.2-2.5.4-3.7.1-.6.1-1.2.2-1.8.2-1.7.4-3.3.7-5 0-.3.1-.6.1-.9.3-1.7.6-3.5.9-5.3 0-.2.1-.4.1-.6.3-1.4.6-2.7.9-4.1.2-.8.4-1.7.6-2.5.3-1.1.5-2.2.8-3.3.2-.8.4-1.7.6-2.5.4-1.4.8-2.7 1.2-4.1.1-.5.3-1 .4-1.4.6-1.8 1.1-3.7 1.8-5.5.1-.3.2-.7.3-1 .5-1.5 1-3 1.6-4.5.2-.6.4-1.1.6-1.7.5-1.4 1-2.7 1.6-4.1.2-.4.3-.9.5-1.3.7-1.8 1.5-3.5 2.2-5.3.1-.3.3-.7.4-1 .6-1.5 1.3-2.9 2-4.3.2-.5.5-1 .7-1.5l2.4-4.8c.1-.1.1-.3.2-.4l2.7-5.1c.3-.5.5-.9.8-1.4.7-1.3 1.5-2.7 2.2-4 .2-.4.5-.8.7-1.2 1-1.7 2-3.3 3-5 .2-.3.4-.7.6-1 .8-1.3 1.7-2.6 2.5-4 .4-.5.7-1.1 1.1-1.6l2.4-3.6c.3-.5.6-.9.9-1.4 1.1-1.5 2.1-3 3.2-4.5.1-.1.2-.3.3-.4 1.2-1.6 2.4-3.2 3.6-4.7.6-.7 1.2-1.5 1.7-2.2.7-.9 1.5-1.8 2.2-2.7.6-.7 1.2-1.4 1.8-2.2.8-.9 1.6-1.9 2.4-2.8.2-.3.5-.6.7-.8 1.3-1.4 2.5-2.8 3.8-4.2 1.3-1.4 2.6-2.7 3.9-4l.8-.8c1.1-1.1 2.2-2.2 3.3-3.2.3-.3.6-.6 1-.9 1.4-1.3 2.8-2.6 4.2-3.8.4-.3.7-.6 1.1-1 1.1-.9 2.1-1.8 3.2-2.7.5-.4 1.1-.8 1.6-1.3.9-.8 1.9-1.5 2.9-2.2.6-.4 1.1-.9 1.7-1.3.9-.7 1.9-1.4 2.8-2.1.6-.4 1.1-.8 1.7-1.2 1-.7 2.1-1.4 3.1-2.1.5-.3 1-.6 1.5-1 1.5-1 3.1-1.9 4.6-2.8l6.6-3.8L1129 16l-6.6 3.8c-1.5.9-3.1 1.8-4.6 2.8-.5.3-1 .6-1.5 1-1 .7-2.1 1.4-3.1 2.1-.6.4-1.1.8-1.7 1.2-1 .7-1.9 1.4-2.8 2.1-.6.4-1.1.9-1.7 1.3-1 .7-1.9 1.5-2.8 2.2-.5.4-1.1.8-1.6 1.3-1.1.9-2.2 1.8-3.2 2.7-.4.3-.7.6-1.1 1-1.4 1.3-2.8 2.5-4.2 3.8-.3.3-.6.6-1 .9-.9.8-1.8 1.7-2.7 2.6l-.6.6-.8.8c-1.3 1.3-2.6 2.7-3.9 4-1.3 1.4-2.6 2.8-3.8 4.2-.2.3-.5.6-.7.8-.2.2-.4.5-.6.7l-1.8 2.1c-.6.7-1.2 1.4-1.8 2.2-.7.9-1.5 1.8-2.2 2.7-.6.7-1.2 1.4-1.7 2.2-.1.1-.2.2-.3.4-1.1 1.4-2.2 2.9-3.3 4.4-.1.1-.2.3-.3.4-1 1.3-1.9 2.6-2.9 4-.1.2-.3.4-.4.6-.3.5-.6.9-.9 1.4l-2.4 3.6c-.4.5-.7 1.1-1.1 1.6-.3.4-.5.8-.8 1.2-.6.9-1.1 1.8-1.7 2.7-.2.3-.4.7-.6 1-.9 1.5-1.8 3-2.7 4.4l-.3.6c-.2.4-.5.8-.7 1.2-.8 1.3-1.5 2.7-2.2 4-.3.5-.5.9-.8 1.4-.2.3-.3.6-.5.9-.7 1.4-1.5 2.8-2.2 4.2-.1.1-.1.3-.2.4-.6 1.2-1.2 2.4-1.8 3.7l-.6 1.2c-.2.5-.5 1-.7 1.5-.7 1.4-1.3 2.9-2 4.3-.1.3-.3.7-.4 1-.1.1-.1.2-.2.4-.7 1.6-1.4 3.3-2.1 4.9-.2.4-.3.9-.5 1.3-.3.8-.6 1.6-1 2.4-.2.6-.4 1.1-.6 1.7-.2.6-.4 1.1-.6 1.7-.5 1.5-1.1 3-1.6 4.5-.1.3-.2.7-.3 1 0 .1-.1.2-.1.3-.6 1.8-1.1 3.5-1.7 5.3-.1.5-.3.9-.4 1.4-.3 1-.6 2.1-.9 3.1-.1.3-.2.6-.2.9-.2.8-.4 1.6-.6 2.5-.3 1.1-.6 2.2-.8 3.3-.2.8-.4 1.7-.6 2.5-.1.6-.3 1.2-.4 1.8-.2.8-.3 1.5-.5 2.3 0 .2-.1.4-.1.6-.3 1.8-.7 3.5-.9 5.3 0 .3-.1.6-.1.9l-.6 4.2c0 .2-.1.5-.1.7-.1.6-.1 1.2-.2 1.7-.1 1.2-.3 2.5-.4 3.7-.1.6-.1 1.3-.2 1.9-.1 1.2-.2 2.5-.2 3.7 0 .6-.1 1.1-.1 1.7-.1 1.8-.1 3.5-.1 5.3L1786 627.5c0-1.7 0-3.5.1-5.3 0-.6.1-1.1.1-1.7-.2-1.2-.1-2.5 0-3.7zM851.9 854.9 99.6 1288.3l759.5 441.3 752.2-433.4z"></path><path fill="#FF8666" d="M1088.6 868.4c-38.4 9.5-64.1 14.2-101.7 18.7 21.5 28.9 84.9 22.7 101.7-18.7zm-16.1-52.2c-39.6-19.8-75.4 20.2-76.9 21.9.6 11.7 1 19.4 1.5 34.5 25.3-4.1 53.4-9.1 94.8-20.9-.4-21.6-12.4-31.5-19.4-35.5z"></path><path fill="#ED4944" d="M1116.7 846.5c-2-1-3.6-1.2-6.2-.5-5.6 1.7-13.1 4-18.7 5.7-24.9 7-52.8 14.3-94.8 20.9-.4-11.6-.7-19.2-1.5-34.5-.6-10.2-11.5-7.6-15.4-3.4-2.3 2.4-2.3 4.6-2.3 5.6.9 19.7 1.1 29.1 1.4 47.8l7.8-.8c38.8-4.7 64.4-9.4 101.7-18.7 25-6.7 25.2-6.8 26.8-8.1 5.7-4.7 5.5-11.5 1.2-14z"></path><g fill="#144B8A"><path d="m1199.1 284.3.4 156.9 37.7 21.9-.2-87.7 50.4 116.9 37.8 21.9-.5-156.9-37.7-21.9.2 88.8-50.4-118zM1399.9 401l-53.7-31.2.4 156.9 53.7 31.2c43.3 25.2 70.7 8 70.6-37.4-.1-46-27.7-94.3-71-119.5zm-2.5 116.8-13.1-7.6-.2-80.6 13.1 7.6c21.7 12.6 35.4 35 35.5 61.1 0 25.8-13.6 32.1-35.3 19.5zM1573.9 633.2l7.4 29.8 39.8 23.1-49.7-185.5-43.5-25.3-49 128.1 39.6 23 7.2-21.3 48.2 28.1zm-24.3-98.1 14.8 59.2-29.1-16.9 14.3-42.3z"></path></g><path fill="#FF8666" d="M913.2 950.5c-22.7-13.2-59.5-13.2-82.4 0-.4.2-.7.4-1.1.6l-.1 26.5 100.2.1c1.7-9.8-3.9-19.8-16.6-27.2zM830.5 998.1c22.7 13.2 59.5 13.2 82.4.1 5.1-2.9 9-6.2 11.8-9.8l-105.9-.1c2.8 3.5 6.7 6.8 11.7 9.8z"></path><path fill="#ED4944" d="M829.7 951.1V950c0-1.5-1-2.8-2.7-3.8-1.7-1-4-1.6-6.5-1.6-5.1 0-9.3 2.4-9.3 5.4l-.2 38.3h7.9l105.9.1h25.6c5.1 0 9.3-2.4 9.3-5.4 0-1.5-1-2.8-2.7-3.8-1.7-1-4-1.6-6.5-1.6h-20.6l-100.2-.1v-26.4z"></path><path fill="#FF8666" d="M665.7 1093c22.7 13.2 59.5 13.2 82.4 0 5.1-2.9 9-6.2 11.8-9.8l-105.9-.1c2.8 3.7 6.7 7 11.7 9.9zM765 1072.6c1.7-9.7-3.8-19.7-16.6-27.2-22.7-13.2-59.5-13.2-82.4-.1-.4.2-.7.4-1.1.7l-.1 26.5 100.2.1z"></path><path fill="#ED4944" d="m654 1083.2 105.9.1h25.6c5.1 0 9.3-2.4 9.3-5.4 0-1.5-1-2.8-2.7-3.8-1.7-1-4-1.6-6.5-1.6H765l-100.2-.1.1-26.5v-1.1c0-1.5-1-2.8-2.7-3.8-1.7-1-4-1.6-6.5-1.6-5.1 0-9.3 2.4-9.3 5.4l-.2 38.3 7.8.1z"></path><path fill="#FF8666" d="M951 1587.2c-.4-.2-.6-.6-.6-.9.7-3.6.6-7.3-.1-10.9-.1-.6.6-1.2 1.7-1.2.6 0 1.2.1 1.6.3.3.2.5.4.5.7.8 3.8.8 7.6.1 11.4-.1.6-1.1 1.1-2.1 1-.4-.1-.8-.2-1.1-.4zM911 1539.7c-.6-.4-.8-.9-.3-1.4.6-.5 1.8-.7 2.7-.4 5.5 2 10.7 4.4 15.4 7.1.8.4.8 1.1 0 1.6-.7.4-2 .4-2.7 0-4.5-2.6-9.4-4.8-14.7-6.7l-.4-.2zM937.8 1555.1c-.6-.5-.3-1.2.6-1.5.8-.3 1.8-.2 2.4.2.1.1.2.1.3.2 3.5 3.2 6.4 6.6 8.6 10.2.4.6-.2 1.2-1.2 1.4-.7.1-1.5 0-2-.3-.2-.1-.3-.3-.5-.4-2.1-3.5-4.8-6.8-8.2-9.8zM938.7 1608c-.6-.4-.8-.9-.3-1.4 3.3-3.1 6-6.4 8-9.8.4-.6 1.4-.9 2.5-.7.3.1.5.1.7.3.5.3.7.7.5 1.2-2.1 3.6-4.9 7-8.4 10.3-.5.5-1.7.7-2.7.4l-.3-.3zM929.6 1615.2c.8.4.8 1.1 0 1.6l-.3.1c-4.6 2.7-9.8 5.1-15.3 7.1-.8.3-1.8.2-2.4-.2l-.3-.2c-.6-.5-.3-1.2.6-1.5 5.3-1.9 10.2-4.2 14.6-6.8l.2-.1c.9-.5 2.1-.5 2.9 0zM796.1 1555.3c-3.3 3.1-6 6.4-8 9.8-.4.6-1.4.9-2.5.7-.3-.1-.5-.1-.7-.3-.5-.3-.7-.7-.5-1.2 2.1-3.6 5-7 8.4-10.2.6-.5 1.8-.7 2.7-.3.1 0 .2.1.4.2.5.3.7.8.2 1.3zM784.1 1586.5c.1.6-.6 1.2-1.7 1.2-.6 0-1.2-.1-1.6-.3-.3-.2-.5-.4-.6-.7-.8-3.8-.8-7.6-.1-11.4.1-.6 1.1-1.1 2.1-1 .5 0 .9.1 1.2.3.4.2.6.6.6.9-.7 3.8-.7 7.4.1 11zM796.5 1606.9c.6.5.3 1.2-.6 1.5-.8.3-1.8.2-2.4-.1l-.3-.2c-3.5-3.2-6.4-6.6-8.6-10.2-.4-.6.2-1.2 1.2-1.4.7-.1 1.5 0 2 .3.2.1.4.3.5.4 2.1 3.3 4.9 6.6 8.2 9.7zM907.6 1557.5c22.4 13 22.6 34 .3 46.9-22.3 13-58.6 13-81.1 0-22.5-13-22.6-34-.3-47 22.4-12.8 58.7-12.8 81.1.1zM823.3 1622.3c.6.4.8.9.3 1.4-.5.5-1.7.7-2.7.4-5.5-2-10.7-4.4-15.4-7.1-.8-.4-.8-1.1 0-1.6.7-.4 2-.4 2.7 0 4.5 2.6 9.4 4.8 14.7 6.8.2-.1.3 0 .4.1zM859.3 1629.5c.4.2.6.6.6.9-.1.6-1.1 1.1-2.1 1-6.5-.4-12.9-1.3-19.1-2.5-.3-.1-.5-.1-.7-.3-.5-.3-.7-.7-.5-1.2.4-.6 1.4-.9 2.5-.7 5.9 1.2 12.1 2 18.3 2.4.3.1.7.2 1 .4z"></path><path fill="#FF8666" d="M937.3 1540.3c38.9 22.5 39.1 59 .5 81.5-38.7 22.5-101.8 22.5-140.7 0-38.9-22.5-39.1-59-.5-81.5 38.7-22.5 101.8-22.5 140.7 0zm-137.5 79.9c37.4 21.6 98 21.6 135.2 0 37.2-21.6 37-56.7-.4-78.3-37.4-21.6-98-21.6-135.2 0-37.2 21.6-37 56.7.4 78.3z"></path><path fill="#FF8666" d="M836.7 1534.6c-.4-.6.2-1.2 1.2-1.4 6.2-1.3 12.6-2.1 19.1-2.5.6 0 1.2.1 1.6.3.3.2.5.4.6.7.1.6-.6 1.2-1.7 1.2-6.2.4-12.4 1.2-18.2 2.4-.7.1-1.5 0-2-.3-.4-.1-.5-.2-.6-.4zM920.5 1550.1c29.6 17.1 29.7 44.9.3 61.9-29.4 17.1-77.3 17.1-106.9 0-29.6-17.1-29.7-44.9-.3-61.9 29.4-17.1 77.3-17.1 106.9 0zM817 1610.2c27.9 16.1 73.1 16.1 100.7 0 27.7-16.1 27.5-42.3-.3-58.3-27.9-16.1-73.1-16.1-100.7 0-27.7 16-27.6 42.2.3 58.3zM897.6 1627.5c.4.6-.2 1.2-1.2 1.4-6.2 1.3-12.6 2.1-19.1 2.5-.6 0-1.2-.1-1.6-.3-.3-.2-.5-.4-.6-.7-.1-.6.6-1.2 1.7-1.2 6.2-.4 12.4-1.2 18.2-2.4.7-.1 1.5 0 2 .3.3.1.5.2.6.4zM874.9 1532.5c-.4-.2-.6-.6-.5-.9.1-.6 1.1-1.1 2.1-1 6.5.4 13 1.3 19.1 2.5.3.1.5.1.7.3.5.3.7.7.5 1.2-.3.6-1.4.9-2.4.7-5.9-1.2-12.1-2-18.3-2.4-.5-.1-.9-.2-1.2-.4zM807.8 1546.7c-.8.4-2 .5-2.8 0-.8-.4-.8-1.1-.1-1.5l1.4.8-1.3-.9c4.6-2.7 9.7-5 15.1-7 .8-.3 1.8-.2 2.4.2.1.1.2.1.3.2.6.5.3 1.2-.6 1.5-5.1 1.9-10 4.2-14.4 6.7z"></path><g fill="#AEC7E6"><path d="m309.9 1245.9 139.4 80.5 8.7-5.1-139.4-80.4zM228.2 1293.4l139.4 80.4 8.7-5-139.4-80.5zM1368.3 816.4c-93-54-186-108.1-279-162.1-1.1 4.5-2.5 10.4-3.7 14.8 70.6 41.1 141.3 82.1 211.9 123.2 1.5.9 3 1.7 4.5 2.6 1.5.9 2.9 1.7 4.4 2.6 1.4.8 2.9 1.7 4.4 2.5 2.3 1.3 4.6 2.7 6.8 4 .2.1.4.2.6.4 6.9 4 13.9 8.1 20.8 12.1.4.3.9.5 1.3.8 2.4 1.4 4.7 2.8 7.1 4.1l1.5.9c65.9 38.3 131.9 76.6 197.8 114.9 55.9 32.5 111.9 65 167.8 97.5 1.2-4.4 2.7-10.4 3.7-14.8-112.9-65.6-225.9-131.3-338.8-196.9l-11.1-6.6zm-3.7 14.9c.6-2.2 1.2-4.7 1.9-7.3-.7 2.5-1.3 5.1-1.9 7.3zm11.3 6.5c.6-2.2 1.2-4.7 1.9-7.3-.7 2.6-1.3 5.2-1.9 7.3zM1275 821c-67-38.9-134-77.9-201-116.8-1.8 4.5-4.2 10.5-6.1 15 67 38.9 134 77.9 201 116.8 1.9-4.5 4.4-10.4 6.1-15zM1286 827.4c-1.8 4.5-4.2 10.5-6.1 15l249.3 144.9c1.9-4.5 4.3-10.5 6.1-15L1286 827.4zM1423.1 795.9c-109-63.3-217.9-126.6-326.9-190-.3 4.3-.8 10-1.2 14.2 109 63.3 217.9 126.6 326.9 190 .5-4.3.9-10 1.2-14.2zM1434.4 802.4c-.3 4.3-.8 10-1.2 14.2 97 56.4 193.9 112.7 290.9 169.1.4-4.3.9-9.9 1.2-14.2-96.9-56.4-193.9-112.7-290.9-169.1zM1141 875c170 98.8 340.1 197.6 510.1 296.4 2.9-4 6.7-9.4 9.5-13.4-170-98.8-340.1-197.6-510.1-296.4-2.8 4-6.6 9.4-9.5 13.4zM1109.5 912.6c170 98.8 340.1 197.6 510.1 296.4 3.2-3.4 7.5-8.1 10.6-11.6-170-98.8-340.1-197.6-510.1-296.4-3.1 3.5-7.3 8.1-10.6 11.6zM1075.2 943.9c141.4 82.2 282.7 164.3 424.1 246.5 3.5-2.8 8-6.6 11.4-9.5-141.4-82.2-282.7-164.3-424.1-246.5-3.4 3-7.9 6.8-11.4 9.5zM1431.9 723.8l-.1-13.3L1164.2 555l.1 13.3zM1719.5 890.9v-13.2L1442.9 717l.1 13.2zM1375.8 735.5v-13.3l-274-159.2v13.3zM1386.9 742l332.8 193.3-.1-13.2-332.7-193.4zM899.5 1297.5l-273-158.7-11.8 6.8 273 158.7zM899 1310.9l282.2 163.9 11.8-6.7-282.2-164zM723.9 1332.3l-279.6-162.5-11.8 6.8L644.9 1300l67.2 39.1 11.3 6.6 171.4 99.5L1063 1543l11.7-6.8-339.5-197.3zM404.9 1192.5l-11.8 6.8 201.4 117.1 11.8-6.8zM605.5 1322.7l249.9 145.2 11.7-6.7L617.3 1316zM802.7 1286.9l-279.5-162.5-11.8 6.8 279.5 162.5zM802.3 1300.2l339.5 197.4 11.8-6.8-339.5-197.3zM811.3 1337.5l-327.6-190.4-11.7 6.8 327.5 190.4zM810.9 1350.8l291.5 169.5 11.8-6.8-291.6-169.4zM979.6 1002.7l511.2 297 11.7-6.7-511.1-297.1zM943.4 1023.5l511.2 297.1 11.7-6.8-511.1-297zM907.2 1044.4l425 247 11.8-6.8-425-247zM814.8 1097.6l511.1 297.1 11.8-6.8-511.1-297zM778.6 1118.5l511.2 297 11.7-6.7-511.1-297.1zM1179.2 1379.5l-425-246.9-11.8 6.7 425 247z"></path></g><path fill="#DCE9F5" d="M1104 222.5c.1 3.8 3.4 94.2-2.2 150.2-2.1 21-7.8 38.5-16.8 51.9-7.6 11.3-17.6 19.7-29.8 25.2-21.5 9.6-44.9 7.5-56.9 5.4-4.6-.8-9.4-2.6-14.2-5.4-4.9-2.8-9.6-6.5-14.2-11-12-11.8-35.3-36.6-56.7-71-12.1-19.4-22-39.4-29.5-59.4-8.9-23.8-14.5-47.7-16.4-71.1-5.3-62.2-1.5-148.6-1.3-152.2l.6-14.1 11.5.8c1 .1 10.2.8 28 6.7 22.9 7.6 49.5 20.1 78.9 37.1 29.4 17 56 35.2 78.9 54 17.8 14.6 27 24.5 28 25.6l11.5 12.5.6 14.8zm-22.4 136c3.4-33.6 3.4-81.1 2.9-112.8-18.1-14.3-31.3-39.8-31.6-61.2-16-12.6-38.5-28.6-67.8-45.6-29.4-16.9-51.8-26.9-67.9-32.8-.5 20.9-13.8 31.1-31.9 24.5-.7 31.1-.9 78.4 2.3 115.8 7.3 86.7 67.8 153.1 89.2 174.1 2.4 2.4 4.9 4.3 7.5 5.8 2.5 1.5 5.1 2.4 7.5 2.9 21.3 3.8 82 7.3 89.8-70.7z"></path><path fill="#E5E500" d="M985 139c29.4 16.9 51.8 32.9 67.8 45.6.3 21.4 13.5 46.9 31.6 61.2.5 31.7.5 79.2-2.9 112.8-7.8 77.9-68.4 74.4-89.9 70.7-2.4-.4-5-1.4-7.5-2.9s-5.1-3.4-7.5-5.8c-21.4-21-81.8-87.4-89.2-174.1-3.2-37.4-2.9-84.7-2.3-115.8 18.1 6.6 31.4-3.6 31.9-24.5 16.2 5.9 38.7 15.9 68 32.8z"></path><path fill="#98ADD4" d="M1119.3 359.7v-.3c.1-1 .2-1.9.3-2.9v-.3c.1-1 .2-2.1.3-3.1.1-1 .2-2.1.2-3.1v-.3c.1-1 .1-2 .2-3v-.3c.1-1.1.1-2.2.2-3.2v-.1c.1-1.1.1-2.1.2-3.2v-.3c.1-1 .1-2.1.2-3.2v-.2c.1-1.1.1-2.2.2-3.4v-.1c.1-1.1.1-2.2.1-3.3v-.3c0-1.1.1-2.2.1-3.2v-.2c0-1.1.1-2.3.1-3.4v-.1c0-1.1.1-2.2.1-3.3v-.3c0-1.1.1-2.2.1-3.3v-.2c0-1.2.1-2.3.1-3.5v-.2c0-1.1.1-2.2.1-3.3v-.4c0-1.1 0-2.2.1-3.3v-.2c0-1.2 0-2.3.1-3.4V221.8c0-.7 0-1.3-.1-1.9V213.2l-.5-14.8-17.2 10 .5 14.8v6.7c0 .6 0 1.2.1 1.9v78.9c0 1.1 0 2.3-.1 3.4v.2c0 1.1 0 2.2-.1 3.3v.4c0 1.1-.1 2.2-.1 3.3v.2c0 1.2-.1 2.3-.1 3.5v.2c0 1.1-.1 2.2-.1 3.3v.3c0 1.1-.1 2.2-.1 3.3v.1c0 1.2-.1 2.3-.1 3.4v.2c0 1.1-.1 2.2-.1 3.2v.3c0 1.1-.1 2.2-.1 3.3v.1c-.1 1.1-.1 2.3-.2 3.4v.2c-.1 1.1-.1 2.1-.2 3.2v.3c-.1 1.1-.1 2.2-.2 3.2v.1c-.1 1.1-.1 2.2-.2 3.2v.3c-.1 1-.1 2-.2 3v.3c-.1 1.1-.2 2.1-.2 3.1-.1 1-.2 2.1-.3 3.1v.3c-.1 1-.2 1.9-.3 2.9v.3l-.3 3c-.1 1.4-.3 2.8-.5 4.2l-.3 2.4c-.1.4-.1.9-.2 1.3-.2 1.1-.3 2.2-.5 3.2 0 .1 0 .2-.1.4-.2 1.2-.4 2.4-.7 3.5-.1.4-.2.7-.2 1.1-.2.8-.3 1.6-.5 2.3-.1.4-.2.9-.3 1.3-.2.7-.3 1.4-.5 2-.1.5-.2.9-.4 1.4-.2.6-.3 1.3-.5 1.9-.1.5-.3.9-.4 1.4l-.6 1.8c-.1.5-.3.9-.5 1.4-.2.6-.4 1.2-.6 1.7-.2.5-.3.9-.5 1.4-.2.6-.4 1.1-.6 1.7-.2.4-.3.9-.5 1.3-.2.5-.4 1.1-.7 1.6-.2.4-.4.9-.6 1.3-.2.5-.5 1.1-.7 1.6l-.6 1.2c-.3.5-.5 1.1-.8 1.6l-.6 1.2c-.3.5-.6 1.1-.9 1.6-.2.3-.4.7-.6 1-.3.6-.7 1.1-1 1.7-.2.3-.3.6-.5.8-.5.8-1.1 1.7-1.6 2.5-6.1 9.1-13.9 16.4-23 21.7l17.2-10c9.2-5.3 16.9-12.6 23-21.7.5-.8 1.1-1.6 1.6-2.5.2-.3.3-.6.5-.8.3-.6.7-1.1 1-1.7.2-.3.4-.7.6-1 .3-.5.6-1.1.9-1.6l.6-1.2c.3-.5.5-1.1.8-1.6l.6-1.2c.2-.5.5-1.1.7-1.6.2-.4.4-.9.6-1.3.2-.5.5-1.1.7-1.6.2-.4.4-.9.5-1.3.2-.6.4-1.1.6-1.7.2-.5.3-.9.5-1.4.2-.6.4-1.2.6-1.7.2-.5.3-.9.5-1.4l.6-1.8c.1-.5.3-.9.4-1.4.2-.6.3-1.3.5-1.9.1-.5.3-.9.4-1.4.2-.7.3-1.4.5-2 .1-.4.2-.9.3-1.3.2-.8.3-1.6.5-2.3.1-.4.2-.7.2-1.1.2-1.2.5-2.3.7-3.5 0-.1 0-.2.1-.4.2-1.1.4-2.1.5-3.2.1-.4.1-.8.2-1.3l.3-2.1v-.3c.2-1.4.3-2.8.5-4.2.1-.9.2-1.9.3-2.9z"></path><path fill="#AEC7E6" d="m1109.2 185.3-.1-.1-.1-.1-.1-.1s0-.1-.1-.1l-.2-.2-.1-.1-.2-.2-.1-.1-.2-.2-.2-.2-.3-.3-.2-.2-.3-.3-.2-.2-.4-.4-.1-.1-.7-.7-.2-.2-.7-.7-.2-.2-.9-.9-.2-.2-.8-.8-.2-.2c-.3-.3-.7-.7-1.1-1l-.2-.2c-.3-.3-.6-.6-1-.9l-.3-.3c-.4-.4-.8-.8-1.3-1.2l-.1-.1c-.4-.4-.8-.8-1.3-1.2-.1-.1-.2-.2-.4-.3-.4-.4-.8-.8-1.3-1.2l-.2-.2c-.5-.4-1-.9-1.5-1.4-.1-.1-.3-.2-.4-.4-.4-.4-.9-.8-1.3-1.2l-.3-.3c-.6-.5-1.1-1-1.7-1.5-.1-.1-.3-.2-.4-.3-.5-.4-1-.8-1.5-1.3-.2-.1-.3-.3-.5-.4-.6-.5-1.2-1.1-1.9-1.6l-.3-.3c-.6-.5-1.1-1-1.7-1.4-.2-.1-.4-.3-.5-.5-.7-.6-1.4-1.2-2.1-1.7-1.3-1.1-2.6-2.1-4-3.2-.4-.3-.8-.7-1.3-1-.9-.7-1.9-1.5-2.8-2.2-.5-.4-1-.7-1.4-1.1-1-.7-1.9-1.5-2.9-2.2-.4-.3-.9-.7-1.3-1-1.4-1.1-2.8-2.1-4.2-3.2l-.1-.1c-1.4-1-2.8-2.1-4.2-3.1-.5-.3-.9-.7-1.4-1-1-.7-2-1.5-3-2.2-.5-.4-1-.7-1.5-1.1-.4-.3-.7-.5-1.1-.8-.4-.3-.8-.5-1.2-.8-1.2-.8-2.3-1.6-3.5-2.5-.7-.5-1.3-.9-2-1.4-1.2-.9-2.5-1.7-3.8-2.6l-1.8-1.2c-1.8-1.2-3.6-2.4-5.5-3.6l-.1-.1c-1.9-1.2-3.8-2.5-5.7-3.7l-1.8-1.2c-1.3-.8-2.7-1.7-4-2.5-.7-.5-1.4-.9-2.2-1.3-1.3-.8-2.5-1.6-3.8-2.4-.7-.4-1.5-.9-2.2-1.3-1.4-.8-2.7-1.6-4.1-2.5-.6-.4-1.3-.8-1.9-1.2-2-1.2-4-2.4-6.1-3.6-1.6-1-3.3-1.9-4.9-2.8-.5-.3-.9-.5-1.4-.8-1.3-.7-2.5-1.4-3.8-2.1-.4-.2-.8-.4-1.2-.7-1.5-.8-3-1.6-4.4-2.4-.1-.1-.2-.1-.4-.2l-.6-.3-4.5-2.4c-.2-.1-.4-.2-.5-.3-1.5-.8-3.1-1.6-4.6-2.4-.3-.2-.6-.3-.9-.5-1.5-.8-3-1.5-4.5-2.3-.2-.1-.5-.2-.7-.3-1.4-.7-2.9-1.4-4.3-2.1-.1-.1-.3-.1-.4-.2-1.5-.7-2.9-1.4-4.4-2.1-.3-.1-.6-.3-.8-.4-1.4-.7-2.8-1.3-4.3-2-.2-.1-.5-.2-.7-.3-1.4-.6-2.8-1.3-4.2-1.9-.1 0-.1-.1-.2-.1l-4.2-1.8c-.3-.1-.5-.2-.8-.3-1.4-.6-2.7-1.1-4-1.7-.2-.1-.5-.2-.7-.3-.5-.2-.9-.4-1.4-.6-.5-.2-1-.4-1.6-.6-.6-.2-1.2-.5-1.8-.7-.9-.3-1.8-.7-2.6-1-.6-.2-1.1-.4-1.7-.6-.9-.4-1.9-.7-2.8-1-.5-.2-.9-.3-1.4-.5-1.4-.5-2.8-1-4.1-1.4-.6-.2-1.1-.4-1.7-.6-.2-.1-.4-.1-.6-.2-.4-.1-.7-.2-1.1-.3-.2-.1-.4-.1-.6-.2l-.9-.3c-.2-.1-.4-.1-.7-.2l-.9-.3c-.2-.1-.4-.1-.7-.2-.3-.1-.5-.2-.8-.2-.2-.1-.4-.1-.7-.2-.3-.1-.5-.1-.8-.2-.2-.1-.4-.1-.6-.2-.3-.1-.5-.1-.7-.2-.2-.1-.4-.1-.6-.2-.2-.1-.5-.1-.7-.2-.1 0-.2 0-.2-.1-.1 0-.2-.1-.4-.1-.2-.1-.5-.1-.7-.2-.2 0-.4-.1-.6-.1-.2-.1-.4-.1-.7-.2-.2 0-.4-.1-.5-.1-.2-.1-.4-.1-.6-.2-.2 0-.3-.1-.5-.1s-.4-.1-.6-.1c-.2 0-.3-.1-.5-.1s-.4-.1-.6-.1c-.2 0-.3-.1-.5-.1s-.4-.1-.5-.1c-.1 0-.3-.1-.4-.1-.2 0-.4-.1-.5-.1-.1 0-.3-.1-.4-.1-.2 0-.4-.1-.5-.1-.1 0-.2 0-.4-.1-.2 0-.3-.1-.5-.1-.1 0-.2 0-.3-.1-.2 0-.4-.1-.5-.1h-.2c-.2 0-.5-.1-.7-.1h-.1c-.2 0-.4-.1-.6-.1h-.2c-.1 0-.3 0-.4-.1H895.5l-11.7-1-17.2 10 11.5.8h3.2c.1 0 .3 0 .4.1h.2c.4.1.9.1 1.4.2h.2c.2 0 .4.1.5.1.1 0 .2 0 .3.1.2 0 .3.1.5.1.1 0 .2 0 .3.1.2 0 .4.1.5.1.1 0 .3.1.4.1.2 0 .4.1.5.1.1 0 .3.1.4.1.2 0 .4.1.6.1.2 0 .3.1.5.1s.4.1.6.1c.2 0 .3.1.5.1s.4.1.6.1c.2 0 .3.1.5.1.2.1.4.1.6.2.2 0 .3.1.5.1.2.1.4.1.7.2.2 0 .4.1.6.1.2.1.5.1.7.2.2.1.4.1.6.2.2.1.5.1.7.2.2.1.4.1.6.2.2.1.5.1.7.2.2.1.4.1.6.2.3.1.5.1.8.2.2.1.4.1.7.2.3.1.5.2.8.2.2.1.4.1.7.2l.9.3c.2.1.4.1.7.2l.9.3c.2.1.4.1.6.2.4.1.7.2 1.1.3.2.1.4.1.6.2.6.2 1.1.4 1.7.6 1.4.5 2.7.9 4.1 1.4.5.2.9.3 1.4.5.9.3 1.9.7 2.8 1 .6.2 1.1.4 1.7.6.9.3 1.7.7 2.6 1 .6.2 1.2.5 1.8.7l3 1.2c.2.1.5.2.7.3 1.3.5 2.7 1.1 4 1.7.3.1.5.2.8.3l4.2 1.8c.1 0 .1.1.2.1 1.4.6 2.8 1.2 4.2 1.9.2.1.5.2.7.3 1.4.6 2.8 1.3 4.3 2 .3.1.6.3.8.4 1.5.7 2.9 1.4 4.4 2.1.1.1.3.1.4.2 1.4.7 2.9 1.4 4.3 2.1.2.1.5.2.7.3 1.5.7 3 1.5 4.5 2.3.3.2.6.3.9.5 1.5.8 3 1.6 4.6 2.4.2.1.4.2.5.3l4.5 2.4.6.3c1.6.9 3.2 1.7 4.8 2.6.4.2.8.4 1.2.7 1.3.7 2.5 1.4 3.8 2.1.5.3.9.5 1.4.8 1.6.9 3.3 1.9 4.9 2.8 2 1.2 4.1 2.4 6.1 3.6.6.4 1.3.8 1.9 1.2 1.4.8 2.7 1.6 4.1 2.5.7.4 1.5.9 2.2 1.3 1.3.8 2.6 1.6 3.8 2.4.7.4 1.5.9 2.2 1.3 1.3.8 2.7 1.7 4 2.5l1.8 1.2c1.9 1.2 3.8 2.5 5.7 3.7.1 0 .1.1.2.1 1.8 1.2 3.7 2.4 5.5 3.6l1.8 1.2c1.3.9 2.5 1.7 3.8 2.6.7.5 1.3.9 2 1.4 1.2.8 2.3 1.6 3.5 2.5.8.5 1.5 1.1 2.3 1.6.5.4 1 .7 1.5 1.1 1 .7 2 1.5 3 2.2.5.3.9.7 1.4 1 1.4 1 2.8 2 4.2 3.1l.1.1c1.4 1.1 2.8 2.1 4.2 3.2.4.3.9.7 1.3 1 1 .7 1.9 1.5 2.9 2.2.5.4.9.7 1.4 1.1 1 .7 1.9 1.5 2.8 2.3.4.3.8.7 1.3 1 1.3 1.1 2.7 2.1 4 3.2.7.6 1.4 1.2 2.1 1.7.2.2.4.3.5.5.6.5 1.2 1 1.7 1.4l.3.3c.6.5 1.3 1.1 1.9 1.6.2.1.3.3.5.4.5.4 1 .9 1.5 1.3.1.1.3.2.4.3.6.5 1.2 1 1.7 1.5l.3.3c.5.4.9.8 1.3 1.2.1.1.3.2.4.4.5.5 1 .9 1.5 1.4l.2.2c.4.4.9.8 1.3 1.2.1.1.3.2.4.4.4.4.8.8 1.2 1.1l.1.1c.4.4.9.8 1.3 1.2l.3.3c.3.3.7.6 1 .9.1.1.2.1.2.2.4.4.7.7 1.1 1l.2.2.8.8.2.2.9.9.2.2c.2.2.5.4.7.7l.2.2.7.7.1.1c.1.2.3.3.4.4l.2.2.3.3.2.2.3.3.2.2c.1.1.1.2.2.2 0 .1.1.1.1.1l.2.2.1.1c.1.1.1.1.1.2l.1.1c0 .1.1.1.1.1l.1.1 11.5 12.5 17.2-10-11.1-12.3z"></path><path fill="#DB8918" d="M893.2 137.4c.1 0 .2-.1.3-.1.3-.2.6-.3.9-.5l11.4-6.7c-.3.2-.6.3-.9.5-.1 0-.2.1-.3.1-.2.1-.5.2-.7.3-.1 0-.2.1-.3.1-.3.1-.7.3-1 .4-.4.1-.8.3-1.3.4-.1 0-.2.1-.3.1-.3.1-.6.2-1 .2-.2 0-.5.1-.7.1-.1 0-.3.1-.4.1-.3 0-.6.1-.9.1h-.3c-.4 0-.8.1-1.1.1h-1.5c-.4 0-.8 0-1.2-.1-.5 0-1-.1-1.6-.2-.2 0-.3 0-.5-.1-.4-.1-.7-.1-1.1-.2-.2 0-.4-.1-.6-.1-.3-.1-.6-.1-.9-.2-.2-.1-.4-.1-.7-.2-.3-.1-.6-.2-.9-.2-.2-.1-.4-.1-.7-.2l-.9-.3-.9-.3-11.4 6.7c.2.1.3.1.5.2s.3.1.5.2l.9.3c.1 0 .2.1.3.1.1 0 .3.1.4.1.3.1.6.2.9.2.1 0 .2.1.3.1.1 0 .2 0 .3.1.3.1.6.1.9.2.1 0 .2.1.4.1h.2c.4.1.7.1 1.1.2.1 0 .2 0 .4.1h.1c.5.1 1.1.1 1.6.2h2.6c.4 0 .7 0 1.1-.1h.3c.3 0 .6-.1.9-.1.1 0 .3 0 .4-.1.2 0 .4-.1.6-.1h.1c.3-.1.6-.1 1-.2.1 0 .2-.1.3-.1.4-.1.8-.2 1.3-.4.3-.1.6-.2 1-.4.1 0 .2-.1.3-.1.3-.1.5-.2.8-.3z"></path><path fill="#F5A158" d="M1084.7 276V245.8l-11.4 6.7V300.1c0 1.6 0 3.2-.1 4.8v1.1c0 1.3 0 2.7-.1 4v1.1c0 1.6-.1 3.2-.1 4.8v.9c0 1.4-.1 2.7-.1 4.1v1.2c0 1.6-.1 3.2-.2 4.8v.7c-.1 1.4-.1 2.8-.2 4.2 0 .5 0 1.1-.1 1.6 0 .5 0 1-.1 1.4 0 .7-.1 1.4-.1 2.1 0 .5 0 .9-.1 1.4 0 .7-.1 1.4-.1 2.1 0 .4 0 .9-.1 1.3 0 .8-.1 1.5-.1 2.3 0 .4 0 .7-.1 1.1-.1 1.1-.1 2.2-.2 3.3-.1 1.1-.1 2.2-.2 3.2 0 .4-.1.7-.1 1.1-.1.7-.1 1.5-.2 2.2 0 .4-.1.8-.1 1.2 0 .6-.1 1.2-.1 1.8-.1.8-.1 1.6-.2 2.4 0 .4-.1.8-.1 1.2-.1 1.2-.2 2.3-.3 3.5l-.3 3v.4c-.1.5-.1 1.1-.2 1.6s-.1 1.1-.2 1.6-.2 1-.2 1.5c-.1.5-.2 1-.3 1.6-.1.4-.1.8-.2 1.2-.1.6-.2 1.3-.3 1.9l-.3 1.2c-.1.6-.2 1.2-.4 1.7l-.3 1.2c-.1.6-.3 1.2-.4 1.8l-.3 1.2c-.2.6-.3 1.1-.5 1.7-.1.5-.3.9-.4 1.4-.1.2-.1.3-.2.5-.2.7-.5 1.5-.7 2.2 0 .1-.1.2-.1.3-.2.6-.4 1.3-.7 1.9-.1.1-.1.3-.2.4-.3.7-.5 1.4-.8 2.1 0 .1-.1.2-.1.3-.2.6-.5 1.2-.7 1.7l-.3.6c-.2.5-.4 1-.7 1.4l-.3.6c-.2.4-.4.8-.6 1.1-.2.3-.3.6-.5 1s-.4.7-.6 1.1c-.2.3-.3.6-.5.9-.2.3-.4.7-.6 1-.2.3-.3.6-.5.9-.2.3-.4.7-.6 1-.2.3-.3.6-.5.8-.3.4-.5.8-.8 1.2-.1.2-.2.4-.4.5-.4.6-.8 1.1-1.2 1.7 0 .1-.1.1-.1.2-.4.5-.7 1-1.1 1.4-.1.2-.3.4-.4.5-.3.3-.5.7-.8 1-.2.2-.3.4-.5.6-.3.3-.5.6-.8.9-.2.2-.4.4-.5.6-.2.3-.5.5-.7.8l-.6.6c-.2.3-.5.5-.7.8l-.6.6c-.2.2-.5.5-.8.7l-.6.6c-.3.2-.5.5-.8.7-.2.2-.4.4-.6.5-.3.2-.5.4-.8.7-.2.2-.4.3-.6.5-.3.2-.5.4-.8.6-.2.2-.4.3-.6.5-.3.2-.6.4-.8.6-.2.1-.4.3-.6.4l-.9.6c-.2.1-.4.3-.6.4-.3.2-.7.4-1 .6-.2.1-.3.2-.5.3l-1.5.9 11.4-6.7 1.5-.9c.2-.1.3-.2.5-.3.3-.2.7-.4 1-.6.2-.1.4-.3.6-.4l.9-.6c.2-.1.4-.3.6-.4.3-.2.6-.4.8-.6.2-.2.4-.3.6-.5.3-.2.5-.4.8-.6.2-.2.4-.3.6-.5.3-.2.5-.4.8-.7.2-.2.4-.4.6-.5.3-.2.5-.5.8-.7l.6-.6c.3-.2.5-.5.7-.7l.6-.6c.2-.2.5-.5.7-.8l.6-.6c.2-.3.5-.5.7-.8.2-.2.4-.4.5-.6.3-.3.5-.6.8-.9.2-.2.3-.4.5-.6.3-.3.5-.7.8-1 .1-.2.3-.4.4-.5.4-.5.7-.9 1.1-1.4l.2-.2c.4-.5.8-1.1 1.2-1.7.1-.2.2-.4.4-.5.2-.4.5-.7.7-1.1 0 0 0-.1.1-.1.2-.3.3-.6.5-.8.2-.3.4-.7.6-1 .2-.3.3-.6.5-.9.2-.3.4-.7.6-1 .2-.3.3-.6.5-.9.2-.4.4-.7.6-1.1.2-.3.3-.6.5-1 .1-.3.3-.6.4-.9 0-.1.1-.2.1-.3l.3-.6c.2-.5.4-1 .7-1.4l.3-.6c.2-.6.5-1.1.7-1.7 0-.1.1-.2.1-.3.2-.6.5-1.2.7-1.9 0-.1.1-.2.1-.3.1-.1.1-.3.2-.4.2-.6.4-1.3.7-1.9 0-.1.1-.2.1-.3.2-.7.5-1.4.7-2.2.1-.2.1-.3.2-.5s.1-.5.2-.7c.1-.2.1-.5.2-.7.2-.6.3-1.1.5-1.7l.3-1.2c.1-.6.3-1.2.4-1.8.1-.3.1-.5.2-.8 0-.1.1-.3.1-.4.1-.6.2-1.1.4-1.7l.3-1.2c.1-.6.2-1.2.4-1.9.1-.3.1-.6.2-1v-.2c.1-.5.2-1 .3-1.6.1-.5.2-1 .2-1.5.1-.5.1-1.1.2-1.6.1-.4.1-.9.2-1.3v-.7l.3-3c.1-1.1.2-2.3.3-3.5 0-.4.1-.8.1-1.2.1-.8.1-1.6.2-2.4v-.5c0-.4.1-.9.1-1.3s.1-.8.1-1.2c.1-.7.1-1.4.2-2.2 0-.4.1-.7.1-1.1.1-1.1.1-2.2.2-3.2.1-1.1.1-2.2.2-3.3 0-.4 0-.7.1-1.1 0-.8.1-1.5.1-2.3 0-.4 0-.9.1-1.3 0-.7.1-1.4.1-2.1 0-.5 0-.9.1-1.4 0-.7.1-1.4.1-2.1 0-.5 0-1 .1-1.4v-1.6c.1-1.4.1-2.8.2-4.2v-.7c.1-1.6.1-3.2.2-4.8V314c0-1.4.1-2.7.1-4.1v-.9c0-1.6.1-3.2.1-4.8v-1.1c0-1.3.1-2.7.1-4V298c0-1.6 0-3.2.1-4.8v-14.8c.1-.6.1-1.5.1-2.4z"></path><path fill="#DB8918" d="m1084.4 245.7-.2-.2-1.5-1.2c-.2-.2-.4-.3-.6-.5-.4-.3-.8-.6-1.1-1-.2-.2-.4-.4-.7-.6-.3-.3-.7-.6-1-.9l-.7-.7-.9-.9c-.2-.3-.5-.5-.7-.8-.3-.3-.6-.6-.8-.9l-.8-.8c-.3-.3-.5-.6-.8-.8-.2-.3-.5-.6-.7-.8-.3-.3-.5-.6-.8-.9-.2-.3-.4-.5-.7-.8-.3-.3-.5-.7-.8-1-.2-.3-.4-.5-.6-.8l-.9-1.2c-.2-.2-.3-.4-.5-.7-.7-.9-1.3-1.8-1.9-2.7-.1-.1-.2-.3-.3-.4l-1.2-1.8c-.2-.2-.3-.5-.5-.7-.3-.6-.7-1.1-1-1.7-.2-.3-.3-.5-.5-.8-.1-.2-.3-.5-.4-.7-.2-.4-.4-.8-.7-1.2-.1-.3-.3-.5-.4-.8-.2-.3-.4-.7-.5-1-.2-.4-.5-.9-.7-1.3-.2-.3-.3-.6-.5-.9-.2-.3-.3-.7-.5-1-.2-.4-.3-.7-.5-1.1-.1-.3-.3-.5-.4-.8-.2-.4-.3-.8-.5-1.2-.1-.3-.2-.5-.4-.8-.2-.4-.3-.8-.5-1.2-.1-.3-.2-.5-.3-.8-.2-.4-.3-.8-.5-1.2-.1-.3-.2-.5-.3-.8-.2-.4-.3-.8-.4-1.3-.1-.3-.2-.5-.3-.8-.1-.4-.3-.8-.4-1.3-.1-.3-.2-.5-.3-.8-.1-.4-.3-.9-.4-1.3-.1-.3-.2-.5-.2-.8-.1-.5-.2-.9-.4-1.4-.1-.2-.1-.5-.2-.7-.2-.7-.3-1.4-.5-2.1v-.2c-.1-.6-.3-1.3-.4-1.9 0-.2-.1-.4-.1-.6-.1-.5-.2-1-.2-1.4 0-.3-.1-.5-.1-.8-.1-.4-.1-.8-.2-1.3 0-.3-.1-.5-.1-.8 0-.4-.1-.8-.1-1.2 0-.3 0-.6-.1-.8 0-.4-.1-.8-.1-1.1v-.8c0-.5 0-1-.1-1.5l-11.4 6.7V193.7c0 .3 0 .5.1.8 0 .3 0 .5.1.8v.2c0 .3.1.6.1 1 0 .3.1.5.1.8v.2c0 .4.1.7.2 1.1 0 .3.1.5.1.8v.1c.1.4.2.9.2 1.3 0 .2.1.4.1.6.1.6.2 1.2.4 1.8v.2c.1.7.3 1.4.5 2 .1.2.1.5.2.7.1.4.2.9.3 1.3.1.3.2.5.2.8.1.4.2.8.4 1.2v.1c.1.3.2.5.3.8.1.4.2.8.4 1.1v.1c.1.3.2.5.3.8.1.4.2.7.4 1.1 0 .1 0 .1.1.2.1.3.2.5.3.8l.3.9c0 .1.1.2.1.3.1.3.2.5.3.8.1.3.2.5.3.8.1.1.1.3.2.4.1.3.2.5.4.8l.3.6.3.6c.1.3.2.5.4.8.1.2.1.3.2.5l.3.6c.2.3.3.7.5 1 .1.1.1.3.2.4.1.2.2.3.3.5.2.4.4.9.7 1.3.1.2.2.3.2.5.1.2.2.3.3.5.1.3.3.5.4.8.2.4.4.8.7 1.2.1.2.3.5.4.7.1.1.1.2.2.3.1.2.2.3.3.5.3.6.7 1.1 1 1.7.2.2.3.5.5.7l1.2 1.8c.1.1.2.2.2.4 0 0 0 .1.1.1.6.9 1.3 1.8 1.9 2.7.1.1.1.2.2.3.1.1.2.2.3.4l.9 1.2c.1.2.3.3.4.5.1.1.1.2.2.3.3.3.5.7.8 1 .2.2.3.4.5.6l.2.2c.2.3.5.6.8.9.2.2.4.4.5.6l.2.2c.3.3.5.6.8.8l.6.6.2.2c.3.3.5.6.8.9l.6.6.2.2.9.9.6.6.1.1c.3.3.7.6 1 1 .2.2.4.3.6.5l.1.1c.4.3.8.7 1.1 1 .2.1.3.3.5.5l1.5 1.2.2.2 11.5-6.5z"></path><path fill="#F5A158" d="m979.7 149.3 1.5.9c.4.2.7.4 1.1.7.5.3.9.6 1.4.8.4.2.7.4 1.1.7.5.3.9.6 1.4.8.4.2.7.4 1.1.7.5.3.9.6 1.4.8.4.2.7.4 1.1.7.5.3.9.6 1.4.8.3.2.7.4 1 .6.5.3.9.6 1.4.9.3.2.6.4 1 .6l1.5.9c.3.2.6.4.9.5.6.4 1.1.7 1.7 1.1.2.1.4.3.6.4.8.5 1.5 1 2.3 1.5.2.1.4.2.5.4.6.4 1.1.7 1.7 1.1.3.2.5.4.8.5.5.3.9.6 1.4.9l.9.6c.4.3.8.6 1.2.8l.9.6c.4.3.8.5 1.2.8l.9.6c.4.3.8.5 1.1.8l.9.6c.4.3.7.5 1.1.8.3.2.6.4.9.7.4.2.7.5 1.1.7.3.2.6.4.9.7.3.2.7.5 1 .7l.9.6c.3.2.7.5 1 .7l.9.6c.3.2.7.5 1 .7l.9.6c.3.2.7.5 1 .7.3.2.6.4.8.6.3.2.7.5 1 .7.3.2.5.4.8.6.3.2.7.5 1 .7.3.2.5.4.8.6.3.2.7.5 1 .7.3.2.5.4.8.6.3.2.7.5 1 .7.2.2.5.4.7.5.3.3.7.5 1 .8.2.2.5.3.7.5.3.3.7.5 1 .8.2.2.4.3.6.5.4.3.7.6 1.1.8.2.1.3.3.5.4 1.1.8 2.1 1.6 3.1 2.4.2.1.3.2.5.4.4.3.7.6 1.1.8l11.4-6.7s-.1 0-.1-.1c-.3-.3-.7-.5-1-.8-.2-.1-.3-.2-.5-.4-1-.8-2.1-1.6-3.1-2.4-.2-.1-.3-.3-.5-.4-.4-.3-.7-.6-1.1-.8-.2-.2-.4-.3-.6-.5-.3-.3-.7-.5-1-.8-.2-.2-.5-.3-.7-.5-.3-.2-.7-.5-1-.7-.2-.2-.5-.4-.7-.6-.3-.2-.6-.5-1-.7-.3-.2-.5-.4-.8-.6-.3-.2-.5-.4-.8-.6-.1 0-.1-.1-.2-.1-.3-.2-.5-.4-.8-.6-.3-.2-.7-.5-1-.7-.3-.2-.5-.4-.8-.6-.3-.2-.7-.5-1-.7-.3-.2-.6-.4-.8-.6-.3-.2-.7-.5-1-.7l-.9-.6c-.3-.2-.7-.5-1-.7l-.9-.6c-.3-.2-.7-.5-1-.7l-.9-.6c-.4-.2-.7-.5-1.1-.7l-.9-.6c-.4-.2-.7-.5-1.1-.7l-.9-.6c-.2-.1-.3-.2-.5-.3-.2-.1-.4-.3-.6-.4l-.9-.6c-.4-.3-.8-.5-1.1-.8l-.9-.6c-.4-.3-.8-.5-1.2-.8l-.9-.6c-.4-.3-.8-.6-1.3-.8l-.9-.6c-.5-.3-.9-.6-1.4-.9-.3-.2-.5-.4-.8-.5-.5-.4-1.1-.7-1.6-1.1-.2-.1-.4-.3-.6-.4-.7-.5-1.5-1-2.3-1.5-.2-.1-.4-.3-.6-.4-.5-.3-1-.7-1.5-1l-.1-.1c-.3-.2-.6-.4-.9-.5l-1.5-.9c-.3-.2-.6-.4-1-.6-.5-.3-.9-.6-1.4-.9-.3-.2-.7-.4-1-.6-.5-.3-.9-.6-1.4-.8-.4-.2-.7-.4-1.1-.7-.5-.3-.9-.6-1.4-.8-.4-.2-.7-.4-1.1-.7-.5-.3-.9-.6-1.4-.8-.4-.2-.7-.4-1.1-.7-.5-.3-.9-.6-1.4-.8-.4-.2-.7-.4-1.1-.7l-1.5-.9c-.4-.2-.7-.4-1.1-.7-.1-.1-.3-.2-.4-.2-.1-.1-.3-.2-.4-.2-1.4-.8-2.8-1.6-4.2-2.5-1.2-.7-2.3-1.3-3.4-2-.3-.2-.6-.4-.9-.5l-2.7-1.5c-.2-.1-.5-.3-.7-.4l-3.3-1.8c-.2-.1-.5-.3-.7-.4-.9-.5-1.7-.9-2.6-1.4-.2-.1-.3-.2-.5-.3-.2-.1-.3-.2-.5-.3-.3-.2-.7-.4-1-.5-.5-.2-.9-.5-1.4-.7-.3-.2-.7-.4-1-.5-.5-.2-.9-.5-1.4-.7-.3-.2-.6-.3-1-.5-.5-.2-.9-.5-1.4-.7-.3-.2-.6-.3-.9-.5-.5-.3-1-.5-1.5-.8-.2-.1-.5-.3-.8-.4-.7-.4-1.5-.8-2.2-1.1-.7-.4-1.4-.7-2.1-1.1-.2-.1-.5-.2-.7-.4l-1.2-.6c-.1 0-.1-.1-.2-.1-1.2-.6-2.3-1.1-3.4-1.7l-.6-.3c-1.1-.5-2.2-1.1-3.3-1.6-.2-.1-.4-.2-.5-.3l-3.3-1.5c-.1 0-.2-.1-.2-.1-1.1-.5-2.1-1-3.1-1.4-.1 0-.1-.1-.2-.1h-.1c-1-.5-2-.9-3-1.3-.2-.1-.3-.1-.5-.2-1-.4-1.9-.8-2.9-1.2-.2-.1-.3-.1-.5-.2-.9-.4-1.9-.8-2.8-1.2-.1 0-.2-.1-.3-.1-.9-.4-1.8-.7-2.7-1.1-.1 0-.1 0-.2-.1h-.1c-.7-.3-1.3-.5-1.9-.8-.2-.1-.3-.1-.5-.2-.5-.2-.9-.4-1.4-.5-.2-.1-.4-.2-.6-.2-.4-.2-.9-.3-1.3-.5-.2-.1-.4-.1-.6-.2-.6-.2-1.2-.4-1.8-.7l-11.4 6.7c.6.2 1.2.4 1.8.7.2.1.4.1.6.2.4.2.9.3 1.3.5.2.1.4.2.6.2.5.2.9.4 1.4.6.2.1.3.1.5.2.6.3 1.3.5 1.9.8.1 0 .2.1.2.1.9.4 1.8.7 2.7 1.1.1 0 .2.1.3.1.9.4 1.9.8 2.8 1.2.2.1.3.1.5.2.9.4 1.9.8 2.9 1.2.2.1.3.1.5.2 1 .4 2 .9 3 1.3.1 0 .2.1.3.1 1 .5 2.1.9 3.2 1.4.1 0 .1.1.2.1l3.3 1.5c.2.1.4.2.5.3 1.1.5 2.2 1 3.3 1.6l.6.3c1.1.5 2.3 1.1 3.4 1.7.4.2.9.4 1.3.7.2.1.5.2.7.4.7.3 1.4.7 2.1 1h.1c.7.4 1.5.7 2.2 1.1.2.1.5.3.8.4.5.3 1 .5 1.5.8.3.2.6.3.9.5.5.2.9.5 1.4.7.3.2.6.3 1 .5.5.2.9.5 1.4.7.3.2.7.4 1 .5.5.2.9.5 1.4.7.3.2.7.4 1 .6.3.2.7.4 1 .5.9.5 1.7.9 2.6 1.4.2.1.5.3.7.4l3.3 1.8c.2.1.5.3.7.4l2.7 1.5c.3.2.6.4.9.5 1.1.6 2.3 1.3 3.4 2 1.4.8 2.8 1.6 4.2 2.5.3.2.6.3.8.5.5-.1.8.1 1.2.4z"></path><path fill="#FFC861" d="M973.5 145.7c29.4 16.9 51.8 32.9 67.8 45.6.3 21.4 13.5 46.9 31.6 61.2.5 31.7.5 79.2-2.9 112.8-7.8 77.9-68.4 74.4-89.9 70.7-2.4-.4-5-1.4-7.5-2.9s-5.1-3.4-7.5-5.8c-21.4-21-81.8-87.4-89.2-174.1-3.2-37.4-2.9-84.7-2.3-115.8 18.1 6.6 31.4-3.6 31.9-24.5 16.2 5.8 38.7 15.8 68 32.8z"></path><path fill="#F03C3C" d="M971.3 206.4c-34.9-20.1-63.2-4-63.4 36.1-.1 40.1 28.1 88.9 62.9 109 34.9 20.1 63.2 4 63.4-36.1.2-40-28-88.8-62.9-109z"></path><path fill="#E9F0F7" d="M989.3 275.1c1.7 1 3.5 2.8 4.8 5.1 2.6 4.6 2.6 9.5 0 11l-45.6 26c-1.3.8-3.1.5-4.8-.5-1.7-1-3.5-2.8-4.8-5l-24.1-41.8c-2.6-4.6-2.6-9.5 0-11 1.3-.8 3.1-.5 4.8.5 1.7 1 3.5 2.8 4.8 5.1l19.4 33.5 40.8-23.3c1.2-.8 3-.6 4.7.4z"></path><path fill="#114077" d="M1032.9 329.6c.2-.8.3-1.6.4-2.4.2-1 .4-2 .5-3.1v-.7c.3-2.6.5-5.2.5-8v-2.5c0-1.3-.1-2.7-.2-4 0-.4 0-.9-.1-1.3-.2-2.1-.4-4.1-.7-6.2 0-.2-.1-.5-.1-.7-.1-.7-.3-1.5-.4-2.2-.3-1.7-.6-3.4-1-5.1-.2-.9-.4-1.7-.6-2.6-.2-.7-.3-1.5-.5-2.2-.2-.7-.4-1.3-.6-2-.4-1.4-.8-2.9-1.3-4.3-.4-1.3-.8-2.5-1.3-3.8-.5-1.4-1-2.9-1.6-4.3-.3-.7-.5-1.4-.8-2.1-.3-.7-.6-1.4-.9-2-.4-.9-.7-1.8-1.1-2.6-.7-1.6-1.5-3.2-2.3-4.8-.4-.8-.7-1.6-1.1-2.3-1.1-2.1-2.2-4.2-3.3-6.2-.1-.2-.3-.5-.4-.7-1.3-2.3-2.7-4.5-4.1-6.7-.4-.7-.9-1.3-1.3-2-1-1.5-2.1-3-3.1-4.5-.6-.8-1.1-1.5-1.7-2.3-1-1.4-2.1-2.7-3.2-4l-1.8-2.1c-1.2-1.4-2.4-2.8-3.6-4.1-.5-.5-1-1.1-1.5-1.6-.1-.2-.3-.3-.4-.5-.7-.8-1.5-1.5-2.3-2.2-1.1-1.1-2.2-2.2-3.3-3.2-.9-.8-1.9-1.6-2.8-2.4-1.1-1-2.2-1.9-3.4-2.9-.2-.2-.4-.3-.6-.5-1.7-1.3-3.4-2.6-5.1-3.8 0 0-.1 0-.1-.1-1.7-1.2-3.4-2.3-5.1-3.3-.4-.3-.9-.5-1.3-.8-2-1.1-3.9-2.1-5.8-3-.4-.2-.9-.4-1.3-.6l-1.2-.6c-1.2-.5-2.4-.9-3.6-1.4-.4-.1-.7-.3-1.1-.4-1.7-.6-3.4-1.1-5-1.4-.2 0-.3 0-.5-.1-.8-.2-1.5-.3-2.2-.4-1.1-.2-2.3-.4-3.4-.5-.8-.1-1.5-.1-2.3-.1-.7 0-1.5-.1-2.2-.1-.3 0-.6.1-1 .1-.6 0-1.2.1-1.8.1-1.1.1-2.1.2-3.2.4-.6.1-1.2.2-1.7.3-1.1.2-2.1.6-3.1.9-.5.2-1 .3-1.4.5-1.4.6-2.8 1.2-4.2 2l-16.8 9.7c1.3-.8 2.7-1.4 4.2-2 .5-.2.9-.3 1.4-.5 1-.3 2-.7 3.1-.9.6-.1 1.1-.2 1.7-.3 1-.2 2.1-.3 3.2-.4.6 0 1.2-.1 1.8-.1 1 0 2.1 0 3.2.1.8 0 1.5.1 2.3.1 1.1.1 2.3.3 3.4.5.7.1 1.5.2 2.2.4 1.8.4 3.6.9 5.5 1.5.3.1.7.3 1.1.4 1.6.6 3.2 1.2 4.8 1.9.4.2.9.4 1.3.6 1.9.9 3.8 1.9 5.8 3 2.1 1.2 4.3 2.6 6.4 4 0 0 .1 0 .1.1 1.9 1.3 3.8 2.8 5.7 4.3 1.1.9 2.2 1.9 3.3 2.9.9.8 1.9 1.6 2.8 2.5 1.1 1 2.2 2.1 3.3 3.2l2.7 2.7c.5.5 1 1.1 1.5 1.6 1.2 1.3 2.4 2.7 3.6 4.1l1.8 2.1c1.1 1.3 2.1 2.7 3.2 4 .6.7 1.1 1.5 1.7 2.3 1.1 1.5 2.1 3 3.1 4.5.4.7.9 1.3 1.3 2 1.4 2.2 2.8 4.4 4.1 6.7.1.2.3.5.4.8 1.2 2 2.3 4.1 3.3 6.2.4.8.8 1.5 1.1 2.3.8 1.6 1.5 3.2 2.3 4.8.4.9.8 1.7 1.1 2.6.6 1.4 1.1 2.7 1.7 4.1.6 1.4 1.1 2.8 1.6 4.3.4 1.3.9 2.5 1.3 3.8.5 1.4.9 2.9 1.3 4.3s.8 2.8 1.1 4.2c.2.9.4 1.7.6 2.6.4 1.7.7 3.4 1 5.1.1.7.3 1.5.4 2.2.4 2.3.6 4.6.8 6.9 0 .4 0 .9.1 1.3.2 2.2.3 4.4.3 6.6 0 2.8-.2 5.4-.5 8-.1 1.3-.3 2.6-.6 3.8-.1.8-.2 1.6-.4 2.4-.3 1.4-.7 2.8-1.1 4.2-.2.5-.3 1.1-.4 1.6-.1.3-.3.7-.4 1-.6 1.8-1.3 3.5-2.1 5.1-.3.6-.7 1.2-1 1.8-.7 1.2-1.4 2.4-2.2 3.5-.4.6-.8 1.1-1.3 1.7-.9 1.1-1.8 2-2.7 2.9-.4.4-.8.9-1.3 1.2-1.4 1.2-2.9 2.3-4.5 3.3l16.8-9.7c1.6-.9 3.1-2.1 4.5-3.3.4-.4.9-.8 1.3-1.2.9-.9 1.9-1.9 2.7-2.9.4-.5.9-1.1 1.3-1.7.8-1.1 1.5-2.3 2.2-3.5.3-.6.7-1.2 1-1.8.8-1.6 1.5-3.3 2.1-5.1.1-.3.2-.5.3-.8v-.2c.2-.5.3-1.1.4-1.6.6-1.6 1-2.9 1.3-4.4z"></path><path fill="#5386B4" d="M954.6 216.2c34.9 20.1 63.1 68.9 62.9 109-.1 40.1-28.5 56.2-63.4 36.1s-63.1-68.9-62.9-109c.1-40.1 28.5-56.3 63.4-36.1zm39.5 75c2.7-1.5 2.7-6.4 0-11-1.3-2.3-3.1-4-4.8-5.1-1.7-1-3.5-1.2-4.8-.5l-40.8 23.3-19.4-33.5c-1.3-2.3-3.1-4-4.8-5.1-1.7-1-3.5-1.2-4.8-.5-2.7 1.5-2.7 6.5 0 11l24.1 41.8c1.3 2.3 3 4 4.8 5 1.7 1 3.5 1.2 4.8.5l45.7-25.9z"></path><path fill="#0C3461" d="m1296.4 1379-202.8-117.1c-23-13.3-60.3-13.3-83.1 0-22.9 13.3-22.8 34.9.3 48.2l202.8 117.1c23 13.3 60.3 13.3 83.1 0s22.8-34.9-.3-48.2z" opacity=".5"></path><path fill="#F9C166" d="M1003 1024.8c-.9-1-1.7-2-2.4-3-1.4-2-2.5-4.1-3.2-6.3-.7-2.1-1.1-4.3-1.1-6.5l-.8 274.6c0 8.6 5.7 17.3 17.1 23.9l.8-274.6c-4.2-2.3-7.7-5.1-10.4-8.1zM1312.2 1125.9c0 .3 0 .6-.1.9 0 .3-.1.5-.1.8 0 .3-.1.6-.1.9 0 .3-.1.5-.2.8-.1.3-.1.6-.2.8-.1.3-.1.5-.2.8-.1.3-.2.6-.3.8-.1.3-.2.5-.3.7-.1.3-.2.6-.4.9-.1.2-.2.5-.3.7-.1.3-.3.6-.4.9-.1.2-.3.5-.4.7-.2.3-.4.7-.6 1-.1.2-.3.4-.4.6-.3.4-.5.8-.8 1.1-.1.2-.2.3-.4.5l-1.5 1.8-.4.4-1.3 1.3-.6.6c-.3.2-.6.5-.8.7-.3.2-.5.4-.8.7-.3.2-.6.5-.9.7l-.9.6c-.3.2-.7.5-1 .7l-.9.6c-.3.2-.7.4-1.1.7-.4.3-.9.6-1.3.8l-3.9 2.1c-.4.2-.7.3-1.1.5-1.2.6-2.4 1.1-3.7 1.6-.2.1-.3.1-.5.2-1.4.5-2.8 1-4.2 1.4l-3 .9c-.8.2-1.5.4-2.3.6-1.1.3-2.1.5-3.2.7-.8.2-1.6.3-2.3.5-.3.1-.7.1-1 .2-1.3.2-2.7.4-4 .6-.4 0-.8.1-1.2.1-1.6.2-3.1.3-4.7.4h-.9c-1.1.1-2.1.1-3.2.1h-3.2c-.9 0-1.8 0-2.7-.1-1 0-2-.1-2.9-.2-.9-.1-1.8-.1-2.7-.2-1-.1-1.9-.2-2.9-.3-.9-.1-1.7-.2-2.6-.4-1-.2-2.1-.3-3.1-.5-1.1-.2-2.1-.4-3.2-.6-.3-.1-.5-.1-.8-.2-1.5-.4-2.9-.7-4.4-1.2-.4-.1-.8-.3-1.2-.4-1.2-.4-2.4-.8-3.5-1.2-.3-.1-.7-.2-1-.4-1.1-.4-2.1-.9-3.1-1.3-.5-.2-1-.4-1.5-.7-1.5-.7-2.9-1.4-4.3-2.2l-.8 274.6c1.4.8 2.8 1.5 4.3 2.2.5.2 1 .4 1.5.7.9.4 1.7.8 2.6 1.1.2.1.3.1.5.2.3.1.7.2 1 .4 1.2.4 2.3.8 3.5 1.2.4.1.8.3 1.2.4.3.1.5.2.8.3 1.2.3 2.4.6 3.5.9.3.1.5.1.8.2.6.1 1.2.3 1.7.4.5.1 1 .2 1.4.3 1 .2 2 .4 3.1.5.4.1.8.2 1.2.2.5.1.9.1 1.4.2 1 .1 1.9.2 2.9.3.5 0 .9.1 1.4.2.4 0 .9 0 1.3.1 1 .1 2 .1 2.9.2.5 0 1 .1 1.5.1h6c.5 0 1.1-.1 1.6-.1h.9c1.3-.1 2.6-.2 4-.3.3 0 .5-.1.8-.1.4 0 .8-.1 1.2-.1 1.3-.2 2.7-.4 4-.6.3-.1.7-.1 1-.2.2 0 .3 0 .5-.1.6-.1 1.2-.3 1.9-.4 1.1-.2 2.1-.4 3.2-.7.8-.2 1.5-.4 2.3-.6 1-.3 2-.5 3-.9.2-.1.4-.1.6-.2 1.2-.4 2.4-.8 3.5-1.2.2-.1.3-.1.5-.2 1.3-.5 2.5-1 3.7-1.6.4-.2.7-.3 1.1-.5 1.3-.6 2.7-1.3 3.9-2.1.2-.1.5-.3.7-.4.2-.1.4-.3.6-.4.4-.2.7-.4 1.1-.7l.9-.6c.3-.2.7-.5 1-.7l.9-.6c.3-.2.6-.5.9-.7.3-.2.5-.4.8-.7.3-.2.6-.5.8-.7l.3-.3.3-.3c.5-.4.9-.9 1.3-1.3l.4-.4 1.5-1.8s0-.1.1-.1c.1-.1.2-.3.3-.4.3-.4.6-.7.8-1.1.1-.2.3-.4.4-.6.2-.3.4-.7.6-1 .1-.1.1-.2.2-.3.1-.1.1-.3.2-.4.2-.3.3-.6.4-.9.1-.2.2-.5.3-.7.1-.3.3-.6.4-.9.1-.1.1-.3.2-.4 0-.1.1-.2.1-.4.1-.3.2-.6.3-.8.1-.3.2-.5.2-.8.1-.3.1-.6.2-.8 0-.2.1-.3.1-.5v-.3c.1-.3.1-.6.1-.9 0-.3.1-.5.1-.8 0-.3 0-.6.1-.9v-1l.8-274.6c.3.3.3.6.2.9z"></path><path fill="#F89D1F" d="m1295.2 1101-200-115.5c-22.7-13.1-59.4-13.1-82 0s-22.5 34.4.3 47.5l200 115.5c22.7 13.1 59.4 13.1 82 0 22.5-13.1 22.4-34.4-.3-47.5z"></path><path fill="#FBC977" d="m1213.5 1148.5-.8 274.6-200-115.5.8-274.6z"></path><path fill="#E9F0F7" d="M1091.6 889.7c0 .6-.1 1.2-.2 1.9-.1.6-.3 1.2-.5 1.8-.2.6-.5 1.2-.9 1.8-.4.7-.8 1.3-1.3 1.9-.6.7-1.3 1.5-2 2.2-1.2 1.1-2.5 2.1-4.1 3-.1.1-.3.2-.4.2-2.2 1.3-4.6 2.3-7.1 3.1-2 .6-4 1.1-6.1 1.5-1.4.2-2.7.4-4.1.6-1.2.1-2.4.2-3.6.2h-3.3c-1.1 0-2.1-.1-3.2-.2s-2.1-.2-3.2-.4-2.2-.3-3.2-.6c-1.1-.2-2.3-.5-3.4-.8-1.4-.4-2.7-.8-3.9-1.3-1.6-.7-3.2-1.4-4.7-2.2-6.4-3.7-9.6-8.5-9.6-13.4l-.6 127.5c0 4.8 3.2 9.7 9.6 13.4 1.5.8 3 1.6 4.7 2.2 1.3.5 2.6.9 3.9 1.3 1.1.3 2.2.6 3.4.8 1.1.2 2.1.4 3.2.6 1 .1 2.1.3 3.2.4 1.1.1 2.1.1 3.2.2h3.3c1.2 0 2.4-.1 3.6-.2 1.4-.1 2.8-.3 4.1-.6 2.1-.4 4.2-.9 6.1-1.5 2.6-.8 4.9-1.9 7.1-3.1.1-.1.3-.2.4-.2 1.6-.9 2.9-2 4.1-3 .8-.7 1.4-1.4 2-2.2.5-.6.9-1.3 1.3-1.9l.9-1.8c.2-.6.4-1.2.5-1.8.1-.6.2-1.2.2-1.9v-.3l.6-127.5v.3z"></path><path fill="#AEC7E6" d="m1091.6 889.7-.6 126.5v1c0 .6-.1 1.2-.2 1.9-.1.6-.3 1.2-.5 1.8-.2.6-.5 1.2-.9 1.8-.2.3-.4.7-.6 1-.2.3-.5.6-.7.9-.4.6-.9 1.1-1.5 1.6l-.5.5c-.7.6-1.4 1.2-2.1 1.7-.6.5-1.3.9-2 1.3-.1.1-.3.1-.4.2-2.2 1.2-4.6 2.3-7.1 3.1-.5.2-1 .3-1.5.5-1.5.4-3.1.8-4.6 1.1-.2 0-.3.1-.5.1-.5.1-.9.2-1.4.2h-.2c-.7.1-1.3.2-2 .2-.3 0-.6 0-.9.1-.6.1-1.2.1-1.8.1-.3 0-.6 0-.9.1h-3.3c-1.1 0-2.1-.1-3.2-.2s-2.1-.2-3.1-.3c-1.1-.1-2.2-.3-3.2-.6-.6-.1-1.1-.2-1.7-.4-.6-.1-1.1-.3-1.7-.4-.7-.2-1.3-.4-2-.6-.7-.2-1.3-.5-1.9-.7-.7-.3-1.5-.6-2.2-.9-.3-.1-.6-.3-.9-.4-.3-.2-.7-.3-1-.5V902.6c1.5.9 3 1.6 4.7 2.3 1.3.5 2.6.9 3.9 1.3 1.1.3 2.2.6 3.4.8 1 .2 2.1.4 3.2.6 1 .1 2.1.3 3.2.4 1.1.1 2.1.1 3.2.2h3.3c1.2 0 2.4-.1 3.6-.2 1.4-.1 2.8-.3 4.1-.6 2.1-.4 4.2-.9 6.1-1.5 2.5-.8 4.9-1.9 7.1-3.1.1 0 .1-.1.2-.1s.1-.1.2-.1c.4-.2.8-.5 1.1-.7 1.1-.7 2.1-1.5 3-2.3.8-.7 1.4-1.4 2-2.2 0-.1.1-.1.1-.2.4-.5.7-1 1-1.6 0-.1.1-.1.1-.2l.9-1.8c.1-.2.2-.5.2-.7 0-.1 0-.1.1-.2 0-.2.1-.3.1-.5 0-.1.1-.3.1-.5.1-.3.1-.5.1-.8 0-.5.1-.8.1-1.2z"></path><path fill="#DCDCDC" d="M1082 876.1c12.7 7.3 12.8 19.2.2 26.6-12.6 7.3-33.2 7.3-45.9 0-12.7-7.3-12.8-19.2-.1-26.6 12.6-7.4 33.1-7.4 45.8 0z"></path><path fill="#E9F0F7" d="M1281.8 998.8c0 .6-.1 1.2-.2 1.9-.1.6-.3 1.2-.5 1.8-.2.6-.5 1.2-.9 1.8-.4.7-.8 1.3-1.3 1.9-.6.7-1.3 1.5-2 2.2-1.2 1.1-2.5 2.1-4.1 3-.1.1-.3.2-.4.2-2.2 1.3-4.6 2.3-7.1 3.1-2 .6-4 1.1-6.1 1.5-1.4.2-2.7.4-4.1.6-1.2.1-2.4.2-3.6.2h-3.3c-1.1 0-2.1-.1-3.2-.2s-2.1-.2-3.2-.4-2.2-.3-3.2-.6c-1.1-.2-2.3-.5-3.4-.8-1.4-.4-2.7-.8-3.9-1.3-1.6-.7-3.2-1.4-4.7-2.2-6.4-3.7-9.6-8.5-9.6-13.4l-.6 127.5c0 4.8 3.2 9.7 9.6 13.4 1.5.8 3 1.6 4.7 2.2 1.3.5 2.6.9 3.9 1.3 1.1.3 2.2.6 3.4.8 1.1.2 2.1.4 3.2.6 1 .1 2.1.3 3.2.4 1.1.1 2.1.1 3.2.2h3.3c1.2 0 2.4-.1 3.6-.2 1.4-.1 2.8-.3 4.1-.6 2.1-.4 4.2-.9 6.1-1.5 2.6-.8 4.9-1.9 7.1-3.1.1-.1.3-.2.4-.2 1.6-.9 2.9-2 4.1-3 .8-.7 1.4-1.4 2-2.2.5-.6.9-1.3 1.3-1.9l.9-1.8c.2-.6.4-1.2.5-1.8.1-.6.2-1.2.2-1.9v-.3l.6-127.5v.3z"></path><path fill="#AEC7E6" d="M1226.5 1011.7c-6.4-3.7-9.6-8.5-9.6-13.4l-.6 127.5c0 4.8 3.2 9.7 9.6 13.4l.6-127.5z"></path><path fill="#DCDCDC" d="M1272.2 985.1c12.7 7.3 12.8 19.2.2 26.6-12.6 7.3-33.2 7.3-45.9 0-12.7-7.3-12.8-19.2-.1-26.6 12.6-7.3 33.1-7.3 45.8 0z"></path><path fill="#DBDBDB" d="M1082 876.1c12.7 7.3 12.8 19.1.1 26.5-12.6 7.3-33.2 7.4-45.9.1-12.7-7.3-12.8-19.1-.2-26.5 12.8-7.3 33.3-7.4 46-.1zM1272.2 985.2c12.7 7.3 12.8 19.1.1 26.5-12.6 7.3-33.2 7.4-45.9.1-12.7-7.3-12.8-19.1-.1-26.5 12.7-7.4 33.2-7.4 45.9-.1z"></path><path fill="#E9F0F7" d="M1281.6 1000.3v-.5c.1-.4.1-.9.1-1.3v.2-3.4.2c0-3.1-.2-6.6-.4-9.4-.1-.7-.1-1.3-.2-1.9-.2-2.6-.5-5.3-.9-8.4v-.1c0-.1 0-.3-.1-.5-.2-1.8-.4-3.3-.6-4.8-4.7-40.9-22.8-76.9-45.7-105.6-5.9-8-12.3-15.7-19.2-22.9-2.1-2.2-8.4-8.9-16.9-16.1-2.5-2.1-5.9-4.9-8.5-6.8-.8-.6-1.6-1.2-2.5-1.8-9.1-7.2-18.2-12.8-27-16.3-.2-.1-.5-.2-.7-.3-.1-.1-.3-.2-.5-.2l-.5-.2c-1.3-.6-2.6-1.2-3.9-1.7-.5-.2-1-.4-1.4-.6-.9-.4-1.8-.7-2.6-1.1-1.3-.5-2.8-1-4.3-1.6l.9.3-1.9-.6c-.2-.1-.5-.1-.7-.2-2.2-.7-4.5-1.4-6.5-1.9-2.3-.7-5.4-1.2-7.8-1.8-4-.9-9.4-1.3-13.4-1.6-.2 0-2.7-.2-6.6-.1h-.4c-3 .1-4.3.1-6.6.4-.3 0-.6.1-.9.1-1.4.1-3 .4-4.6.7.1 0 .2 0 .3-.1l-2.1.4-1.6.4c-1.7.3-3.3.7-4.7 1.1-.1 0-.6.2-1.6.4-8.4 2.3-16.3 6.1-23.4 11.4 0 0-.1 0-.1.1-.7.5-1.4 1.1-2.1 1.6-1.1.8-2.2 1.7-3.1 2.5-1.6 1.4-3.8 3.3-5.2 4.8-1.3 1.3-2.1 2.2-3.1 3.3-.4.5-.9 1-1.2 1.4-.3.4-.6.8-1 1.3-.8 1-1.7 2.2-3 3.9l-2.7 4.1c-.3.5-.6 1-.9 1.4-.6.9-1.2 1.9-1.8 3-5.1 8.8-8.2 18.3-10.2 27.2-.1.2-.1.4-.1.6-.8 3.4-1.6 7.9-2 11.4-.1 1-.2 2.1-.3 3.3-.2 2.1-.4 4.2-.6 5.9-.1 2.9-.2 6.7-.3 9.6 0 4.8 3.2 9.6 9.6 13.3 0-30.2 10.6-51.4 27.7-61.4 17.2-10 41-8.6 67.3 6.4 52.5 30.1 95.1 103.5 95.1 164 .6.4 1.3.7 2 1.1.1 0 .1 0 .2.1 0 0 .1 0 .1.1h.1c.1 0 .1.1.2.1 0 0 .1 0 .1.1.1 0 .1.1.2.1.1.1.2.1.4.2.1 0 .1.1.2.1s.2.1.2.1c.1.1.3.1.4.2.1 0 .2.1.3.1.1 0 .2.1.3.1.1 0 .2.1.2.1.1 0 .2.1.4.1.1 0 .2.1.3.1.1 0 .2.1.3.1.1 0 .2.1.4.1.2.1.4.1.6.2.1 0 .2.1.3.1h.1c.1 0 .2.1.4.1.2.1.4.1.5.2h.1c.1 0 .1 0 .2.1h.1c.1 0 .2.1.4.1.1 0 .2.1.3.1.2 0 .3.1.5.1s.4.1.6.1c.1 0 .3.1.4.1h.5c.1 0 .3.1.4.1h.4c.3.1.6.1.9.2h.5c.2 0 .5.1.7.1.2 0 .5.1.7.1H1241.9c.2 0 .4 0 .6.1.2 0 .3 0 .5.1h9.7c.4 0 .9-.1 1.3-.1h.4c.2 0 .4 0 .6-.1.3 0 .6-.1 1-.1.6-.1 1.3-.2 1.9-.3.2 0 .4-.1.6-.1h.1c.1 0 .2 0 .3-.1.6-.1 1.3-.2 1.9-.4.3-.1.6-.1.8-.2.9-.2 1.8-.4 2.6-.7 2.8-.9 5.5-2 7.8-3.4l.9-.6v.1c.2-.2.4-.3.7-.5.3-.2.6-.4.9-.7.4-.3.7-.5 1-.8.3-.2.6-.5.8-.7l.3-.3 1-1 .1-.1c.1-.1.1-.2.2-.2.1-.1.2-.3.3-.4.1-.1.2-.3.3-.4v-.1c.1-.1.2-.3.3-.4.1-.1.2-.2.2-.3.1-.1.2-.2.2-.3l.3-.6c0-.1.1-.2.1-.2 0-.1.1-.2.1-.2 0-.1.1-.2.1-.3v-.2c.1-.1.1-.3.2-.4.1-.2.2-.4.2-.5v-.1s0-.1.1-.1c0-.1 0-.1.1-.2 0-.1 0-.1.1-.2 0-.1.1-.2.1-.3 0-.1.1-.3.1-.4 0-.2.1-.4.1-.6v-.2c.8.5.8.5.8.4 0 .1 0 0 0 0zm-136.3-205.4-.9-.3c.4.2.6.3.9.3z"></path><path fill="#FFF" d="M1098 790.3h-.1l.9-.2-.8.2z"></path><path fill="#E6E6E6" d="M1131.4 847.8c-26.3-15.1-50.1-16.4-67.3-6.4-17.1 10-27.7 31.2-27.7 61.4.6.4 1.3.7 2 1 .1 0 .1 0 .2.1l.1.1h.1c.1 0 .1.1.2.1 0 0 .1 0 .1.1.1 0 .1.1.2.1.1.1.2.1.4.2.1 0 .1.1.2.1s.2.1.2.1c.1.1.3.1.4.2.1 0 .2.1.3.1.1 0 .2.1.3.1.1 0 .2.1.3.1.1 0 .2.1.4.1.1 0 .2.1.3.1.1 0 .2.1.3.1.1 0 .2.1.4.1.2.1.4.1.6.2.1 0 .2.1.3.1h.1c.1 0 .2.1.4.1.2.1.4.1.5.2h.1c.1 0 .1 0 .2.1h.1c.1 0 .2.1.4.1.1 0 .2.1.3.1.2 0 .3.1.5.1s.4.1.6.1c.1 0 .3.1.4.1h.5c.1 0 .3.1.4.1h.4c.3.1.6.1.9.2h.5c.2 0 .5.1.7.1.2 0 .5.1.7.1H1052.2c.2 0 .4 0 .6.1.2 0 .3 0 .5.1h9.6c.4 0 .9-.1 1.3-.1h.4c.2 0 .4 0 .6-.1.3 0 .6-.1 1-.1.6-.1 1.3-.2 1.9-.3.2 0 .4-.1.6-.1h.1c.1 0 .2 0 .3-.1.6-.1 1.3-.2 1.9-.4.3-.1.6-.1.8-.2.9-.2 1.8-.4 2.6-.7 2.8-.9 5.5-2 7.8-3.4.3-.2.6-.4.8-.5h.1c.2-.2.4-.3.7-.5.3-.2.6-.4.9-.7.4-.3.7-.5 1-.8.3-.2.6-.5.8-.7l.3-.3 1-1 .1-.1c.1-.1.1-.2.2-.2.1-.1.2-.3.3-.4.1-.1.2-.3.3-.4v-.1c.1-.1.2-.3.3-.4.1-.1.2-.2.2-.3.1-.1.2-.2.2-.3l.3-.6c0-.1.1-.2.1-.2 0-.1.1-.2.1-.2 0-.1.1-.2.1-.3v-.2c.1-.1.1-.3.2-.4.1-.2.2-.4.2-.5v-.1s0-.1.1-.1c0-.1 0-.1.1-.2 0-.1 0-.1.1-.2 0-.1.1-.2.1-.3 0-.1.1-.3.1-.4 0-.2.1-.4.1-.6V890.1c.1-.4.1-.9.1-1.3v.2-.2c0-.9 0-1.8.1-2.7 0-.7.1-1.3.1-2 .1-2.1.3-4 .5-5.8v-.4c.1-.9.3-1.7.4-2.6.3-1.3.6-2.8.9-4 .1-.3.1-.5.2-.8l.9-2.9c.5-1.3 1.2-2.9 1.7-4.2.1-.1.1-.2.2-.3.2-.4.5-.9.7-1.3l.1-.1c1.9-3.1 3.9-5 5.8-6.2.1 0 .2-.1.3-.2 2.2-1.1 5.2-1.9 9.1-1.8.7 0 1.4.1 2 .1.4 0 .7.1 1.1.1h.1l.6.1c.8.1 1.6.3 2.5.4 1.2.3 2.5.6 3.6.9 3.5 1.1 7.6 2.7 12.1 5l3.4 1.8c2 1.1 4.5 2.8 6.4 4h.1l5.1 3.7 1.2.9c3.2 2.6 7.2 6 10.3 8.8.8.7 1.5 1.5 2.3 2.2l3.9 3.9c.2.2.4.4.5.6l5.3 5.9v.1c1.7 2 3.8 4.7 5.4 6.7l5.2 7c1.5 2.1 3.3 4.8 4.7 7 .2.2.3.5.5.7l4.3 7.1c1.3 2.3 3 5.4 4.3 7.7l3.9 7.9c1.1 2.4 2.5 5.6 3.5 8l3 7.9c0 .1 0 .1.1.2.8 2.3 1.8 5.4 2.6 7.8.1.2.1.4.2.6l1.6 5.7c3.8 15.1 4.2 26.1 4.4 31.3 0 4.8 3.2 9.6 9.6 13.3.6-59.6-42-133-94.5-163.1z"></path><path fill="#AEC7E6" d="M1131.4 847.8c-26.3-15.1-50.1-16.4-67.3-6.4-17.1 10-27.7 31.2-27.7 61.4.6.4 1.3.7 2 1 .1 0 .1 0 .2.1l.1.1h.1c.1 0 .1.1.2.1 0 0 .1 0 .1.1.1 0 .1.1.2.1.1.1.2.1.4.2.1 0 .1.1.2.1s.2.1.2.1c.1.1.3.1.4.2.1 0 .2.1.3.1.1 0 .2.1.3.1.1 0 .2.1.3.1.1 0 .2.1.4.1.1 0 .2.1.3.1.1 0 .2.1.3.1.1 0 .2.1.4.1.2.1.4.1.6.2.1 0 .2.1.3.1h.1c.1 0 .2.1.4.1.2.1.4.1.5.2h.1c.1 0 .1 0 .2.1h.1c.1 0 .2.1.4.1.1 0 .2.1.3.1.2 0 .3.1.5.1s.4.1.6.1c.1 0 .3.1.4.1h.5c.1 0 .3.1.4.1h.4c.3.1.6.1.9.2h.5c.2 0 .5.1.7.1.2 0 .5.1.7.1H1052.2c.2 0 .4 0 .6.1.2 0 .3 0 .5.1h9.6c.4 0 .9-.1 1.3-.1h.4c.2 0 .4 0 .6-.1.3 0 .6-.1 1-.1.6-.1 1.3-.2 1.9-.3.2 0 .4-.1.6-.1h.1c.1 0 .2 0 .3-.1.6-.1 1.3-.2 1.9-.4.3-.1.6-.1.8-.2.9-.2 1.8-.4 2.6-.7 2.8-.9 5.5-2 7.8-3.4.3-.2.6-.4.8-.5h.1c.2-.2.4-.3.7-.5.3-.2.6-.4.9-.7.4-.3.7-.5 1-.8.3-.2.6-.5.8-.7l.3-.3 1-1 .1-.1c.1-.1.1-.2.2-.2.1-.1.2-.3.3-.4.1-.1.2-.3.3-.4v-.1c.1-.1.2-.3.3-.4.1-.1.2-.2.2-.3.1-.1.2-.2.2-.3l.3-.6c0-.1.1-.2.1-.2 0-.1.1-.2.1-.2 0-.1.1-.2.1-.3v-.2c.1-.1.1-.3.2-.4.1-.2.2-.4.2-.5v-.1s0-.1.1-.1c0-.1 0-.1.1-.2 0-.1 0-.1.1-.2 0-.1.1-.2.1-.3 0-.1.1-.3.1-.4 0-.2.1-.4.1-.6V890.1c.1-.4.1-.9.1-1.3v.2-.2c0-.9 0-1.8.1-2.7 0-.7.1-1.3.1-2 .1-2.1.3-4 .5-5.8v-.4c.1-.9.3-1.7.4-2.6.3-1.3.6-2.8.9-4 .1-.3.1-.5.2-.8l.9-2.9c.5-1.3 1.2-2.9 1.7-4.2.1-.1.1-.2.2-.3.2-.4.5-.9.7-1.3l.1-.1c1.9-3.1 3.9-5 5.8-6.2.1 0 .2-.1.3-.2 2.2-1.1 5.2-1.9 9.1-1.8.7 0 1.4.1 2 .1.4 0 .7.1 1.1.1h.1l.6.1c.8.1 1.6.3 2.5.4 1.2.3 2.5.6 3.6.9 3.5 1.1 7.6 2.7 12.1 5l3.4 1.8c2 1.1 4.5 2.8 6.4 4h.1l5.1 3.7 1.2.9c3.2 2.6 7.2 6 10.3 8.8.8.7 1.5 1.5 2.3 2.2l3.9 3.9c.2.2.4.4.5.6l5.3 5.9v.1c1.7 2 3.8 4.7 5.4 6.7l5.2 7c1.5 2.1 3.3 4.8 4.7 7 .2.2.3.5.5.7l4.3 7.1c1.3 2.3 3 5.4 4.3 7.7l3.9 7.9c1.1 2.4 2.5 5.6 3.5 8l3 7.9c0 .1 0 .1.1.2.8 2.3 1.8 5.4 2.6 7.8.1.2.1.4.2.6l1.6 5.7c3.8 15.1 4.2 26.1 4.4 31.3 0 4.8 3.2 9.6 9.6 13.3.6-59.6-42-133-94.5-163.1z"></path><path fill="#DB8918" d="M1113.2 1143.8c18.5 10.7 33.5 36.6 33.4 57.9 0 16-8.6 24.9-20.8 23.7l-.2 82.5c0 8.2-5.8 11.5-12.9 7.4-7.1-4.1-12.9-14.1-12.8-22.3l.2-82.5c-12.1-12.8-20.6-31.5-20.6-47.5.1-21.4 15.2-29.9 33.7-19.2z"></path><path fill="#F89D1F" d="M1113.2 1143.8c-18.5-10.7-33.6-2.1-33.7 19.2 0 16 8.4 34.7 20.6 47.5l43.9-25.4c-5-16.8-16.9-33.3-30.8-41.3zM1144.1 1214.8l-18.2 10.5c8.2.8 14.8-3 18.2-10.5z"></path></svg>